#VRML V2.0 utf8
# LCD_Nokia_5110-3310_bare_frame - Drawn by Somerled Design (Kevin Murphy) with Mildrew (Grok Bot), CERN-OHL-S-2.0
DEF frame Shape {
 appearance Appearance { material Material { diffuseColor 0.600 0.610 0.640 specularColor 0.5 0.5 0.5 shininess 0.6 } }
 geometry IndexedFaceSet { creaseAngle 0.5
  coord Coordinate { point [
   -7.76181 -13.41339 0.00000,
   -7.76181 -13.41339 1.73228,
   -7.76181 0.00000 0.00000,
   -7.76181 0.00000 1.73228,
   -7.76181 -1.53543 0.23622,
   -7.76181 -1.53543 0.39370,
   -7.76181 -0.43307 0.39370,
   -7.76181 -0.43307 0.23622,
   -7.76181 -9.40945 0.23622,
   -7.76181 -9.40945 0.39370,
   -7.76181 -8.30709 0.39370,
   -7.76181 -8.30709 0.23622,
   -8.05118 -8.30709 0.39370,
   -7.76181 -8.30709 0.39370,
   -8.05118 -9.40945 0.39370,
   -7.76181 -9.40945 0.39370,
   -8.05118 -9.40945 0.39370,
   -8.05118 -9.40945 -0.59055,
   -8.05118 -8.30709 -0.59055,
   -8.05118 -8.30709 0.39370,
   -8.05118 -9.40945 -0.59055,
   -8.05118 -8.30709 -0.59055,
   -7.89370 -9.40945 -0.59055,
   -7.89370 -8.30709 -0.59055,
   -7.89370 -9.40945 -0.59055,
   -7.89370 -9.40945 0.23622,
   -7.89370 -8.30709 -0.59055,
   -7.89370 -8.30709 0.23622,
   -7.89370 -8.30709 0.23622,
   -7.76181 -8.30709 0.23622,
   -7.89370 -8.30709 -0.59055,
   -8.05118 -8.30709 -0.59055,
   -8.05118 -8.30709 0.39370,
   -7.76181 -8.30709 0.39370,
   -7.89370 -8.30709 0.23622,
   -7.76181 -8.30709 0.23622,
   -7.89370 -9.40945 0.23622,
   -7.76181 -9.40945 0.23622,
   -7.89370 -9.40945 0.23622,
   -7.76181 -9.40945 0.23622,
   -7.89370 -9.40945 -0.59055,
   -8.05118 -9.40945 -0.59055,
   -8.05118 -9.40945 0.39370,
   -7.76181 -9.40945 0.39370,
   -7.89370 -0.43307 0.23622,
   -7.76181 -0.43307 0.23622,
   -7.89370 -0.43307 -0.59055,
   -8.05118 -0.43307 -0.59055,
   -8.05118 -0.43307 0.39370,
   -7.76181 -0.43307 0.39370,
   -8.05118 -1.53543 0.39370,
   -8.05118 -1.53543 -0.59055,
   -8.05118 -0.43307 -0.59055,
   -8.05118 -0.43307 0.39370,
   -8.05118 -1.53543 -0.59055,
   -8.05118 -0.43307 -0.59055,
   -7.89370 -1.53543 -0.59055,
   -7.89370 -0.43307 -0.59055,
   -7.89370 -1.53543 -0.59055,
   -7.89370 -1.53543 0.23622,
   -7.89370 -0.43307 -0.59055,
   -7.89370 -0.43307 0.23622,
   -7.89370 -0.43307 0.23622,
   -7.76181 -0.43307 0.23622,
   -7.89370 -1.53543 0.23622,
   -7.76181 -1.53543 0.23622,
   -8.05118 -0.43307 0.39370,
   -7.76181 -0.43307 0.39370,
   -8.05118 -1.53543 0.39370,
   -7.76181 -1.53543 0.39370,
   -7.89370 -1.53543 0.23622,
   -7.76181 -1.53543 0.23622,
   -7.89370 -1.53543 -0.59055,
   -8.05118 -1.53543 -0.59055,
   -8.05118 -1.53543 0.39370,
   -7.76181 -1.53543 0.39370,
   -7.76181 0.00000 0.00000,
   7.76181 0.00000 0.00000,
   -7.76181 0.00000 1.73228,
   7.76181 0.00000 1.73228,
   7.76181 -13.41339 0.00000,
   7.76181 -13.41339 1.73228,
   7.76181 0.00000 0.00000,
   7.76181 0.00000 1.73228,
   7.76181 -1.53543 0.23622,
   7.76181 -1.53543 0.39370,
   7.76181 -0.43307 0.39370,
   7.76181 -0.43307 0.23622,
   7.76181 -9.40945 0.23622,
   7.76181 -9.40945 0.39370,
   7.76181 -8.30709 0.39370,
   7.76181 -8.30709 0.23622,
   7.76181 -8.30709 0.39370,
   8.05118 -8.30709 0.39370,
   7.76181 -9.40945 0.39370,
   8.05118 -9.40945 0.39370,
   8.05118 -9.40945 -0.59055,
   8.05118 -9.40945 0.39370,
   8.05118 -8.30709 -0.59055,
   8.05118 -8.30709 0.39370,
   7.89370 -9.40945 -0.59055,
   7.89370 -8.30709 -0.59055,
   8.05118 -9.40945 -0.59055,
   8.05118 -8.30709 -0.59055,
   7.89370 -9.40945 -0.59055,
   7.89370 -9.40945 0.23622,
   7.89370 -8.30709 -0.59055,
   7.89370 -8.30709 0.23622,
   7.76181 -8.30709 0.23622,
   7.89370 -8.30709 0.23622,
   7.76181 -8.30709 0.39370,
   8.05118 -8.30709 0.39370,
   8.05118 -8.30709 -0.59055,
   7.89370 -8.30709 -0.59055,
   7.76181 -8.30709 0.23622,
   7.89370 -8.30709 0.23622,
   7.76181 -9.40945 0.23622,
   7.89370 -9.40945 0.23622,
   7.76181 -9.40945 0.23622,
   7.89370 -9.40945 0.23622,
   7.76181 -9.40945 0.39370,
   8.05118 -9.40945 0.39370,
   8.05118 -9.40945 -0.59055,
   7.89370 -9.40945 -0.59055,
   7.76181 -0.43307 0.23622,
   7.89370 -0.43307 0.23622,
   7.76181 -0.43307 0.39370,
   8.05118 -0.43307 0.39370,
   8.05118 -0.43307 -0.59055,
   7.89370 -0.43307 -0.59055,
   7.89370 -1.53543 -0.59055,
   7.89370 -1.53543 0.23622,
   7.89370 -0.43307 -0.59055,
   7.89370 -0.43307 0.23622,
   7.89370 -1.53543 -0.59055,
   7.89370 -0.43307 -0.59055,
   8.05118 -1.53543 -0.59055,
   8.05118 -0.43307 -0.59055,
   8.05118 -1.53543 -0.59055,
   8.05118 -1.53543 0.39370,
   8.05118 -0.43307 -0.59055,
   8.05118 -0.43307 0.39370,
   7.76181 -0.43307 0.23622,
   7.89370 -0.43307 0.23622,
   7.76181 -1.53543 0.23622,
   7.89370 -1.53543 0.23622,
   7.76181 -0.43307 0.39370,
   8.05118 -0.43307 0.39370,
   7.76181 -1.53543 0.39370,
   8.05118 -1.53543 0.39370,
   7.76181 -1.53543 0.23622,
   7.89370 -1.53543 0.23622,
   7.76181 -1.53543 0.39370,
   8.05118 -1.53543 0.39370,
   8.05118 -1.53543 -0.59055,
   7.89370 -1.53543 -0.59055,
   -7.76181 -13.41339 0.00000,
   -7.76181 0.00000 0.00000,
   7.76181 -13.41339 0.00000,
   7.76181 0.00000 0.00000,
   7.64370 -13.29528 0.00000,
   -7.64370 -13.29528 0.00000,
   -7.64370 -0.11811 0.00000,
   7.64370 -0.11811 0.00000,
   -7.64370 -13.29528 0.00000,
   -7.64370 -13.29528 1.61417,
   -7.64370 -0.11811 0.00000,
   -7.64370 -0.11811 1.61417,
   -7.64370 -13.29528 1.61417,
   -7.64370 -0.11811 1.61417,
   7.64370 -13.29528 1.61417,
   7.64370 -0.11811 1.61417,
   7.13189 -12.84252 1.61417,
   -7.13189 -12.84252 1.61417,
   -7.13189 -2.66535 1.61417,
   7.13189 -2.66535 1.61417,
   -7.13189 -12.84252 1.61417,
   -7.13189 -12.84252 1.73228,
   -7.13189 -2.66535 1.61417,
   -7.13189 -2.66535 1.73228,
   7.13189 -2.66535 1.61417,
   7.13189 -2.66535 1.73228,
   -7.13189 -2.66535 1.61417,
   -7.13189 -2.66535 1.73228,
   7.13189 -12.84252 1.61417,
   7.13189 -12.84252 1.73228,
   7.13189 -2.66535 1.61417,
   7.13189 -2.66535 1.73228,
   7.13189 -12.84252 1.61417,
   7.13189 -12.84252 1.73228,
   -7.13189 -12.84252 1.61417,
   -7.13189 -12.84252 1.73228,
   7.64370 -0.11811 0.00000,
   7.64370 -0.11811 1.61417,
   -7.64370 -0.11811 0.00000,
   -7.64370 -0.11811 1.61417,
   7.64370 -13.29528 0.00000,
   7.64370 -13.29528 1.61417,
   7.64370 -0.11811 0.00000,
   7.64370 -0.11811 1.61417,
   7.64370 -13.29528 0.00000,
   7.64370 -13.29528 1.61417,
   -7.64370 -13.29528 0.00000,
   -7.64370 -13.29528 1.61417,
   -7.76181 -13.41339 1.73228,
   -7.76181 0.00000 1.73228,
   7.76181 -13.41339 1.73228,
   7.76181 0.00000 1.73228,
   7.13189 -12.84252 1.73228,
   -7.13189 -12.84252 1.73228,
   -7.13189 -2.66535 1.73228,
   7.13189 -2.66535 1.73228,
   -7.76181 -13.41339 0.00000,
   7.76181 -13.41339 0.00000,
   -7.76181 -13.41339 1.73228,
   7.76181 -13.41339 1.73228 ] }
  coordIndex [
   6,2,7,-1,
   3,2,6,-1,
   4,7,2,-1,
   5,3,6,-1,
   10,5,4,-1,
   10,4,11,-1,
   10,3,5,-1,
   0,9,8,-1,
   1,10,9,-1,
   1,9,0,-1,
   0,4,2,-1,
   0,11,4,-1,
   0,8,11,-1,
   3,10,1,-1,
   13,12,14,-1,
   13,14,15,-1,
   16,18,17,-1,
   16,19,18,-1,
   23,20,21,-1,
   23,22,20,-1,
   25,24,26,-1,
   25,26,27,-1,
   28,30,31,-1,
   32,28,31,-1,
   33,29,28,-1,
   33,28,32,-1,
   35,36,34,-1,
   35,37,36,-1,
   38,41,40,-1,
   42,41,38,-1,
   43,38,39,-1,
   43,42,38,-1,
   44,46,47,-1,
   48,44,47,-1,
   49,45,44,-1,
   49,44,48,-1,
   50,52,51,-1,
   50,53,52,-1,
   57,54,55,-1,
   57,56,54,-1,
   59,58,60,-1,
   59,60,61,-1,
   63,64,62,-1,
   63,65,64,-1,
   67,66,68,-1,
   67,68,69,-1,
   70,73,72,-1,
   74,73,70,-1,
   75,70,71,-1,
   75,74,70,-1,
   79,77,76,-1,
   79,76,78,-1,
   86,87,82,-1,
   83,86,82,-1,
   84,82,87,-1,
   85,86,83,-1,
   90,84,85,-1,
   90,91,84,-1,
   90,85,83,-1,
   80,88,89,-1,
   81,89,90,-1,
   81,80,89,-1,
   80,82,84,-1,
   80,84,91,-1,
   80,91,88,-1,
   83,81,90,-1,
   93,92,94,-1,
   93,94,95,-1,
   97,96,98,-1,
   97,98,99,-1,
   103,100,101,-1,
   103,102,100,-1,
   105,106,104,-1,
   105,107,106,-1,
   109,112,113,-1,
   110,109,108,-1,
   111,109,110,-1,
   111,112,109,-1,
   115,116,114,-1,
   115,117,116,-1,
   119,123,122,-1,
   120,118,119,-1,
   121,120,119,-1,
   121,119,122,-1,
   125,128,129,-1,
   126,125,124,-1,
   127,125,126,-1,
   127,128,125,-1,
   131,132,130,-1,
   131,133,132,-1,
   137,134,135,-1,
   137,136,134,-1,
   139,138,140,-1,
   139,140,141,-1,
   143,144,142,-1,
   143,145,144,-1,
   147,146,148,-1,
   147,148,149,-1,
   151,155,154,-1,
   152,150,151,-1,
   153,152,151,-1,
   153,151,154,-1,
   162,156,157,-1,
   162,161,156,-1,
   158,161,160,-1,
   158,156,161,-1,
   159,160,163,-1,
   159,158,160,-1,
   159,162,157,-1,
   159,163,162,-1,
   165,164,166,-1,
   165,166,167,-1,
   174,173,168,-1,
   170,173,172,-1,
   170,168,173,-1,
   175,170,172,-1,
   171,175,174,-1,
   171,174,169,-1,
   169,174,168,-1,
   170,175,171,-1,
   177,176,178,-1,
   177,178,179,-1,
   180,183,182,-1,
   181,183,180,-1,
   185,186,184,-1,
   185,187,186,-1,
   188,190,191,-1,
   189,188,191,-1,
   193,194,192,-1,
   193,195,194,-1,
   197,198,196,-1,
   197,199,198,-1,
   201,200,202,-1,
   201,202,203,-1,
   210,204,209,-1,
   208,209,204,-1,
   206,208,204,-1,
   211,208,206,-1,
   207,210,211,-1,
   207,205,210,-1,
   205,204,210,-1,
   206,207,211,-1,
   215,212,213,-1,
   215,214,212,-1 ] }
}
DEF lightguide Shape {
 appearance Appearance { material Material { diffuseColor 0.940 0.940 0.920 specularColor 0.15 0.15 0.15 shininess 0.2 } }
 geometry IndexedFaceSet { creaseAngle 0.5
  coord Coordinate { point [
   -7.61811 -13.26772 0.82677,
   -7.61811 -11.02362 0.82677,
   -7.61811 -13.26772 0.00000,
   -7.61811 -11.02362 0.00000,
   -7.61811 -13.26772 0.82677,
   -7.61811 -11.02362 0.82677,
   7.61811 -13.26772 0.82677,
   7.61811 -11.02362 0.82677,
   6.88976 -11.02362 0.82677,
   6.88976 -9.44882 0.82677,
   7.61811 -9.44882 0.82677,
   7.61811 -5.90551 0.82677,
   6.88976 -5.90551 0.82677,
   6.88976 -4.33071 0.82677,
   7.61811 -4.33071 0.82677,
   7.61811 -1.81102 0.82677,
   -7.61811 -1.81102 0.82677,
   -7.61811 -4.33071 0.82677,
   -6.88976 -4.33071 0.82677,
   -6.88976 -5.90551 0.82677,
   -7.61811 -5.90551 0.82677,
   -7.61811 -9.44882 0.82677,
   -6.88976 -9.44882 0.82677,
   -6.88976 -11.02362 0.82677,
   -6.88976 -11.02362 0.00000,
   -6.88976 -11.02362 0.82677,
   -7.61811 -11.02362 0.00000,
   -7.61811 -11.02362 0.82677,
   -7.61811 -13.26772 0.00000,
   -7.61811 -11.02362 0.00000,
   7.61811 -13.26772 0.00000,
   7.61811 -11.02362 0.00000,
   6.88976 -11.02362 0.00000,
   6.88976 -9.44882 0.00000,
   7.61811 -9.44882 0.00000,
   7.61811 -5.90551 0.00000,
   6.88976 -5.90551 0.00000,
   6.88976 -4.33071 0.00000,
   7.61811 -4.33071 0.00000,
   7.61811 -1.81102 0.00000,
   -7.61811 -1.81102 0.00000,
   -7.61811 -4.33071 0.00000,
   -6.88976 -4.33071 0.00000,
   -6.88976 -5.90551 0.00000,
   -7.61811 -5.90551 0.00000,
   -7.61811 -9.44882 0.00000,
   -6.88976 -9.44882 0.00000,
   -6.88976 -11.02362 0.00000,
   7.14567 -12.79528 0.00000,
   7.14171 -12.84809 0.00000,
   7.12993 -12.89972 0.00000,
   7.11058 -12.94901 0.00000,
   7.08410 -12.99488 0.00000,
   7.05108 -13.03628 0.00000,
   7.01226 -13.07230 0.00000,
   6.96850 -13.10213 0.00000,
   6.92079 -13.12511 0.00000,
   6.87018 -13.14072 0.00000,
   6.81782 -13.14862 0.00000,
   6.76486 -13.14862 0.00000,
   6.71249 -13.14072 0.00000,
   6.66189 -13.12511 0.00000,
   6.61417 -13.10213 0.00000,
   6.57042 -13.07230 0.00000,
   6.53160 -13.03628 0.00000,
   6.49858 -12.99488 0.00000,
   6.47210 -12.94901 0.00000,
   6.45275 -12.89972 0.00000,
   6.44097 -12.84809 0.00000,
   6.43701 -12.79528 0.00000,
   6.44097 -12.74247 0.00000,
   6.45275 -12.69083 0.00000,
   6.47210 -12.64154 0.00000,
   6.49858 -12.59567 0.00000,
   6.53160 -12.55427 0.00000,
   6.57042 -12.51825 0.00000,
   6.61417 -12.48842 0.00000,
   6.66189 -12.46544 0.00000,
   6.71249 -12.44983 0.00000,
   6.76486 -12.44194 0.00000,
   6.81782 -12.44194 0.00000,
   6.87018 -12.44983 0.00000,
   6.92079 -12.46544 0.00000,
   6.96850 -12.48842 0.00000,
   7.01226 -12.51825 0.00000,
   7.05108 -12.55427 0.00000,
   7.08410 -12.59567 0.00000,
   7.11058 -12.64154 0.00000,
   7.12993 -12.69083 0.00000,
   7.14171 -12.74247 0.00000,
   -6.43701 -2.36220 0.00000,
   -6.44097 -2.41501 0.00000,
   -6.45275 -2.46665 0.00000,
   -6.47210 -2.51594 0.00000,
   -6.49858 -2.56181 0.00000,
   -6.53160 -2.60321 0.00000,
   -6.57042 -2.63923 0.00000,
   -6.61417 -2.66906 0.00000,
   -6.66189 -2.69204 0.00000,
   -6.71249 -2.70765 0.00000,
   -6.76486 -2.71554 0.00000,
   -6.81782 -2.71554 0.00000,
   -6.87018 -2.70765 0.00000,
   -6.92079 -2.69204 0.00000,
   -6.96850 -2.66906 0.00000,
   -7.01226 -2.63923 0.00000,
   -7.05108 -2.60321 0.00000,
   -7.08410 -2.56181 0.00000,
   -7.11058 -2.51594 0.00000,
   -7.12993 -2.46665 0.00000,
   -7.14171 -2.41501 0.00000,
   -7.14567 -2.36220 0.00000,
   -7.14171 -2.30939 0.00000,
   -7.12993 -2.25776 0.00000,
   -7.11058 -2.20847 0.00000,
   -7.08410 -2.16260 0.00000,
   -7.05108 -2.12120 0.00000,
   -7.01226 -2.08518 0.00000,
   -6.96850 -2.05535 0.00000,
   -6.92079 -2.03237 0.00000,
   -6.87018 -2.01676 0.00000,
   -6.81782 -2.00886 0.00000,
   -6.76486 -2.00886 0.00000,
   -6.71249 -2.01676 0.00000,
   -6.66189 -2.03237 0.00000,
   -6.61417 -2.05535 0.00000,
   -6.57042 -2.08518 0.00000,
   -6.53160 -2.12120 0.00000,
   -6.49858 -2.16260 0.00000,
   -6.47210 -2.20847 0.00000,
   -6.45275 -2.25776 0.00000,
   -6.44097 -2.30939 0.00000,
   -7.61811 -13.26772 0.00000,
   7.61811 -13.26772 0.00000,
   -7.61811 -13.26772 0.82677,
   7.61811 -13.26772 0.82677,
   -6.88976 -11.02362 0.00000,
   -6.88976 -11.02362 0.82677,
   -6.88976 -9.44882 0.00000,
   -6.88976 -9.44882 0.82677,
   -6.88976 -9.44882 0.00000,
   -6.88976 -9.44882 0.82677,
   -7.61811 -9.44882 0.00000,
   -7.61811 -9.44882 0.82677,
   -7.61811 -9.44882 0.82677,
   -7.61811 -5.90551 0.82677,
   -7.61811 -9.44882 0.00000,
   -7.61811 -5.90551 0.00000,
   -6.88976 -5.90551 0.00000,
   -6.88976 -5.90551 0.82677,
   -7.61811 -5.90551 0.00000,
   -7.61811 -5.90551 0.82677,
   -6.88976 -5.90551 0.00000,
   -6.88976 -5.90551 0.82677,
   -6.88976 -4.33071 0.00000,
   -6.88976 -4.33071 0.82677,
   -6.88976 -4.33071 0.00000,
   -6.88976 -4.33071 0.82677,
   -7.61811 -4.33071 0.00000,
   -7.61811 -4.33071 0.82677,
   -7.61811 -4.33071 0.82677,
   -7.61811 -1.81102 0.82677,
   -7.61811 -4.33071 0.00000,
   -7.61811 -1.81102 0.00000,
   -7.61811 -1.81102 0.00000,
   7.61811 -1.81102 0.00000,
   -7.61811 -1.81102 0.82677,
   7.61811 -1.81102 0.82677,
   7.61811 -4.33071 0.82677,
   7.61811 -1.81102 0.82677,
   7.61811 -4.33071 0.00000,
   7.61811 -1.81102 0.00000,
   7.61811 -4.33071 0.00000,
   6.88976 -4.33071 0.00000,
   6.88976 -4.33071 0.82677,
   7.61811 -4.33071 0.82677,
   6.88976 -5.90551 0.00000,
   6.88976 -5.90551 0.82677,
   6.88976 -4.33071 0.00000,
   6.88976 -4.33071 0.82677,
   7.61811 -5.90551 0.00000,
   6.88976 -5.90551 0.00000,
   6.88976 -5.90551 0.82677,
   7.61811 -5.90551 0.82677,
   7.61811 -9.44882 0.82677,
   7.61811 -5.90551 0.82677,
   7.61811 -9.44882 0.00000,
   7.61811 -5.90551 0.00000,
   7.61811 -9.44882 0.00000,
   6.88976 -9.44882 0.00000,
   6.88976 -9.44882 0.82677,
   7.61811 -9.44882 0.82677,
   6.88976 -11.02362 0.00000,
   6.88976 -11.02362 0.82677,
   6.88976 -9.44882 0.00000,
   6.88976 -9.44882 0.82677,
   7.61811 -11.02362 0.00000,
   6.88976 -11.02362 0.00000,
   6.88976 -11.02362 0.82677,
   7.61811 -11.02362 0.82677,
   7.61811 -13.26772 0.82677,
   7.61811 -11.02362 0.82677,
   7.61811 -13.26772 0.00000,
   7.61811 -11.02362 0.00000,
   7.14567 -12.79528 -0.31496,
   7.14171 -12.74247 -0.31496,
   7.12993 -12.69083 -0.31496,
   7.11058 -12.64154 -0.31496,
   7.08410 -12.59567 -0.31496,
   7.05108 -12.55427 -0.31496,
   7.01226 -12.51825 -0.31496,
   6.96850 -12.48842 -0.31496,
   6.92079 -12.46544 -0.31496,
   6.87018 -12.44983 -0.31496,
   6.81782 -12.44194 -0.31496,
   6.76486 -12.44194 -0.31496,
   6.71249 -12.44983 -0.31496,
   6.66189 -12.46544 -0.31496,
   6.61417 -12.48842 -0.31496,
   6.57042 -12.51825 -0.31496,
   6.53160 -12.55427 -0.31496,
   6.49858 -12.59567 -0.31496,
   6.47210 -12.64154 -0.31496,
   6.45275 -12.69083 -0.31496,
   6.44097 -12.74247 -0.31496,
   6.43701 -12.79528 -0.31496,
   6.44097 -12.84809 -0.31496,
   6.45275 -12.89972 -0.31496,
   6.47210 -12.94901 -0.31496,
   6.49858 -12.99488 -0.31496,
   6.53160 -13.03628 -0.31496,
   6.57042 -13.07230 -0.31496,
   6.61417 -13.10213 -0.31496,
   6.66189 -13.12511 -0.31496,
   6.71249 -13.14072 -0.31496,
   6.76486 -13.14862 -0.31496,
   6.81782 -13.14862 -0.31496,
   6.87018 -13.14072 -0.31496,
   6.92079 -13.12511 -0.31496,
   6.96850 -13.10213 -0.31496,
   7.01226 -13.07230 -0.31496,
   7.05108 -13.03628 -0.31496,
   7.08410 -12.99488 -0.31496,
   7.11058 -12.94901 -0.31496,
   7.12993 -12.89972 -0.31496,
   7.14171 -12.84809 -0.31496,
   7.14567 -12.79528 -0.31496,
   7.14567 -12.79528 0.00000,
   7.14567 -12.79528 0.00000,
   7.14171 -12.84809 0.00000,
   7.12993 -12.89972 0.00000,
   7.11058 -12.94901 0.00000,
   7.08410 -12.99488 0.00000,
   7.05108 -13.03628 0.00000,
   7.01226 -13.07230 0.00000,
   6.96850 -13.10213 0.00000,
   6.92079 -13.12511 0.00000,
   6.87018 -13.14072 0.00000,
   6.81782 -13.14862 0.00000,
   6.76486 -13.14862 0.00000,
   6.71249 -13.14072 0.00000,
   6.66189 -13.12511 0.00000,
   6.61417 -13.10213 0.00000,
   6.57042 -13.07230 0.00000,
   6.53160 -13.03628 0.00000,
   6.49858 -12.99488 0.00000,
   6.47210 -12.94901 0.00000,
   6.45275 -12.89972 0.00000,
   6.44097 -12.84809 0.00000,
   6.43701 -12.79528 0.00000,
   6.44097 -12.74247 0.00000,
   6.45275 -12.69083 0.00000,
   6.47210 -12.64154 0.00000,
   6.49858 -12.59567 0.00000,
   6.53160 -12.55427 0.00000,
   6.57042 -12.51825 0.00000,
   6.61417 -12.48842 0.00000,
   6.66189 -12.46544 0.00000,
   6.71249 -12.44983 0.00000,
   6.76486 -12.44194 0.00000,
   6.81782 -12.44194 0.00000,
   6.87018 -12.44983 0.00000,
   6.92079 -12.46544 0.00000,
   6.96850 -12.48842 0.00000,
   7.01226 -12.51825 0.00000,
   7.05108 -12.55427 0.00000,
   7.08410 -12.59567 0.00000,
   7.11058 -12.64154 0.00000,
   7.12993 -12.69083 0.00000,
   7.14171 -12.74247 0.00000,
   -6.43701 -2.36220 -0.31496,
   -6.44097 -2.30939 -0.31496,
   -6.45275 -2.25776 -0.31496,
   -6.47210 -2.20847 -0.31496,
   -6.49858 -2.16260 -0.31496,
   -6.53160 -2.12120 -0.31496,
   -6.57042 -2.08518 -0.31496,
   -6.61417 -2.05535 -0.31496,
   -6.66189 -2.03237 -0.31496,
   -6.71249 -2.01676 -0.31496,
   -6.76486 -2.00886 -0.31496,
   -6.81782 -2.00886 -0.31496,
   -6.87018 -2.01676 -0.31496,
   -6.92079 -2.03237 -0.31496,
   -6.96850 -2.05535 -0.31496,
   -7.01226 -2.08518 -0.31496,
   -7.05108 -2.12120 -0.31496,
   -7.08410 -2.16260 -0.31496,
   -7.11058 -2.20847 -0.31496,
   -7.12993 -2.25776 -0.31496,
   -7.14171 -2.30939 -0.31496,
   -7.14567 -2.36220 -0.31496,
   -7.14171 -2.41501 -0.31496,
   -7.12993 -2.46665 -0.31496,
   -7.11058 -2.51594 -0.31496,
   -7.08410 -2.56181 -0.31496,
   -7.05108 -2.60321 -0.31496,
   -7.01226 -2.63923 -0.31496,
   -6.96850 -2.66906 -0.31496,
   -6.92079 -2.69204 -0.31496,
   -6.87018 -2.70765 -0.31496,
   -6.81782 -2.71554 -0.31496,
   -6.76486 -2.71554 -0.31496,
   -6.71249 -2.70765 -0.31496,
   -6.66189 -2.69204 -0.31496,
   -6.61417 -2.66906 -0.31496,
   -6.57042 -2.63923 -0.31496,
   -6.53160 -2.60321 -0.31496,
   -6.49858 -2.56181 -0.31496,
   -6.47210 -2.51594 -0.31496,
   -6.45275 -2.46665 -0.31496,
   -6.44097 -2.41501 -0.31496,
   -6.43701 -2.36220 -0.31496,
   -6.43701 -2.36220 0.00000,
   -6.43701 -2.36220 0.00000,
   -6.44097 -2.41501 0.00000,
   -6.45275 -2.46665 0.00000,
   -6.47210 -2.51594 0.00000,
   -6.49858 -2.56181 0.00000,
   -6.53160 -2.60321 0.00000,
   -6.57042 -2.63923 0.00000,
   -6.61417 -2.66906 0.00000,
   -6.66189 -2.69204 0.00000,
   -6.71249 -2.70765 0.00000,
   -6.76486 -2.71554 0.00000,
   -6.81782 -2.71554 0.00000,
   -6.87018 -2.70765 0.00000,
   -6.92079 -2.69204 0.00000,
   -6.96850 -2.66906 0.00000,
   -7.01226 -2.63923 0.00000,
   -7.05108 -2.60321 0.00000,
   -7.08410 -2.56181 0.00000,
   -7.11058 -2.51594 0.00000,
   -7.12993 -2.46665 0.00000,
   -7.14171 -2.41501 0.00000,
   -7.14567 -2.36220 0.00000,
   -7.14171 -2.30939 0.00000,
   -7.12993 -2.25776 0.00000,
   -7.11058 -2.20847 0.00000,
   -7.08410 -2.16260 0.00000,
   -7.05108 -2.12120 0.00000,
   -7.01226 -2.08518 0.00000,
   -6.96850 -2.05535 0.00000,
   -6.92079 -2.03237 0.00000,
   -6.87018 -2.01676 0.00000,
   -6.81782 -2.00886 0.00000,
   -6.76486 -2.00886 0.00000,
   -6.71249 -2.01676 0.00000,
   -6.66189 -2.03237 0.00000,
   -6.61417 -2.05535 0.00000,
   -6.57042 -2.08518 0.00000,
   -6.53160 -2.12120 0.00000,
   -6.49858 -2.16260 0.00000,
   -6.47210 -2.20847 0.00000,
   -6.45275 -2.25776 0.00000,
   -6.44097 -2.30939 0.00000,
   7.14567 -12.79528 -0.31496,
   7.14171 -12.74247 -0.31496,
   7.12993 -12.69083 -0.31496,
   7.11058 -12.64154 -0.31496,
   7.08410 -12.59567 -0.31496,
   7.05108 -12.55427 -0.31496,
   7.01226 -12.51825 -0.31496,
   6.96850 -12.48842 -0.31496,
   6.92079 -12.46544 -0.31496,
   6.87018 -12.44983 -0.31496,
   6.81782 -12.44194 -0.31496,
   6.76486 -12.44194 -0.31496,
   6.71249 -12.44983 -0.31496,
   6.66189 -12.46544 -0.31496,
   6.61417 -12.48842 -0.31496,
   6.57042 -12.51825 -0.31496,
   6.53160 -12.55427 -0.31496,
   6.49858 -12.59567 -0.31496,
   6.47210 -12.64154 -0.31496,
   6.45275 -12.69083 -0.31496,
   6.44097 -12.74247 -0.31496,
   6.43701 -12.79528 -0.31496,
   6.44097 -12.84809 -0.31496,
   6.45275 -12.89972 -0.31496,
   6.47210 -12.94901 -0.31496,
   6.49858 -12.99488 -0.31496,
   6.53160 -13.03628 -0.31496,
   6.57042 -13.07230 -0.31496,
   6.61417 -13.10213 -0.31496,
   6.66189 -13.12511 -0.31496,
   6.71249 -13.14072 -0.31496,
   6.76486 -13.14862 -0.31496,
   6.81782 -13.14862 -0.31496,
   6.87018 -13.14072 -0.31496,
   6.92079 -13.12511 -0.31496,
   6.96850 -13.10213 -0.31496,
   7.01226 -13.07230 -0.31496,
   7.05108 -13.03628 -0.31496,
   7.08410 -12.99488 -0.31496,
   7.11058 -12.94901 -0.31496,
   7.12993 -12.89972 -0.31496,
   7.14171 -12.84809 -0.31496,
   -6.43701 -2.36220 -0.31496,
   -6.44097 -2.30939 -0.31496,
   -6.45275 -2.25776 -0.31496,
   -6.47210 -2.20847 -0.31496,
   -6.49858 -2.16260 -0.31496,
   -6.53160 -2.12120 -0.31496,
   -6.57042 -2.08518 -0.31496,
   -6.61417 -2.05535 -0.31496,
   -6.66189 -2.03237 -0.31496,
   -6.71249 -2.01676 -0.31496,
   -6.76486 -2.00886 -0.31496,
   -6.81782 -2.00886 -0.31496,
   -6.87018 -2.01676 -0.31496,
   -6.92079 -2.03237 -0.31496,
   -6.96850 -2.05535 -0.31496,
   -7.01226 -2.08518 -0.31496,
   -7.05108 -2.12120 -0.31496,
   -7.08410 -2.16260 -0.31496,
   -7.11058 -2.20847 -0.31496,
   -7.12993 -2.25776 -0.31496,
   -7.14171 -2.30939 -0.31496,
   -7.14567 -2.36220 -0.31496,
   -7.14171 -2.41501 -0.31496,
   -7.12993 -2.46665 -0.31496,
   -7.11058 -2.51594 -0.31496,
   -7.08410 -2.56181 -0.31496,
   -7.05108 -2.60321 -0.31496,
   -7.01226 -2.63923 -0.31496,
   -6.96850 -2.66906 -0.31496,
   -6.92079 -2.69204 -0.31496,
   -6.87018 -2.70765 -0.31496,
   -6.81782 -2.71554 -0.31496,
   -6.76486 -2.71554 -0.31496,
   -6.71249 -2.70765 -0.31496,
   -6.66189 -2.69204 -0.31496,
   -6.61417 -2.66906 -0.31496,
   -6.57042 -2.63923 -0.31496,
   -6.53160 -2.60321 -0.31496,
   -6.49858 -2.56181 -0.31496,
   -6.47210 -2.51594 -0.31496,
   -6.45275 -2.46665 -0.31496,
   -6.44097 -2.41501 -0.31496 ] }
  coordIndex [
   0,3,2,-1,
   0,1,3,-1,
   23,5,4,-1,
   19,20,21,-1,
   19,21,22,-1,
   16,17,18,-1,
   8,4,6,-1,
   8,23,4,-1,
   7,8,6,-1,
   9,22,23,-1,
   9,23,8,-1,
   12,9,10,-1,
   12,19,22,-1,
   12,22,9,-1,
   11,12,10,-1,
   13,18,19,-1,
   13,19,12,-1,
   15,13,14,-1,
   15,16,18,-1,
   15,18,13,-1,
   25,24,26,-1,
   25,26,27,-1,
   47,28,29,-1,
   43,45,44,-1,
   43,46,45,-1,
   105,41,106,-1,
   107,106,41,-1,
   104,41,105,-1,
   108,107,41,-1,
   103,42,41,-1,
   103,41,104,-1,
   109,108,41,-1,
   102,42,103,-1,
   101,42,102,-1,
   100,42,101,-1,
   40,109,41,-1,
   40,110,109,-1,
   40,111,110,-1,
   40,112,111,-1,
   99,42,100,-1,
   113,112,40,-1,
   98,42,99,-1,
   114,113,40,-1,
   97,42,98,-1,
   115,114,40,-1,
   96,42,97,-1,
   116,115,40,-1,
   95,42,96,-1,
   117,116,40,-1,
   94,42,95,-1,
   118,117,40,-1,
   93,42,94,-1,
   119,118,40,-1,
   92,42,93,-1,
   120,119,40,-1,
   121,120,40,-1,
   122,121,40,-1,
   123,122,40,-1,
   63,28,64,-1,
   65,64,28,-1,
   62,28,63,-1,
   66,65,28,-1,
   61,28,62,-1,
   67,66,28,-1,
   60,28,61,-1,
   68,67,28,-1,
   68,28,47,-1,
   59,28,60,-1,
   69,68,47,-1,
   70,69,47,-1,
   71,47,46,-1,
   71,70,47,-1,
   30,49,48,-1,
   30,50,49,-1,
   30,51,50,-1,
   30,52,51,-1,
   30,28,59,-1,
   30,53,52,-1,
   30,54,53,-1,
   30,55,54,-1,
   30,56,55,-1,
   30,57,56,-1,
   30,58,57,-1,
   30,59,58,-1,
   89,30,48,-1,
   88,30,89,-1,
   87,30,88,-1,
   32,73,72,-1,
   32,74,73,-1,
   32,75,74,-1,
   32,76,75,-1,
   32,77,76,-1,
   32,78,77,-1,
   32,79,78,-1,
   32,80,79,-1,
   32,81,80,-1,
   32,82,81,-1,
   31,83,82,-1,
   31,30,87,-1,
   31,84,83,-1,
   31,82,32,-1,
   31,85,84,-1,
   31,86,85,-1,
   31,87,86,-1,
   33,71,46,-1,
   33,72,71,-1,
   33,32,72,-1,
   36,34,33,-1,
   36,46,43,-1,
   36,33,46,-1,
   35,34,36,-1,
   37,90,131,-1,
   37,36,43,-1,
   37,42,92,-1,
   37,43,42,-1,
   37,91,90,-1,
   37,92,91,-1,
   39,129,128,-1,
   39,130,129,-1,
   39,131,130,-1,
   39,38,37,-1,
   39,37,131,-1,
   39,128,127,-1,
   39,123,40,-1,
   39,124,123,-1,
   39,125,124,-1,
   39,126,125,-1,
   39,127,126,-1,
   135,132,133,-1,
   135,134,132,-1,
   137,138,136,-1,
   137,139,138,-1,
   141,142,140,-1,
   141,143,142,-1,
   144,147,146,-1,
   144,145,147,-1,
   149,148,150,-1,
   149,150,151,-1,
   153,154,152,-1,
   153,155,154,-1,
   157,158,156,-1,
   157,159,158,-1,
   160,163,162,-1,
   160,161,163,-1,
   167,165,164,-1,
   167,164,166,-1,
   168,170,171,-1,
   168,171,169,-1,
   175,173,172,-1,
   175,174,173,-1,
   177,176,178,-1,
   177,178,179,-1,
   183,180,181,-1,
   183,181,182,-1,
   184,186,187,-1,
   184,187,185,-1,
   191,189,188,-1,
   191,190,189,-1,
   193,192,194,-1,
   193,194,195,-1,
   199,196,197,-1,
   199,197,198,-1,
   200,202,203,-1,
   200,203,201,-1,
   205,247,204,-1,
   205,289,247,-1,
   206,289,205,-1,
   206,288,289,-1,
   207,288,206,-1,
   207,287,288,-1,
   208,287,207,-1,
   208,286,287,-1,
   209,286,208,-1,
   209,285,286,-1,
   210,285,209,-1,
   210,284,285,-1,
   211,284,210,-1,
   211,283,284,-1,
   212,283,211,-1,
   212,282,283,-1,
   213,282,212,-1,
   213,281,282,-1,
   214,281,213,-1,
   214,280,281,-1,
   215,280,214,-1,
   215,278,279,-1,
   215,279,280,-1,
   216,278,215,-1,
   216,277,278,-1,
   217,277,216,-1,
   218,277,217,-1,
   218,275,276,-1,
   218,276,277,-1,
   219,275,218,-1,
   219,274,275,-1,
   220,274,219,-1,
   220,273,274,-1,
   221,273,220,-1,
   222,273,221,-1,
   222,272,273,-1,
   223,271,272,-1,
   223,272,222,-1,
   224,269,270,-1,
   224,270,271,-1,
   224,271,223,-1,
   225,268,269,-1,
   225,269,224,-1,
   226,267,268,-1,
   226,268,225,-1,
   227,267,226,-1,
   228,265,266,-1,
   228,266,267,-1,
   228,267,227,-1,
   229,264,265,-1,
   229,265,228,-1,
   230,264,229,-1,
   231,263,264,-1,
   231,264,230,-1,
   232,263,231,-1,
   232,262,263,-1,
   233,262,232,-1,
   233,260,261,-1,
   233,261,262,-1,
   234,260,233,-1,
   234,259,260,-1,
   235,259,234,-1,
   235,258,259,-1,
   236,258,235,-1,
   237,258,236,-1,
   237,257,258,-1,
   238,257,237,-1,
   238,255,256,-1,
   238,256,257,-1,
   239,255,238,-1,
   240,255,239,-1,
   240,253,254,-1,
   240,254,255,-1,
   241,253,240,-1,
   242,253,241,-1,
   242,252,253,-1,
   243,251,252,-1,
   243,252,242,-1,
   244,251,243,-1,
   244,250,251,-1,
   245,248,249,-1,
   245,249,250,-1,
   245,250,244,-1,
   246,248,245,-1,
   291,333,290,-1,
   291,375,333,-1,
   292,375,291,-1,
   292,374,375,-1,
   293,374,292,-1,
   293,373,374,-1,
   294,373,293,-1,
   294,372,373,-1,
   295,372,294,-1,
   295,371,372,-1,
   296,371,295,-1,
   296,370,371,-1,
   297,370,296,-1,
   297,369,370,-1,
   298,369,297,-1,
   298,368,369,-1,
   299,368,298,-1,
   299,367,368,-1,
   300,367,299,-1,
   300,366,367,-1,
   301,366,300,-1,
   301,364,365,-1,
   301,365,366,-1,
   302,364,301,-1,
   302,363,364,-1,
   303,363,302,-1,
   304,363,303,-1,
   304,361,362,-1,
   304,362,363,-1,
   305,361,304,-1,
   305,360,361,-1,
   306,360,305,-1,
   306,359,360,-1,
   307,359,306,-1,
   308,359,307,-1,
   308,358,359,-1,
   309,357,358,-1,
   309,358,308,-1,
   310,355,356,-1,
   310,356,357,-1,
   310,357,309,-1,
   311,354,355,-1,
   311,355,310,-1,
   312,353,354,-1,
   312,354,311,-1,
   313,353,312,-1,
   314,351,352,-1,
   314,352,353,-1,
   314,353,313,-1,
   315,350,351,-1,
   315,351,314,-1,
   316,350,315,-1,
   317,349,350,-1,
   317,350,316,-1,
   318,349,317,-1,
   318,348,349,-1,
   319,348,318,-1,
   319,346,347,-1,
   319,347,348,-1,
   320,346,319,-1,
   320,345,346,-1,
   321,345,320,-1,
   321,344,345,-1,
   322,344,321,-1,
   323,344,322,-1,
   323,343,344,-1,
   324,343,323,-1,
   324,341,342,-1,
   324,342,343,-1,
   325,341,324,-1,
   326,341,325,-1,
   326,339,340,-1,
   326,340,341,-1,
   327,339,326,-1,
   328,339,327,-1,
   328,338,339,-1,
   329,337,338,-1,
   329,338,328,-1,
   330,337,329,-1,
   330,336,337,-1,
   331,334,335,-1,
   331,335,336,-1,
   331,336,330,-1,
   332,334,331,-1,
   412,409,408,-1,
   412,410,409,-1,
   412,411,410,-1,
   391,393,392,-1,
   391,394,393,-1,
   376,414,413,-1,
   376,415,414,-1,
   376,416,415,-1,
   376,417,416,-1,
   386,388,387,-1,
   378,377,376,-1,
   384,388,386,-1,
   384,386,385,-1,
   384,389,388,-1,
   384,390,389,-1,
   384,391,390,-1,
   384,395,394,-1,
   384,396,395,-1,
   384,397,396,-1,
   384,398,397,-1,
   384,399,398,-1,
   384,400,399,-1,
   384,401,400,-1,
   384,402,401,-1,
   384,403,402,-1,
   384,404,403,-1,
   384,405,404,-1,
   384,406,405,-1,
   384,407,406,-1,
   384,394,391,-1,
   380,379,378,-1,
   380,378,376,-1,
   382,384,383,-1,
   382,407,384,-1,
   382,408,407,-1,
   381,408,382,-1,
   381,380,376,-1,
   381,413,412,-1,
   381,412,408,-1,
   381,376,413,-1,
   442,444,443,-1,
   452,451,450,-1,
   454,453,452,-1,
   433,435,434,-1,
   457,456,455,-1,
   430,432,431,-1,
   430,433,432,-1,
   418,458,457,-1,
   418,459,458,-1,
   418,457,455,-1,
   427,429,428,-1,
   420,419,418,-1,
   426,429,427,-1,
   425,429,426,-1,
   425,430,429,-1,
   422,421,420,-1,
   422,420,418,-1,
   424,430,425,-1,
   423,418,455,-1,
   423,430,424,-1,
   423,436,435,-1,
   423,437,436,-1,
   423,438,437,-1,
   423,439,438,-1,
   423,440,439,-1,
   423,441,440,-1,
   423,442,441,-1,
   423,445,444,-1,
   423,446,445,-1,
   423,447,446,-1,
   423,448,447,-1,
   423,449,448,-1,
   423,450,449,-1,
   423,455,454,-1,
   423,444,442,-1,
   423,452,450,-1,
   423,454,452,-1,
   423,422,418,-1,
   423,435,433,-1,
   423,433,430,-1 ] }
}
DEF elastomer Shape {
 appearance Appearance { material Material { diffuseColor 0.120 0.120 0.120 specularColor 0.15 0.15 0.15 shininess 0.2 } }
 geometry IndexedFaceSet { creaseAngle 0.5
  coord Coordinate { point [
   -1.96850 -1.57480 0.00000,
   -1.96850 -1.57480 0.82677,
   -1.96850 -0.39370 0.00000,
   -1.96850 -0.39370 0.82677,
   1.96850 -1.57480 0.00000,
   1.96850 -1.57480 0.82677,
   1.96850 -0.39370 0.00000,
   1.96850 -0.39370 0.82677,
   -1.96850 -1.57480 0.00000,
   1.96850 -1.57480 0.00000,
   -1.96850 -1.57480 0.82677,
   1.96850 -1.57480 0.82677,
   -1.96850 -0.39370 0.00000,
   1.96850 -0.39370 0.00000,
   -1.96850 -0.39370 0.82677,
   1.96850 -0.39370 0.82677,
   -1.96850 -1.57480 0.00000,
   -1.96850 -0.39370 0.00000,
   1.96850 -1.57480 0.00000,
   1.96850 -0.39370 0.00000,
   -1.96850 -1.57480 0.82677,
   -1.96850 -0.39370 0.82677,
   1.96850 -1.57480 0.82677,
   1.96850 -0.39370 0.82677 ] }
  coordIndex [
   1,2,0,-1,
   1,3,2,-1,
   5,4,6,-1,
   5,6,7,-1,
   11,8,9,-1,
   11,10,8,-1,
   15,13,12,-1,
   15,12,14,-1,
   18,16,17,-1,
   19,18,17,-1,
   22,21,20,-1,
   23,21,22,-1 ] }
}
DEF glass_lower Shape {
 appearance Appearance { material Material { diffuseColor 0.600 0.660 0.560 specularColor 0.15 0.15 0.15 shininess 0.2 } }
 geometry IndexedFaceSet { creaseAngle 0.5
  coord Coordinate { point [
   -7.55118 -13.20276 0.82677,
   -7.55118 -13.20276 1.14173,
   -7.55118 -0.21063 0.82677,
   -7.55118 -0.21063 1.14173,
   7.55118 -13.20276 0.82677,
   7.55118 -13.20276 1.14173,
   7.55118 -0.21063 0.82677,
   7.55118 -0.21063 1.14173,
   -7.55118 -13.20276 0.82677,
   7.55118 -13.20276 0.82677,
   -7.55118 -13.20276 1.14173,
   7.55118 -13.20276 1.14173,
   -7.55118 -0.21063 0.82677,
   7.55118 -0.21063 0.82677,
   -7.55118 -0.21063 1.14173,
   7.55118 -0.21063 1.14173,
   -7.55118 -13.20276 0.82677,
   -7.55118 -0.21063 0.82677,
   7.55118 -13.20276 0.82677,
   7.55118 -0.21063 0.82677,
   -7.55118 -13.20276 1.14173,
   -7.55118 -0.21063 1.14173,
   7.55118 -13.20276 1.14173,
   7.55118 -0.21063 1.14173 ] }
  coordIndex [
   1,2,0,-1,
   1,3,2,-1,
   5,4,6,-1,
   5,6,7,-1,
   11,8,9,-1,
   11,10,8,-1,
   15,13,12,-1,
   15,12,14,-1,
   19,16,17,-1,
   19,18,16,-1,
   23,21,20,-1,
   23,20,22,-1 ] }
}
DEF glass_upper Shape {
 appearance Appearance { material Material { diffuseColor 0.600 0.660 0.560 specularColor 0.15 0.15 0.15 shininess 0.2 } }
 geometry IndexedFaceSet { creaseAngle 0.5
  coord Coordinate { point [
   -7.55118 -13.20276 1.14173,
   -7.55118 -13.20276 1.61417,
   -7.55118 -2.73031 1.14173,
   -7.55118 -2.73031 1.61417,
   7.55118 -13.20276 1.14173,
   7.55118 -13.20276 1.61417,
   7.55118 -2.73031 1.14173,
   7.55118 -2.73031 1.61417,
   -7.55118 -13.20276 1.14173,
   7.55118 -13.20276 1.14173,
   -7.55118 -13.20276 1.61417,
   7.55118 -13.20276 1.61417,
   -7.55118 -2.73031 1.14173,
   7.55118 -2.73031 1.14173,
   -7.55118 -2.73031 1.61417,
   7.55118 -2.73031 1.61417,
   -7.55118 -13.20276 1.14173,
   -7.55118 -2.73031 1.14173,
   7.55118 -13.20276 1.14173,
   7.55118 -2.73031 1.14173,
   -7.55118 -13.20276 1.61417,
   -7.55118 -2.73031 1.61417,
   7.55118 -13.20276 1.61417,
   7.55118 -2.73031 1.61417 ] }
  coordIndex [
   0,3,2,-1,
   1,3,0,-1,
   4,6,7,-1,
   5,4,7,-1,
   11,8,9,-1,
   11,10,8,-1,
   15,13,12,-1,
   15,12,14,-1,
   19,16,17,-1,
   19,18,16,-1,
   23,21,20,-1,
   23,20,22,-1 ] }
}
DEF viewing_area Shape {
 appearance Appearance { material Material { diffuseColor 0.560 0.630 0.520 specularColor 0.15 0.15 0.15 shininess 0.2 } }
 geometry IndexedFaceSet { creaseAngle 0.5
  coord Coordinate { point [
   -6.88189 -12.53346 1.61417,
   -6.88189 -12.53346 1.62205,
   -6.88189 -3.32087 1.61417,
   -6.88189 -3.32087 1.62205,
   6.88189 -12.53346 1.61417,
   6.88189 -12.53346 1.62205,
   6.88189 -3.32087 1.61417,
   6.88189 -3.32087 1.62205,
   -6.88189 -12.53346 1.61417,
   6.88189 -12.53346 1.61417,
   -6.88189 -12.53346 1.62205,
   6.88189 -12.53346 1.62205,
   -6.88189 -3.32087 1.61417,
   6.88189 -3.32087 1.61417,
   -6.88189 -3.32087 1.62205,
   6.88189 -3.32087 1.62205,
   -6.88189 -12.53346 1.61417,
   -6.88189 -3.32087 1.61417,
   6.88189 -12.53346 1.61417,
   6.88189 -3.32087 1.61417,
   -6.88189 -12.53346 1.62205,
   -6.88189 -3.32087 1.62205,
   6.88189 -12.53346 1.62205,
   6.88189 -3.32087 1.62205 ] }
  coordIndex [
   1,2,0,-1,
   1,3,2,-1,
   5,4,6,-1,
   5,6,7,-1,
   11,8,9,-1,
   11,10,8,-1,
   15,13,12,-1,
   15,12,14,-1,
   19,16,17,-1,
   19,18,16,-1,
   23,21,20,-1,
   23,20,22,-1 ] }
}
