#VRML V2.0 utf8
# RotaryEncoder_Alps_EC11E_Switch_Vertical_H20mm - Drawn by Somerled Design (Kevin Murphy) with Mildrew (Grok Bot), CERN-OHL-S-2.0
DEF housing Shape {
 appearance Appearance { material Material { diffuseColor 0.160 0.160 0.170 specularColor 0.15 0.15 0.15 shininess 0.2 } }
 geometry IndexedFaceSet { creaseAngle 0.5
  coord Coordinate { point [
   0.62992 -3.24803 0.00000,
   0.62992 -3.24803 0.78740,
   0.62992 1.27953 0.00000,
   0.62992 1.27953 0.78740,
   0.62992 -3.24803 0.00000,
   5.27559 -3.24803 0.00000,
   0.62992 -3.24803 0.78740,
   5.27559 -3.24803 0.78740,
   0.62992 -3.24803 0.78740,
   0.62992 1.27953 0.78740,
   5.27559 -3.24803 0.78740,
   5.27559 1.27953 0.78740,
   0.78740 -3.09055 0.78740,
   0.78740 1.12205 0.78740,
   5.11811 1.12205 0.78740,
   5.11811 -3.09055 0.78740,
   0.62992 1.27953 0.00000,
   5.27559 1.27953 0.00000,
   0.62992 1.27953 0.78740,
   5.27559 1.27953 0.78740,
   0.62992 -3.24803 0.00000,
   0.62992 1.27953 0.00000,
   5.27559 -3.24803 0.00000,
   5.27559 1.27953 0.00000,
   5.27559 -3.24803 0.00000,
   5.27559 -3.24803 0.78740,
   5.27559 1.27953 0.00000,
   5.27559 1.27953 0.78740,
   0.78740 -3.09055 0.78740,
   0.78740 -3.09055 1.49606,
   0.78740 1.12205 0.78740,
   0.78740 1.12205 1.49606,
   0.78740 -3.09055 0.78740,
   5.11811 -3.09055 0.78740,
   0.78740 -3.09055 1.49606,
   5.11811 -3.09055 1.49606,
   5.11811 -3.09055 0.78740,
   5.11811 -3.09055 1.49606,
   5.11811 1.12205 0.78740,
   5.11811 1.12205 1.49606,
   0.78740 1.12205 0.78740,
   5.11811 1.12205 0.78740,
   0.78740 1.12205 1.49606,
   5.11811 1.12205 1.49606,
   0.78740 -3.09055 1.49606,
   0.78740 1.12205 1.49606,
   5.11811 -3.09055 1.49606,
   5.11811 1.12205 1.49606 ] }
  coordIndex [
   1,2,0,-1,
   1,3,2,-1,
   7,4,5,-1,
   7,6,4,-1,
   13,9,8,-1,
   13,8,12,-1,
   10,15,12,-1,
   10,12,8,-1,
   11,14,15,-1,
   11,15,10,-1,
   11,9,13,-1,
   11,13,14,-1,
   19,17,16,-1,
   19,16,18,-1,
   23,20,21,-1,
   23,22,20,-1,
   25,24,26,-1,
   25,26,27,-1,
   29,30,28,-1,
   29,31,30,-1,
   35,32,33,-1,
   35,34,32,-1,
   37,36,38,-1,
   37,38,39,-1,
   43,41,40,-1,
   43,40,42,-1,
   47,45,44,-1,
   47,44,46,-1 ] }
}
DEF frame Shape {
 appearance Appearance { material Material { diffuseColor 0.600 0.610 0.640 specularColor 0.5 0.5 0.5 shininess 0.6 } }
 geometry IndexedFaceSet { creaseAngle 0.5
  coord Coordinate { point [
   0.59055 -3.28740 0.78740,
   0.59055 -3.28740 1.77165,
   0.59055 1.31890 0.78740,
   0.59055 1.31890 1.77165,
   0.59055 -3.28740 0.78740,
   2.55906 -3.28740 0.78740,
   0.59055 -3.28740 1.77165,
   5.31496 -3.28740 1.77165,
   5.31496 -3.28740 0.78740,
   3.34646 -3.28740 0.78740,
   3.34646 -3.28740 -1.37795,
   2.55906 -3.28740 -1.37795,
   0.59055 -3.28740 1.77165,
   0.59055 1.31890 1.77165,
   5.31496 -3.28740 1.77165,
   5.31496 1.31890 1.77165,
   0.59055 1.31890 0.78740,
   2.55906 1.31890 0.78740,
   0.59055 1.31890 1.77165,
   5.31496 1.31890 1.77165,
   5.31496 1.31890 0.78740,
   3.34646 1.31890 0.78740,
   3.34646 1.31890 -1.37795,
   2.55906 1.31890 -1.37795,
   0.59055 1.31890 0.78740,
   2.55906 1.31890 0.78740,
   0.59055 -3.28740 0.78740,
   2.55906 -3.28740 0.78740,
   2.55906 -3.09055 0.78740,
   0.78740 -3.09055 0.78740,
   0.78740 1.12205 0.78740,
   2.55906 1.12205 0.78740,
   3.34646 -3.28740 0.78740,
   3.34646 -3.09055 0.78740,
   5.31496 -3.28740 0.78740,
   5.31496 1.31890 0.78740,
   3.34646 1.31890 0.78740,
   3.34646 1.12205 0.78740,
   5.11811 1.12205 0.78740,
   5.11811 -3.09055 0.78740,
   5.31496 -3.28740 0.78740,
   5.31496 -3.28740 1.77165,
   5.31496 1.31890 0.78740,
   5.31496 1.31890 1.77165,
   3.34646 1.12205 -1.37795,
   3.34646 1.12205 0.78740,
   3.34646 1.31890 -1.37795,
   3.34646 1.31890 0.78740,
   2.55906 1.12205 -1.37795,
   2.55906 1.31890 -1.37795,
   3.34646 1.12205 -1.37795,
   3.34646 1.31890 -1.37795,
   2.55906 1.12205 -1.37795,
   2.55906 1.12205 0.78740,
   2.55906 1.31890 -1.37795,
   2.55906 1.31890 0.78740,
   0.78740 1.12205 0.78740,
   2.55906 1.12205 0.78740,
   0.78740 1.12205 1.49606,
   5.11811 1.12205 1.49606,
   5.11811 1.12205 0.78740,
   3.34646 1.12205 0.78740,
   3.34646 1.12205 -1.37795,
   2.55906 1.12205 -1.37795,
   0.78740 -3.09055 0.78740,
   0.78740 -3.09055 1.49606,
   0.78740 1.12205 0.78740,
   0.78740 1.12205 1.49606,
   0.78740 -3.09055 0.78740,
   2.55906 -3.09055 0.78740,
   0.78740 -3.09055 1.49606,
   5.11811 -3.09055 1.49606,
   5.11811 -3.09055 0.78740,
   3.34646 -3.09055 0.78740,
   3.34646 -3.09055 -1.37795,
   2.55906 -3.09055 -1.37795,
   2.55906 -3.28740 -1.37795,
   2.55906 -3.28740 0.78740,
   2.55906 -3.09055 -1.37795,
   2.55906 -3.09055 0.78740,
   3.34646 -3.28740 -1.37795,
   3.34646 -3.28740 0.78740,
   3.34646 -3.09055 -1.37795,
   3.34646 -3.09055 0.78740,
   5.11811 -3.09055 0.78740,
   5.11811 -3.09055 1.49606,
   5.11811 1.12205 0.78740,
   5.11811 1.12205 1.49606,
   0.78740 -3.09055 1.49606,
   0.78740 1.12205 1.49606,
   5.11811 -3.09055 1.49606,
   5.11811 1.12205 1.49606,
   2.55906 -3.28740 -1.37795,
   2.55906 -3.09055 -1.37795,
   3.34646 -3.28740 -1.37795,
   3.34646 -3.09055 -1.37795 ] }
  coordIndex [
   1,2,0,-1,
   1,3,2,-1,
   5,6,4,-1,
   9,11,10,-1,
   9,5,11,-1,
   7,9,8,-1,
   7,6,5,-1,
   7,5,9,-1,
   15,13,12,-1,
   15,12,14,-1,
   17,16,18,-1,
   21,22,23,-1,
   21,23,17,-1,
   19,20,21,-1,
   19,17,18,-1,
   19,21,17,-1,
   27,26,29,-1,
   28,27,29,-1,
   30,26,24,-1,
   30,29,26,-1,
   25,31,30,-1,
   25,30,24,-1,
   39,32,33,-1,
   39,34,32,-1,
   38,37,36,-1,
   35,39,38,-1,
   35,34,39,-1,
   35,38,36,-1,
   41,40,42,-1,
   41,42,43,-1,
   45,44,46,-1,
   45,46,47,-1,
   51,48,49,-1,
   51,50,48,-1,
   53,54,52,-1,
   53,55,54,-1,
   57,58,56,-1,
   61,63,62,-1,
   61,57,63,-1,
   59,61,60,-1,
   59,58,57,-1,
   59,57,61,-1,
   65,64,66,-1,
   65,66,67,-1,
   69,68,70,-1,
   73,74,75,-1,
   73,75,69,-1,
   71,72,73,-1,
   71,69,70,-1,
   71,73,69,-1,
   77,78,76,-1,
   77,79,78,-1,
   81,80,82,-1,
   81,82,83,-1,
   85,86,84,-1,
   85,87,86,-1,
   91,88,89,-1,
   91,90,88,-1,
   95,92,93,-1,
   95,94,92,-1 ] }
}
DEF bushing Shape {
 appearance Appearance { material Material { diffuseColor 0.680 0.680 0.660 specularColor 0.5 0.5 0.5 shininess 0.6 } }
 geometry IndexedFaceSet { creaseAngle 0.5
  coord Coordinate { point [
   4.33071 -0.98425 1.77165,
   4.33071 -0.98425 4.52756,
   4.31532 -0.77888 4.52756,
   4.26949 -0.57809 4.52756,
   4.19425 -0.38638 4.52756,
   4.09127 -0.20802 4.52756,
   3.96287 -0.04701 4.52756,
   3.81190 0.09307 4.52756,
   3.64173 0.20909 4.52756,
   3.45618 0.29845 4.52756,
   3.25938 0.35915 4.52756,
   3.05573 0.38985 4.52756,
   2.84978 0.38985 4.52756,
   2.64613 0.35915 4.52756,
   2.44933 0.29845 4.52756,
   2.26378 0.20909 4.52756,
   2.09362 0.09307 4.52756,
   1.94265 -0.04701 4.52756,
   1.81424 -0.20802 4.52756,
   1.71126 -0.38638 4.52756,
   1.63602 -0.57809 4.52756,
   1.59019 -0.77888 4.52756,
   1.57480 -0.98425 4.52756,
   1.59019 -1.18963 4.52756,
   1.63602 -1.39041 4.52756,
   1.71126 -1.58212 4.52756,
   1.81424 -1.76048 4.52756,
   1.94265 -1.92150 4.52756,
   2.09362 -2.06158 4.52756,
   2.26378 -2.17759 4.52756,
   2.44933 -2.26695 4.52756,
   2.64613 -2.32766 4.52756,
   2.84978 -2.35835 4.52756,
   3.05573 -2.35835 4.52756,
   3.25938 -2.32766 4.52756,
   3.45618 -2.26695 4.52756,
   3.64173 -2.17759 4.52756,
   3.81190 -2.06158 4.52756,
   3.96287 -1.92150 4.52756,
   4.09127 -1.76048 4.52756,
   4.19425 -1.58212 4.52756,
   4.26949 -1.39041 4.52756,
   4.31532 -1.18963 4.52756,
   4.33071 -0.98425 4.52756,
   4.33071 -0.98425 1.77165,
   4.31532 -0.77888 1.77165,
   4.26949 -0.57809 1.77165,
   4.19425 -0.38638 1.77165,
   4.09127 -0.20802 1.77165,
   3.96287 -0.04701 1.77165,
   3.81190 0.09307 1.77165,
   3.64173 0.20909 1.77165,
   3.45618 0.29845 1.77165,
   3.25938 0.35915 1.77165,
   3.05573 0.38985 1.77165,
   2.84978 0.38985 1.77165,
   2.64613 0.35915 1.77165,
   2.44933 0.29845 1.77165,
   2.26378 0.20909 1.77165,
   2.09362 0.09307 1.77165,
   1.94265 -0.04701 1.77165,
   1.81424 -0.20802 1.77165,
   1.71126 -0.38638 1.77165,
   1.63602 -0.57809 1.77165,
   1.59019 -0.77888 1.77165,
   1.57480 -0.98425 1.77165,
   1.59019 -1.18963 1.77165,
   1.63602 -1.39041 1.77165,
   1.71126 -1.58212 1.77165,
   1.81424 -1.76048 1.77165,
   1.94265 -1.92150 1.77165,
   2.09362 -2.06158 1.77165,
   2.26378 -2.17759 1.77165,
   2.44933 -2.26695 1.77165,
   2.64613 -2.32766 1.77165,
   2.84978 -2.35835 1.77165,
   3.05573 -2.35835 1.77165,
   3.25938 -2.32766 1.77165,
   3.45618 -2.26695 1.77165,
   3.64173 -2.17759 1.77165,
   3.81190 -2.06158 1.77165,
   3.96287 -1.92150 1.77165,
   4.09127 -1.76048 1.77165,
   4.19425 -1.58212 1.77165,
   4.26949 -1.39041 1.77165,
   4.31532 -1.18963 1.77165,
   4.33071 -0.98425 1.77165,
   4.31532 -0.77888 1.77165,
   4.26949 -0.57809 1.77165,
   4.19425 -0.38638 1.77165,
   4.09127 -0.20802 1.77165,
   3.96287 -0.04701 1.77165,
   3.81190 0.09307 1.77165,
   3.64173 0.20909 1.77165,
   3.45618 0.29845 1.77165,
   3.25938 0.35915 1.77165,
   3.05573 0.38985 1.77165,
   2.84978 0.38985 1.77165,
   2.64613 0.35915 1.77165,
   2.44933 0.29845 1.77165,
   2.26378 0.20909 1.77165,
   2.09362 0.09307 1.77165,
   1.94265 -0.04701 1.77165,
   1.81424 -0.20802 1.77165,
   1.71126 -0.38638 1.77165,
   1.63602 -0.57809 1.77165,
   1.59019 -0.77888 1.77165,
   1.57480 -0.98425 1.77165,
   1.59019 -1.18963 1.77165,
   1.63602 -1.39041 1.77165,
   1.71126 -1.58212 1.77165,
   1.81424 -1.76048 1.77165,
   1.94265 -1.92150 1.77165,
   2.09362 -2.06158 1.77165,
   2.26378 -2.17759 1.77165,
   2.44933 -2.26695 1.77165,
   2.64613 -2.32766 1.77165,
   2.84978 -2.35835 1.77165,
   3.05573 -2.35835 1.77165,
   3.25938 -2.32766 1.77165,
   3.45618 -2.26695 1.77165,
   3.64173 -2.17759 1.77165,
   3.81190 -2.06158 1.77165,
   3.96287 -1.92150 1.77165,
   4.09127 -1.76048 1.77165,
   4.19425 -1.58212 1.77165,
   4.26949 -1.39041 1.77165,
   4.31532 -1.18963 1.77165,
   4.33071 -0.98425 4.52756,
   4.31532 -0.77888 4.52756,
   4.26949 -0.57809 4.52756,
   4.19425 -0.38638 4.52756,
   4.09127 -0.20802 4.52756,
   3.96287 -0.04701 4.52756,
   3.81190 0.09307 4.52756,
   3.64173 0.20909 4.52756,
   3.45618 0.29845 4.52756,
   3.25938 0.35915 4.52756,
   3.05573 0.38985 4.52756,
   2.84978 0.38985 4.52756,
   2.64613 0.35915 4.52756,
   2.44933 0.29845 4.52756,
   2.26378 0.20909 4.52756,
   2.09362 0.09307 4.52756,
   1.94265 -0.04701 4.52756,
   1.81424 -0.20802 4.52756,
   1.71126 -0.38638 4.52756,
   1.63602 -0.57809 4.52756,
   1.59019 -0.77888 4.52756,
   1.57480 -0.98425 4.52756,
   1.59019 -1.18963 4.52756,
   1.63602 -1.39041 4.52756,
   1.71126 -1.58212 4.52756,
   1.81424 -1.76048 4.52756,
   1.94265 -1.92150 4.52756,
   2.09362 -2.06158 4.52756,
   2.26378 -2.17759 4.52756,
   2.44933 -2.26695 4.52756,
   2.64613 -2.32766 4.52756,
   2.84978 -2.35835 4.52756,
   3.05573 -2.35835 4.52756,
   3.25938 -2.32766 4.52756,
   3.45618 -2.26695 4.52756,
   3.64173 -2.17759 4.52756,
   3.81190 -2.06158 4.52756,
   3.96287 -1.92150 4.52756,
   4.09127 -1.76048 4.52756,
   4.19425 -1.58212 4.52756,
   4.26949 -1.39041 4.52756,
   4.31532 -1.18963 4.52756 ] }
  coordIndex [
   45,1,0,-1,
   45,2,1,-1,
   45,3,2,-1,
   46,3,45,-1,
   47,3,46,-1,
   47,4,3,-1,
   47,5,4,-1,
   48,5,47,-1,
   48,6,5,-1,
   49,6,48,-1,
   50,7,6,-1,
   50,6,49,-1,
   51,8,7,-1,
   51,9,8,-1,
   51,7,50,-1,
   52,9,51,-1,
   53,10,9,-1,
   53,9,52,-1,
   54,11,10,-1,
   54,10,53,-1,
   55,12,11,-1,
   55,11,54,-1,
   56,13,12,-1,
   56,12,55,-1,
   57,14,13,-1,
   57,13,56,-1,
   58,15,14,-1,
   58,14,57,-1,
   59,16,15,-1,
   59,15,58,-1,
   60,17,16,-1,
   60,16,59,-1,
   61,18,17,-1,
   61,17,60,-1,
   62,19,18,-1,
   62,18,61,-1,
   63,20,19,-1,
   63,19,62,-1,
   64,21,20,-1,
   64,20,63,-1,
   65,22,21,-1,
   65,21,64,-1,
   66,23,22,-1,
   66,24,23,-1,
   66,22,65,-1,
   67,24,66,-1,
   68,25,24,-1,
   68,24,67,-1,
   69,26,25,-1,
   69,25,68,-1,
   70,27,26,-1,
   70,28,27,-1,
   70,26,69,-1,
   71,28,70,-1,
   72,29,28,-1,
   72,28,71,-1,
   73,29,72,-1,
   73,30,29,-1,
   74,30,73,-1,
   74,31,30,-1,
   75,31,74,-1,
   75,32,31,-1,
   76,32,75,-1,
   76,33,32,-1,
   77,33,76,-1,
   77,34,33,-1,
   78,34,77,-1,
   78,35,34,-1,
   79,35,78,-1,
   79,36,35,-1,
   80,36,79,-1,
   80,37,36,-1,
   80,38,37,-1,
   81,38,80,-1,
   82,39,38,-1,
   82,38,81,-1,
   83,40,39,-1,
   83,39,82,-1,
   84,41,40,-1,
   84,42,41,-1,
   84,40,83,-1,
   85,42,84,-1,
   44,43,42,-1,
   44,42,85,-1,
   114,113,112,-1,
   110,112,111,-1,
   116,115,114,-1,
   108,110,109,-1,
   118,117,116,-1,
   118,116,114,-1,
   121,120,119,-1,
   103,105,104,-1,
   122,119,118,-1,
   122,121,119,-1,
   102,106,105,-1,
   102,107,106,-1,
   102,108,107,-1,
   102,110,108,-1,
   102,105,103,-1,
   100,102,101,-1,
   125,123,122,-1,
   125,124,123,-1,
   125,118,114,-1,
   125,122,118,-1,
   127,126,125,-1,
   97,99,98,-1,
   97,100,99,-1,
   97,102,100,-1,
   95,97,96,-1,
   88,87,86,-1,
   94,97,95,-1,
   90,89,88,-1,
   91,127,125,-1,
   91,93,92,-1,
   91,102,97,-1,
   91,94,93,-1,
   91,90,88,-1,
   91,86,127,-1,
   91,114,112,-1,
   91,112,110,-1,
   91,110,102,-1,
   91,125,114,-1,
   91,97,94,-1,
   91,88,86,-1,
   156,154,155,-1,
   152,153,154,-1,
   158,156,157,-1,
   150,151,152,-1,
   160,158,159,-1,
   160,156,158,-1,
   163,161,162,-1,
   145,146,147,-1,
   164,160,161,-1,
   164,161,163,-1,
   144,147,148,-1,
   144,148,149,-1,
   144,149,150,-1,
   144,150,152,-1,
   144,145,147,-1,
   142,143,144,-1,
   167,164,165,-1,
   167,165,166,-1,
   167,156,160,-1,
   167,160,164,-1,
   169,167,168,-1,
   139,140,141,-1,
   139,141,142,-1,
   139,142,144,-1,
   137,138,139,-1,
   130,128,129,-1,
   136,137,139,-1,
   132,130,131,-1,
   133,167,169,-1,
   133,134,135,-1,
   133,139,144,-1,
   133,135,136,-1,
   133,130,132,-1,
   133,169,128,-1,
   133,154,156,-1,
   133,152,154,-1,
   133,144,152,-1,
   133,156,167,-1,
   133,136,139,-1,
   133,128,130,-1 ] }
}
DEF shaft Shape {
 appearance Appearance { material Material { diffuseColor 0.600 0.610 0.640 specularColor 0.5 0.5 0.5 shininess 0.6 } }
 geometry IndexedFaceSet { creaseAngle 0.5
  coord Coordinate { point [
   4.13386 -0.98425 4.52756,
   4.12067 -0.80822 4.52756,
   4.08139 -0.63612 4.52756,
   4.01689 -0.47179 4.52756,
   3.92863 -0.31891 4.52756,
   3.81857 -0.18090 4.52756,
   3.68916 -0.06083 4.52756,
   3.54331 0.03861 4.52756,
   3.38426 0.11521 4.52756,
   3.21558 0.16724 4.52756,
   3.04102 0.19355 4.52756,
   2.86449 0.19355 4.52756,
   2.68994 0.16724 4.52756,
   2.52125 0.11521 4.52756,
   2.36220 0.03861 4.52756,
   2.21635 -0.06083 4.52756,
   2.08695 -0.18090 4.52756,
   1.97688 -0.31891 4.52756,
   1.88862 -0.47179 4.52756,
   1.82413 -0.63612 4.52756,
   1.78485 -0.80822 4.52756,
   1.77165 -0.98425 4.52756,
   1.78485 -1.16029 4.52756,
   1.82413 -1.33239 4.52756,
   1.88862 -1.49671 4.52756,
   1.97688 -1.64959 4.52756,
   2.08695 -1.78761 4.52756,
   2.21635 -1.90767 4.52756,
   2.36220 -2.00712 4.52756,
   2.52125 -2.08371 4.52756,
   2.68994 -2.13574 4.52756,
   2.86449 -2.16205 4.52756,
   3.04102 -2.16205 4.52756,
   3.21558 -2.13574 4.52756,
   3.38426 -2.08371 4.52756,
   3.54331 -2.00712 4.52756,
   3.68916 -1.90767 4.52756,
   3.81857 -1.78761 4.52756,
   3.92863 -1.64959 4.52756,
   4.01689 -1.49671 4.52756,
   4.08139 -1.33239 4.52756,
   4.12067 -1.16029 4.52756,
   4.13386 -0.98425 4.52756,
   4.13386 -0.98425 5.70866,
   3.54331 0.03861 5.70866,
   3.68916 -0.06083 5.70866,
   3.81857 -0.18090 5.70866,
   3.92863 -0.31891 5.70866,
   4.01689 -0.47179 5.70866,
   4.08139 -0.63612 5.70866,
   4.12067 -0.80822 5.70866,
   3.54331 0.03861 9.44882,
   3.38426 0.11521 9.44882,
   3.21558 0.16724 9.44882,
   3.04102 0.19355 9.44882,
   2.86449 0.19355 9.44882,
   2.68994 0.16724 9.44882,
   2.52125 0.11521 9.44882,
   2.36220 0.03861 9.44882,
   2.21635 -0.06083 9.44882,
   2.08695 -0.18090 9.44882,
   1.97688 -0.31891 9.44882,
   1.88862 -0.47179 9.44882,
   1.82413 -0.63612 9.44882,
   1.78485 -0.80822 9.44882,
   1.77165 -0.98425 9.44882,
   1.78485 -1.16029 9.44882,
   1.82413 -1.33239 9.44882,
   1.88862 -1.49671 9.44882,
   1.97688 -1.64959 9.44882,
   2.08695 -1.78761 9.44882,
   2.21635 -1.90767 9.44882,
   2.36220 -2.00712 9.44882,
   2.52125 -2.08371 9.44882,
   2.68994 -2.13574 9.44882,
   2.86449 -2.16205 9.44882,
   3.04102 -2.16205 9.44882,
   3.21558 -2.13574 9.44882,
   3.38426 -2.08371 9.44882,
   3.54331 -2.00712 9.44882,
   3.54331 -2.00712 5.70866,
   4.13386 -0.98425 5.70866,
   4.12067 -1.16029 5.70866,
   4.08139 -1.33239 5.70866,
   4.01689 -1.49671 5.70866,
   3.92863 -1.64959 5.70866,
   3.81857 -1.78761 5.70866,
   3.68916 -1.90767 5.70866,
   4.13386 -0.98425 4.52756,
   4.12067 -0.80822 4.52756,
   4.08139 -0.63612 4.52756,
   4.01689 -0.47179 4.52756,
   3.92863 -0.31891 4.52756,
   3.81857 -0.18090 4.52756,
   3.68916 -0.06083 4.52756,
   3.54331 0.03861 4.52756,
   3.38426 0.11521 4.52756,
   3.21558 0.16724 4.52756,
   3.04102 0.19355 4.52756,
   2.86449 0.19355 4.52756,
   2.68994 0.16724 4.52756,
   2.52125 0.11521 4.52756,
   2.36220 0.03861 4.52756,
   2.21635 -0.06083 4.52756,
   2.08695 -0.18090 4.52756,
   1.97688 -0.31891 4.52756,
   1.88862 -0.47179 4.52756,
   1.82413 -0.63612 4.52756,
   1.78485 -0.80822 4.52756,
   1.77165 -0.98425 4.52756,
   1.78485 -1.16029 4.52756,
   1.82413 -1.33239 4.52756,
   1.88862 -1.49671 4.52756,
   1.97688 -1.64959 4.52756,
   2.08695 -1.78761 4.52756,
   2.21635 -1.90767 4.52756,
   2.36220 -2.00712 4.52756,
   2.52125 -2.08371 4.52756,
   2.68994 -2.13574 4.52756,
   2.86449 -2.16205 4.52756,
   3.04102 -2.16205 4.52756,
   3.21558 -2.13574 4.52756,
   3.38426 -2.08371 4.52756,
   3.54331 -2.00712 4.52756,
   3.68916 -1.90767 4.52756,
   3.81857 -1.78761 4.52756,
   3.92863 -1.64959 4.52756,
   4.01689 -1.49671 4.52756,
   4.08139 -1.33239 4.52756,
   4.12067 -1.16029 4.52756,
   3.54331 -2.00712 5.70866,
   3.54331 0.03861 5.70866,
   4.13386 -0.98425 5.70866,
   4.12067 -1.16029 5.70866,
   4.08139 -1.33239 5.70866,
   4.01689 -1.49671 5.70866,
   3.92863 -1.64959 5.70866,
   3.81857 -1.78761 5.70866,
   3.68916 -1.90767 5.70866,
   3.68916 -0.06083 5.70866,
   3.81857 -0.18090 5.70866,
   3.92863 -0.31891 5.70866,
   4.01689 -0.47179 5.70866,
   4.08139 -0.63612 5.70866,
   4.12067 -0.80822 5.70866,
   3.54331 -2.00712 9.44882,
   3.54331 -2.00712 5.70866,
   3.54331 0.03861 5.70866,
   3.54331 0.03861 9.44882,
   3.54331 -0.19685 9.64567,
   3.54331 -0.14192 9.60120,
   3.54331 -0.08449 9.55366,
   3.54331 -0.02437 9.50292,
   3.54331 -1.77165 9.64567,
   3.54331 -1.94414 9.50292,
   3.54331 -1.88402 9.55366,
   3.54331 -1.82658 9.60120,
   3.54331 -0.19685 9.64567,
   3.54331 -0.14192 9.60120,
   3.54331 -0.08449 9.55366,
   3.54331 -0.02437 9.50292,
   3.54331 0.03861 9.44882,
   3.38426 0.11521 9.44882,
   3.21558 0.16724 9.44882,
   3.04102 0.19355 9.44882,
   2.86449 0.19355 9.44882,
   2.68994 0.16724 9.44882,
   2.52125 0.11521 9.44882,
   2.36220 0.03861 9.44882,
   2.21635 -0.06083 9.44882,
   2.08695 -0.18090 9.44882,
   1.97688 -0.31891 9.44882,
   1.88862 -0.47179 9.44882,
   1.82413 -0.63612 9.44882,
   1.78485 -0.80822 9.44882,
   1.77165 -0.98425 9.44882,
   1.78485 -1.16029 9.44882,
   1.82413 -1.33239 9.44882,
   1.88862 -1.49671 9.44882,
   1.97688 -1.64959 9.44882,
   2.08695 -1.78761 9.44882,
   2.21635 -1.90767 9.44882,
   2.36220 -2.00712 9.44882,
   2.52125 -2.08371 9.44882,
   2.68994 -2.13574 9.44882,
   2.86449 -2.16205 9.44882,
   3.04102 -2.16205 9.44882,
   3.21558 -2.13574 9.44882,
   3.38426 -2.08371 9.44882,
   3.54331 -2.00712 9.44882,
   3.54331 -1.94414 9.50292,
   3.54331 -1.88402 9.55366,
   3.54331 -1.82658 9.60120,
   3.54331 -1.77165 9.64567,
   3.42107 -0.11855 9.64567,
   3.28865 -0.05909 9.64567,
   3.14892 -0.01975 9.64567,
   3.00492 -0.00138 9.64567,
   2.85979 -0.00440 9.64567,
   2.71668 -0.02873 9.64567,
   2.57870 -0.07385 9.64567,
   2.44886 -0.13877 9.64567,
   2.32999 -0.22208 9.64567,
   2.22466 -0.32197 9.64567,
   2.13516 -0.43626 9.64567,
   2.06345 -0.56248 9.64567,
   2.01109 -0.69787 9.64567,
   1.97921 -0.83948 9.64567,
   1.96850 -0.98425 9.64567,
   1.97921 -1.12902 9.64567,
   2.01109 -1.27064 9.64567,
   2.06345 -1.40603 9.64567,
   2.13516 -1.53224 9.64567,
   2.22466 -1.64654 9.64567,
   2.32999 -1.74643 9.64567,
   2.44886 -1.82974 9.64567,
   2.57870 -1.89466 9.64567,
   2.71668 -1.93977 9.64567,
   2.85979 -1.96410 9.64567,
   3.00492 -1.96712 9.64567,
   3.14892 -1.94876 9.64567,
   3.28865 -1.90942 9.64567,
   3.42107 -1.84995 9.64567,
   3.54331 -1.77165 9.64567,
   3.54331 -0.19685 9.64567,
   3.42107 -0.11855 9.64567,
   3.28865 -0.05909 9.64567,
   3.14892 -0.01975 9.64567,
   3.00492 -0.00138 9.64567,
   2.85979 -0.00440 9.64567,
   2.71668 -0.02873 9.64567,
   2.57870 -0.07385 9.64567,
   2.44886 -0.13877 9.64567,
   2.32999 -0.22208 9.64567,
   2.22466 -0.32197 9.64567,
   2.13516 -0.43626 9.64567,
   2.06345 -0.56248 9.64567,
   2.01109 -0.69787 9.64567,
   1.97921 -0.83948 9.64567,
   1.96850 -0.98425 9.64567,
   1.97921 -1.12902 9.64567,
   2.01109 -1.27064 9.64567,
   2.06345 -1.40603 9.64567,
   2.13516 -1.53224 9.64567,
   2.22466 -1.64654 9.64567,
   2.32999 -1.74643 9.64567,
   2.44886 -1.82974 9.64567,
   2.57870 -1.89466 9.64567,
   2.71668 -1.93977 9.64567,
   2.85979 -1.96410 9.64567,
   3.00492 -1.96712 9.64567,
   3.14892 -1.94876 9.64567,
   3.28865 -1.90942 9.64567,
   3.42107 -1.84995 9.64567 ] }
  coordIndex [
   1,43,0,-1,
   1,50,43,-1,
   2,49,50,-1,
   2,50,1,-1,
   3,49,2,-1,
   3,48,49,-1,
   4,48,3,-1,
   4,47,48,-1,
   5,47,4,-1,
   5,46,47,-1,
   6,46,5,-1,
   6,45,46,-1,
   44,52,51,-1,
   7,45,6,-1,
   7,44,45,-1,
   8,52,44,-1,
   8,44,7,-1,
   9,52,8,-1,
   9,53,52,-1,
   10,53,9,-1,
   10,54,53,-1,
   11,54,10,-1,
   11,55,54,-1,
   12,55,11,-1,
   12,56,55,-1,
   13,56,12,-1,
   13,57,56,-1,
   14,57,13,-1,
   14,58,57,-1,
   15,58,14,-1,
   15,59,58,-1,
   16,60,59,-1,
   16,59,15,-1,
   17,61,60,-1,
   17,60,16,-1,
   18,62,61,-1,
   18,61,17,-1,
   19,63,62,-1,
   19,62,18,-1,
   20,64,63,-1,
   20,63,19,-1,
   21,65,64,-1,
   21,64,20,-1,
   22,66,65,-1,
   22,65,21,-1,
   23,67,66,-1,
   23,68,67,-1,
   23,66,22,-1,
   24,69,68,-1,
   24,68,23,-1,
   25,69,24,-1,
   26,70,69,-1,
   26,71,70,-1,
   26,69,25,-1,
   27,71,26,-1,
   28,71,27,-1,
   28,72,71,-1,
   29,72,28,-1,
   29,73,72,-1,
   30,73,29,-1,
   30,74,73,-1,
   30,75,74,-1,
   31,75,30,-1,
   32,75,31,-1,
   32,76,75,-1,
   32,77,76,-1,
   33,77,32,-1,
   34,77,33,-1,
   34,78,77,-1,
   80,78,34,-1,
   80,79,78,-1,
   35,80,34,-1,
   87,80,35,-1,
   36,87,35,-1,
   37,87,36,-1,
   37,86,87,-1,
   38,86,37,-1,
   38,85,86,-1,
   39,85,38,-1,
   39,84,85,-1,
   40,84,39,-1,
   40,83,84,-1,
   41,83,40,-1,
   41,82,83,-1,
   42,82,41,-1,
   42,81,82,-1,
   119,118,117,-1,
   107,109,108,-1,
   122,117,116,-1,
   122,120,119,-1,
   122,121,120,-1,
   122,119,117,-1,
   105,107,106,-1,
   104,107,105,-1,
   125,123,122,-1,
   125,124,123,-1,
   126,113,112,-1,
   126,114,113,-1,
   126,115,114,-1,
   126,116,115,-1,
   126,125,122,-1,
   126,122,116,-1,
   101,103,102,-1,
   101,104,103,-1,
   101,107,104,-1,
   128,127,126,-1,
   100,109,107,-1,
   100,107,101,-1,
   129,128,126,-1,
   97,99,98,-1,
   97,100,99,-1,
   90,89,88,-1,
   91,90,88,-1,
   91,88,129,-1,
   95,97,96,-1,
   94,100,97,-1,
   94,97,95,-1,
   93,91,129,-1,
   93,109,100,-1,
   93,129,126,-1,
   93,92,91,-1,
   93,100,94,-1,
   93,110,109,-1,
   93,111,110,-1,
   93,112,111,-1,
   93,126,112,-1,
   134,136,135,-1,
   134,137,136,-1,
   132,134,133,-1,
   143,132,144,-1,
   143,134,132,-1,
   139,131,130,-1,
   140,138,137,-1,
   140,130,138,-1,
   140,142,141,-1,
   140,143,142,-1,
   140,137,134,-1,
   140,139,130,-1,
   140,134,143,-1,
   156,150,149,-1,
   156,149,153,-1,
   155,151,150,-1,
   155,150,156,-1,
   154,152,151,-1,
   154,151,155,-1,
   145,146,147,-1,
   145,147,148,-1,
   145,148,152,-1,
   145,152,154,-1,
   162,160,161,-1,
   194,157,158,-1,
   194,158,159,-1,
   194,159,160,-1,
   194,160,162,-1,
   195,162,163,-1,
   195,194,162,-1,
   196,163,164,-1,
   196,195,163,-1,
   197,164,165,-1,
   197,196,164,-1,
   198,165,166,-1,
   198,197,165,-1,
   199,166,167,-1,
   199,198,166,-1,
   200,199,167,-1,
   200,167,168,-1,
   201,200,168,-1,
   201,168,169,-1,
   202,201,169,-1,
   202,169,170,-1,
   203,170,171,-1,
   203,202,170,-1,
   204,171,172,-1,
   204,203,171,-1,
   205,172,173,-1,
   205,204,172,-1,
   206,173,174,-1,
   206,205,173,-1,
   207,174,175,-1,
   207,206,174,-1,
   208,207,175,-1,
   209,175,176,-1,
   209,208,175,-1,
   210,176,177,-1,
   210,209,176,-1,
   211,177,178,-1,
   211,210,177,-1,
   212,178,179,-1,
   212,211,178,-1,
   213,179,180,-1,
   213,212,179,-1,
   214,180,181,-1,
   214,213,180,-1,
   215,181,182,-1,
   215,214,181,-1,
   216,182,183,-1,
   216,215,182,-1,
   217,183,184,-1,
   217,216,183,-1,
   218,184,185,-1,
   218,217,184,-1,
   219,185,186,-1,
   219,218,185,-1,
   220,186,187,-1,
   220,219,186,-1,
   221,187,188,-1,
   221,220,187,-1,
   190,188,189,-1,
   222,190,191,-1,
   222,188,190,-1,
   222,221,188,-1,
   192,222,191,-1,
   193,222,192,-1,
   241,242,243,-1,
   241,243,244,-1,
   241,244,245,-1,
   249,247,248,-1,
   238,239,240,-1,
   238,240,241,-1,
   252,249,250,-1,
   252,250,251,-1,
   253,245,246,-1,
   253,246,247,-1,
   253,247,249,-1,
   253,249,252,-1,
   235,236,237,-1,
   234,237,238,-1,
   234,235,237,-1,
   232,233,234,-1,
   230,231,232,-1,
   230,253,223,-1,
   230,241,245,-1,
   230,238,241,-1,
   230,232,234,-1,
   230,245,253,-1,
   230,234,238,-1,
   228,229,230,-1,
   225,226,227,-1,
   224,227,228,-1,
   224,228,230,-1,
   224,230,223,-1,
   224,225,227,-1 ] }
}
DEF pins Shape {
 appearance Appearance { material Material { diffuseColor 0.740 0.740 0.700 specularColor 0.5 0.5 0.5 shininess 0.6 } }
 geometry IndexedFaceSet { creaseAngle 0.5
  coord Coordinate { point [
   -0.05906 -0.15748 -1.37795,
   -0.05906 -0.15748 0.19685,
   -0.05906 0.15748 -1.37795,
   -0.05906 0.15748 0.19685,
   -0.05906 -0.15748 0.19685,
   -0.05906 0.15748 0.19685,
   0.66929 -0.15748 0.19685,
   0.66929 0.15748 0.19685,
   0.66929 -0.15748 0.07874,
   0.66929 -0.15748 0.19685,
   0.66929 0.15748 0.07874,
   0.66929 0.15748 0.19685,
   0.05906 0.15748 0.07874,
   0.66929 0.15748 0.07874,
   0.05906 -0.15748 0.07874,
   0.66929 -0.15748 0.07874,
   0.05906 -0.15748 -1.37795,
   0.05906 -0.15748 0.07874,
   0.05906 0.15748 -1.37795,
   0.05906 0.15748 0.07874,
   0.05906 0.15748 -1.37795,
   0.05906 0.15748 0.07874,
   -0.05906 0.15748 -1.37795,
   -0.05906 0.15748 0.19685,
   0.66929 0.15748 0.19685,
   0.66929 0.15748 0.07874,
   -0.05906 -0.15748 -1.37795,
   -0.05906 0.15748 -1.37795,
   0.05906 -0.15748 -1.37795,
   0.05906 0.15748 -1.37795,
   0.05906 -0.15748 -1.37795,
   0.05906 -0.15748 0.07874,
   -0.05906 -0.15748 -1.37795,
   -0.05906 -0.15748 0.19685,
   0.66929 -0.15748 0.19685,
   0.66929 -0.15748 0.07874,
   -0.05906 -1.14173 -1.37795,
   -0.05906 -1.14173 0.19685,
   -0.05906 -0.82677 -1.37795,
   -0.05906 -0.82677 0.19685,
   -0.05906 -1.14173 0.19685,
   -0.05906 -0.82677 0.19685,
   0.66929 -1.14173 0.19685,
   0.66929 -0.82677 0.19685,
   0.66929 -1.14173 0.07874,
   0.66929 -1.14173 0.19685,
   0.66929 -0.82677 0.07874,
   0.66929 -0.82677 0.19685,
   0.05906 -0.82677 0.07874,
   0.66929 -0.82677 0.07874,
   0.05906 -1.14173 0.07874,
   0.66929 -1.14173 0.07874,
   0.05906 -1.14173 -1.37795,
   0.05906 -1.14173 0.07874,
   0.05906 -0.82677 -1.37795,
   0.05906 -0.82677 0.07874,
   0.05906 -0.82677 -1.37795,
   0.05906 -0.82677 0.07874,
   -0.05906 -0.82677 -1.37795,
   -0.05906 -0.82677 0.19685,
   0.66929 -0.82677 0.19685,
   0.66929 -0.82677 0.07874,
   -0.05906 -1.14173 -1.37795,
   -0.05906 -0.82677 -1.37795,
   0.05906 -1.14173 -1.37795,
   0.05906 -0.82677 -1.37795,
   0.05906 -1.14173 -1.37795,
   0.05906 -1.14173 0.07874,
   -0.05906 -1.14173 -1.37795,
   -0.05906 -1.14173 0.19685,
   0.66929 -1.14173 0.19685,
   0.66929 -1.14173 0.07874,
   -0.05906 -2.12598 -1.37795,
   -0.05906 -2.12598 0.19685,
   -0.05906 -1.81102 -1.37795,
   -0.05906 -1.81102 0.19685,
   -0.05906 -2.12598 0.19685,
   -0.05906 -1.81102 0.19685,
   0.66929 -2.12598 0.19685,
   0.66929 -1.81102 0.19685,
   0.66929 -2.12598 0.07874,
   0.66929 -2.12598 0.19685,
   0.66929 -1.81102 0.07874,
   0.66929 -1.81102 0.19685,
   0.05906 -1.81102 0.07874,
   0.66929 -1.81102 0.07874,
   0.05906 -2.12598 0.07874,
   0.66929 -2.12598 0.07874,
   0.05906 -2.12598 -1.37795,
   0.05906 -2.12598 0.07874,
   0.05906 -1.81102 -1.37795,
   0.05906 -1.81102 0.07874,
   0.05906 -1.81102 -1.37795,
   0.05906 -1.81102 0.07874,
   -0.05906 -1.81102 -1.37795,
   -0.05906 -1.81102 0.19685,
   0.66929 -1.81102 0.19685,
   0.66929 -1.81102 0.07874,
   -0.05906 -2.12598 -1.37795,
   -0.05906 -1.81102 -1.37795,
   0.05906 -2.12598 -1.37795,
   0.05906 -1.81102 -1.37795,
   0.05906 -2.12598 -1.37795,
   0.05906 -2.12598 0.07874,
   -0.05906 -2.12598 -1.37795,
   -0.05906 -2.12598 0.19685,
   0.66929 -2.12598 0.19685,
   0.66929 -2.12598 0.07874,
   5.64961 -0.15748 -1.37795,
   5.64961 -0.15748 0.07874,
   5.64961 0.15748 -1.37795,
   5.64961 0.15748 0.07874,
   5.64961 -0.15748 -1.37795,
   5.64961 0.15748 -1.37795,
   5.76772 -0.15748 -1.37795,
   5.76772 0.15748 -1.37795,
   5.76772 -0.15748 -1.37795,
   5.76772 -0.15748 0.19685,
   5.76772 0.15748 -1.37795,
   5.76772 0.15748 0.19685,
   5.23622 0.15748 0.19685,
   5.76772 0.15748 0.19685,
   5.23622 -0.15748 0.19685,
   5.76772 -0.15748 0.19685,
   5.23622 -0.15748 0.07874,
   5.23622 -0.15748 0.19685,
   5.23622 0.15748 0.07874,
   5.23622 0.15748 0.19685,
   5.64961 0.15748 -1.37795,
   5.76772 0.15748 -1.37795,
   5.64961 0.15748 0.07874,
   5.23622 0.15748 0.07874,
   5.23622 0.15748 0.19685,
   5.76772 0.15748 0.19685,
   5.23622 0.15748 0.07874,
   5.64961 0.15748 0.07874,
   5.23622 -0.15748 0.07874,
   5.64961 -0.15748 0.07874,
   5.76772 -0.15748 -1.37795,
   5.76772 -0.15748 0.19685,
   5.64961 -0.15748 -1.37795,
   5.64961 -0.15748 0.07874,
   5.23622 -0.15748 0.07874,
   5.23622 -0.15748 0.19685,
   5.64961 -2.12598 -1.37795,
   5.64961 -2.12598 0.07874,
   5.64961 -1.81102 -1.37795,
   5.64961 -1.81102 0.07874,
   5.64961 -2.12598 -1.37795,
   5.64961 -1.81102 -1.37795,
   5.76772 -2.12598 -1.37795,
   5.76772 -1.81102 -1.37795,
   5.76772 -2.12598 -1.37795,
   5.76772 -2.12598 0.19685,
   5.76772 -1.81102 -1.37795,
   5.76772 -1.81102 0.19685,
   5.23622 -1.81102 0.19685,
   5.76772 -1.81102 0.19685,
   5.23622 -2.12598 0.19685,
   5.76772 -2.12598 0.19685,
   5.23622 -2.12598 0.07874,
   5.23622 -2.12598 0.19685,
   5.23622 -1.81102 0.07874,
   5.23622 -1.81102 0.19685,
   5.64961 -1.81102 -1.37795,
   5.76772 -1.81102 -1.37795,
   5.64961 -1.81102 0.07874,
   5.23622 -1.81102 0.07874,
   5.23622 -1.81102 0.19685,
   5.76772 -1.81102 0.19685,
   5.23622 -1.81102 0.07874,
   5.64961 -1.81102 0.07874,
   5.23622 -2.12598 0.07874,
   5.64961 -2.12598 0.07874,
   5.76772 -2.12598 -1.37795,
   5.76772 -2.12598 0.19685,
   5.64961 -2.12598 -1.37795,
   5.64961 -2.12598 0.07874,
   5.23622 -2.12598 0.07874,
   5.23622 -2.12598 0.19685 ] }
  coordIndex [
   1,2,0,-1,
   1,3,2,-1,
   7,5,4,-1,
   7,4,6,-1,
   9,8,10,-1,
   9,10,11,-1,
   13,14,12,-1,
   13,15,14,-1,
   17,16,18,-1,
   17,18,19,-1,
   21,20,22,-1,
   21,22,23,-1,
   24,25,21,-1,
   24,21,23,-1,
   29,26,27,-1,
   29,28,26,-1,
   31,32,30,-1,
   31,33,32,-1,
   34,31,35,-1,
   34,33,31,-1,
   37,38,36,-1,
   37,39,38,-1,
   43,41,40,-1,
   43,40,42,-1,
   45,44,46,-1,
   45,46,47,-1,
   49,50,48,-1,
   49,51,50,-1,
   53,52,54,-1,
   53,54,55,-1,
   57,56,58,-1,
   57,58,59,-1,
   60,61,57,-1,
   60,57,59,-1,
   65,62,63,-1,
   65,64,62,-1,
   67,68,66,-1,
   67,69,68,-1,
   70,67,71,-1,
   70,69,67,-1,
   73,74,72,-1,
   73,75,74,-1,
   79,77,76,-1,
   79,76,78,-1,
   81,80,82,-1,
   81,82,83,-1,
   85,86,84,-1,
   85,87,86,-1,
   89,88,90,-1,
   89,90,91,-1,
   93,92,94,-1,
   93,94,95,-1,
   96,97,93,-1,
   96,93,95,-1,
   101,98,99,-1,
   101,100,98,-1,
   103,104,102,-1,
   103,105,104,-1,
   106,103,107,-1,
   106,105,103,-1,
   109,110,108,-1,
   109,111,110,-1,
   115,112,113,-1,
   115,114,112,-1,
   117,116,118,-1,
   117,118,119,-1,
   121,120,122,-1,
   121,122,123,-1,
   125,126,124,-1,
   125,127,126,-1,
   130,129,128,-1,
   130,131,132,-1,
   133,130,132,-1,
   133,129,130,-1,
   135,136,134,-1,
   135,137,136,-1,
   141,140,138,-1,
   141,143,142,-1,
   139,143,141,-1,
   139,141,138,-1,
   145,146,144,-1,
   145,147,146,-1,
   151,148,149,-1,
   151,150,148,-1,
   153,152,154,-1,
   153,154,155,-1,
   157,156,158,-1,
   157,158,159,-1,
   161,162,160,-1,
   161,163,162,-1,
   166,165,164,-1,
   166,167,168,-1,
   169,166,168,-1,
   169,165,166,-1,
   171,172,170,-1,
   171,173,172,-1,
   177,176,174,-1,
   177,179,178,-1,
   175,179,177,-1,
   175,177,174,-1 ] }
}
