%TF.GenerationSoftware,KiCad,Pcbnew,10.0.4*%
%TF.CreationDate,2026-09-30T00:09:03-04:00*%
%TF.ProjectId,uSonicTimer1d,75536f6e-6963-4546-996d-657231642e6b,D*%
%TF.SameCoordinates,Original*%
%TF.FileFunction,Drillmap*%
%TF.FilePolarity,Positive*%
%FSLAX45Y45*%
G04 Gerber Fmt 4.5, Leading zero omitted, Abs format (unit mm)*
G04 Created by KiCad (PCBNEW 10.0.4) date 2026-09-30 00:09:03*
%MOMM*%
%LPD*%
G01*
G04 APERTURE LIST*
%ADD10C,0.100000*%
%ADD11C,0.200000*%
%ADD12C,0.150000*%
%ADD13C,0.210000*%
G04 APERTURE END LIST*
D10*
X11100000Y-8200000D02*
X20600000Y-8200000D01*
X20600000Y-12200000D01*
X11100000Y-12200000D01*
X11100000Y-8200000D01*
D11*
D12*
X11600000Y-8746250D02*
X11750000Y-8896250D01*
X11750000Y-8746250D02*
X11600000Y-8896250D01*
D10*
X11600000Y-8706250D02*
X11600000Y-8936250D01*
X11750000Y-8936250D02*
G75*
G02*
X11600000Y-8936250I-75000J0D01*
G01*
X11750000Y-8936250D02*
X11750000Y-8706250D01*
X11750000Y-8706250D02*
G75*
G03*
X11600000Y-8706250I-75000J0D01*
G01*
D12*
X11600000Y-10746250D02*
X11750000Y-10896250D01*
X11750000Y-10746250D02*
X11600000Y-10896250D01*
D10*
X11600000Y-10706250D02*
X11600000Y-10936250D01*
X11750000Y-10936250D02*
G75*
G02*
X11600000Y-10936250I-75000J0D01*
G01*
X11750000Y-10936250D02*
X11750000Y-10706250D01*
X11750000Y-10706250D02*
G75*
G03*
X11600000Y-10706250I-75000J0D01*
G01*
D12*
X15650000Y-8746250D02*
X15800000Y-8896250D01*
X15800000Y-8746250D02*
X15650000Y-8896250D01*
D10*
X15650000Y-8706250D02*
X15650000Y-8936250D01*
X15800000Y-8936250D02*
G75*
G02*
X15650000Y-8936250I-75000J0D01*
G01*
X15800000Y-8936250D02*
X15800000Y-8706250D01*
X15800000Y-8706250D02*
G75*
G03*
X15650000Y-8706250I-75000J0D01*
G01*
D12*
X15650000Y-10746250D02*
X15800000Y-10896250D01*
X15800000Y-10746250D02*
X15650000Y-10896250D01*
D10*
X15650000Y-10706250D02*
X15650000Y-10936250D01*
X15800000Y-10936250D02*
G75*
G02*
X15650000Y-10936250I-75000J0D01*
G01*
X15800000Y-10936250D02*
X15800000Y-10706250D01*
X15800000Y-10706250D02*
G75*
G03*
X15650000Y-10706250I-75000J0D01*
G01*
D13*
X11505000Y-8500000D02*
G75*
G02*
X11295000Y-8500000I-105000J0D01*
G01*
X11295000Y-8500000D02*
G75*
G02*
X11505000Y-8500000I105000J0D01*
G01*
X11505000Y-11900000D02*
G75*
G02*
X11295000Y-11900000I-105000J0D01*
G01*
X11295000Y-11900000D02*
G75*
G02*
X11505000Y-11900000I105000J0D01*
G01*
X20405000Y-8500000D02*
G75*
G02*
X20195000Y-8500000I-105000J0D01*
G01*
X20195000Y-8500000D02*
G75*
G02*
X20405000Y-8500000I105000J0D01*
G01*
X20405000Y-11900000D02*
G75*
G02*
X20195000Y-11900000I-105000J0D01*
G01*
X20195000Y-11900000D02*
G75*
G02*
X20405000Y-11900000I105000J0D01*
G01*
D11*
X11355777Y-12516484D02*
X11355777Y-12316484D01*
X11355777Y-12316484D02*
X11403396Y-12316484D01*
X11403396Y-12316484D02*
X11431967Y-12326008D01*
X11431967Y-12326008D02*
X11451015Y-12345055D01*
X11451015Y-12345055D02*
X11460539Y-12364103D01*
X11460539Y-12364103D02*
X11470062Y-12402198D01*
X11470062Y-12402198D02*
X11470062Y-12430769D01*
X11470062Y-12430769D02*
X11460539Y-12468865D01*
X11460539Y-12468865D02*
X11451015Y-12487912D01*
X11451015Y-12487912D02*
X11431967Y-12506960D01*
X11431967Y-12506960D02*
X11403396Y-12516484D01*
X11403396Y-12516484D02*
X11355777Y-12516484D01*
X11555777Y-12516484D02*
X11555777Y-12383150D01*
X11555777Y-12421246D02*
X11565301Y-12402198D01*
X11565301Y-12402198D02*
X11574824Y-12392674D01*
X11574824Y-12392674D02*
X11593872Y-12383150D01*
X11593872Y-12383150D02*
X11612920Y-12383150D01*
X11679586Y-12516484D02*
X11679586Y-12383150D01*
X11679586Y-12316484D02*
X11670062Y-12326008D01*
X11670062Y-12326008D02*
X11679586Y-12335531D01*
X11679586Y-12335531D02*
X11689110Y-12326008D01*
X11689110Y-12326008D02*
X11679586Y-12316484D01*
X11679586Y-12316484D02*
X11679586Y-12335531D01*
X11803396Y-12516484D02*
X11784348Y-12506960D01*
X11784348Y-12506960D02*
X11774824Y-12487912D01*
X11774824Y-12487912D02*
X11774824Y-12316484D01*
X11908158Y-12516484D02*
X11889110Y-12506960D01*
X11889110Y-12506960D02*
X11879586Y-12487912D01*
X11879586Y-12487912D02*
X11879586Y-12316484D01*
X12136729Y-12516484D02*
X12136729Y-12316484D01*
X12136729Y-12316484D02*
X12203396Y-12459341D01*
X12203396Y-12459341D02*
X12270062Y-12316484D01*
X12270062Y-12316484D02*
X12270062Y-12516484D01*
X12451015Y-12516484D02*
X12451015Y-12411722D01*
X12451015Y-12411722D02*
X12441491Y-12392674D01*
X12441491Y-12392674D02*
X12422443Y-12383150D01*
X12422443Y-12383150D02*
X12384348Y-12383150D01*
X12384348Y-12383150D02*
X12365301Y-12392674D01*
X12451015Y-12506960D02*
X12431967Y-12516484D01*
X12431967Y-12516484D02*
X12384348Y-12516484D01*
X12384348Y-12516484D02*
X12365301Y-12506960D01*
X12365301Y-12506960D02*
X12355777Y-12487912D01*
X12355777Y-12487912D02*
X12355777Y-12468865D01*
X12355777Y-12468865D02*
X12365301Y-12449817D01*
X12365301Y-12449817D02*
X12384348Y-12440293D01*
X12384348Y-12440293D02*
X12431967Y-12440293D01*
X12431967Y-12440293D02*
X12451015Y-12430769D01*
X12546253Y-12383150D02*
X12546253Y-12583150D01*
X12546253Y-12392674D02*
X12565301Y-12383150D01*
X12565301Y-12383150D02*
X12603396Y-12383150D01*
X12603396Y-12383150D02*
X12622443Y-12392674D01*
X12622443Y-12392674D02*
X12631967Y-12402198D01*
X12631967Y-12402198D02*
X12641491Y-12421246D01*
X12641491Y-12421246D02*
X12641491Y-12478388D01*
X12641491Y-12478388D02*
X12631967Y-12497436D01*
X12631967Y-12497436D02*
X12622443Y-12506960D01*
X12622443Y-12506960D02*
X12603396Y-12516484D01*
X12603396Y-12516484D02*
X12565301Y-12516484D01*
X12565301Y-12516484D02*
X12546253Y-12506960D01*
X12727205Y-12497436D02*
X12736729Y-12506960D01*
X12736729Y-12506960D02*
X12727205Y-12516484D01*
X12727205Y-12516484D02*
X12717682Y-12506960D01*
X12717682Y-12506960D02*
X12727205Y-12497436D01*
X12727205Y-12497436D02*
X12727205Y-12516484D01*
X12727205Y-12392674D02*
X12736729Y-12402198D01*
X12736729Y-12402198D02*
X12727205Y-12411722D01*
X12727205Y-12411722D02*
X12717682Y-12402198D01*
X12717682Y-12402198D02*
X12727205Y-12392674D01*
X12727205Y-12392674D02*
X12727205Y-12411722D01*
D12*
X10945000Y-12770000D02*
X11095000Y-12920000D01*
X11095000Y-12770000D02*
X10945000Y-12920000D01*
D11*
X11460539Y-12936484D02*
X11346253Y-12936484D01*
X11403396Y-12936484D02*
X11403396Y-12736484D01*
X11403396Y-12736484D02*
X11384348Y-12765055D01*
X11384348Y-12765055D02*
X11365301Y-12784103D01*
X11365301Y-12784103D02*
X11346253Y-12793627D01*
X11546253Y-12917436D02*
X11555777Y-12926960D01*
X11555777Y-12926960D02*
X11546253Y-12936484D01*
X11546253Y-12936484D02*
X11536729Y-12926960D01*
X11536729Y-12926960D02*
X11546253Y-12917436D01*
X11546253Y-12917436D02*
X11546253Y-12936484D01*
X11736729Y-12736484D02*
X11641491Y-12736484D01*
X11641491Y-12736484D02*
X11631967Y-12831722D01*
X11631967Y-12831722D02*
X11641491Y-12822198D01*
X11641491Y-12822198D02*
X11660539Y-12812674D01*
X11660539Y-12812674D02*
X11708158Y-12812674D01*
X11708158Y-12812674D02*
X11727205Y-12822198D01*
X11727205Y-12822198D02*
X11736729Y-12831722D01*
X11736729Y-12831722D02*
X11746253Y-12850769D01*
X11746253Y-12850769D02*
X11746253Y-12898388D01*
X11746253Y-12898388D02*
X11736729Y-12917436D01*
X11736729Y-12917436D02*
X11727205Y-12926960D01*
X11727205Y-12926960D02*
X11708158Y-12936484D01*
X11708158Y-12936484D02*
X11660539Y-12936484D01*
X11660539Y-12936484D02*
X11641491Y-12926960D01*
X11641491Y-12926960D02*
X11631967Y-12917436D01*
X11870062Y-12736484D02*
X11889110Y-12736484D01*
X11889110Y-12736484D02*
X11908158Y-12746008D01*
X11908158Y-12746008D02*
X11917682Y-12755531D01*
X11917682Y-12755531D02*
X11927205Y-12774579D01*
X11927205Y-12774579D02*
X11936729Y-12812674D01*
X11936729Y-12812674D02*
X11936729Y-12860293D01*
X11936729Y-12860293D02*
X11927205Y-12898388D01*
X11927205Y-12898388D02*
X11917682Y-12917436D01*
X11917682Y-12917436D02*
X11908158Y-12926960D01*
X11908158Y-12926960D02*
X11889110Y-12936484D01*
X11889110Y-12936484D02*
X11870062Y-12936484D01*
X11870062Y-12936484D02*
X11851015Y-12926960D01*
X11851015Y-12926960D02*
X11841491Y-12917436D01*
X11841491Y-12917436D02*
X11831967Y-12898388D01*
X11831967Y-12898388D02*
X11822443Y-12860293D01*
X11822443Y-12860293D02*
X11822443Y-12812674D01*
X11822443Y-12812674D02*
X11831967Y-12774579D01*
X11831967Y-12774579D02*
X11841491Y-12755531D01*
X11841491Y-12755531D02*
X11851015Y-12746008D01*
X11851015Y-12746008D02*
X11870062Y-12736484D01*
X12060539Y-12736484D02*
X12079586Y-12736484D01*
X12079586Y-12736484D02*
X12098634Y-12746008D01*
X12098634Y-12746008D02*
X12108158Y-12755531D01*
X12108158Y-12755531D02*
X12117682Y-12774579D01*
X12117682Y-12774579D02*
X12127205Y-12812674D01*
X12127205Y-12812674D02*
X12127205Y-12860293D01*
X12127205Y-12860293D02*
X12117682Y-12898388D01*
X12117682Y-12898388D02*
X12108158Y-12917436D01*
X12108158Y-12917436D02*
X12098634Y-12926960D01*
X12098634Y-12926960D02*
X12079586Y-12936484D01*
X12079586Y-12936484D02*
X12060539Y-12936484D01*
X12060539Y-12936484D02*
X12041491Y-12926960D01*
X12041491Y-12926960D02*
X12031967Y-12917436D01*
X12031967Y-12917436D02*
X12022443Y-12898388D01*
X12022443Y-12898388D02*
X12012920Y-12860293D01*
X12012920Y-12860293D02*
X12012920Y-12812674D01*
X12012920Y-12812674D02*
X12022443Y-12774579D01*
X12022443Y-12774579D02*
X12031967Y-12755531D01*
X12031967Y-12755531D02*
X12041491Y-12746008D01*
X12041491Y-12746008D02*
X12060539Y-12736484D01*
X12212920Y-12936484D02*
X12212920Y-12803150D01*
X12212920Y-12822198D02*
X12222443Y-12812674D01*
X12222443Y-12812674D02*
X12241491Y-12803150D01*
X12241491Y-12803150D02*
X12270063Y-12803150D01*
X12270063Y-12803150D02*
X12289110Y-12812674D01*
X12289110Y-12812674D02*
X12298634Y-12831722D01*
X12298634Y-12831722D02*
X12298634Y-12936484D01*
X12298634Y-12831722D02*
X12308158Y-12812674D01*
X12308158Y-12812674D02*
X12327205Y-12803150D01*
X12327205Y-12803150D02*
X12355777Y-12803150D01*
X12355777Y-12803150D02*
X12374824Y-12812674D01*
X12374824Y-12812674D02*
X12384348Y-12831722D01*
X12384348Y-12831722D02*
X12384348Y-12936484D01*
X12479586Y-12936484D02*
X12479586Y-12803150D01*
X12479586Y-12822198D02*
X12489110Y-12812674D01*
X12489110Y-12812674D02*
X12508158Y-12803150D01*
X12508158Y-12803150D02*
X12536729Y-12803150D01*
X12536729Y-12803150D02*
X12555777Y-12812674D01*
X12555777Y-12812674D02*
X12565301Y-12831722D01*
X12565301Y-12831722D02*
X12565301Y-12936484D01*
X12565301Y-12831722D02*
X12574824Y-12812674D01*
X12574824Y-12812674D02*
X12593872Y-12803150D01*
X12593872Y-12803150D02*
X12622443Y-12803150D01*
X12622443Y-12803150D02*
X12641491Y-12812674D01*
X12641491Y-12812674D02*
X12651015Y-12831722D01*
X12651015Y-12831722D02*
X12651015Y-12936484D01*
X13041491Y-12726960D02*
X12870063Y-12984103D01*
X13298634Y-12736484D02*
X13317682Y-12736484D01*
X13317682Y-12736484D02*
X13336729Y-12746008D01*
X13336729Y-12746008D02*
X13346253Y-12755531D01*
X13346253Y-12755531D02*
X13355777Y-12774579D01*
X13355777Y-12774579D02*
X13365301Y-12812674D01*
X13365301Y-12812674D02*
X13365301Y-12860293D01*
X13365301Y-12860293D02*
X13355777Y-12898388D01*
X13355777Y-12898388D02*
X13346253Y-12917436D01*
X13346253Y-12917436D02*
X13336729Y-12926960D01*
X13336729Y-12926960D02*
X13317682Y-12936484D01*
X13317682Y-12936484D02*
X13298634Y-12936484D01*
X13298634Y-12936484D02*
X13279586Y-12926960D01*
X13279586Y-12926960D02*
X13270063Y-12917436D01*
X13270063Y-12917436D02*
X13260539Y-12898388D01*
X13260539Y-12898388D02*
X13251015Y-12860293D01*
X13251015Y-12860293D02*
X13251015Y-12812674D01*
X13251015Y-12812674D02*
X13260539Y-12774579D01*
X13260539Y-12774579D02*
X13270063Y-12755531D01*
X13270063Y-12755531D02*
X13279586Y-12746008D01*
X13279586Y-12746008D02*
X13298634Y-12736484D01*
X13451015Y-12917436D02*
X13460539Y-12926960D01*
X13460539Y-12926960D02*
X13451015Y-12936484D01*
X13451015Y-12936484D02*
X13441491Y-12926960D01*
X13441491Y-12926960D02*
X13451015Y-12917436D01*
X13451015Y-12917436D02*
X13451015Y-12936484D01*
X13584348Y-12736484D02*
X13603396Y-12736484D01*
X13603396Y-12736484D02*
X13622444Y-12746008D01*
X13622444Y-12746008D02*
X13631967Y-12755531D01*
X13631967Y-12755531D02*
X13641491Y-12774579D01*
X13641491Y-12774579D02*
X13651015Y-12812674D01*
X13651015Y-12812674D02*
X13651015Y-12860293D01*
X13651015Y-12860293D02*
X13641491Y-12898388D01*
X13641491Y-12898388D02*
X13631967Y-12917436D01*
X13631967Y-12917436D02*
X13622444Y-12926960D01*
X13622444Y-12926960D02*
X13603396Y-12936484D01*
X13603396Y-12936484D02*
X13584348Y-12936484D01*
X13584348Y-12936484D02*
X13565301Y-12926960D01*
X13565301Y-12926960D02*
X13555777Y-12917436D01*
X13555777Y-12917436D02*
X13546253Y-12898388D01*
X13546253Y-12898388D02*
X13536729Y-12860293D01*
X13536729Y-12860293D02*
X13536729Y-12812674D01*
X13536729Y-12812674D02*
X13546253Y-12774579D01*
X13546253Y-12774579D02*
X13555777Y-12755531D01*
X13555777Y-12755531D02*
X13565301Y-12746008D01*
X13565301Y-12746008D02*
X13584348Y-12736484D01*
X13831967Y-12736484D02*
X13736729Y-12736484D01*
X13736729Y-12736484D02*
X13727206Y-12831722D01*
X13727206Y-12831722D02*
X13736729Y-12822198D01*
X13736729Y-12822198D02*
X13755777Y-12812674D01*
X13755777Y-12812674D02*
X13803396Y-12812674D01*
X13803396Y-12812674D02*
X13822444Y-12822198D01*
X13822444Y-12822198D02*
X13831967Y-12831722D01*
X13831967Y-12831722D02*
X13841491Y-12850769D01*
X13841491Y-12850769D02*
X13841491Y-12898388D01*
X13841491Y-12898388D02*
X13831967Y-12917436D01*
X13831967Y-12917436D02*
X13822444Y-12926960D01*
X13822444Y-12926960D02*
X13803396Y-12936484D01*
X13803396Y-12936484D02*
X13755777Y-12936484D01*
X13755777Y-12936484D02*
X13736729Y-12926960D01*
X13736729Y-12926960D02*
X13727206Y-12917436D01*
X13936729Y-12936484D02*
X13974825Y-12936484D01*
X13974825Y-12936484D02*
X13993872Y-12926960D01*
X13993872Y-12926960D02*
X14003396Y-12917436D01*
X14003396Y-12917436D02*
X14022444Y-12888865D01*
X14022444Y-12888865D02*
X14031967Y-12850769D01*
X14031967Y-12850769D02*
X14031967Y-12774579D01*
X14031967Y-12774579D02*
X14022444Y-12755531D01*
X14022444Y-12755531D02*
X14012920Y-12746008D01*
X14012920Y-12746008D02*
X13993872Y-12736484D01*
X13993872Y-12736484D02*
X13955777Y-12736484D01*
X13955777Y-12736484D02*
X13936729Y-12746008D01*
X13936729Y-12746008D02*
X13927206Y-12755531D01*
X13927206Y-12755531D02*
X13917682Y-12774579D01*
X13917682Y-12774579D02*
X13917682Y-12822198D01*
X13917682Y-12822198D02*
X13927206Y-12841246D01*
X13927206Y-12841246D02*
X13936729Y-12850769D01*
X13936729Y-12850769D02*
X13955777Y-12860293D01*
X13955777Y-12860293D02*
X13993872Y-12860293D01*
X13993872Y-12860293D02*
X14012920Y-12850769D01*
X14012920Y-12850769D02*
X14022444Y-12841246D01*
X14022444Y-12841246D02*
X14031967Y-12822198D01*
X14222444Y-12936484D02*
X14108158Y-12936484D01*
X14165301Y-12936484D02*
X14165301Y-12736484D01*
X14165301Y-12736484D02*
X14146253Y-12765055D01*
X14146253Y-12765055D02*
X14127206Y-12784103D01*
X14127206Y-12784103D02*
X14108158Y-12793627D01*
X14298634Y-12736484D02*
X14298634Y-12774579D01*
X14374825Y-12736484D02*
X14374825Y-12774579D01*
X14670063Y-13012674D02*
X14660539Y-13003150D01*
X14660539Y-13003150D02*
X14641491Y-12974579D01*
X14641491Y-12974579D02*
X14631968Y-12955531D01*
X14631968Y-12955531D02*
X14622444Y-12926960D01*
X14622444Y-12926960D02*
X14612920Y-12879341D01*
X14612920Y-12879341D02*
X14612920Y-12841246D01*
X14612920Y-12841246D02*
X14622444Y-12793627D01*
X14622444Y-12793627D02*
X14631968Y-12765055D01*
X14631968Y-12765055D02*
X14641491Y-12746008D01*
X14641491Y-12746008D02*
X14660539Y-12717436D01*
X14660539Y-12717436D02*
X14670063Y-12707912D01*
X14784348Y-12736484D02*
X14803396Y-12736484D01*
X14803396Y-12736484D02*
X14822444Y-12746008D01*
X14822444Y-12746008D02*
X14831968Y-12755531D01*
X14831968Y-12755531D02*
X14841491Y-12774579D01*
X14841491Y-12774579D02*
X14851015Y-12812674D01*
X14851015Y-12812674D02*
X14851015Y-12860293D01*
X14851015Y-12860293D02*
X14841491Y-12898388D01*
X14841491Y-12898388D02*
X14831968Y-12917436D01*
X14831968Y-12917436D02*
X14822444Y-12926960D01*
X14822444Y-12926960D02*
X14803396Y-12936484D01*
X14803396Y-12936484D02*
X14784348Y-12936484D01*
X14784348Y-12936484D02*
X14765301Y-12926960D01*
X14765301Y-12926960D02*
X14755777Y-12917436D01*
X14755777Y-12917436D02*
X14746253Y-12898388D01*
X14746253Y-12898388D02*
X14736729Y-12860293D01*
X14736729Y-12860293D02*
X14736729Y-12812674D01*
X14736729Y-12812674D02*
X14746253Y-12774579D01*
X14746253Y-12774579D02*
X14755777Y-12755531D01*
X14755777Y-12755531D02*
X14765301Y-12746008D01*
X14765301Y-12746008D02*
X14784348Y-12736484D01*
X15089110Y-12936484D02*
X15089110Y-12736484D01*
X15174825Y-12936484D02*
X15174825Y-12831722D01*
X15174825Y-12831722D02*
X15165301Y-12812674D01*
X15165301Y-12812674D02*
X15146253Y-12803150D01*
X15146253Y-12803150D02*
X15117682Y-12803150D01*
X15117682Y-12803150D02*
X15098634Y-12812674D01*
X15098634Y-12812674D02*
X15089110Y-12822198D01*
X15298634Y-12936484D02*
X15279587Y-12926960D01*
X15279587Y-12926960D02*
X15270063Y-12917436D01*
X15270063Y-12917436D02*
X15260539Y-12898388D01*
X15260539Y-12898388D02*
X15260539Y-12841246D01*
X15260539Y-12841246D02*
X15270063Y-12822198D01*
X15270063Y-12822198D02*
X15279587Y-12812674D01*
X15279587Y-12812674D02*
X15298634Y-12803150D01*
X15298634Y-12803150D02*
X15327206Y-12803150D01*
X15327206Y-12803150D02*
X15346253Y-12812674D01*
X15346253Y-12812674D02*
X15355777Y-12822198D01*
X15355777Y-12822198D02*
X15365301Y-12841246D01*
X15365301Y-12841246D02*
X15365301Y-12898388D01*
X15365301Y-12898388D02*
X15355777Y-12917436D01*
X15355777Y-12917436D02*
X15346253Y-12926960D01*
X15346253Y-12926960D02*
X15327206Y-12936484D01*
X15327206Y-12936484D02*
X15298634Y-12936484D01*
X15479587Y-12936484D02*
X15460539Y-12926960D01*
X15460539Y-12926960D02*
X15451015Y-12907912D01*
X15451015Y-12907912D02*
X15451015Y-12736484D01*
X15631968Y-12926960D02*
X15612920Y-12936484D01*
X15612920Y-12936484D02*
X15574825Y-12936484D01*
X15574825Y-12936484D02*
X15555777Y-12926960D01*
X15555777Y-12926960D02*
X15546253Y-12907912D01*
X15546253Y-12907912D02*
X15546253Y-12831722D01*
X15546253Y-12831722D02*
X15555777Y-12812674D01*
X15555777Y-12812674D02*
X15574825Y-12803150D01*
X15574825Y-12803150D02*
X15612920Y-12803150D01*
X15612920Y-12803150D02*
X15631968Y-12812674D01*
X15631968Y-12812674D02*
X15641491Y-12831722D01*
X15641491Y-12831722D02*
X15641491Y-12850769D01*
X15641491Y-12850769D02*
X15546253Y-12869817D01*
X15717682Y-12926960D02*
X15736730Y-12936484D01*
X15736730Y-12936484D02*
X15774825Y-12936484D01*
X15774825Y-12936484D02*
X15793872Y-12926960D01*
X15793872Y-12926960D02*
X15803396Y-12907912D01*
X15803396Y-12907912D02*
X15803396Y-12898388D01*
X15803396Y-12898388D02*
X15793872Y-12879341D01*
X15793872Y-12879341D02*
X15774825Y-12869817D01*
X15774825Y-12869817D02*
X15746253Y-12869817D01*
X15746253Y-12869817D02*
X15727206Y-12860293D01*
X15727206Y-12860293D02*
X15717682Y-12841246D01*
X15717682Y-12841246D02*
X15717682Y-12831722D01*
X15717682Y-12831722D02*
X15727206Y-12812674D01*
X15727206Y-12812674D02*
X15746253Y-12803150D01*
X15746253Y-12803150D02*
X15774825Y-12803150D01*
X15774825Y-12803150D02*
X15793872Y-12812674D01*
X16041492Y-12860293D02*
X16193873Y-12860293D01*
X16117682Y-12936484D02*
X16117682Y-12784103D01*
X16527206Y-12803150D02*
X16527206Y-12936484D01*
X16479587Y-12726960D02*
X16431968Y-12869817D01*
X16431968Y-12869817D02*
X16555777Y-12869817D01*
X16774825Y-12926960D02*
X16793873Y-12936484D01*
X16793873Y-12936484D02*
X16831968Y-12936484D01*
X16831968Y-12936484D02*
X16851016Y-12926960D01*
X16851016Y-12926960D02*
X16860539Y-12907912D01*
X16860539Y-12907912D02*
X16860539Y-12898388D01*
X16860539Y-12898388D02*
X16851016Y-12879341D01*
X16851016Y-12879341D02*
X16831968Y-12869817D01*
X16831968Y-12869817D02*
X16803396Y-12869817D01*
X16803396Y-12869817D02*
X16784349Y-12860293D01*
X16784349Y-12860293D02*
X16774825Y-12841246D01*
X16774825Y-12841246D02*
X16774825Y-12831722D01*
X16774825Y-12831722D02*
X16784349Y-12812674D01*
X16784349Y-12812674D02*
X16803396Y-12803150D01*
X16803396Y-12803150D02*
X16831968Y-12803150D01*
X16831968Y-12803150D02*
X16851016Y-12812674D01*
X16974825Y-12936484D02*
X16955777Y-12926960D01*
X16955777Y-12926960D02*
X16946254Y-12907912D01*
X16946254Y-12907912D02*
X16946254Y-12736484D01*
X17079587Y-12936484D02*
X17060539Y-12926960D01*
X17060539Y-12926960D02*
X17051016Y-12917436D01*
X17051016Y-12917436D02*
X17041492Y-12898388D01*
X17041492Y-12898388D02*
X17041492Y-12841246D01*
X17041492Y-12841246D02*
X17051016Y-12822198D01*
X17051016Y-12822198D02*
X17060539Y-12812674D01*
X17060539Y-12812674D02*
X17079587Y-12803150D01*
X17079587Y-12803150D02*
X17108158Y-12803150D01*
X17108158Y-12803150D02*
X17127206Y-12812674D01*
X17127206Y-12812674D02*
X17136730Y-12822198D01*
X17136730Y-12822198D02*
X17146254Y-12841246D01*
X17146254Y-12841246D02*
X17146254Y-12898388D01*
X17146254Y-12898388D02*
X17136730Y-12917436D01*
X17136730Y-12917436D02*
X17127206Y-12926960D01*
X17127206Y-12926960D02*
X17108158Y-12936484D01*
X17108158Y-12936484D02*
X17079587Y-12936484D01*
X17203397Y-12803150D02*
X17279587Y-12803150D01*
X17231968Y-12736484D02*
X17231968Y-12907912D01*
X17231968Y-12907912D02*
X17241492Y-12926960D01*
X17241492Y-12926960D02*
X17260539Y-12936484D01*
X17260539Y-12936484D02*
X17279587Y-12936484D01*
X17336730Y-12926960D02*
X17355777Y-12936484D01*
X17355777Y-12936484D02*
X17393873Y-12936484D01*
X17393873Y-12936484D02*
X17412920Y-12926960D01*
X17412920Y-12926960D02*
X17422444Y-12907912D01*
X17422444Y-12907912D02*
X17422444Y-12898388D01*
X17422444Y-12898388D02*
X17412920Y-12879341D01*
X17412920Y-12879341D02*
X17393873Y-12869817D01*
X17393873Y-12869817D02*
X17365301Y-12869817D01*
X17365301Y-12869817D02*
X17346254Y-12860293D01*
X17346254Y-12860293D02*
X17336730Y-12841246D01*
X17336730Y-12841246D02*
X17336730Y-12831722D01*
X17336730Y-12831722D02*
X17346254Y-12812674D01*
X17346254Y-12812674D02*
X17365301Y-12803150D01*
X17365301Y-12803150D02*
X17393873Y-12803150D01*
X17393873Y-12803150D02*
X17412920Y-12812674D01*
X17489111Y-13012674D02*
X17498635Y-13003150D01*
X17498635Y-13003150D02*
X17517682Y-12974579D01*
X17517682Y-12974579D02*
X17527206Y-12955531D01*
X17527206Y-12955531D02*
X17536730Y-12926960D01*
X17536730Y-12926960D02*
X17546254Y-12879341D01*
X17546254Y-12879341D02*
X17546254Y-12841246D01*
X17546254Y-12841246D02*
X17536730Y-12793627D01*
X17536730Y-12793627D02*
X17527206Y-12765055D01*
X17527206Y-12765055D02*
X17517682Y-12746008D01*
X17517682Y-12746008D02*
X17498635Y-12717436D01*
X17498635Y-12717436D02*
X17489111Y-12707912D01*
X17851016Y-13012674D02*
X17841492Y-13003150D01*
X17841492Y-13003150D02*
X17822444Y-12974579D01*
X17822444Y-12974579D02*
X17812920Y-12955531D01*
X17812920Y-12955531D02*
X17803397Y-12926960D01*
X17803397Y-12926960D02*
X17793873Y-12879341D01*
X17793873Y-12879341D02*
X17793873Y-12841246D01*
X17793873Y-12841246D02*
X17803397Y-12793627D01*
X17803397Y-12793627D02*
X17812920Y-12765055D01*
X17812920Y-12765055D02*
X17822444Y-12746008D01*
X17822444Y-12746008D02*
X17841492Y-12717436D01*
X17841492Y-12717436D02*
X17851016Y-12707912D01*
X17927206Y-12803150D02*
X17927206Y-12936484D01*
X17927206Y-12822198D02*
X17936730Y-12812674D01*
X17936730Y-12812674D02*
X17955777Y-12803150D01*
X17955777Y-12803150D02*
X17984349Y-12803150D01*
X17984349Y-12803150D02*
X18003397Y-12812674D01*
X18003397Y-12812674D02*
X18012920Y-12831722D01*
X18012920Y-12831722D02*
X18012920Y-12936484D01*
X18136730Y-12936484D02*
X18117682Y-12926960D01*
X18117682Y-12926960D02*
X18108158Y-12917436D01*
X18108158Y-12917436D02*
X18098635Y-12898388D01*
X18098635Y-12898388D02*
X18098635Y-12841246D01*
X18098635Y-12841246D02*
X18108158Y-12822198D01*
X18108158Y-12822198D02*
X18117682Y-12812674D01*
X18117682Y-12812674D02*
X18136730Y-12803150D01*
X18136730Y-12803150D02*
X18165301Y-12803150D01*
X18165301Y-12803150D02*
X18184349Y-12812674D01*
X18184349Y-12812674D02*
X18193873Y-12822198D01*
X18193873Y-12822198D02*
X18203397Y-12841246D01*
X18203397Y-12841246D02*
X18203397Y-12898388D01*
X18203397Y-12898388D02*
X18193873Y-12917436D01*
X18193873Y-12917436D02*
X18184349Y-12926960D01*
X18184349Y-12926960D02*
X18165301Y-12936484D01*
X18165301Y-12936484D02*
X18136730Y-12936484D01*
X18260539Y-12803150D02*
X18336730Y-12803150D01*
X18289111Y-12736484D02*
X18289111Y-12907912D01*
X18289111Y-12907912D02*
X18298635Y-12926960D01*
X18298635Y-12926960D02*
X18317682Y-12936484D01*
X18317682Y-12936484D02*
X18336730Y-12936484D01*
X18555778Y-12803150D02*
X18555778Y-13003150D01*
X18555778Y-12812674D02*
X18574825Y-12803150D01*
X18574825Y-12803150D02*
X18612920Y-12803150D01*
X18612920Y-12803150D02*
X18631968Y-12812674D01*
X18631968Y-12812674D02*
X18641492Y-12822198D01*
X18641492Y-12822198D02*
X18651016Y-12841246D01*
X18651016Y-12841246D02*
X18651016Y-12898388D01*
X18651016Y-12898388D02*
X18641492Y-12917436D01*
X18641492Y-12917436D02*
X18631968Y-12926960D01*
X18631968Y-12926960D02*
X18612920Y-12936484D01*
X18612920Y-12936484D02*
X18574825Y-12936484D01*
X18574825Y-12936484D02*
X18555778Y-12926960D01*
X18765301Y-12936484D02*
X18746254Y-12926960D01*
X18746254Y-12926960D02*
X18736730Y-12907912D01*
X18736730Y-12907912D02*
X18736730Y-12736484D01*
X18927206Y-12936484D02*
X18927206Y-12831722D01*
X18927206Y-12831722D02*
X18917682Y-12812674D01*
X18917682Y-12812674D02*
X18898635Y-12803150D01*
X18898635Y-12803150D02*
X18860539Y-12803150D01*
X18860539Y-12803150D02*
X18841492Y-12812674D01*
X18927206Y-12926960D02*
X18908159Y-12936484D01*
X18908159Y-12936484D02*
X18860539Y-12936484D01*
X18860539Y-12936484D02*
X18841492Y-12926960D01*
X18841492Y-12926960D02*
X18831968Y-12907912D01*
X18831968Y-12907912D02*
X18831968Y-12888865D01*
X18831968Y-12888865D02*
X18841492Y-12869817D01*
X18841492Y-12869817D02*
X18860539Y-12860293D01*
X18860539Y-12860293D02*
X18908159Y-12860293D01*
X18908159Y-12860293D02*
X18927206Y-12850769D01*
X18993873Y-12803150D02*
X19070063Y-12803150D01*
X19022444Y-12736484D02*
X19022444Y-12907912D01*
X19022444Y-12907912D02*
X19031968Y-12926960D01*
X19031968Y-12926960D02*
X19051016Y-12936484D01*
X19051016Y-12936484D02*
X19070063Y-12936484D01*
X19212920Y-12926960D02*
X19193873Y-12936484D01*
X19193873Y-12936484D02*
X19155778Y-12936484D01*
X19155778Y-12936484D02*
X19136730Y-12926960D01*
X19136730Y-12926960D02*
X19127206Y-12907912D01*
X19127206Y-12907912D02*
X19127206Y-12831722D01*
X19127206Y-12831722D02*
X19136730Y-12812674D01*
X19136730Y-12812674D02*
X19155778Y-12803150D01*
X19155778Y-12803150D02*
X19193873Y-12803150D01*
X19193873Y-12803150D02*
X19212920Y-12812674D01*
X19212920Y-12812674D02*
X19222444Y-12831722D01*
X19222444Y-12831722D02*
X19222444Y-12850769D01*
X19222444Y-12850769D02*
X19127206Y-12869817D01*
X19393873Y-12936484D02*
X19393873Y-12736484D01*
X19393873Y-12926960D02*
X19374825Y-12936484D01*
X19374825Y-12936484D02*
X19336730Y-12936484D01*
X19336730Y-12936484D02*
X19317682Y-12926960D01*
X19317682Y-12926960D02*
X19308159Y-12917436D01*
X19308159Y-12917436D02*
X19298635Y-12898388D01*
X19298635Y-12898388D02*
X19298635Y-12841246D01*
X19298635Y-12841246D02*
X19308159Y-12822198D01*
X19308159Y-12822198D02*
X19317682Y-12812674D01*
X19317682Y-12812674D02*
X19336730Y-12803150D01*
X19336730Y-12803150D02*
X19374825Y-12803150D01*
X19374825Y-12803150D02*
X19393873Y-12812674D01*
X19470063Y-13012674D02*
X19479587Y-13003150D01*
X19479587Y-13003150D02*
X19498635Y-12974579D01*
X19498635Y-12974579D02*
X19508159Y-12955531D01*
X19508159Y-12955531D02*
X19517682Y-12926960D01*
X19517682Y-12926960D02*
X19527206Y-12879341D01*
X19527206Y-12879341D02*
X19527206Y-12841246D01*
X19527206Y-12841246D02*
X19517682Y-12793627D01*
X19517682Y-12793627D02*
X19508159Y-12765055D01*
X19508159Y-12765055D02*
X19498635Y-12746008D01*
X19498635Y-12746008D02*
X19479587Y-12717436D01*
X19479587Y-12717436D02*
X19470063Y-12707912D01*
X11095000Y-13115000D02*
G75*
G02*
X10895000Y-13115000I-100000J0D01*
G01*
X10895000Y-13115000D02*
G75*
G02*
X11095000Y-13115000I100000J0D01*
G01*
X11346253Y-13025531D02*
X11355777Y-13016008D01*
X11355777Y-13016008D02*
X11374824Y-13006484D01*
X11374824Y-13006484D02*
X11422443Y-13006484D01*
X11422443Y-13006484D02*
X11441491Y-13016008D01*
X11441491Y-13016008D02*
X11451015Y-13025531D01*
X11451015Y-13025531D02*
X11460539Y-13044579D01*
X11460539Y-13044579D02*
X11460539Y-13063627D01*
X11460539Y-13063627D02*
X11451015Y-13092198D01*
X11451015Y-13092198D02*
X11336729Y-13206484D01*
X11336729Y-13206484D02*
X11460539Y-13206484D01*
X11546253Y-13187436D02*
X11555777Y-13196960D01*
X11555777Y-13196960D02*
X11546253Y-13206484D01*
X11546253Y-13206484D02*
X11536729Y-13196960D01*
X11536729Y-13196960D02*
X11546253Y-13187436D01*
X11546253Y-13187436D02*
X11546253Y-13206484D01*
X11746253Y-13206484D02*
X11631967Y-13206484D01*
X11689110Y-13206484D02*
X11689110Y-13006484D01*
X11689110Y-13006484D02*
X11670062Y-13035055D01*
X11670062Y-13035055D02*
X11651015Y-13054103D01*
X11651015Y-13054103D02*
X11631967Y-13063627D01*
X11870062Y-13006484D02*
X11889110Y-13006484D01*
X11889110Y-13006484D02*
X11908158Y-13016008D01*
X11908158Y-13016008D02*
X11917682Y-13025531D01*
X11917682Y-13025531D02*
X11927205Y-13044579D01*
X11927205Y-13044579D02*
X11936729Y-13082674D01*
X11936729Y-13082674D02*
X11936729Y-13130293D01*
X11936729Y-13130293D02*
X11927205Y-13168388D01*
X11927205Y-13168388D02*
X11917682Y-13187436D01*
X11917682Y-13187436D02*
X11908158Y-13196960D01*
X11908158Y-13196960D02*
X11889110Y-13206484D01*
X11889110Y-13206484D02*
X11870062Y-13206484D01*
X11870062Y-13206484D02*
X11851015Y-13196960D01*
X11851015Y-13196960D02*
X11841491Y-13187436D01*
X11841491Y-13187436D02*
X11831967Y-13168388D01*
X11831967Y-13168388D02*
X11822443Y-13130293D01*
X11822443Y-13130293D02*
X11822443Y-13082674D01*
X11822443Y-13082674D02*
X11831967Y-13044579D01*
X11831967Y-13044579D02*
X11841491Y-13025531D01*
X11841491Y-13025531D02*
X11851015Y-13016008D01*
X11851015Y-13016008D02*
X11870062Y-13006484D01*
X12060539Y-13006484D02*
X12079586Y-13006484D01*
X12079586Y-13006484D02*
X12098634Y-13016008D01*
X12098634Y-13016008D02*
X12108158Y-13025531D01*
X12108158Y-13025531D02*
X12117682Y-13044579D01*
X12117682Y-13044579D02*
X12127205Y-13082674D01*
X12127205Y-13082674D02*
X12127205Y-13130293D01*
X12127205Y-13130293D02*
X12117682Y-13168388D01*
X12117682Y-13168388D02*
X12108158Y-13187436D01*
X12108158Y-13187436D02*
X12098634Y-13196960D01*
X12098634Y-13196960D02*
X12079586Y-13206484D01*
X12079586Y-13206484D02*
X12060539Y-13206484D01*
X12060539Y-13206484D02*
X12041491Y-13196960D01*
X12041491Y-13196960D02*
X12031967Y-13187436D01*
X12031967Y-13187436D02*
X12022443Y-13168388D01*
X12022443Y-13168388D02*
X12012920Y-13130293D01*
X12012920Y-13130293D02*
X12012920Y-13082674D01*
X12012920Y-13082674D02*
X12022443Y-13044579D01*
X12022443Y-13044579D02*
X12031967Y-13025531D01*
X12031967Y-13025531D02*
X12041491Y-13016008D01*
X12041491Y-13016008D02*
X12060539Y-13006484D01*
X12212920Y-13206484D02*
X12212920Y-13073150D01*
X12212920Y-13092198D02*
X12222443Y-13082674D01*
X12222443Y-13082674D02*
X12241491Y-13073150D01*
X12241491Y-13073150D02*
X12270063Y-13073150D01*
X12270063Y-13073150D02*
X12289110Y-13082674D01*
X12289110Y-13082674D02*
X12298634Y-13101722D01*
X12298634Y-13101722D02*
X12298634Y-13206484D01*
X12298634Y-13101722D02*
X12308158Y-13082674D01*
X12308158Y-13082674D02*
X12327205Y-13073150D01*
X12327205Y-13073150D02*
X12355777Y-13073150D01*
X12355777Y-13073150D02*
X12374824Y-13082674D01*
X12374824Y-13082674D02*
X12384348Y-13101722D01*
X12384348Y-13101722D02*
X12384348Y-13206484D01*
X12479586Y-13206484D02*
X12479586Y-13073150D01*
X12479586Y-13092198D02*
X12489110Y-13082674D01*
X12489110Y-13082674D02*
X12508158Y-13073150D01*
X12508158Y-13073150D02*
X12536729Y-13073150D01*
X12536729Y-13073150D02*
X12555777Y-13082674D01*
X12555777Y-13082674D02*
X12565301Y-13101722D01*
X12565301Y-13101722D02*
X12565301Y-13206484D01*
X12565301Y-13101722D02*
X12574824Y-13082674D01*
X12574824Y-13082674D02*
X12593872Y-13073150D01*
X12593872Y-13073150D02*
X12622443Y-13073150D01*
X12622443Y-13073150D02*
X12641491Y-13082674D01*
X12641491Y-13082674D02*
X12651015Y-13101722D01*
X12651015Y-13101722D02*
X12651015Y-13206484D01*
X13041491Y-12996960D02*
X12870063Y-13254103D01*
X13298634Y-13006484D02*
X13317682Y-13006484D01*
X13317682Y-13006484D02*
X13336729Y-13016008D01*
X13336729Y-13016008D02*
X13346253Y-13025531D01*
X13346253Y-13025531D02*
X13355777Y-13044579D01*
X13355777Y-13044579D02*
X13365301Y-13082674D01*
X13365301Y-13082674D02*
X13365301Y-13130293D01*
X13365301Y-13130293D02*
X13355777Y-13168388D01*
X13355777Y-13168388D02*
X13346253Y-13187436D01*
X13346253Y-13187436D02*
X13336729Y-13196960D01*
X13336729Y-13196960D02*
X13317682Y-13206484D01*
X13317682Y-13206484D02*
X13298634Y-13206484D01*
X13298634Y-13206484D02*
X13279586Y-13196960D01*
X13279586Y-13196960D02*
X13270063Y-13187436D01*
X13270063Y-13187436D02*
X13260539Y-13168388D01*
X13260539Y-13168388D02*
X13251015Y-13130293D01*
X13251015Y-13130293D02*
X13251015Y-13082674D01*
X13251015Y-13082674D02*
X13260539Y-13044579D01*
X13260539Y-13044579D02*
X13270063Y-13025531D01*
X13270063Y-13025531D02*
X13279586Y-13016008D01*
X13279586Y-13016008D02*
X13298634Y-13006484D01*
X13451015Y-13187436D02*
X13460539Y-13196960D01*
X13460539Y-13196960D02*
X13451015Y-13206484D01*
X13451015Y-13206484D02*
X13441491Y-13196960D01*
X13441491Y-13196960D02*
X13451015Y-13187436D01*
X13451015Y-13187436D02*
X13451015Y-13206484D01*
X13584348Y-13006484D02*
X13603396Y-13006484D01*
X13603396Y-13006484D02*
X13622444Y-13016008D01*
X13622444Y-13016008D02*
X13631967Y-13025531D01*
X13631967Y-13025531D02*
X13641491Y-13044579D01*
X13641491Y-13044579D02*
X13651015Y-13082674D01*
X13651015Y-13082674D02*
X13651015Y-13130293D01*
X13651015Y-13130293D02*
X13641491Y-13168388D01*
X13641491Y-13168388D02*
X13631967Y-13187436D01*
X13631967Y-13187436D02*
X13622444Y-13196960D01*
X13622444Y-13196960D02*
X13603396Y-13206484D01*
X13603396Y-13206484D02*
X13584348Y-13206484D01*
X13584348Y-13206484D02*
X13565301Y-13196960D01*
X13565301Y-13196960D02*
X13555777Y-13187436D01*
X13555777Y-13187436D02*
X13546253Y-13168388D01*
X13546253Y-13168388D02*
X13536729Y-13130293D01*
X13536729Y-13130293D02*
X13536729Y-13082674D01*
X13536729Y-13082674D02*
X13546253Y-13044579D01*
X13546253Y-13044579D02*
X13555777Y-13025531D01*
X13555777Y-13025531D02*
X13565301Y-13016008D01*
X13565301Y-13016008D02*
X13584348Y-13006484D01*
X13765301Y-13092198D02*
X13746253Y-13082674D01*
X13746253Y-13082674D02*
X13736729Y-13073150D01*
X13736729Y-13073150D02*
X13727206Y-13054103D01*
X13727206Y-13054103D02*
X13727206Y-13044579D01*
X13727206Y-13044579D02*
X13736729Y-13025531D01*
X13736729Y-13025531D02*
X13746253Y-13016008D01*
X13746253Y-13016008D02*
X13765301Y-13006484D01*
X13765301Y-13006484D02*
X13803396Y-13006484D01*
X13803396Y-13006484D02*
X13822444Y-13016008D01*
X13822444Y-13016008D02*
X13831967Y-13025531D01*
X13831967Y-13025531D02*
X13841491Y-13044579D01*
X13841491Y-13044579D02*
X13841491Y-13054103D01*
X13841491Y-13054103D02*
X13831967Y-13073150D01*
X13831967Y-13073150D02*
X13822444Y-13082674D01*
X13822444Y-13082674D02*
X13803396Y-13092198D01*
X13803396Y-13092198D02*
X13765301Y-13092198D01*
X13765301Y-13092198D02*
X13746253Y-13101722D01*
X13746253Y-13101722D02*
X13736729Y-13111246D01*
X13736729Y-13111246D02*
X13727206Y-13130293D01*
X13727206Y-13130293D02*
X13727206Y-13168388D01*
X13727206Y-13168388D02*
X13736729Y-13187436D01*
X13736729Y-13187436D02*
X13746253Y-13196960D01*
X13746253Y-13196960D02*
X13765301Y-13206484D01*
X13765301Y-13206484D02*
X13803396Y-13206484D01*
X13803396Y-13206484D02*
X13822444Y-13196960D01*
X13822444Y-13196960D02*
X13831967Y-13187436D01*
X13831967Y-13187436D02*
X13841491Y-13168388D01*
X13841491Y-13168388D02*
X13841491Y-13130293D01*
X13841491Y-13130293D02*
X13831967Y-13111246D01*
X13831967Y-13111246D02*
X13822444Y-13101722D01*
X13822444Y-13101722D02*
X13803396Y-13092198D01*
X13917682Y-13025531D02*
X13927206Y-13016008D01*
X13927206Y-13016008D02*
X13946253Y-13006484D01*
X13946253Y-13006484D02*
X13993872Y-13006484D01*
X13993872Y-13006484D02*
X14012920Y-13016008D01*
X14012920Y-13016008D02*
X14022444Y-13025531D01*
X14022444Y-13025531D02*
X14031967Y-13044579D01*
X14031967Y-13044579D02*
X14031967Y-13063627D01*
X14031967Y-13063627D02*
X14022444Y-13092198D01*
X14022444Y-13092198D02*
X13908158Y-13206484D01*
X13908158Y-13206484D02*
X14031967Y-13206484D01*
X14098634Y-13006484D02*
X14231967Y-13006484D01*
X14231967Y-13006484D02*
X14146253Y-13206484D01*
X14298634Y-13006484D02*
X14298634Y-13044579D01*
X14374825Y-13006484D02*
X14374825Y-13044579D01*
X14670063Y-13282674D02*
X14660539Y-13273150D01*
X14660539Y-13273150D02*
X14641491Y-13244579D01*
X14641491Y-13244579D02*
X14631968Y-13225531D01*
X14631968Y-13225531D02*
X14622444Y-13196960D01*
X14622444Y-13196960D02*
X14612920Y-13149341D01*
X14612920Y-13149341D02*
X14612920Y-13111246D01*
X14612920Y-13111246D02*
X14622444Y-13063627D01*
X14622444Y-13063627D02*
X14631968Y-13035055D01*
X14631968Y-13035055D02*
X14641491Y-13016008D01*
X14641491Y-13016008D02*
X14660539Y-12987436D01*
X14660539Y-12987436D02*
X14670063Y-12977912D01*
X14831968Y-13073150D02*
X14831968Y-13206484D01*
X14784348Y-12996960D02*
X14736729Y-13139817D01*
X14736729Y-13139817D02*
X14860539Y-13139817D01*
X15089110Y-13206484D02*
X15089110Y-13006484D01*
X15174825Y-13206484D02*
X15174825Y-13101722D01*
X15174825Y-13101722D02*
X15165301Y-13082674D01*
X15165301Y-13082674D02*
X15146253Y-13073150D01*
X15146253Y-13073150D02*
X15117682Y-13073150D01*
X15117682Y-13073150D02*
X15098634Y-13082674D01*
X15098634Y-13082674D02*
X15089110Y-13092198D01*
X15298634Y-13206484D02*
X15279587Y-13196960D01*
X15279587Y-13196960D02*
X15270063Y-13187436D01*
X15270063Y-13187436D02*
X15260539Y-13168388D01*
X15260539Y-13168388D02*
X15260539Y-13111246D01*
X15260539Y-13111246D02*
X15270063Y-13092198D01*
X15270063Y-13092198D02*
X15279587Y-13082674D01*
X15279587Y-13082674D02*
X15298634Y-13073150D01*
X15298634Y-13073150D02*
X15327206Y-13073150D01*
X15327206Y-13073150D02*
X15346253Y-13082674D01*
X15346253Y-13082674D02*
X15355777Y-13092198D01*
X15355777Y-13092198D02*
X15365301Y-13111246D01*
X15365301Y-13111246D02*
X15365301Y-13168388D01*
X15365301Y-13168388D02*
X15355777Y-13187436D01*
X15355777Y-13187436D02*
X15346253Y-13196960D01*
X15346253Y-13196960D02*
X15327206Y-13206484D01*
X15327206Y-13206484D02*
X15298634Y-13206484D01*
X15479587Y-13206484D02*
X15460539Y-13196960D01*
X15460539Y-13196960D02*
X15451015Y-13177912D01*
X15451015Y-13177912D02*
X15451015Y-13006484D01*
X15631968Y-13196960D02*
X15612920Y-13206484D01*
X15612920Y-13206484D02*
X15574825Y-13206484D01*
X15574825Y-13206484D02*
X15555777Y-13196960D01*
X15555777Y-13196960D02*
X15546253Y-13177912D01*
X15546253Y-13177912D02*
X15546253Y-13101722D01*
X15546253Y-13101722D02*
X15555777Y-13082674D01*
X15555777Y-13082674D02*
X15574825Y-13073150D01*
X15574825Y-13073150D02*
X15612920Y-13073150D01*
X15612920Y-13073150D02*
X15631968Y-13082674D01*
X15631968Y-13082674D02*
X15641491Y-13101722D01*
X15641491Y-13101722D02*
X15641491Y-13120769D01*
X15641491Y-13120769D02*
X15546253Y-13139817D01*
X15717682Y-13196960D02*
X15736730Y-13206484D01*
X15736730Y-13206484D02*
X15774825Y-13206484D01*
X15774825Y-13206484D02*
X15793872Y-13196960D01*
X15793872Y-13196960D02*
X15803396Y-13177912D01*
X15803396Y-13177912D02*
X15803396Y-13168388D01*
X15803396Y-13168388D02*
X15793872Y-13149341D01*
X15793872Y-13149341D02*
X15774825Y-13139817D01*
X15774825Y-13139817D02*
X15746253Y-13139817D01*
X15746253Y-13139817D02*
X15727206Y-13130293D01*
X15727206Y-13130293D02*
X15717682Y-13111246D01*
X15717682Y-13111246D02*
X15717682Y-13101722D01*
X15717682Y-13101722D02*
X15727206Y-13082674D01*
X15727206Y-13082674D02*
X15746253Y-13073150D01*
X15746253Y-13073150D02*
X15774825Y-13073150D01*
X15774825Y-13073150D02*
X15793872Y-13082674D01*
X15870063Y-13282674D02*
X15879587Y-13273150D01*
X15879587Y-13273150D02*
X15898634Y-13244579D01*
X15898634Y-13244579D02*
X15908158Y-13225531D01*
X15908158Y-13225531D02*
X15917682Y-13196960D01*
X15917682Y-13196960D02*
X15927206Y-13149341D01*
X15927206Y-13149341D02*
X15927206Y-13111246D01*
X15927206Y-13111246D02*
X15917682Y-13063627D01*
X15917682Y-13063627D02*
X15908158Y-13035055D01*
X15908158Y-13035055D02*
X15898634Y-13016008D01*
X15898634Y-13016008D02*
X15879587Y-12987436D01*
X15879587Y-12987436D02*
X15870063Y-12977912D01*
X16231968Y-13282674D02*
X16222444Y-13273150D01*
X16222444Y-13273150D02*
X16203396Y-13244579D01*
X16203396Y-13244579D02*
X16193872Y-13225531D01*
X16193872Y-13225531D02*
X16184349Y-13196960D01*
X16184349Y-13196960D02*
X16174825Y-13149341D01*
X16174825Y-13149341D02*
X16174825Y-13111246D01*
X16174825Y-13111246D02*
X16184349Y-13063627D01*
X16184349Y-13063627D02*
X16193872Y-13035055D01*
X16193872Y-13035055D02*
X16203396Y-13016008D01*
X16203396Y-13016008D02*
X16222444Y-12987436D01*
X16222444Y-12987436D02*
X16231968Y-12977912D01*
X16308158Y-13073150D02*
X16308158Y-13206484D01*
X16308158Y-13092198D02*
X16317682Y-13082674D01*
X16317682Y-13082674D02*
X16336730Y-13073150D01*
X16336730Y-13073150D02*
X16365301Y-13073150D01*
X16365301Y-13073150D02*
X16384349Y-13082674D01*
X16384349Y-13082674D02*
X16393872Y-13101722D01*
X16393872Y-13101722D02*
X16393872Y-13206484D01*
X16517682Y-13206484D02*
X16498634Y-13196960D01*
X16498634Y-13196960D02*
X16489111Y-13187436D01*
X16489111Y-13187436D02*
X16479587Y-13168388D01*
X16479587Y-13168388D02*
X16479587Y-13111246D01*
X16479587Y-13111246D02*
X16489111Y-13092198D01*
X16489111Y-13092198D02*
X16498634Y-13082674D01*
X16498634Y-13082674D02*
X16517682Y-13073150D01*
X16517682Y-13073150D02*
X16546253Y-13073150D01*
X16546253Y-13073150D02*
X16565301Y-13082674D01*
X16565301Y-13082674D02*
X16574825Y-13092198D01*
X16574825Y-13092198D02*
X16584349Y-13111246D01*
X16584349Y-13111246D02*
X16584349Y-13168388D01*
X16584349Y-13168388D02*
X16574825Y-13187436D01*
X16574825Y-13187436D02*
X16565301Y-13196960D01*
X16565301Y-13196960D02*
X16546253Y-13206484D01*
X16546253Y-13206484D02*
X16517682Y-13206484D01*
X16641492Y-13073150D02*
X16717682Y-13073150D01*
X16670063Y-13006484D02*
X16670063Y-13177912D01*
X16670063Y-13177912D02*
X16679587Y-13196960D01*
X16679587Y-13196960D02*
X16698634Y-13206484D01*
X16698634Y-13206484D02*
X16717682Y-13206484D01*
X16936730Y-13073150D02*
X16936730Y-13273150D01*
X16936730Y-13082674D02*
X16955777Y-13073150D01*
X16955777Y-13073150D02*
X16993873Y-13073150D01*
X16993873Y-13073150D02*
X17012920Y-13082674D01*
X17012920Y-13082674D02*
X17022444Y-13092198D01*
X17022444Y-13092198D02*
X17031968Y-13111246D01*
X17031968Y-13111246D02*
X17031968Y-13168388D01*
X17031968Y-13168388D02*
X17022444Y-13187436D01*
X17022444Y-13187436D02*
X17012920Y-13196960D01*
X17012920Y-13196960D02*
X16993873Y-13206484D01*
X16993873Y-13206484D02*
X16955777Y-13206484D01*
X16955777Y-13206484D02*
X16936730Y-13196960D01*
X17146254Y-13206484D02*
X17127206Y-13196960D01*
X17127206Y-13196960D02*
X17117682Y-13177912D01*
X17117682Y-13177912D02*
X17117682Y-13006484D01*
X17308158Y-13206484D02*
X17308158Y-13101722D01*
X17308158Y-13101722D02*
X17298635Y-13082674D01*
X17298635Y-13082674D02*
X17279587Y-13073150D01*
X17279587Y-13073150D02*
X17241492Y-13073150D01*
X17241492Y-13073150D02*
X17222444Y-13082674D01*
X17308158Y-13196960D02*
X17289111Y-13206484D01*
X17289111Y-13206484D02*
X17241492Y-13206484D01*
X17241492Y-13206484D02*
X17222444Y-13196960D01*
X17222444Y-13196960D02*
X17212920Y-13177912D01*
X17212920Y-13177912D02*
X17212920Y-13158865D01*
X17212920Y-13158865D02*
X17222444Y-13139817D01*
X17222444Y-13139817D02*
X17241492Y-13130293D01*
X17241492Y-13130293D02*
X17289111Y-13130293D01*
X17289111Y-13130293D02*
X17308158Y-13120769D01*
X17374825Y-13073150D02*
X17451015Y-13073150D01*
X17403396Y-13006484D02*
X17403396Y-13177912D01*
X17403396Y-13177912D02*
X17412920Y-13196960D01*
X17412920Y-13196960D02*
X17431968Y-13206484D01*
X17431968Y-13206484D02*
X17451015Y-13206484D01*
X17593873Y-13196960D02*
X17574825Y-13206484D01*
X17574825Y-13206484D02*
X17536730Y-13206484D01*
X17536730Y-13206484D02*
X17517682Y-13196960D01*
X17517682Y-13196960D02*
X17508158Y-13177912D01*
X17508158Y-13177912D02*
X17508158Y-13101722D01*
X17508158Y-13101722D02*
X17517682Y-13082674D01*
X17517682Y-13082674D02*
X17536730Y-13073150D01*
X17536730Y-13073150D02*
X17574825Y-13073150D01*
X17574825Y-13073150D02*
X17593873Y-13082674D01*
X17593873Y-13082674D02*
X17603396Y-13101722D01*
X17603396Y-13101722D02*
X17603396Y-13120769D01*
X17603396Y-13120769D02*
X17508158Y-13139817D01*
X17774825Y-13206484D02*
X17774825Y-13006484D01*
X17774825Y-13196960D02*
X17755777Y-13206484D01*
X17755777Y-13206484D02*
X17717682Y-13206484D01*
X17717682Y-13206484D02*
X17698635Y-13196960D01*
X17698635Y-13196960D02*
X17689111Y-13187436D01*
X17689111Y-13187436D02*
X17679587Y-13168388D01*
X17679587Y-13168388D02*
X17679587Y-13111246D01*
X17679587Y-13111246D02*
X17689111Y-13092198D01*
X17689111Y-13092198D02*
X17698635Y-13082674D01*
X17698635Y-13082674D02*
X17717682Y-13073150D01*
X17717682Y-13073150D02*
X17755777Y-13073150D01*
X17755777Y-13073150D02*
X17774825Y-13082674D01*
X17851016Y-13282674D02*
X17860539Y-13273150D01*
X17860539Y-13273150D02*
X17879587Y-13244579D01*
X17879587Y-13244579D02*
X17889111Y-13225531D01*
X17889111Y-13225531D02*
X17898635Y-13196960D01*
X17898635Y-13196960D02*
X17908158Y-13149341D01*
X17908158Y-13149341D02*
X17908158Y-13111246D01*
X17908158Y-13111246D02*
X17898635Y-13063627D01*
X17898635Y-13063627D02*
X17889111Y-13035055D01*
X17889111Y-13035055D02*
X17879587Y-13016008D01*
X17879587Y-13016008D02*
X17860539Y-12987436D01*
X17860539Y-12987436D02*
X17851016Y-12977912D01*
M02*
