G04 #@! TF.GenerationSoftware,KiCad,Pcbnew,10.0.4*
G04 #@! TF.CreationDate,2026-09-30T00:09:03-04:00*
G04 #@! TF.ProjectId,uSonicTimer1d,75536f6e-6963-4546-996d-657231642e6b,D*
G04 #@! TF.SameCoordinates,Original*
G04 #@! TF.FileFunction,Paste,Bot*
G04 #@! TF.FilePolarity,Positive*
%FSLAX46Y46*%
G04 Gerber Fmt 4.6, Leading zero omitted, Abs format (unit mm)*
G04 Created by KiCad (PCBNEW 10.0.4) date 2026-09-30 00:09:03*
%MOMM*%
%LPD*%
G01*
G04 APERTURE LIST*
G04 Aperture macros list*
%AMRoundRect*
0 Rectangle with rounded corners*
0 $1 Rounding radius*
0 $2 $3 $4 $5 $6 $7 $8 $9 X,Y pos of 4 corners*
0 Add a 4 corners polygon primitive as box body*
4,1,4,$2,$3,$4,$5,$6,$7,$8,$9,$2,$3,0*
0 Add four circle primitives for the rounded corners*
1,1,$1+$1,$2,$3*
1,1,$1+$1,$4,$5*
1,1,$1+$1,$6,$7*
1,1,$1+$1,$8,$9*
0 Add four rect primitives between the rounded corners*
20,1,$1+$1,$2,$3,$4,$5,0*
20,1,$1+$1,$4,$5,$6,$7,0*
20,1,$1+$1,$6,$7,$8,$9,0*
20,1,$1+$1,$8,$9,$2,$3,0*%
G04 Aperture macros list end*
%ADD10RoundRect,0.250000X0.450000X-0.262500X0.450000X0.262500X-0.450000X0.262500X-0.450000X-0.262500X0*%
%ADD11RoundRect,0.250000X0.262500X0.450000X-0.262500X0.450000X-0.262500X-0.450000X0.262500X-0.450000X0*%
%ADD12RoundRect,0.250000X-0.450000X0.262500X-0.450000X-0.262500X0.450000X-0.262500X0.450000X0.262500X0*%
%ADD13R,1.300000X0.600000*%
%ADD14RoundRect,0.250000X-0.250000X-0.475000X0.250000X-0.475000X0.250000X0.475000X-0.250000X0.475000X0*%
%ADD15RoundRect,0.250000X-0.262500X-0.450000X0.262500X-0.450000X0.262500X0.450000X-0.262500X0.450000X0*%
%ADD16O,1.219200X2.032000*%
G04 APERTURE END LIST*
D10*
X189600000Y-103512500D03*
X189600000Y-101687500D03*
X145000000Y-107412500D03*
X145000000Y-105587500D03*
D11*
X159512500Y-99600000D03*
X157687500Y-99600000D03*
D12*
X135300000Y-111887500D03*
X135300000Y-113712500D03*
D13*
X133250000Y-114350000D03*
X133250000Y-116250000D03*
X131150000Y-115300000D03*
D14*
X162050000Y-92000000D03*
X163950000Y-92000000D03*
D12*
X122475000Y-110885000D03*
X122475000Y-112710000D03*
X122475000Y-97787500D03*
X122475000Y-99612500D03*
D14*
X140650000Y-84600000D03*
X142550000Y-84600000D03*
D15*
X152687500Y-93100000D03*
X154512500Y-93100000D03*
D12*
X137400000Y-111887500D03*
X137400000Y-113712500D03*
D14*
X133950000Y-84500000D03*
X135850000Y-84500000D03*
D12*
X152105000Y-110895000D03*
X152105000Y-112720000D03*
D13*
X146150000Y-111875000D03*
X146150000Y-109975000D03*
X148250000Y-110925000D03*
D12*
X152105000Y-97687500D03*
X152105000Y-99512500D03*
D16*
X168180000Y-96000000D03*
X170720000Y-96000000D03*
X173260000Y-96000000D03*
X175800000Y-96000000D03*
X178340000Y-96000000D03*
D13*
X133150000Y-109200000D03*
X133150000Y-111100000D03*
X131050000Y-110150000D03*
M02*
