%TF.GenerationSoftware,KiCad,Pcbnew,10.0.4*%
%TF.CreationDate,2026-09-30T00:09:03-04:00*%
%TF.ProjectId,uSonicTimer1d,75536f6e-6963-4546-996d-657231642e6b,D*%
%TF.SameCoordinates,Original*%
%TF.FileFunction,Drillmap*%
%TF.FilePolarity,Positive*%
%FSLAX45Y45*%
G04 Gerber Fmt 4.5, Leading zero omitted, Abs format (unit mm)*
G04 Created by KiCad (PCBNEW 10.0.4) date 2026-09-30 00:09:03*
%MOMM*%
%LPD*%
G01*
G04 APERTURE LIST*
%ADD10C,0.100000*%
%ADD11C,0.200000*%
%ADD12C,0.140000*%
%ADD13C,0.150000*%
G04 APERTURE END LIST*
D10*
X11100000Y-8200000D02*
X20600000Y-8200000D01*
X20600000Y-12200000D01*
X11100000Y-12200000D01*
X11100000Y-8200000D01*
D11*
D10*
X11280000Y-8980000D02*
X11320000Y-9020000D01*
X11320000Y-8980000D02*
X11280000Y-9020000D01*
X11280000Y-9580000D02*
X11320000Y-9620000D01*
X11320000Y-9580000D02*
X11280000Y-9620000D01*
X11280000Y-10180000D02*
X11320000Y-10220000D01*
X11320000Y-10180000D02*
X11280000Y-10220000D01*
X11280000Y-10780000D02*
X11320000Y-10820000D01*
X11320000Y-10780000D02*
X11280000Y-10820000D01*
X11280000Y-11380000D02*
X11320000Y-11420000D01*
X11320000Y-11380000D02*
X11280000Y-11420000D01*
X11807500Y-10057960D02*
X11847500Y-10097960D01*
X11847500Y-10057960D02*
X11807500Y-10097960D01*
X11880000Y-8380000D02*
X11920000Y-8420000D01*
X11920000Y-8380000D02*
X11880000Y-8420000D01*
X11880000Y-9580000D02*
X11920000Y-9620000D01*
X11920000Y-9580000D02*
X11880000Y-9620000D01*
X11880000Y-11980000D02*
X11920000Y-12020000D01*
X11920000Y-11980000D02*
X11880000Y-12020000D01*
X11907660Y-11352910D02*
X11947660Y-11392910D01*
X11947660Y-11352910D02*
X11907660Y-11392910D01*
X11942990Y-9881400D02*
X11982990Y-9921400D01*
X11982990Y-9881400D02*
X11942990Y-9921400D01*
X12327770Y-10968230D02*
X12367770Y-11008230D01*
X12367770Y-10968230D02*
X12327770Y-11008230D01*
X12338480Y-11156480D02*
X12378480Y-11196480D01*
X12378480Y-11156480D02*
X12338480Y-11196480D01*
X12480000Y-8380000D02*
X12520000Y-8420000D01*
X12520000Y-8380000D02*
X12480000Y-8420000D01*
X12480000Y-8980000D02*
X12520000Y-9020000D01*
X12520000Y-8980000D02*
X12480000Y-9020000D01*
X12480000Y-9580000D02*
X12520000Y-9620000D01*
X12520000Y-9580000D02*
X12480000Y-9620000D01*
X12480000Y-10180000D02*
X12520000Y-10220000D01*
X12520000Y-10180000D02*
X12480000Y-10220000D01*
X12480000Y-10780000D02*
X12520000Y-10820000D01*
X12520000Y-10780000D02*
X12480000Y-10820000D01*
X12480000Y-11980000D02*
X12520000Y-12020000D01*
X12520000Y-11980000D02*
X12480000Y-12020000D01*
X13080000Y-8380000D02*
X13120000Y-8420000D01*
X13120000Y-8380000D02*
X13080000Y-8420000D01*
X13080000Y-8980000D02*
X13120000Y-9020000D01*
X13120000Y-8980000D02*
X13080000Y-9020000D01*
X13080000Y-11980000D02*
X13120000Y-12020000D01*
X13120000Y-11980000D02*
X13080000Y-12020000D01*
X13280000Y-9019380D02*
X13320000Y-9059380D01*
X13320000Y-9019380D02*
X13280000Y-9059380D01*
X13398540Y-11510790D02*
X13438540Y-11550790D01*
X13438540Y-11510790D02*
X13398540Y-11550790D01*
X13409580Y-9018500D02*
X13449580Y-9058500D01*
X13449580Y-9018500D02*
X13409580Y-9058500D01*
X13680000Y-9580000D02*
X13720000Y-9620000D01*
X13720000Y-9580000D02*
X13680000Y-9620000D01*
X13680000Y-10780000D02*
X13720000Y-10820000D01*
X13720000Y-10780000D02*
X13680000Y-10820000D01*
X13680000Y-11980000D02*
X13720000Y-12020000D01*
X13720000Y-11980000D02*
X13680000Y-12020000D01*
X13796800Y-9713200D02*
X13836800Y-9753200D01*
X13836800Y-9713200D02*
X13796800Y-9753200D01*
X13873900Y-10131760D02*
X13913900Y-10171760D01*
X13913900Y-10131760D02*
X13873900Y-10171760D01*
X13907560Y-9016480D02*
X13947560Y-9056480D01*
X13947560Y-9016480D02*
X13907560Y-9056480D01*
X13914550Y-8430000D02*
X13954550Y-8470000D01*
X13954550Y-8430000D02*
X13914550Y-8470000D01*
X14063330Y-9018690D02*
X14103330Y-9058690D01*
X14103330Y-9018690D02*
X14063330Y-9058690D01*
X14105770Y-8584180D02*
X14145770Y-8624180D01*
X14145770Y-8584180D02*
X14105770Y-8624180D01*
X14280000Y-8980000D02*
X14320000Y-9020000D01*
X14320000Y-8980000D02*
X14280000Y-9020000D01*
X14280000Y-11980000D02*
X14320000Y-12020000D01*
X14320000Y-11980000D02*
X14280000Y-12020000D01*
X14340000Y-8350000D02*
X14380000Y-8390000D01*
X14380000Y-8350000D02*
X14340000Y-8390000D01*
X14406680Y-10837790D02*
X14446680Y-10877790D01*
X14446680Y-10837790D02*
X14406680Y-10877790D01*
X14805000Y-11170430D02*
X14845000Y-11210430D01*
X14845000Y-11170430D02*
X14805000Y-11210430D01*
X14880000Y-8380000D02*
X14920000Y-8420000D01*
X14920000Y-8380000D02*
X14880000Y-8420000D01*
X14880000Y-9580000D02*
X14920000Y-9620000D01*
X14920000Y-9580000D02*
X14880000Y-9620000D01*
X14880000Y-10780000D02*
X14920000Y-10820000D01*
X14920000Y-10780000D02*
X14880000Y-10820000D01*
X14880000Y-11980000D02*
X14920000Y-12020000D01*
X14920000Y-11980000D02*
X14880000Y-12020000D01*
X15079710Y-9840050D02*
X15119710Y-9880050D01*
X15119710Y-9840050D02*
X15079710Y-9880050D01*
X15096640Y-10052000D02*
X15136640Y-10092000D01*
X15136640Y-10052000D02*
X15096640Y-10092000D01*
X15170790Y-10327590D02*
X15210790Y-10367590D01*
X15210790Y-10327590D02*
X15170790Y-10367590D01*
X15410000Y-10860000D02*
X15450000Y-10900000D01*
X15450000Y-10860000D02*
X15410000Y-10900000D01*
X15420000Y-9970000D02*
X15460000Y-10010000D01*
X15460000Y-9970000D02*
X15420000Y-10010000D01*
X15438510Y-10968000D02*
X15478510Y-11008000D01*
X15478510Y-10968000D02*
X15438510Y-11008000D01*
X15480000Y-8380000D02*
X15520000Y-8420000D01*
X15520000Y-8380000D02*
X15480000Y-8420000D01*
X15480000Y-9580000D02*
X15520000Y-9620000D01*
X15520000Y-9580000D02*
X15480000Y-9620000D01*
X15729070Y-11250500D02*
X15769070Y-11290500D01*
X15769070Y-11250500D02*
X15729070Y-11290500D01*
X15777480Y-9430000D02*
X15817480Y-9470000D01*
X15817480Y-9430000D02*
X15777480Y-9470000D01*
X16080000Y-11380000D02*
X16120000Y-11420000D01*
X16120000Y-11380000D02*
X16080000Y-11420000D01*
X16080000Y-11980000D02*
X16120000Y-12020000D01*
X16120000Y-11980000D02*
X16080000Y-12020000D01*
X16172680Y-8297500D02*
X16212680Y-8337500D01*
X16212680Y-8297500D02*
X16172680Y-8337500D01*
X16319450Y-9030000D02*
X16359450Y-9070000D01*
X16359450Y-9030000D02*
X16319450Y-9070000D01*
X16573440Y-10941480D02*
X16613440Y-10981480D01*
X16613440Y-10941480D02*
X16573440Y-10981480D01*
X16680000Y-11980000D02*
X16720000Y-12020000D01*
X16720000Y-11980000D02*
X16680000Y-12020000D01*
X16832030Y-9749360D02*
X16872030Y-9789360D01*
X16872030Y-9749360D02*
X16832030Y-9789360D01*
X16859570Y-9942330D02*
X16899570Y-9982330D01*
X16899570Y-9942330D02*
X16859570Y-9982330D01*
X17034940Y-10234870D02*
X17074940Y-10274870D01*
X17074940Y-10234870D02*
X17034940Y-10274870D01*
X17039370Y-10030000D02*
X17079370Y-10070000D01*
X17079370Y-10030000D02*
X17039370Y-10070000D01*
X17280000Y-11980000D02*
X17320000Y-12020000D01*
X17320000Y-11980000D02*
X17280000Y-12020000D01*
X17342110Y-10969420D02*
X17382110Y-11009420D01*
X17382110Y-10969420D02*
X17342110Y-11009420D01*
X17585250Y-9830000D02*
X17625250Y-9870000D01*
X17625250Y-9830000D02*
X17585250Y-9870000D01*
X17639300Y-10411900D02*
X17679300Y-10451900D01*
X17679300Y-10411900D02*
X17639300Y-10451900D01*
X17686910Y-9059820D02*
X17726910Y-9099820D01*
X17726910Y-9059820D02*
X17686910Y-9099820D01*
X17797180Y-9748120D02*
X17837180Y-9788120D01*
X17837180Y-9748120D02*
X17797180Y-9788120D01*
X17878440Y-9230000D02*
X17918440Y-9270000D01*
X17918440Y-9230000D02*
X17878440Y-9270000D01*
X17880000Y-11980000D02*
X17920000Y-12020000D01*
X17920000Y-11980000D02*
X17880000Y-12020000D01*
X18261510Y-9448890D02*
X18301510Y-9488890D01*
X18301510Y-9448890D02*
X18261510Y-9488890D01*
X18382650Y-10896400D02*
X18422650Y-10936400D01*
X18422650Y-10896400D02*
X18382650Y-10936400D01*
X18397900Y-9261300D02*
X18437900Y-9301300D01*
X18437900Y-9261300D02*
X18397900Y-9301300D01*
X18480000Y-8380000D02*
X18520000Y-8420000D01*
X18520000Y-8380000D02*
X18480000Y-8420000D01*
X18480000Y-11380000D02*
X18520000Y-11420000D01*
X18520000Y-11380000D02*
X18480000Y-11420000D01*
X18480000Y-11980000D02*
X18520000Y-12020000D01*
X18520000Y-11980000D02*
X18480000Y-12020000D01*
X18841180Y-9411110D02*
X18881180Y-9451110D01*
X18881180Y-9411110D02*
X18841180Y-9451110D01*
X18997900Y-9261300D02*
X19037900Y-9301300D01*
X19037900Y-9261300D02*
X18997900Y-9301300D01*
X19080000Y-8380000D02*
X19120000Y-8420000D01*
X19120000Y-8380000D02*
X19080000Y-8420000D01*
X19094110Y-11300000D02*
X19134110Y-11340000D01*
X19134110Y-11300000D02*
X19094110Y-11340000D01*
X19467000Y-9821600D02*
X19507000Y-9861600D01*
X19507000Y-9821600D02*
X19467000Y-9861600D01*
X19597900Y-9861300D02*
X19637900Y-9901300D01*
X19637900Y-9861300D02*
X19597900Y-9901300D01*
X19680000Y-8380000D02*
X19720000Y-8420000D01*
X19720000Y-8380000D02*
X19680000Y-8420000D01*
X19680000Y-11380000D02*
X19720000Y-11420000D01*
X19720000Y-11380000D02*
X19680000Y-11420000D01*
X19855470Y-8633750D02*
X19895470Y-8673750D01*
X19895470Y-8633750D02*
X19855470Y-8673750D01*
X19895000Y-11365790D02*
X19935000Y-11405790D01*
X19935000Y-11365790D02*
X19895000Y-11405790D01*
X20280000Y-8980000D02*
X20320000Y-9020000D01*
X20320000Y-8980000D02*
X20280000Y-9020000D01*
X20280000Y-9580000D02*
X20320000Y-9620000D01*
X20320000Y-9580000D02*
X20280000Y-9620000D01*
X20280000Y-10180000D02*
X20320000Y-10220000D01*
X20320000Y-10180000D02*
X20280000Y-10220000D01*
X20280000Y-10780000D02*
X20320000Y-10820000D01*
X20320000Y-10780000D02*
X20280000Y-10820000D01*
X20280000Y-11380000D02*
X20320000Y-11420000D01*
X20320000Y-11380000D02*
X20280000Y-11420000D01*
X19290000Y-9085000D02*
G75*
G02*
X19190000Y-9085000I-50000J0D01*
G01*
X19190000Y-9085000D02*
G75*
G02*
X19290000Y-9085000I50000J0D01*
G01*
X19290000Y-10535000D02*
G75*
G02*
X19190000Y-10535000I-50000J0D01*
G01*
X19190000Y-10535000D02*
G75*
G02*
X19290000Y-10535000I50000J0D01*
G01*
X19540000Y-9085000D02*
G75*
G02*
X19440000Y-9085000I-50000J0D01*
G01*
X19440000Y-9085000D02*
G75*
G02*
X19540000Y-9085000I50000J0D01*
G01*
X19790000Y-9085000D02*
G75*
G02*
X19690000Y-9085000I-50000J0D01*
G01*
X19690000Y-9085000D02*
G75*
G02*
X19790000Y-9085000I50000J0D01*
G01*
X19790000Y-10535000D02*
G75*
G02*
X19690000Y-10535000I-50000J0D01*
G01*
X19690000Y-10535000D02*
G75*
G02*
X19790000Y-10535000I50000J0D01*
G01*
D12*
X16312500Y-11427250D02*
X16312500Y-11567250D01*
X16242500Y-11497250D02*
X16382500Y-11497250D01*
X16812500Y-11427250D02*
X16812500Y-11567250D01*
X16742500Y-11497250D02*
X16882500Y-11497250D01*
X17312500Y-11427250D02*
X17312500Y-11567250D01*
X17242500Y-11497250D02*
X17382500Y-11497250D01*
X17812500Y-11427250D02*
X17812500Y-11567250D01*
X17742500Y-11497250D02*
X17882500Y-11497250D01*
X18312500Y-11427250D02*
X18312500Y-11567250D01*
X18242500Y-11497250D02*
X18382500Y-11497250D01*
D13*
X18983034Y-9888034D02*
X18983034Y-9781967D01*
X18876967Y-9781967D01*
X18876967Y-9888034D01*
X18983034Y-9888034D01*
D10*
X18855000Y-9770000D02*
X18855000Y-9900000D01*
X19005000Y-9900000D02*
G75*
G02*
X18855000Y-9900000I-75000J0D01*
G01*
X19005000Y-9900000D02*
X19005000Y-9770000D01*
X19005000Y-9770000D02*
G75*
G03*
X18855000Y-9770000I-75000J0D01*
G01*
D13*
X20103034Y-9888034D02*
X20103034Y-9781967D01*
X19996967Y-9781967D01*
X19996967Y-9888034D01*
X20103034Y-9888034D01*
D10*
X19975000Y-9770000D02*
X19975000Y-9900000D01*
X20125000Y-9900000D02*
G75*
G02*
X19975000Y-9900000I-75000J0D01*
G01*
X20125000Y-9900000D02*
X20125000Y-9770000D01*
X20125000Y-9770000D02*
G75*
G03*
X19975000Y-9770000I-75000J0D01*
G01*
D11*
X11975000Y-9271250D02*
X12075000Y-9171250D01*
X11975000Y-9071250D01*
X11875000Y-9171250D01*
X11975000Y-9271250D01*
X15425000Y-11921250D02*
X15525000Y-11821250D01*
X15425000Y-11721250D01*
X15325000Y-11821250D01*
X15425000Y-11921250D01*
X11355777Y-12516484D02*
X11355777Y-12316484D01*
X11355777Y-12316484D02*
X11403396Y-12316484D01*
X11403396Y-12316484D02*
X11431967Y-12326008D01*
X11431967Y-12326008D02*
X11451015Y-12345055D01*
X11451015Y-12345055D02*
X11460539Y-12364103D01*
X11460539Y-12364103D02*
X11470062Y-12402198D01*
X11470062Y-12402198D02*
X11470062Y-12430769D01*
X11470062Y-12430769D02*
X11460539Y-12468865D01*
X11460539Y-12468865D02*
X11451015Y-12487912D01*
X11451015Y-12487912D02*
X11431967Y-12506960D01*
X11431967Y-12506960D02*
X11403396Y-12516484D01*
X11403396Y-12516484D02*
X11355777Y-12516484D01*
X11555777Y-12516484D02*
X11555777Y-12383150D01*
X11555777Y-12421246D02*
X11565301Y-12402198D01*
X11565301Y-12402198D02*
X11574824Y-12392674D01*
X11574824Y-12392674D02*
X11593872Y-12383150D01*
X11593872Y-12383150D02*
X11612920Y-12383150D01*
X11679586Y-12516484D02*
X11679586Y-12383150D01*
X11679586Y-12316484D02*
X11670062Y-12326008D01*
X11670062Y-12326008D02*
X11679586Y-12335531D01*
X11679586Y-12335531D02*
X11689110Y-12326008D01*
X11689110Y-12326008D02*
X11679586Y-12316484D01*
X11679586Y-12316484D02*
X11679586Y-12335531D01*
X11803396Y-12516484D02*
X11784348Y-12506960D01*
X11784348Y-12506960D02*
X11774824Y-12487912D01*
X11774824Y-12487912D02*
X11774824Y-12316484D01*
X11908158Y-12516484D02*
X11889110Y-12506960D01*
X11889110Y-12506960D02*
X11879586Y-12487912D01*
X11879586Y-12487912D02*
X11879586Y-12316484D01*
X12136729Y-12516484D02*
X12136729Y-12316484D01*
X12136729Y-12316484D02*
X12203396Y-12459341D01*
X12203396Y-12459341D02*
X12270062Y-12316484D01*
X12270062Y-12316484D02*
X12270062Y-12516484D01*
X12451015Y-12516484D02*
X12451015Y-12411722D01*
X12451015Y-12411722D02*
X12441491Y-12392674D01*
X12441491Y-12392674D02*
X12422443Y-12383150D01*
X12422443Y-12383150D02*
X12384348Y-12383150D01*
X12384348Y-12383150D02*
X12365301Y-12392674D01*
X12451015Y-12506960D02*
X12431967Y-12516484D01*
X12431967Y-12516484D02*
X12384348Y-12516484D01*
X12384348Y-12516484D02*
X12365301Y-12506960D01*
X12365301Y-12506960D02*
X12355777Y-12487912D01*
X12355777Y-12487912D02*
X12355777Y-12468865D01*
X12355777Y-12468865D02*
X12365301Y-12449817D01*
X12365301Y-12449817D02*
X12384348Y-12440293D01*
X12384348Y-12440293D02*
X12431967Y-12440293D01*
X12431967Y-12440293D02*
X12451015Y-12430769D01*
X12546253Y-12383150D02*
X12546253Y-12583150D01*
X12546253Y-12392674D02*
X12565301Y-12383150D01*
X12565301Y-12383150D02*
X12603396Y-12383150D01*
X12603396Y-12383150D02*
X12622443Y-12392674D01*
X12622443Y-12392674D02*
X12631967Y-12402198D01*
X12631967Y-12402198D02*
X12641491Y-12421246D01*
X12641491Y-12421246D02*
X12641491Y-12478388D01*
X12641491Y-12478388D02*
X12631967Y-12497436D01*
X12631967Y-12497436D02*
X12622443Y-12506960D01*
X12622443Y-12506960D02*
X12603396Y-12516484D01*
X12603396Y-12516484D02*
X12565301Y-12516484D01*
X12565301Y-12516484D02*
X12546253Y-12506960D01*
X12727205Y-12497436D02*
X12736729Y-12506960D01*
X12736729Y-12506960D02*
X12727205Y-12516484D01*
X12727205Y-12516484D02*
X12717682Y-12506960D01*
X12717682Y-12506960D02*
X12727205Y-12497436D01*
X12727205Y-12497436D02*
X12727205Y-12516484D01*
X12727205Y-12392674D02*
X12736729Y-12402198D01*
X12736729Y-12402198D02*
X12727205Y-12411722D01*
X12727205Y-12411722D02*
X12717682Y-12402198D01*
X12717682Y-12402198D02*
X12727205Y-12392674D01*
X12727205Y-12392674D02*
X12727205Y-12411722D01*
D10*
X11055000Y-12825000D02*
X11095000Y-12865000D01*
X11095000Y-12825000D02*
X11055000Y-12865000D01*
D11*
X11393872Y-12736484D02*
X11412920Y-12736484D01*
X11412920Y-12736484D02*
X11431967Y-12746008D01*
X11431967Y-12746008D02*
X11441491Y-12755531D01*
X11441491Y-12755531D02*
X11451015Y-12774579D01*
X11451015Y-12774579D02*
X11460539Y-12812674D01*
X11460539Y-12812674D02*
X11460539Y-12860293D01*
X11460539Y-12860293D02*
X11451015Y-12898388D01*
X11451015Y-12898388D02*
X11441491Y-12917436D01*
X11441491Y-12917436D02*
X11431967Y-12926960D01*
X11431967Y-12926960D02*
X11412920Y-12936484D01*
X11412920Y-12936484D02*
X11393872Y-12936484D01*
X11393872Y-12936484D02*
X11374824Y-12926960D01*
X11374824Y-12926960D02*
X11365301Y-12917436D01*
X11365301Y-12917436D02*
X11355777Y-12898388D01*
X11355777Y-12898388D02*
X11346253Y-12860293D01*
X11346253Y-12860293D02*
X11346253Y-12812674D01*
X11346253Y-12812674D02*
X11355777Y-12774579D01*
X11355777Y-12774579D02*
X11365301Y-12755531D01*
X11365301Y-12755531D02*
X11374824Y-12746008D01*
X11374824Y-12746008D02*
X11393872Y-12736484D01*
X11546253Y-12917436D02*
X11555777Y-12926960D01*
X11555777Y-12926960D02*
X11546253Y-12936484D01*
X11546253Y-12936484D02*
X11536729Y-12926960D01*
X11536729Y-12926960D02*
X11546253Y-12917436D01*
X11546253Y-12917436D02*
X11546253Y-12936484D01*
X11727205Y-12803150D02*
X11727205Y-12936484D01*
X11679586Y-12726960D02*
X11631967Y-12869817D01*
X11631967Y-12869817D02*
X11755777Y-12869817D01*
X11870062Y-12736484D02*
X11889110Y-12736484D01*
X11889110Y-12736484D02*
X11908158Y-12746008D01*
X11908158Y-12746008D02*
X11917682Y-12755531D01*
X11917682Y-12755531D02*
X11927205Y-12774579D01*
X11927205Y-12774579D02*
X11936729Y-12812674D01*
X11936729Y-12812674D02*
X11936729Y-12860293D01*
X11936729Y-12860293D02*
X11927205Y-12898388D01*
X11927205Y-12898388D02*
X11917682Y-12917436D01*
X11917682Y-12917436D02*
X11908158Y-12926960D01*
X11908158Y-12926960D02*
X11889110Y-12936484D01*
X11889110Y-12936484D02*
X11870062Y-12936484D01*
X11870062Y-12936484D02*
X11851015Y-12926960D01*
X11851015Y-12926960D02*
X11841491Y-12917436D01*
X11841491Y-12917436D02*
X11831967Y-12898388D01*
X11831967Y-12898388D02*
X11822443Y-12860293D01*
X11822443Y-12860293D02*
X11822443Y-12812674D01*
X11822443Y-12812674D02*
X11831967Y-12774579D01*
X11831967Y-12774579D02*
X11841491Y-12755531D01*
X11841491Y-12755531D02*
X11851015Y-12746008D01*
X11851015Y-12746008D02*
X11870062Y-12736484D01*
X12060539Y-12736484D02*
X12079586Y-12736484D01*
X12079586Y-12736484D02*
X12098634Y-12746008D01*
X12098634Y-12746008D02*
X12108158Y-12755531D01*
X12108158Y-12755531D02*
X12117682Y-12774579D01*
X12117682Y-12774579D02*
X12127205Y-12812674D01*
X12127205Y-12812674D02*
X12127205Y-12860293D01*
X12127205Y-12860293D02*
X12117682Y-12898388D01*
X12117682Y-12898388D02*
X12108158Y-12917436D01*
X12108158Y-12917436D02*
X12098634Y-12926960D01*
X12098634Y-12926960D02*
X12079586Y-12936484D01*
X12079586Y-12936484D02*
X12060539Y-12936484D01*
X12060539Y-12936484D02*
X12041491Y-12926960D01*
X12041491Y-12926960D02*
X12031967Y-12917436D01*
X12031967Y-12917436D02*
X12022443Y-12898388D01*
X12022443Y-12898388D02*
X12012920Y-12860293D01*
X12012920Y-12860293D02*
X12012920Y-12812674D01*
X12012920Y-12812674D02*
X12022443Y-12774579D01*
X12022443Y-12774579D02*
X12031967Y-12755531D01*
X12031967Y-12755531D02*
X12041491Y-12746008D01*
X12041491Y-12746008D02*
X12060539Y-12736484D01*
X12212920Y-12936484D02*
X12212920Y-12803150D01*
X12212920Y-12822198D02*
X12222443Y-12812674D01*
X12222443Y-12812674D02*
X12241491Y-12803150D01*
X12241491Y-12803150D02*
X12270063Y-12803150D01*
X12270063Y-12803150D02*
X12289110Y-12812674D01*
X12289110Y-12812674D02*
X12298634Y-12831722D01*
X12298634Y-12831722D02*
X12298634Y-12936484D01*
X12298634Y-12831722D02*
X12308158Y-12812674D01*
X12308158Y-12812674D02*
X12327205Y-12803150D01*
X12327205Y-12803150D02*
X12355777Y-12803150D01*
X12355777Y-12803150D02*
X12374824Y-12812674D01*
X12374824Y-12812674D02*
X12384348Y-12831722D01*
X12384348Y-12831722D02*
X12384348Y-12936484D01*
X12479586Y-12936484D02*
X12479586Y-12803150D01*
X12479586Y-12822198D02*
X12489110Y-12812674D01*
X12489110Y-12812674D02*
X12508158Y-12803150D01*
X12508158Y-12803150D02*
X12536729Y-12803150D01*
X12536729Y-12803150D02*
X12555777Y-12812674D01*
X12555777Y-12812674D02*
X12565301Y-12831722D01*
X12565301Y-12831722D02*
X12565301Y-12936484D01*
X12565301Y-12831722D02*
X12574824Y-12812674D01*
X12574824Y-12812674D02*
X12593872Y-12803150D01*
X12593872Y-12803150D02*
X12622443Y-12803150D01*
X12622443Y-12803150D02*
X12641491Y-12812674D01*
X12641491Y-12812674D02*
X12651015Y-12831722D01*
X12651015Y-12831722D02*
X12651015Y-12936484D01*
X13041491Y-12726960D02*
X12870063Y-12984103D01*
X13298634Y-12736484D02*
X13317682Y-12736484D01*
X13317682Y-12736484D02*
X13336729Y-12746008D01*
X13336729Y-12746008D02*
X13346253Y-12755531D01*
X13346253Y-12755531D02*
X13355777Y-12774579D01*
X13355777Y-12774579D02*
X13365301Y-12812674D01*
X13365301Y-12812674D02*
X13365301Y-12860293D01*
X13365301Y-12860293D02*
X13355777Y-12898388D01*
X13355777Y-12898388D02*
X13346253Y-12917436D01*
X13346253Y-12917436D02*
X13336729Y-12926960D01*
X13336729Y-12926960D02*
X13317682Y-12936484D01*
X13317682Y-12936484D02*
X13298634Y-12936484D01*
X13298634Y-12936484D02*
X13279586Y-12926960D01*
X13279586Y-12926960D02*
X13270063Y-12917436D01*
X13270063Y-12917436D02*
X13260539Y-12898388D01*
X13260539Y-12898388D02*
X13251015Y-12860293D01*
X13251015Y-12860293D02*
X13251015Y-12812674D01*
X13251015Y-12812674D02*
X13260539Y-12774579D01*
X13260539Y-12774579D02*
X13270063Y-12755531D01*
X13270063Y-12755531D02*
X13279586Y-12746008D01*
X13279586Y-12746008D02*
X13298634Y-12736484D01*
X13451015Y-12917436D02*
X13460539Y-12926960D01*
X13460539Y-12926960D02*
X13451015Y-12936484D01*
X13451015Y-12936484D02*
X13441491Y-12926960D01*
X13441491Y-12926960D02*
X13451015Y-12917436D01*
X13451015Y-12917436D02*
X13451015Y-12936484D01*
X13584348Y-12736484D02*
X13603396Y-12736484D01*
X13603396Y-12736484D02*
X13622444Y-12746008D01*
X13622444Y-12746008D02*
X13631967Y-12755531D01*
X13631967Y-12755531D02*
X13641491Y-12774579D01*
X13641491Y-12774579D02*
X13651015Y-12812674D01*
X13651015Y-12812674D02*
X13651015Y-12860293D01*
X13651015Y-12860293D02*
X13641491Y-12898388D01*
X13641491Y-12898388D02*
X13631967Y-12917436D01*
X13631967Y-12917436D02*
X13622444Y-12926960D01*
X13622444Y-12926960D02*
X13603396Y-12936484D01*
X13603396Y-12936484D02*
X13584348Y-12936484D01*
X13584348Y-12936484D02*
X13565301Y-12926960D01*
X13565301Y-12926960D02*
X13555777Y-12917436D01*
X13555777Y-12917436D02*
X13546253Y-12898388D01*
X13546253Y-12898388D02*
X13536729Y-12860293D01*
X13536729Y-12860293D02*
X13536729Y-12812674D01*
X13536729Y-12812674D02*
X13546253Y-12774579D01*
X13546253Y-12774579D02*
X13555777Y-12755531D01*
X13555777Y-12755531D02*
X13565301Y-12746008D01*
X13565301Y-12746008D02*
X13584348Y-12736484D01*
X13841491Y-12936484D02*
X13727206Y-12936484D01*
X13784348Y-12936484D02*
X13784348Y-12736484D01*
X13784348Y-12736484D02*
X13765301Y-12765055D01*
X13765301Y-12765055D02*
X13746253Y-12784103D01*
X13746253Y-12784103D02*
X13727206Y-12793627D01*
X14022444Y-12736484D02*
X13927206Y-12736484D01*
X13927206Y-12736484D02*
X13917682Y-12831722D01*
X13917682Y-12831722D02*
X13927206Y-12822198D01*
X13927206Y-12822198D02*
X13946253Y-12812674D01*
X13946253Y-12812674D02*
X13993872Y-12812674D01*
X13993872Y-12812674D02*
X14012920Y-12822198D01*
X14012920Y-12822198D02*
X14022444Y-12831722D01*
X14022444Y-12831722D02*
X14031967Y-12850769D01*
X14031967Y-12850769D02*
X14031967Y-12898388D01*
X14031967Y-12898388D02*
X14022444Y-12917436D01*
X14022444Y-12917436D02*
X14012920Y-12926960D01*
X14012920Y-12926960D02*
X13993872Y-12936484D01*
X13993872Y-12936484D02*
X13946253Y-12936484D01*
X13946253Y-12936484D02*
X13927206Y-12926960D01*
X13927206Y-12926960D02*
X13917682Y-12917436D01*
X14098634Y-12736484D02*
X14231967Y-12736484D01*
X14231967Y-12736484D02*
X14146253Y-12936484D01*
X14298634Y-12736484D02*
X14298634Y-12774579D01*
X14374825Y-12736484D02*
X14374825Y-12774579D01*
X14670063Y-13012674D02*
X14660539Y-13003150D01*
X14660539Y-13003150D02*
X14641491Y-12974579D01*
X14641491Y-12974579D02*
X14631968Y-12955531D01*
X14631968Y-12955531D02*
X14622444Y-12926960D01*
X14622444Y-12926960D02*
X14612920Y-12879341D01*
X14612920Y-12879341D02*
X14612920Y-12841246D01*
X14612920Y-12841246D02*
X14622444Y-12793627D01*
X14622444Y-12793627D02*
X14631968Y-12765055D01*
X14631968Y-12765055D02*
X14641491Y-12746008D01*
X14641491Y-12746008D02*
X14660539Y-12717436D01*
X14660539Y-12717436D02*
X14670063Y-12707912D01*
X14755777Y-12936484D02*
X14793872Y-12936484D01*
X14793872Y-12936484D02*
X14812920Y-12926960D01*
X14812920Y-12926960D02*
X14822444Y-12917436D01*
X14822444Y-12917436D02*
X14841491Y-12888865D01*
X14841491Y-12888865D02*
X14851015Y-12850769D01*
X14851015Y-12850769D02*
X14851015Y-12774579D01*
X14851015Y-12774579D02*
X14841491Y-12755531D01*
X14841491Y-12755531D02*
X14831968Y-12746008D01*
X14831968Y-12746008D02*
X14812920Y-12736484D01*
X14812920Y-12736484D02*
X14774825Y-12736484D01*
X14774825Y-12736484D02*
X14755777Y-12746008D01*
X14755777Y-12746008D02*
X14746253Y-12755531D01*
X14746253Y-12755531D02*
X14736729Y-12774579D01*
X14736729Y-12774579D02*
X14736729Y-12822198D01*
X14736729Y-12822198D02*
X14746253Y-12841246D01*
X14746253Y-12841246D02*
X14755777Y-12850769D01*
X14755777Y-12850769D02*
X14774825Y-12860293D01*
X14774825Y-12860293D02*
X14812920Y-12860293D01*
X14812920Y-12860293D02*
X14831968Y-12850769D01*
X14831968Y-12850769D02*
X14841491Y-12841246D01*
X14841491Y-12841246D02*
X14851015Y-12822198D01*
X14927206Y-12755531D02*
X14936729Y-12746008D01*
X14936729Y-12746008D02*
X14955777Y-12736484D01*
X14955777Y-12736484D02*
X15003396Y-12736484D01*
X15003396Y-12736484D02*
X15022444Y-12746008D01*
X15022444Y-12746008D02*
X15031968Y-12755531D01*
X15031968Y-12755531D02*
X15041491Y-12774579D01*
X15041491Y-12774579D02*
X15041491Y-12793627D01*
X15041491Y-12793627D02*
X15031968Y-12822198D01*
X15031968Y-12822198D02*
X14917682Y-12936484D01*
X14917682Y-12936484D02*
X15041491Y-12936484D01*
X15279587Y-12936484D02*
X15279587Y-12736484D01*
X15365301Y-12936484D02*
X15365301Y-12831722D01*
X15365301Y-12831722D02*
X15355777Y-12812674D01*
X15355777Y-12812674D02*
X15336730Y-12803150D01*
X15336730Y-12803150D02*
X15308158Y-12803150D01*
X15308158Y-12803150D02*
X15289110Y-12812674D01*
X15289110Y-12812674D02*
X15279587Y-12822198D01*
X15489110Y-12936484D02*
X15470063Y-12926960D01*
X15470063Y-12926960D02*
X15460539Y-12917436D01*
X15460539Y-12917436D02*
X15451015Y-12898388D01*
X15451015Y-12898388D02*
X15451015Y-12841246D01*
X15451015Y-12841246D02*
X15460539Y-12822198D01*
X15460539Y-12822198D02*
X15470063Y-12812674D01*
X15470063Y-12812674D02*
X15489110Y-12803150D01*
X15489110Y-12803150D02*
X15517682Y-12803150D01*
X15517682Y-12803150D02*
X15536730Y-12812674D01*
X15536730Y-12812674D02*
X15546253Y-12822198D01*
X15546253Y-12822198D02*
X15555777Y-12841246D01*
X15555777Y-12841246D02*
X15555777Y-12898388D01*
X15555777Y-12898388D02*
X15546253Y-12917436D01*
X15546253Y-12917436D02*
X15536730Y-12926960D01*
X15536730Y-12926960D02*
X15517682Y-12936484D01*
X15517682Y-12936484D02*
X15489110Y-12936484D01*
X15670063Y-12936484D02*
X15651015Y-12926960D01*
X15651015Y-12926960D02*
X15641491Y-12907912D01*
X15641491Y-12907912D02*
X15641491Y-12736484D01*
X15822444Y-12926960D02*
X15803396Y-12936484D01*
X15803396Y-12936484D02*
X15765301Y-12936484D01*
X15765301Y-12936484D02*
X15746253Y-12926960D01*
X15746253Y-12926960D02*
X15736730Y-12907912D01*
X15736730Y-12907912D02*
X15736730Y-12831722D01*
X15736730Y-12831722D02*
X15746253Y-12812674D01*
X15746253Y-12812674D02*
X15765301Y-12803150D01*
X15765301Y-12803150D02*
X15803396Y-12803150D01*
X15803396Y-12803150D02*
X15822444Y-12812674D01*
X15822444Y-12812674D02*
X15831968Y-12831722D01*
X15831968Y-12831722D02*
X15831968Y-12850769D01*
X15831968Y-12850769D02*
X15736730Y-12869817D01*
X15908158Y-12926960D02*
X15927206Y-12936484D01*
X15927206Y-12936484D02*
X15965301Y-12936484D01*
X15965301Y-12936484D02*
X15984349Y-12926960D01*
X15984349Y-12926960D02*
X15993872Y-12907912D01*
X15993872Y-12907912D02*
X15993872Y-12898388D01*
X15993872Y-12898388D02*
X15984349Y-12879341D01*
X15984349Y-12879341D02*
X15965301Y-12869817D01*
X15965301Y-12869817D02*
X15936730Y-12869817D01*
X15936730Y-12869817D02*
X15917682Y-12860293D01*
X15917682Y-12860293D02*
X15908158Y-12841246D01*
X15908158Y-12841246D02*
X15908158Y-12831722D01*
X15908158Y-12831722D02*
X15917682Y-12812674D01*
X15917682Y-12812674D02*
X15936730Y-12803150D01*
X15936730Y-12803150D02*
X15965301Y-12803150D01*
X15965301Y-12803150D02*
X15984349Y-12812674D01*
X16060539Y-13012674D02*
X16070063Y-13003150D01*
X16070063Y-13003150D02*
X16089111Y-12974579D01*
X16089111Y-12974579D02*
X16098634Y-12955531D01*
X16098634Y-12955531D02*
X16108158Y-12926960D01*
X16108158Y-12926960D02*
X16117682Y-12879341D01*
X16117682Y-12879341D02*
X16117682Y-12841246D01*
X16117682Y-12841246D02*
X16108158Y-12793627D01*
X16108158Y-12793627D02*
X16098634Y-12765055D01*
X16098634Y-12765055D02*
X16089111Y-12746008D01*
X16089111Y-12746008D02*
X16070063Y-12717436D01*
X16070063Y-12717436D02*
X16060539Y-12707912D01*
D10*
X11095000Y-13109000D02*
G75*
G02*
X10995000Y-13109000I-50000J0D01*
G01*
X10995000Y-13109000D02*
G75*
G02*
X11095000Y-13109000I50000J0D01*
G01*
D11*
X11460539Y-13200484D02*
X11346253Y-13200484D01*
X11403396Y-13200484D02*
X11403396Y-13000484D01*
X11403396Y-13000484D02*
X11384348Y-13029055D01*
X11384348Y-13029055D02*
X11365301Y-13048103D01*
X11365301Y-13048103D02*
X11346253Y-13057627D01*
X11546253Y-13181436D02*
X11555777Y-13190960D01*
X11555777Y-13190960D02*
X11546253Y-13200484D01*
X11546253Y-13200484D02*
X11536729Y-13190960D01*
X11536729Y-13190960D02*
X11546253Y-13181436D01*
X11546253Y-13181436D02*
X11546253Y-13200484D01*
X11679586Y-13000484D02*
X11698634Y-13000484D01*
X11698634Y-13000484D02*
X11717682Y-13010008D01*
X11717682Y-13010008D02*
X11727205Y-13019531D01*
X11727205Y-13019531D02*
X11736729Y-13038579D01*
X11736729Y-13038579D02*
X11746253Y-13076674D01*
X11746253Y-13076674D02*
X11746253Y-13124293D01*
X11746253Y-13124293D02*
X11736729Y-13162388D01*
X11736729Y-13162388D02*
X11727205Y-13181436D01*
X11727205Y-13181436D02*
X11717682Y-13190960D01*
X11717682Y-13190960D02*
X11698634Y-13200484D01*
X11698634Y-13200484D02*
X11679586Y-13200484D01*
X11679586Y-13200484D02*
X11660539Y-13190960D01*
X11660539Y-13190960D02*
X11651015Y-13181436D01*
X11651015Y-13181436D02*
X11641491Y-13162388D01*
X11641491Y-13162388D02*
X11631967Y-13124293D01*
X11631967Y-13124293D02*
X11631967Y-13076674D01*
X11631967Y-13076674D02*
X11641491Y-13038579D01*
X11641491Y-13038579D02*
X11651015Y-13019531D01*
X11651015Y-13019531D02*
X11660539Y-13010008D01*
X11660539Y-13010008D02*
X11679586Y-13000484D01*
X11870062Y-13000484D02*
X11889110Y-13000484D01*
X11889110Y-13000484D02*
X11908158Y-13010008D01*
X11908158Y-13010008D02*
X11917682Y-13019531D01*
X11917682Y-13019531D02*
X11927205Y-13038579D01*
X11927205Y-13038579D02*
X11936729Y-13076674D01*
X11936729Y-13076674D02*
X11936729Y-13124293D01*
X11936729Y-13124293D02*
X11927205Y-13162388D01*
X11927205Y-13162388D02*
X11917682Y-13181436D01*
X11917682Y-13181436D02*
X11908158Y-13190960D01*
X11908158Y-13190960D02*
X11889110Y-13200484D01*
X11889110Y-13200484D02*
X11870062Y-13200484D01*
X11870062Y-13200484D02*
X11851015Y-13190960D01*
X11851015Y-13190960D02*
X11841491Y-13181436D01*
X11841491Y-13181436D02*
X11831967Y-13162388D01*
X11831967Y-13162388D02*
X11822443Y-13124293D01*
X11822443Y-13124293D02*
X11822443Y-13076674D01*
X11822443Y-13076674D02*
X11831967Y-13038579D01*
X11831967Y-13038579D02*
X11841491Y-13019531D01*
X11841491Y-13019531D02*
X11851015Y-13010008D01*
X11851015Y-13010008D02*
X11870062Y-13000484D01*
X12060539Y-13000484D02*
X12079586Y-13000484D01*
X12079586Y-13000484D02*
X12098634Y-13010008D01*
X12098634Y-13010008D02*
X12108158Y-13019531D01*
X12108158Y-13019531D02*
X12117682Y-13038579D01*
X12117682Y-13038579D02*
X12127205Y-13076674D01*
X12127205Y-13076674D02*
X12127205Y-13124293D01*
X12127205Y-13124293D02*
X12117682Y-13162388D01*
X12117682Y-13162388D02*
X12108158Y-13181436D01*
X12108158Y-13181436D02*
X12098634Y-13190960D01*
X12098634Y-13190960D02*
X12079586Y-13200484D01*
X12079586Y-13200484D02*
X12060539Y-13200484D01*
X12060539Y-13200484D02*
X12041491Y-13190960D01*
X12041491Y-13190960D02*
X12031967Y-13181436D01*
X12031967Y-13181436D02*
X12022443Y-13162388D01*
X12022443Y-13162388D02*
X12012920Y-13124293D01*
X12012920Y-13124293D02*
X12012920Y-13076674D01*
X12012920Y-13076674D02*
X12022443Y-13038579D01*
X12022443Y-13038579D02*
X12031967Y-13019531D01*
X12031967Y-13019531D02*
X12041491Y-13010008D01*
X12041491Y-13010008D02*
X12060539Y-13000484D01*
X12212920Y-13200484D02*
X12212920Y-13067150D01*
X12212920Y-13086198D02*
X12222443Y-13076674D01*
X12222443Y-13076674D02*
X12241491Y-13067150D01*
X12241491Y-13067150D02*
X12270063Y-13067150D01*
X12270063Y-13067150D02*
X12289110Y-13076674D01*
X12289110Y-13076674D02*
X12298634Y-13095722D01*
X12298634Y-13095722D02*
X12298634Y-13200484D01*
X12298634Y-13095722D02*
X12308158Y-13076674D01*
X12308158Y-13076674D02*
X12327205Y-13067150D01*
X12327205Y-13067150D02*
X12355777Y-13067150D01*
X12355777Y-13067150D02*
X12374824Y-13076674D01*
X12374824Y-13076674D02*
X12384348Y-13095722D01*
X12384348Y-13095722D02*
X12384348Y-13200484D01*
X12479586Y-13200484D02*
X12479586Y-13067150D01*
X12479586Y-13086198D02*
X12489110Y-13076674D01*
X12489110Y-13076674D02*
X12508158Y-13067150D01*
X12508158Y-13067150D02*
X12536729Y-13067150D01*
X12536729Y-13067150D02*
X12555777Y-13076674D01*
X12555777Y-13076674D02*
X12565301Y-13095722D01*
X12565301Y-13095722D02*
X12565301Y-13200484D01*
X12565301Y-13095722D02*
X12574824Y-13076674D01*
X12574824Y-13076674D02*
X12593872Y-13067150D01*
X12593872Y-13067150D02*
X12622443Y-13067150D01*
X12622443Y-13067150D02*
X12641491Y-13076674D01*
X12641491Y-13076674D02*
X12651015Y-13095722D01*
X12651015Y-13095722D02*
X12651015Y-13200484D01*
X13041491Y-12990960D02*
X12870063Y-13248103D01*
X13298634Y-13000484D02*
X13317682Y-13000484D01*
X13317682Y-13000484D02*
X13336729Y-13010008D01*
X13336729Y-13010008D02*
X13346253Y-13019531D01*
X13346253Y-13019531D02*
X13355777Y-13038579D01*
X13355777Y-13038579D02*
X13365301Y-13076674D01*
X13365301Y-13076674D02*
X13365301Y-13124293D01*
X13365301Y-13124293D02*
X13355777Y-13162388D01*
X13355777Y-13162388D02*
X13346253Y-13181436D01*
X13346253Y-13181436D02*
X13336729Y-13190960D01*
X13336729Y-13190960D02*
X13317682Y-13200484D01*
X13317682Y-13200484D02*
X13298634Y-13200484D01*
X13298634Y-13200484D02*
X13279586Y-13190960D01*
X13279586Y-13190960D02*
X13270063Y-13181436D01*
X13270063Y-13181436D02*
X13260539Y-13162388D01*
X13260539Y-13162388D02*
X13251015Y-13124293D01*
X13251015Y-13124293D02*
X13251015Y-13076674D01*
X13251015Y-13076674D02*
X13260539Y-13038579D01*
X13260539Y-13038579D02*
X13270063Y-13019531D01*
X13270063Y-13019531D02*
X13279586Y-13010008D01*
X13279586Y-13010008D02*
X13298634Y-13000484D01*
X13451015Y-13181436D02*
X13460539Y-13190960D01*
X13460539Y-13190960D02*
X13451015Y-13200484D01*
X13451015Y-13200484D02*
X13441491Y-13190960D01*
X13441491Y-13190960D02*
X13451015Y-13181436D01*
X13451015Y-13181436D02*
X13451015Y-13200484D01*
X13584348Y-13000484D02*
X13603396Y-13000484D01*
X13603396Y-13000484D02*
X13622444Y-13010008D01*
X13622444Y-13010008D02*
X13631967Y-13019531D01*
X13631967Y-13019531D02*
X13641491Y-13038579D01*
X13641491Y-13038579D02*
X13651015Y-13076674D01*
X13651015Y-13076674D02*
X13651015Y-13124293D01*
X13651015Y-13124293D02*
X13641491Y-13162388D01*
X13641491Y-13162388D02*
X13631967Y-13181436D01*
X13631967Y-13181436D02*
X13622444Y-13190960D01*
X13622444Y-13190960D02*
X13603396Y-13200484D01*
X13603396Y-13200484D02*
X13584348Y-13200484D01*
X13584348Y-13200484D02*
X13565301Y-13190960D01*
X13565301Y-13190960D02*
X13555777Y-13181436D01*
X13555777Y-13181436D02*
X13546253Y-13162388D01*
X13546253Y-13162388D02*
X13536729Y-13124293D01*
X13536729Y-13124293D02*
X13536729Y-13076674D01*
X13536729Y-13076674D02*
X13546253Y-13038579D01*
X13546253Y-13038579D02*
X13555777Y-13019531D01*
X13555777Y-13019531D02*
X13565301Y-13010008D01*
X13565301Y-13010008D02*
X13584348Y-13000484D01*
X13717682Y-13000484D02*
X13841491Y-13000484D01*
X13841491Y-13000484D02*
X13774825Y-13076674D01*
X13774825Y-13076674D02*
X13803396Y-13076674D01*
X13803396Y-13076674D02*
X13822444Y-13086198D01*
X13822444Y-13086198D02*
X13831967Y-13095722D01*
X13831967Y-13095722D02*
X13841491Y-13114769D01*
X13841491Y-13114769D02*
X13841491Y-13162388D01*
X13841491Y-13162388D02*
X13831967Y-13181436D01*
X13831967Y-13181436D02*
X13822444Y-13190960D01*
X13822444Y-13190960D02*
X13803396Y-13200484D01*
X13803396Y-13200484D02*
X13746253Y-13200484D01*
X13746253Y-13200484D02*
X13727206Y-13190960D01*
X13727206Y-13190960D02*
X13717682Y-13181436D01*
X13936729Y-13200484D02*
X13974825Y-13200484D01*
X13974825Y-13200484D02*
X13993872Y-13190960D01*
X13993872Y-13190960D02*
X14003396Y-13181436D01*
X14003396Y-13181436D02*
X14022444Y-13152865D01*
X14022444Y-13152865D02*
X14031967Y-13114769D01*
X14031967Y-13114769D02*
X14031967Y-13038579D01*
X14031967Y-13038579D02*
X14022444Y-13019531D01*
X14022444Y-13019531D02*
X14012920Y-13010008D01*
X14012920Y-13010008D02*
X13993872Y-13000484D01*
X13993872Y-13000484D02*
X13955777Y-13000484D01*
X13955777Y-13000484D02*
X13936729Y-13010008D01*
X13936729Y-13010008D02*
X13927206Y-13019531D01*
X13927206Y-13019531D02*
X13917682Y-13038579D01*
X13917682Y-13038579D02*
X13917682Y-13086198D01*
X13917682Y-13086198D02*
X13927206Y-13105246D01*
X13927206Y-13105246D02*
X13936729Y-13114769D01*
X13936729Y-13114769D02*
X13955777Y-13124293D01*
X13955777Y-13124293D02*
X13993872Y-13124293D01*
X13993872Y-13124293D02*
X14012920Y-13114769D01*
X14012920Y-13114769D02*
X14022444Y-13105246D01*
X14022444Y-13105246D02*
X14031967Y-13086198D01*
X14203396Y-13067150D02*
X14203396Y-13200484D01*
X14155777Y-12990960D02*
X14108158Y-13133817D01*
X14108158Y-13133817D02*
X14231967Y-13133817D01*
X14298634Y-13000484D02*
X14298634Y-13038579D01*
X14374825Y-13000484D02*
X14374825Y-13038579D01*
X14670063Y-13276674D02*
X14660539Y-13267150D01*
X14660539Y-13267150D02*
X14641491Y-13238579D01*
X14641491Y-13238579D02*
X14631968Y-13219531D01*
X14631968Y-13219531D02*
X14622444Y-13190960D01*
X14622444Y-13190960D02*
X14612920Y-13143341D01*
X14612920Y-13143341D02*
X14612920Y-13105246D01*
X14612920Y-13105246D02*
X14622444Y-13057627D01*
X14622444Y-13057627D02*
X14631968Y-13029055D01*
X14631968Y-13029055D02*
X14641491Y-13010008D01*
X14641491Y-13010008D02*
X14660539Y-12981436D01*
X14660539Y-12981436D02*
X14670063Y-12971912D01*
X14841491Y-13000484D02*
X14746253Y-13000484D01*
X14746253Y-13000484D02*
X14736729Y-13095722D01*
X14736729Y-13095722D02*
X14746253Y-13086198D01*
X14746253Y-13086198D02*
X14765301Y-13076674D01*
X14765301Y-13076674D02*
X14812920Y-13076674D01*
X14812920Y-13076674D02*
X14831968Y-13086198D01*
X14831968Y-13086198D02*
X14841491Y-13095722D01*
X14841491Y-13095722D02*
X14851015Y-13114769D01*
X14851015Y-13114769D02*
X14851015Y-13162388D01*
X14851015Y-13162388D02*
X14841491Y-13181436D01*
X14841491Y-13181436D02*
X14831968Y-13190960D01*
X14831968Y-13190960D02*
X14812920Y-13200484D01*
X14812920Y-13200484D02*
X14765301Y-13200484D01*
X14765301Y-13200484D02*
X14746253Y-13190960D01*
X14746253Y-13190960D02*
X14736729Y-13181436D01*
X15089110Y-13200484D02*
X15089110Y-13000484D01*
X15174825Y-13200484D02*
X15174825Y-13095722D01*
X15174825Y-13095722D02*
X15165301Y-13076674D01*
X15165301Y-13076674D02*
X15146253Y-13067150D01*
X15146253Y-13067150D02*
X15117682Y-13067150D01*
X15117682Y-13067150D02*
X15098634Y-13076674D01*
X15098634Y-13076674D02*
X15089110Y-13086198D01*
X15298634Y-13200484D02*
X15279587Y-13190960D01*
X15279587Y-13190960D02*
X15270063Y-13181436D01*
X15270063Y-13181436D02*
X15260539Y-13162388D01*
X15260539Y-13162388D02*
X15260539Y-13105246D01*
X15260539Y-13105246D02*
X15270063Y-13086198D01*
X15270063Y-13086198D02*
X15279587Y-13076674D01*
X15279587Y-13076674D02*
X15298634Y-13067150D01*
X15298634Y-13067150D02*
X15327206Y-13067150D01*
X15327206Y-13067150D02*
X15346253Y-13076674D01*
X15346253Y-13076674D02*
X15355777Y-13086198D01*
X15355777Y-13086198D02*
X15365301Y-13105246D01*
X15365301Y-13105246D02*
X15365301Y-13162388D01*
X15365301Y-13162388D02*
X15355777Y-13181436D01*
X15355777Y-13181436D02*
X15346253Y-13190960D01*
X15346253Y-13190960D02*
X15327206Y-13200484D01*
X15327206Y-13200484D02*
X15298634Y-13200484D01*
X15479587Y-13200484D02*
X15460539Y-13190960D01*
X15460539Y-13190960D02*
X15451015Y-13171912D01*
X15451015Y-13171912D02*
X15451015Y-13000484D01*
X15631968Y-13190960D02*
X15612920Y-13200484D01*
X15612920Y-13200484D02*
X15574825Y-13200484D01*
X15574825Y-13200484D02*
X15555777Y-13190960D01*
X15555777Y-13190960D02*
X15546253Y-13171912D01*
X15546253Y-13171912D02*
X15546253Y-13095722D01*
X15546253Y-13095722D02*
X15555777Y-13076674D01*
X15555777Y-13076674D02*
X15574825Y-13067150D01*
X15574825Y-13067150D02*
X15612920Y-13067150D01*
X15612920Y-13067150D02*
X15631968Y-13076674D01*
X15631968Y-13076674D02*
X15641491Y-13095722D01*
X15641491Y-13095722D02*
X15641491Y-13114769D01*
X15641491Y-13114769D02*
X15546253Y-13133817D01*
X15717682Y-13190960D02*
X15736730Y-13200484D01*
X15736730Y-13200484D02*
X15774825Y-13200484D01*
X15774825Y-13200484D02*
X15793872Y-13190960D01*
X15793872Y-13190960D02*
X15803396Y-13171912D01*
X15803396Y-13171912D02*
X15803396Y-13162388D01*
X15803396Y-13162388D02*
X15793872Y-13143341D01*
X15793872Y-13143341D02*
X15774825Y-13133817D01*
X15774825Y-13133817D02*
X15746253Y-13133817D01*
X15746253Y-13133817D02*
X15727206Y-13124293D01*
X15727206Y-13124293D02*
X15717682Y-13105246D01*
X15717682Y-13105246D02*
X15717682Y-13095722D01*
X15717682Y-13095722D02*
X15727206Y-13076674D01*
X15727206Y-13076674D02*
X15746253Y-13067150D01*
X15746253Y-13067150D02*
X15774825Y-13067150D01*
X15774825Y-13067150D02*
X15793872Y-13076674D01*
X15870063Y-13276674D02*
X15879587Y-13267150D01*
X15879587Y-13267150D02*
X15898634Y-13238579D01*
X15898634Y-13238579D02*
X15908158Y-13219531D01*
X15908158Y-13219531D02*
X15917682Y-13190960D01*
X15917682Y-13190960D02*
X15927206Y-13143341D01*
X15927206Y-13143341D02*
X15927206Y-13105246D01*
X15927206Y-13105246D02*
X15917682Y-13057627D01*
X15917682Y-13057627D02*
X15908158Y-13029055D01*
X15908158Y-13029055D02*
X15898634Y-13010008D01*
X15898634Y-13010008D02*
X15879587Y-12981436D01*
X15879587Y-12981436D02*
X15870063Y-12971912D01*
D12*
X11025000Y-13303000D02*
X11025000Y-13443000D01*
X10955000Y-13373000D02*
X11095000Y-13373000D01*
D11*
X11460539Y-13464484D02*
X11346253Y-13464484D01*
X11403396Y-13464484D02*
X11403396Y-13264484D01*
X11403396Y-13264484D02*
X11384348Y-13293055D01*
X11384348Y-13293055D02*
X11365301Y-13312103D01*
X11365301Y-13312103D02*
X11346253Y-13321627D01*
X11546253Y-13445436D02*
X11555777Y-13454960D01*
X11555777Y-13454960D02*
X11546253Y-13464484D01*
X11546253Y-13464484D02*
X11536729Y-13454960D01*
X11536729Y-13454960D02*
X11546253Y-13445436D01*
X11546253Y-13445436D02*
X11546253Y-13464484D01*
X11727205Y-13331150D02*
X11727205Y-13464484D01*
X11679586Y-13254960D02*
X11631967Y-13397817D01*
X11631967Y-13397817D02*
X11755777Y-13397817D01*
X11870062Y-13264484D02*
X11889110Y-13264484D01*
X11889110Y-13264484D02*
X11908158Y-13274008D01*
X11908158Y-13274008D02*
X11917682Y-13283531D01*
X11917682Y-13283531D02*
X11927205Y-13302579D01*
X11927205Y-13302579D02*
X11936729Y-13340674D01*
X11936729Y-13340674D02*
X11936729Y-13388293D01*
X11936729Y-13388293D02*
X11927205Y-13426388D01*
X11927205Y-13426388D02*
X11917682Y-13445436D01*
X11917682Y-13445436D02*
X11908158Y-13454960D01*
X11908158Y-13454960D02*
X11889110Y-13464484D01*
X11889110Y-13464484D02*
X11870062Y-13464484D01*
X11870062Y-13464484D02*
X11851015Y-13454960D01*
X11851015Y-13454960D02*
X11841491Y-13445436D01*
X11841491Y-13445436D02*
X11831967Y-13426388D01*
X11831967Y-13426388D02*
X11822443Y-13388293D01*
X11822443Y-13388293D02*
X11822443Y-13340674D01*
X11822443Y-13340674D02*
X11831967Y-13302579D01*
X11831967Y-13302579D02*
X11841491Y-13283531D01*
X11841491Y-13283531D02*
X11851015Y-13274008D01*
X11851015Y-13274008D02*
X11870062Y-13264484D01*
X12060539Y-13264484D02*
X12079586Y-13264484D01*
X12079586Y-13264484D02*
X12098634Y-13274008D01*
X12098634Y-13274008D02*
X12108158Y-13283531D01*
X12108158Y-13283531D02*
X12117682Y-13302579D01*
X12117682Y-13302579D02*
X12127205Y-13340674D01*
X12127205Y-13340674D02*
X12127205Y-13388293D01*
X12127205Y-13388293D02*
X12117682Y-13426388D01*
X12117682Y-13426388D02*
X12108158Y-13445436D01*
X12108158Y-13445436D02*
X12098634Y-13454960D01*
X12098634Y-13454960D02*
X12079586Y-13464484D01*
X12079586Y-13464484D02*
X12060539Y-13464484D01*
X12060539Y-13464484D02*
X12041491Y-13454960D01*
X12041491Y-13454960D02*
X12031967Y-13445436D01*
X12031967Y-13445436D02*
X12022443Y-13426388D01*
X12022443Y-13426388D02*
X12012920Y-13388293D01*
X12012920Y-13388293D02*
X12012920Y-13340674D01*
X12012920Y-13340674D02*
X12022443Y-13302579D01*
X12022443Y-13302579D02*
X12031967Y-13283531D01*
X12031967Y-13283531D02*
X12041491Y-13274008D01*
X12041491Y-13274008D02*
X12060539Y-13264484D01*
X12212920Y-13464484D02*
X12212920Y-13331150D01*
X12212920Y-13350198D02*
X12222443Y-13340674D01*
X12222443Y-13340674D02*
X12241491Y-13331150D01*
X12241491Y-13331150D02*
X12270063Y-13331150D01*
X12270063Y-13331150D02*
X12289110Y-13340674D01*
X12289110Y-13340674D02*
X12298634Y-13359722D01*
X12298634Y-13359722D02*
X12298634Y-13464484D01*
X12298634Y-13359722D02*
X12308158Y-13340674D01*
X12308158Y-13340674D02*
X12327205Y-13331150D01*
X12327205Y-13331150D02*
X12355777Y-13331150D01*
X12355777Y-13331150D02*
X12374824Y-13340674D01*
X12374824Y-13340674D02*
X12384348Y-13359722D01*
X12384348Y-13359722D02*
X12384348Y-13464484D01*
X12479586Y-13464484D02*
X12479586Y-13331150D01*
X12479586Y-13350198D02*
X12489110Y-13340674D01*
X12489110Y-13340674D02*
X12508158Y-13331150D01*
X12508158Y-13331150D02*
X12536729Y-13331150D01*
X12536729Y-13331150D02*
X12555777Y-13340674D01*
X12555777Y-13340674D02*
X12565301Y-13359722D01*
X12565301Y-13359722D02*
X12565301Y-13464484D01*
X12565301Y-13359722D02*
X12574824Y-13340674D01*
X12574824Y-13340674D02*
X12593872Y-13331150D01*
X12593872Y-13331150D02*
X12622443Y-13331150D01*
X12622443Y-13331150D02*
X12641491Y-13340674D01*
X12641491Y-13340674D02*
X12651015Y-13359722D01*
X12651015Y-13359722D02*
X12651015Y-13464484D01*
X13041491Y-13254960D02*
X12870063Y-13512103D01*
X13298634Y-13264484D02*
X13317682Y-13264484D01*
X13317682Y-13264484D02*
X13336729Y-13274008D01*
X13336729Y-13274008D02*
X13346253Y-13283531D01*
X13346253Y-13283531D02*
X13355777Y-13302579D01*
X13355777Y-13302579D02*
X13365301Y-13340674D01*
X13365301Y-13340674D02*
X13365301Y-13388293D01*
X13365301Y-13388293D02*
X13355777Y-13426388D01*
X13355777Y-13426388D02*
X13346253Y-13445436D01*
X13346253Y-13445436D02*
X13336729Y-13454960D01*
X13336729Y-13454960D02*
X13317682Y-13464484D01*
X13317682Y-13464484D02*
X13298634Y-13464484D01*
X13298634Y-13464484D02*
X13279586Y-13454960D01*
X13279586Y-13454960D02*
X13270063Y-13445436D01*
X13270063Y-13445436D02*
X13260539Y-13426388D01*
X13260539Y-13426388D02*
X13251015Y-13388293D01*
X13251015Y-13388293D02*
X13251015Y-13340674D01*
X13251015Y-13340674D02*
X13260539Y-13302579D01*
X13260539Y-13302579D02*
X13270063Y-13283531D01*
X13270063Y-13283531D02*
X13279586Y-13274008D01*
X13279586Y-13274008D02*
X13298634Y-13264484D01*
X13451015Y-13445436D02*
X13460539Y-13454960D01*
X13460539Y-13454960D02*
X13451015Y-13464484D01*
X13451015Y-13464484D02*
X13441491Y-13454960D01*
X13441491Y-13454960D02*
X13451015Y-13445436D01*
X13451015Y-13445436D02*
X13451015Y-13464484D01*
X13584348Y-13264484D02*
X13603396Y-13264484D01*
X13603396Y-13264484D02*
X13622444Y-13274008D01*
X13622444Y-13274008D02*
X13631967Y-13283531D01*
X13631967Y-13283531D02*
X13641491Y-13302579D01*
X13641491Y-13302579D02*
X13651015Y-13340674D01*
X13651015Y-13340674D02*
X13651015Y-13388293D01*
X13651015Y-13388293D02*
X13641491Y-13426388D01*
X13641491Y-13426388D02*
X13631967Y-13445436D01*
X13631967Y-13445436D02*
X13622444Y-13454960D01*
X13622444Y-13454960D02*
X13603396Y-13464484D01*
X13603396Y-13464484D02*
X13584348Y-13464484D01*
X13584348Y-13464484D02*
X13565301Y-13454960D01*
X13565301Y-13454960D02*
X13555777Y-13445436D01*
X13555777Y-13445436D02*
X13546253Y-13426388D01*
X13546253Y-13426388D02*
X13536729Y-13388293D01*
X13536729Y-13388293D02*
X13536729Y-13340674D01*
X13536729Y-13340674D02*
X13546253Y-13302579D01*
X13546253Y-13302579D02*
X13555777Y-13283531D01*
X13555777Y-13283531D02*
X13565301Y-13274008D01*
X13565301Y-13274008D02*
X13584348Y-13264484D01*
X13831967Y-13264484D02*
X13736729Y-13264484D01*
X13736729Y-13264484D02*
X13727206Y-13359722D01*
X13727206Y-13359722D02*
X13736729Y-13350198D01*
X13736729Y-13350198D02*
X13755777Y-13340674D01*
X13755777Y-13340674D02*
X13803396Y-13340674D01*
X13803396Y-13340674D02*
X13822444Y-13350198D01*
X13822444Y-13350198D02*
X13831967Y-13359722D01*
X13831967Y-13359722D02*
X13841491Y-13378769D01*
X13841491Y-13378769D02*
X13841491Y-13426388D01*
X13841491Y-13426388D02*
X13831967Y-13445436D01*
X13831967Y-13445436D02*
X13822444Y-13454960D01*
X13822444Y-13454960D02*
X13803396Y-13464484D01*
X13803396Y-13464484D02*
X13755777Y-13464484D01*
X13755777Y-13464484D02*
X13736729Y-13454960D01*
X13736729Y-13454960D02*
X13727206Y-13445436D01*
X14022444Y-13264484D02*
X13927206Y-13264484D01*
X13927206Y-13264484D02*
X13917682Y-13359722D01*
X13917682Y-13359722D02*
X13927206Y-13350198D01*
X13927206Y-13350198D02*
X13946253Y-13340674D01*
X13946253Y-13340674D02*
X13993872Y-13340674D01*
X13993872Y-13340674D02*
X14012920Y-13350198D01*
X14012920Y-13350198D02*
X14022444Y-13359722D01*
X14022444Y-13359722D02*
X14031967Y-13378769D01*
X14031967Y-13378769D02*
X14031967Y-13426388D01*
X14031967Y-13426388D02*
X14022444Y-13445436D01*
X14022444Y-13445436D02*
X14012920Y-13454960D01*
X14012920Y-13454960D02*
X13993872Y-13464484D01*
X13993872Y-13464484D02*
X13946253Y-13464484D01*
X13946253Y-13464484D02*
X13927206Y-13454960D01*
X13927206Y-13454960D02*
X13917682Y-13445436D01*
X14222444Y-13464484D02*
X14108158Y-13464484D01*
X14165301Y-13464484D02*
X14165301Y-13264484D01*
X14165301Y-13264484D02*
X14146253Y-13293055D01*
X14146253Y-13293055D02*
X14127206Y-13312103D01*
X14127206Y-13312103D02*
X14108158Y-13321627D01*
X14298634Y-13264484D02*
X14298634Y-13302579D01*
X14374825Y-13264484D02*
X14374825Y-13302579D01*
X14670063Y-13540674D02*
X14660539Y-13531150D01*
X14660539Y-13531150D02*
X14641491Y-13502579D01*
X14641491Y-13502579D02*
X14631968Y-13483531D01*
X14631968Y-13483531D02*
X14622444Y-13454960D01*
X14622444Y-13454960D02*
X14612920Y-13407341D01*
X14612920Y-13407341D02*
X14612920Y-13369246D01*
X14612920Y-13369246D02*
X14622444Y-13321627D01*
X14622444Y-13321627D02*
X14631968Y-13293055D01*
X14631968Y-13293055D02*
X14641491Y-13274008D01*
X14641491Y-13274008D02*
X14660539Y-13245436D01*
X14660539Y-13245436D02*
X14670063Y-13235912D01*
X14841491Y-13264484D02*
X14746253Y-13264484D01*
X14746253Y-13264484D02*
X14736729Y-13359722D01*
X14736729Y-13359722D02*
X14746253Y-13350198D01*
X14746253Y-13350198D02*
X14765301Y-13340674D01*
X14765301Y-13340674D02*
X14812920Y-13340674D01*
X14812920Y-13340674D02*
X14831968Y-13350198D01*
X14831968Y-13350198D02*
X14841491Y-13359722D01*
X14841491Y-13359722D02*
X14851015Y-13378769D01*
X14851015Y-13378769D02*
X14851015Y-13426388D01*
X14851015Y-13426388D02*
X14841491Y-13445436D01*
X14841491Y-13445436D02*
X14831968Y-13454960D01*
X14831968Y-13454960D02*
X14812920Y-13464484D01*
X14812920Y-13464484D02*
X14765301Y-13464484D01*
X14765301Y-13464484D02*
X14746253Y-13454960D01*
X14746253Y-13454960D02*
X14736729Y-13445436D01*
X15089110Y-13464484D02*
X15089110Y-13264484D01*
X15174825Y-13464484D02*
X15174825Y-13359722D01*
X15174825Y-13359722D02*
X15165301Y-13340674D01*
X15165301Y-13340674D02*
X15146253Y-13331150D01*
X15146253Y-13331150D02*
X15117682Y-13331150D01*
X15117682Y-13331150D02*
X15098634Y-13340674D01*
X15098634Y-13340674D02*
X15089110Y-13350198D01*
X15298634Y-13464484D02*
X15279587Y-13454960D01*
X15279587Y-13454960D02*
X15270063Y-13445436D01*
X15270063Y-13445436D02*
X15260539Y-13426388D01*
X15260539Y-13426388D02*
X15260539Y-13369246D01*
X15260539Y-13369246D02*
X15270063Y-13350198D01*
X15270063Y-13350198D02*
X15279587Y-13340674D01*
X15279587Y-13340674D02*
X15298634Y-13331150D01*
X15298634Y-13331150D02*
X15327206Y-13331150D01*
X15327206Y-13331150D02*
X15346253Y-13340674D01*
X15346253Y-13340674D02*
X15355777Y-13350198D01*
X15355777Y-13350198D02*
X15365301Y-13369246D01*
X15365301Y-13369246D02*
X15365301Y-13426388D01*
X15365301Y-13426388D02*
X15355777Y-13445436D01*
X15355777Y-13445436D02*
X15346253Y-13454960D01*
X15346253Y-13454960D02*
X15327206Y-13464484D01*
X15327206Y-13464484D02*
X15298634Y-13464484D01*
X15479587Y-13464484D02*
X15460539Y-13454960D01*
X15460539Y-13454960D02*
X15451015Y-13435912D01*
X15451015Y-13435912D02*
X15451015Y-13264484D01*
X15631968Y-13454960D02*
X15612920Y-13464484D01*
X15612920Y-13464484D02*
X15574825Y-13464484D01*
X15574825Y-13464484D02*
X15555777Y-13454960D01*
X15555777Y-13454960D02*
X15546253Y-13435912D01*
X15546253Y-13435912D02*
X15546253Y-13359722D01*
X15546253Y-13359722D02*
X15555777Y-13340674D01*
X15555777Y-13340674D02*
X15574825Y-13331150D01*
X15574825Y-13331150D02*
X15612920Y-13331150D01*
X15612920Y-13331150D02*
X15631968Y-13340674D01*
X15631968Y-13340674D02*
X15641491Y-13359722D01*
X15641491Y-13359722D02*
X15641491Y-13378769D01*
X15641491Y-13378769D02*
X15546253Y-13397817D01*
X15717682Y-13454960D02*
X15736730Y-13464484D01*
X15736730Y-13464484D02*
X15774825Y-13464484D01*
X15774825Y-13464484D02*
X15793872Y-13454960D01*
X15793872Y-13454960D02*
X15803396Y-13435912D01*
X15803396Y-13435912D02*
X15803396Y-13426388D01*
X15803396Y-13426388D02*
X15793872Y-13407341D01*
X15793872Y-13407341D02*
X15774825Y-13397817D01*
X15774825Y-13397817D02*
X15746253Y-13397817D01*
X15746253Y-13397817D02*
X15727206Y-13388293D01*
X15727206Y-13388293D02*
X15717682Y-13369246D01*
X15717682Y-13369246D02*
X15717682Y-13359722D01*
X15717682Y-13359722D02*
X15727206Y-13340674D01*
X15727206Y-13340674D02*
X15746253Y-13331150D01*
X15746253Y-13331150D02*
X15774825Y-13331150D01*
X15774825Y-13331150D02*
X15793872Y-13340674D01*
X15870063Y-13540674D02*
X15879587Y-13531150D01*
X15879587Y-13531150D02*
X15898634Y-13502579D01*
X15898634Y-13502579D02*
X15908158Y-13483531D01*
X15908158Y-13483531D02*
X15917682Y-13454960D01*
X15917682Y-13454960D02*
X15927206Y-13407341D01*
X15927206Y-13407341D02*
X15927206Y-13369246D01*
X15927206Y-13369246D02*
X15917682Y-13321627D01*
X15917682Y-13321627D02*
X15908158Y-13293055D01*
X15908158Y-13293055D02*
X15898634Y-13274008D01*
X15898634Y-13274008D02*
X15879587Y-13245436D01*
X15879587Y-13245436D02*
X15870063Y-13235912D01*
D13*
X11073034Y-13690033D02*
X11073034Y-13583966D01*
X10966967Y-13583966D01*
X10966967Y-13690033D01*
X11073034Y-13690033D01*
D11*
X11460539Y-13728484D02*
X11346253Y-13728484D01*
X11403396Y-13728484D02*
X11403396Y-13528484D01*
X11403396Y-13528484D02*
X11384348Y-13557055D01*
X11384348Y-13557055D02*
X11365301Y-13576103D01*
X11365301Y-13576103D02*
X11346253Y-13585627D01*
X11546253Y-13709436D02*
X11555777Y-13718960D01*
X11555777Y-13718960D02*
X11546253Y-13728484D01*
X11546253Y-13728484D02*
X11536729Y-13718960D01*
X11536729Y-13718960D02*
X11546253Y-13709436D01*
X11546253Y-13709436D02*
X11546253Y-13728484D01*
X11736729Y-13528484D02*
X11641491Y-13528484D01*
X11641491Y-13528484D02*
X11631967Y-13623722D01*
X11631967Y-13623722D02*
X11641491Y-13614198D01*
X11641491Y-13614198D02*
X11660539Y-13604674D01*
X11660539Y-13604674D02*
X11708158Y-13604674D01*
X11708158Y-13604674D02*
X11727205Y-13614198D01*
X11727205Y-13614198D02*
X11736729Y-13623722D01*
X11736729Y-13623722D02*
X11746253Y-13642769D01*
X11746253Y-13642769D02*
X11746253Y-13690388D01*
X11746253Y-13690388D02*
X11736729Y-13709436D01*
X11736729Y-13709436D02*
X11727205Y-13718960D01*
X11727205Y-13718960D02*
X11708158Y-13728484D01*
X11708158Y-13728484D02*
X11660539Y-13728484D01*
X11660539Y-13728484D02*
X11641491Y-13718960D01*
X11641491Y-13718960D02*
X11631967Y-13709436D01*
X11870062Y-13528484D02*
X11889110Y-13528484D01*
X11889110Y-13528484D02*
X11908158Y-13538008D01*
X11908158Y-13538008D02*
X11917682Y-13547531D01*
X11917682Y-13547531D02*
X11927205Y-13566579D01*
X11927205Y-13566579D02*
X11936729Y-13604674D01*
X11936729Y-13604674D02*
X11936729Y-13652293D01*
X11936729Y-13652293D02*
X11927205Y-13690388D01*
X11927205Y-13690388D02*
X11917682Y-13709436D01*
X11917682Y-13709436D02*
X11908158Y-13718960D01*
X11908158Y-13718960D02*
X11889110Y-13728484D01*
X11889110Y-13728484D02*
X11870062Y-13728484D01*
X11870062Y-13728484D02*
X11851015Y-13718960D01*
X11851015Y-13718960D02*
X11841491Y-13709436D01*
X11841491Y-13709436D02*
X11831967Y-13690388D01*
X11831967Y-13690388D02*
X11822443Y-13652293D01*
X11822443Y-13652293D02*
X11822443Y-13604674D01*
X11822443Y-13604674D02*
X11831967Y-13566579D01*
X11831967Y-13566579D02*
X11841491Y-13547531D01*
X11841491Y-13547531D02*
X11851015Y-13538008D01*
X11851015Y-13538008D02*
X11870062Y-13528484D01*
X12060539Y-13528484D02*
X12079586Y-13528484D01*
X12079586Y-13528484D02*
X12098634Y-13538008D01*
X12098634Y-13538008D02*
X12108158Y-13547531D01*
X12108158Y-13547531D02*
X12117682Y-13566579D01*
X12117682Y-13566579D02*
X12127205Y-13604674D01*
X12127205Y-13604674D02*
X12127205Y-13652293D01*
X12127205Y-13652293D02*
X12117682Y-13690388D01*
X12117682Y-13690388D02*
X12108158Y-13709436D01*
X12108158Y-13709436D02*
X12098634Y-13718960D01*
X12098634Y-13718960D02*
X12079586Y-13728484D01*
X12079586Y-13728484D02*
X12060539Y-13728484D01*
X12060539Y-13728484D02*
X12041491Y-13718960D01*
X12041491Y-13718960D02*
X12031967Y-13709436D01*
X12031967Y-13709436D02*
X12022443Y-13690388D01*
X12022443Y-13690388D02*
X12012920Y-13652293D01*
X12012920Y-13652293D02*
X12012920Y-13604674D01*
X12012920Y-13604674D02*
X12022443Y-13566579D01*
X12022443Y-13566579D02*
X12031967Y-13547531D01*
X12031967Y-13547531D02*
X12041491Y-13538008D01*
X12041491Y-13538008D02*
X12060539Y-13528484D01*
X12212920Y-13728484D02*
X12212920Y-13595150D01*
X12212920Y-13614198D02*
X12222443Y-13604674D01*
X12222443Y-13604674D02*
X12241491Y-13595150D01*
X12241491Y-13595150D02*
X12270063Y-13595150D01*
X12270063Y-13595150D02*
X12289110Y-13604674D01*
X12289110Y-13604674D02*
X12298634Y-13623722D01*
X12298634Y-13623722D02*
X12298634Y-13728484D01*
X12298634Y-13623722D02*
X12308158Y-13604674D01*
X12308158Y-13604674D02*
X12327205Y-13595150D01*
X12327205Y-13595150D02*
X12355777Y-13595150D01*
X12355777Y-13595150D02*
X12374824Y-13604674D01*
X12374824Y-13604674D02*
X12384348Y-13623722D01*
X12384348Y-13623722D02*
X12384348Y-13728484D01*
X12479586Y-13728484D02*
X12479586Y-13595150D01*
X12479586Y-13614198D02*
X12489110Y-13604674D01*
X12489110Y-13604674D02*
X12508158Y-13595150D01*
X12508158Y-13595150D02*
X12536729Y-13595150D01*
X12536729Y-13595150D02*
X12555777Y-13604674D01*
X12555777Y-13604674D02*
X12565301Y-13623722D01*
X12565301Y-13623722D02*
X12565301Y-13728484D01*
X12565301Y-13623722D02*
X12574824Y-13604674D01*
X12574824Y-13604674D02*
X12593872Y-13595150D01*
X12593872Y-13595150D02*
X12622443Y-13595150D01*
X12622443Y-13595150D02*
X12641491Y-13604674D01*
X12641491Y-13604674D02*
X12651015Y-13623722D01*
X12651015Y-13623722D02*
X12651015Y-13728484D01*
X13041491Y-13518960D02*
X12870063Y-13776103D01*
X13298634Y-13528484D02*
X13317682Y-13528484D01*
X13317682Y-13528484D02*
X13336729Y-13538008D01*
X13336729Y-13538008D02*
X13346253Y-13547531D01*
X13346253Y-13547531D02*
X13355777Y-13566579D01*
X13355777Y-13566579D02*
X13365301Y-13604674D01*
X13365301Y-13604674D02*
X13365301Y-13652293D01*
X13365301Y-13652293D02*
X13355777Y-13690388D01*
X13355777Y-13690388D02*
X13346253Y-13709436D01*
X13346253Y-13709436D02*
X13336729Y-13718960D01*
X13336729Y-13718960D02*
X13317682Y-13728484D01*
X13317682Y-13728484D02*
X13298634Y-13728484D01*
X13298634Y-13728484D02*
X13279586Y-13718960D01*
X13279586Y-13718960D02*
X13270063Y-13709436D01*
X13270063Y-13709436D02*
X13260539Y-13690388D01*
X13260539Y-13690388D02*
X13251015Y-13652293D01*
X13251015Y-13652293D02*
X13251015Y-13604674D01*
X13251015Y-13604674D02*
X13260539Y-13566579D01*
X13260539Y-13566579D02*
X13270063Y-13547531D01*
X13270063Y-13547531D02*
X13279586Y-13538008D01*
X13279586Y-13538008D02*
X13298634Y-13528484D01*
X13451015Y-13709436D02*
X13460539Y-13718960D01*
X13460539Y-13718960D02*
X13451015Y-13728484D01*
X13451015Y-13728484D02*
X13441491Y-13718960D01*
X13441491Y-13718960D02*
X13451015Y-13709436D01*
X13451015Y-13709436D02*
X13451015Y-13728484D01*
X13584348Y-13528484D02*
X13603396Y-13528484D01*
X13603396Y-13528484D02*
X13622444Y-13538008D01*
X13622444Y-13538008D02*
X13631967Y-13547531D01*
X13631967Y-13547531D02*
X13641491Y-13566579D01*
X13641491Y-13566579D02*
X13651015Y-13604674D01*
X13651015Y-13604674D02*
X13651015Y-13652293D01*
X13651015Y-13652293D02*
X13641491Y-13690388D01*
X13641491Y-13690388D02*
X13631967Y-13709436D01*
X13631967Y-13709436D02*
X13622444Y-13718960D01*
X13622444Y-13718960D02*
X13603396Y-13728484D01*
X13603396Y-13728484D02*
X13584348Y-13728484D01*
X13584348Y-13728484D02*
X13565301Y-13718960D01*
X13565301Y-13718960D02*
X13555777Y-13709436D01*
X13555777Y-13709436D02*
X13546253Y-13690388D01*
X13546253Y-13690388D02*
X13536729Y-13652293D01*
X13536729Y-13652293D02*
X13536729Y-13604674D01*
X13536729Y-13604674D02*
X13546253Y-13566579D01*
X13546253Y-13566579D02*
X13555777Y-13547531D01*
X13555777Y-13547531D02*
X13565301Y-13538008D01*
X13565301Y-13538008D02*
X13584348Y-13528484D01*
X13831967Y-13528484D02*
X13736729Y-13528484D01*
X13736729Y-13528484D02*
X13727206Y-13623722D01*
X13727206Y-13623722D02*
X13736729Y-13614198D01*
X13736729Y-13614198D02*
X13755777Y-13604674D01*
X13755777Y-13604674D02*
X13803396Y-13604674D01*
X13803396Y-13604674D02*
X13822444Y-13614198D01*
X13822444Y-13614198D02*
X13831967Y-13623722D01*
X13831967Y-13623722D02*
X13841491Y-13642769D01*
X13841491Y-13642769D02*
X13841491Y-13690388D01*
X13841491Y-13690388D02*
X13831967Y-13709436D01*
X13831967Y-13709436D02*
X13822444Y-13718960D01*
X13822444Y-13718960D02*
X13803396Y-13728484D01*
X13803396Y-13728484D02*
X13755777Y-13728484D01*
X13755777Y-13728484D02*
X13736729Y-13718960D01*
X13736729Y-13718960D02*
X13727206Y-13709436D01*
X13936729Y-13728484D02*
X13974825Y-13728484D01*
X13974825Y-13728484D02*
X13993872Y-13718960D01*
X13993872Y-13718960D02*
X14003396Y-13709436D01*
X14003396Y-13709436D02*
X14022444Y-13680865D01*
X14022444Y-13680865D02*
X14031967Y-13642769D01*
X14031967Y-13642769D02*
X14031967Y-13566579D01*
X14031967Y-13566579D02*
X14022444Y-13547531D01*
X14022444Y-13547531D02*
X14012920Y-13538008D01*
X14012920Y-13538008D02*
X13993872Y-13528484D01*
X13993872Y-13528484D02*
X13955777Y-13528484D01*
X13955777Y-13528484D02*
X13936729Y-13538008D01*
X13936729Y-13538008D02*
X13927206Y-13547531D01*
X13927206Y-13547531D02*
X13917682Y-13566579D01*
X13917682Y-13566579D02*
X13917682Y-13614198D01*
X13917682Y-13614198D02*
X13927206Y-13633246D01*
X13927206Y-13633246D02*
X13936729Y-13642769D01*
X13936729Y-13642769D02*
X13955777Y-13652293D01*
X13955777Y-13652293D02*
X13993872Y-13652293D01*
X13993872Y-13652293D02*
X14012920Y-13642769D01*
X14012920Y-13642769D02*
X14022444Y-13633246D01*
X14022444Y-13633246D02*
X14031967Y-13614198D01*
X14222444Y-13728484D02*
X14108158Y-13728484D01*
X14165301Y-13728484D02*
X14165301Y-13528484D01*
X14165301Y-13528484D02*
X14146253Y-13557055D01*
X14146253Y-13557055D02*
X14127206Y-13576103D01*
X14127206Y-13576103D02*
X14108158Y-13585627D01*
X14298634Y-13528484D02*
X14298634Y-13566579D01*
X14374825Y-13528484D02*
X14374825Y-13566579D01*
X14670063Y-13804674D02*
X14660539Y-13795150D01*
X14660539Y-13795150D02*
X14641491Y-13766579D01*
X14641491Y-13766579D02*
X14631968Y-13747531D01*
X14631968Y-13747531D02*
X14622444Y-13718960D01*
X14622444Y-13718960D02*
X14612920Y-13671341D01*
X14612920Y-13671341D02*
X14612920Y-13633246D01*
X14612920Y-13633246D02*
X14622444Y-13585627D01*
X14622444Y-13585627D02*
X14631968Y-13557055D01*
X14631968Y-13557055D02*
X14641491Y-13538008D01*
X14641491Y-13538008D02*
X14660539Y-13509436D01*
X14660539Y-13509436D02*
X14670063Y-13499912D01*
X14784348Y-13528484D02*
X14803396Y-13528484D01*
X14803396Y-13528484D02*
X14822444Y-13538008D01*
X14822444Y-13538008D02*
X14831968Y-13547531D01*
X14831968Y-13547531D02*
X14841491Y-13566579D01*
X14841491Y-13566579D02*
X14851015Y-13604674D01*
X14851015Y-13604674D02*
X14851015Y-13652293D01*
X14851015Y-13652293D02*
X14841491Y-13690388D01*
X14841491Y-13690388D02*
X14831968Y-13709436D01*
X14831968Y-13709436D02*
X14822444Y-13718960D01*
X14822444Y-13718960D02*
X14803396Y-13728484D01*
X14803396Y-13728484D02*
X14784348Y-13728484D01*
X14784348Y-13728484D02*
X14765301Y-13718960D01*
X14765301Y-13718960D02*
X14755777Y-13709436D01*
X14755777Y-13709436D02*
X14746253Y-13690388D01*
X14746253Y-13690388D02*
X14736729Y-13652293D01*
X14736729Y-13652293D02*
X14736729Y-13604674D01*
X14736729Y-13604674D02*
X14746253Y-13566579D01*
X14746253Y-13566579D02*
X14755777Y-13547531D01*
X14755777Y-13547531D02*
X14765301Y-13538008D01*
X14765301Y-13538008D02*
X14784348Y-13528484D01*
X15089110Y-13728484D02*
X15089110Y-13528484D01*
X15174825Y-13728484D02*
X15174825Y-13623722D01*
X15174825Y-13623722D02*
X15165301Y-13604674D01*
X15165301Y-13604674D02*
X15146253Y-13595150D01*
X15146253Y-13595150D02*
X15117682Y-13595150D01*
X15117682Y-13595150D02*
X15098634Y-13604674D01*
X15098634Y-13604674D02*
X15089110Y-13614198D01*
X15298634Y-13728484D02*
X15279587Y-13718960D01*
X15279587Y-13718960D02*
X15270063Y-13709436D01*
X15270063Y-13709436D02*
X15260539Y-13690388D01*
X15260539Y-13690388D02*
X15260539Y-13633246D01*
X15260539Y-13633246D02*
X15270063Y-13614198D01*
X15270063Y-13614198D02*
X15279587Y-13604674D01*
X15279587Y-13604674D02*
X15298634Y-13595150D01*
X15298634Y-13595150D02*
X15327206Y-13595150D01*
X15327206Y-13595150D02*
X15346253Y-13604674D01*
X15346253Y-13604674D02*
X15355777Y-13614198D01*
X15355777Y-13614198D02*
X15365301Y-13633246D01*
X15365301Y-13633246D02*
X15365301Y-13690388D01*
X15365301Y-13690388D02*
X15355777Y-13709436D01*
X15355777Y-13709436D02*
X15346253Y-13718960D01*
X15346253Y-13718960D02*
X15327206Y-13728484D01*
X15327206Y-13728484D02*
X15298634Y-13728484D01*
X15479587Y-13728484D02*
X15460539Y-13718960D01*
X15460539Y-13718960D02*
X15451015Y-13699912D01*
X15451015Y-13699912D02*
X15451015Y-13528484D01*
X15631968Y-13718960D02*
X15612920Y-13728484D01*
X15612920Y-13728484D02*
X15574825Y-13728484D01*
X15574825Y-13728484D02*
X15555777Y-13718960D01*
X15555777Y-13718960D02*
X15546253Y-13699912D01*
X15546253Y-13699912D02*
X15546253Y-13623722D01*
X15546253Y-13623722D02*
X15555777Y-13604674D01*
X15555777Y-13604674D02*
X15574825Y-13595150D01*
X15574825Y-13595150D02*
X15612920Y-13595150D01*
X15612920Y-13595150D02*
X15631968Y-13604674D01*
X15631968Y-13604674D02*
X15641491Y-13623722D01*
X15641491Y-13623722D02*
X15641491Y-13642769D01*
X15641491Y-13642769D02*
X15546253Y-13661817D01*
X15717682Y-13718960D02*
X15736730Y-13728484D01*
X15736730Y-13728484D02*
X15774825Y-13728484D01*
X15774825Y-13728484D02*
X15793872Y-13718960D01*
X15793872Y-13718960D02*
X15803396Y-13699912D01*
X15803396Y-13699912D02*
X15803396Y-13690388D01*
X15803396Y-13690388D02*
X15793872Y-13671341D01*
X15793872Y-13671341D02*
X15774825Y-13661817D01*
X15774825Y-13661817D02*
X15746253Y-13661817D01*
X15746253Y-13661817D02*
X15727206Y-13652293D01*
X15727206Y-13652293D02*
X15717682Y-13633246D01*
X15717682Y-13633246D02*
X15717682Y-13623722D01*
X15717682Y-13623722D02*
X15727206Y-13604674D01*
X15727206Y-13604674D02*
X15746253Y-13595150D01*
X15746253Y-13595150D02*
X15774825Y-13595150D01*
X15774825Y-13595150D02*
X15793872Y-13604674D01*
X16041492Y-13652293D02*
X16193873Y-13652293D01*
X16117682Y-13728484D02*
X16117682Y-13576103D01*
X16431968Y-13547531D02*
X16441492Y-13538008D01*
X16441492Y-13538008D02*
X16460539Y-13528484D01*
X16460539Y-13528484D02*
X16508158Y-13528484D01*
X16508158Y-13528484D02*
X16527206Y-13538008D01*
X16527206Y-13538008D02*
X16536730Y-13547531D01*
X16536730Y-13547531D02*
X16546253Y-13566579D01*
X16546253Y-13566579D02*
X16546253Y-13585627D01*
X16546253Y-13585627D02*
X16536730Y-13614198D01*
X16536730Y-13614198D02*
X16422444Y-13728484D01*
X16422444Y-13728484D02*
X16546253Y-13728484D01*
X16774825Y-13718960D02*
X16793873Y-13728484D01*
X16793873Y-13728484D02*
X16831968Y-13728484D01*
X16831968Y-13728484D02*
X16851016Y-13718960D01*
X16851016Y-13718960D02*
X16860539Y-13699912D01*
X16860539Y-13699912D02*
X16860539Y-13690388D01*
X16860539Y-13690388D02*
X16851016Y-13671341D01*
X16851016Y-13671341D02*
X16831968Y-13661817D01*
X16831968Y-13661817D02*
X16803396Y-13661817D01*
X16803396Y-13661817D02*
X16784349Y-13652293D01*
X16784349Y-13652293D02*
X16774825Y-13633246D01*
X16774825Y-13633246D02*
X16774825Y-13623722D01*
X16774825Y-13623722D02*
X16784349Y-13604674D01*
X16784349Y-13604674D02*
X16803396Y-13595150D01*
X16803396Y-13595150D02*
X16831968Y-13595150D01*
X16831968Y-13595150D02*
X16851016Y-13604674D01*
X16974825Y-13728484D02*
X16955777Y-13718960D01*
X16955777Y-13718960D02*
X16946254Y-13699912D01*
X16946254Y-13699912D02*
X16946254Y-13528484D01*
X17079587Y-13728484D02*
X17060539Y-13718960D01*
X17060539Y-13718960D02*
X17051016Y-13709436D01*
X17051016Y-13709436D02*
X17041492Y-13690388D01*
X17041492Y-13690388D02*
X17041492Y-13633246D01*
X17041492Y-13633246D02*
X17051016Y-13614198D01*
X17051016Y-13614198D02*
X17060539Y-13604674D01*
X17060539Y-13604674D02*
X17079587Y-13595150D01*
X17079587Y-13595150D02*
X17108158Y-13595150D01*
X17108158Y-13595150D02*
X17127206Y-13604674D01*
X17127206Y-13604674D02*
X17136730Y-13614198D01*
X17136730Y-13614198D02*
X17146254Y-13633246D01*
X17146254Y-13633246D02*
X17146254Y-13690388D01*
X17146254Y-13690388D02*
X17136730Y-13709436D01*
X17136730Y-13709436D02*
X17127206Y-13718960D01*
X17127206Y-13718960D02*
X17108158Y-13728484D01*
X17108158Y-13728484D02*
X17079587Y-13728484D01*
X17203397Y-13595150D02*
X17279587Y-13595150D01*
X17231968Y-13528484D02*
X17231968Y-13699912D01*
X17231968Y-13699912D02*
X17241492Y-13718960D01*
X17241492Y-13718960D02*
X17260539Y-13728484D01*
X17260539Y-13728484D02*
X17279587Y-13728484D01*
X17336730Y-13718960D02*
X17355777Y-13728484D01*
X17355777Y-13728484D02*
X17393873Y-13728484D01*
X17393873Y-13728484D02*
X17412920Y-13718960D01*
X17412920Y-13718960D02*
X17422444Y-13699912D01*
X17422444Y-13699912D02*
X17422444Y-13690388D01*
X17422444Y-13690388D02*
X17412920Y-13671341D01*
X17412920Y-13671341D02*
X17393873Y-13661817D01*
X17393873Y-13661817D02*
X17365301Y-13661817D01*
X17365301Y-13661817D02*
X17346254Y-13652293D01*
X17346254Y-13652293D02*
X17336730Y-13633246D01*
X17336730Y-13633246D02*
X17336730Y-13623722D01*
X17336730Y-13623722D02*
X17346254Y-13604674D01*
X17346254Y-13604674D02*
X17365301Y-13595150D01*
X17365301Y-13595150D02*
X17393873Y-13595150D01*
X17393873Y-13595150D02*
X17412920Y-13604674D01*
X17489111Y-13804674D02*
X17498635Y-13795150D01*
X17498635Y-13795150D02*
X17517682Y-13766579D01*
X17517682Y-13766579D02*
X17527206Y-13747531D01*
X17527206Y-13747531D02*
X17536730Y-13718960D01*
X17536730Y-13718960D02*
X17546254Y-13671341D01*
X17546254Y-13671341D02*
X17546254Y-13633246D01*
X17546254Y-13633246D02*
X17536730Y-13585627D01*
X17536730Y-13585627D02*
X17527206Y-13557055D01*
X17527206Y-13557055D02*
X17517682Y-13538008D01*
X17517682Y-13538008D02*
X17498635Y-13509436D01*
X17498635Y-13509436D02*
X17489111Y-13499912D01*
X10995000Y-14007000D02*
X11095000Y-13907000D01*
X10995000Y-13807000D01*
X10895000Y-13907000D01*
X10995000Y-14007000D01*
X11346253Y-13817531D02*
X11355777Y-13808008D01*
X11355777Y-13808008D02*
X11374824Y-13798484D01*
X11374824Y-13798484D02*
X11422443Y-13798484D01*
X11422443Y-13798484D02*
X11441491Y-13808008D01*
X11441491Y-13808008D02*
X11451015Y-13817531D01*
X11451015Y-13817531D02*
X11460539Y-13836579D01*
X11460539Y-13836579D02*
X11460539Y-13855627D01*
X11460539Y-13855627D02*
X11451015Y-13884198D01*
X11451015Y-13884198D02*
X11336729Y-13998484D01*
X11336729Y-13998484D02*
X11460539Y-13998484D01*
X11546253Y-13979436D02*
X11555777Y-13988960D01*
X11555777Y-13988960D02*
X11546253Y-13998484D01*
X11546253Y-13998484D02*
X11536729Y-13988960D01*
X11536729Y-13988960D02*
X11546253Y-13979436D01*
X11546253Y-13979436D02*
X11546253Y-13998484D01*
X11679586Y-13798484D02*
X11698634Y-13798484D01*
X11698634Y-13798484D02*
X11717682Y-13808008D01*
X11717682Y-13808008D02*
X11727205Y-13817531D01*
X11727205Y-13817531D02*
X11736729Y-13836579D01*
X11736729Y-13836579D02*
X11746253Y-13874674D01*
X11746253Y-13874674D02*
X11746253Y-13922293D01*
X11746253Y-13922293D02*
X11736729Y-13960388D01*
X11736729Y-13960388D02*
X11727205Y-13979436D01*
X11727205Y-13979436D02*
X11717682Y-13988960D01*
X11717682Y-13988960D02*
X11698634Y-13998484D01*
X11698634Y-13998484D02*
X11679586Y-13998484D01*
X11679586Y-13998484D02*
X11660539Y-13988960D01*
X11660539Y-13988960D02*
X11651015Y-13979436D01*
X11651015Y-13979436D02*
X11641491Y-13960388D01*
X11641491Y-13960388D02*
X11631967Y-13922293D01*
X11631967Y-13922293D02*
X11631967Y-13874674D01*
X11631967Y-13874674D02*
X11641491Y-13836579D01*
X11641491Y-13836579D02*
X11651015Y-13817531D01*
X11651015Y-13817531D02*
X11660539Y-13808008D01*
X11660539Y-13808008D02*
X11679586Y-13798484D01*
X11870062Y-13798484D02*
X11889110Y-13798484D01*
X11889110Y-13798484D02*
X11908158Y-13808008D01*
X11908158Y-13808008D02*
X11917682Y-13817531D01*
X11917682Y-13817531D02*
X11927205Y-13836579D01*
X11927205Y-13836579D02*
X11936729Y-13874674D01*
X11936729Y-13874674D02*
X11936729Y-13922293D01*
X11936729Y-13922293D02*
X11927205Y-13960388D01*
X11927205Y-13960388D02*
X11917682Y-13979436D01*
X11917682Y-13979436D02*
X11908158Y-13988960D01*
X11908158Y-13988960D02*
X11889110Y-13998484D01*
X11889110Y-13998484D02*
X11870062Y-13998484D01*
X11870062Y-13998484D02*
X11851015Y-13988960D01*
X11851015Y-13988960D02*
X11841491Y-13979436D01*
X11841491Y-13979436D02*
X11831967Y-13960388D01*
X11831967Y-13960388D02*
X11822443Y-13922293D01*
X11822443Y-13922293D02*
X11822443Y-13874674D01*
X11822443Y-13874674D02*
X11831967Y-13836579D01*
X11831967Y-13836579D02*
X11841491Y-13817531D01*
X11841491Y-13817531D02*
X11851015Y-13808008D01*
X11851015Y-13808008D02*
X11870062Y-13798484D01*
X12060539Y-13798484D02*
X12079586Y-13798484D01*
X12079586Y-13798484D02*
X12098634Y-13808008D01*
X12098634Y-13808008D02*
X12108158Y-13817531D01*
X12108158Y-13817531D02*
X12117682Y-13836579D01*
X12117682Y-13836579D02*
X12127205Y-13874674D01*
X12127205Y-13874674D02*
X12127205Y-13922293D01*
X12127205Y-13922293D02*
X12117682Y-13960388D01*
X12117682Y-13960388D02*
X12108158Y-13979436D01*
X12108158Y-13979436D02*
X12098634Y-13988960D01*
X12098634Y-13988960D02*
X12079586Y-13998484D01*
X12079586Y-13998484D02*
X12060539Y-13998484D01*
X12060539Y-13998484D02*
X12041491Y-13988960D01*
X12041491Y-13988960D02*
X12031967Y-13979436D01*
X12031967Y-13979436D02*
X12022443Y-13960388D01*
X12022443Y-13960388D02*
X12012920Y-13922293D01*
X12012920Y-13922293D02*
X12012920Y-13874674D01*
X12012920Y-13874674D02*
X12022443Y-13836579D01*
X12022443Y-13836579D02*
X12031967Y-13817531D01*
X12031967Y-13817531D02*
X12041491Y-13808008D01*
X12041491Y-13808008D02*
X12060539Y-13798484D01*
X12212920Y-13998484D02*
X12212920Y-13865150D01*
X12212920Y-13884198D02*
X12222443Y-13874674D01*
X12222443Y-13874674D02*
X12241491Y-13865150D01*
X12241491Y-13865150D02*
X12270063Y-13865150D01*
X12270063Y-13865150D02*
X12289110Y-13874674D01*
X12289110Y-13874674D02*
X12298634Y-13893722D01*
X12298634Y-13893722D02*
X12298634Y-13998484D01*
X12298634Y-13893722D02*
X12308158Y-13874674D01*
X12308158Y-13874674D02*
X12327205Y-13865150D01*
X12327205Y-13865150D02*
X12355777Y-13865150D01*
X12355777Y-13865150D02*
X12374824Y-13874674D01*
X12374824Y-13874674D02*
X12384348Y-13893722D01*
X12384348Y-13893722D02*
X12384348Y-13998484D01*
X12479586Y-13998484D02*
X12479586Y-13865150D01*
X12479586Y-13884198D02*
X12489110Y-13874674D01*
X12489110Y-13874674D02*
X12508158Y-13865150D01*
X12508158Y-13865150D02*
X12536729Y-13865150D01*
X12536729Y-13865150D02*
X12555777Y-13874674D01*
X12555777Y-13874674D02*
X12565301Y-13893722D01*
X12565301Y-13893722D02*
X12565301Y-13998484D01*
X12565301Y-13893722D02*
X12574824Y-13874674D01*
X12574824Y-13874674D02*
X12593872Y-13865150D01*
X12593872Y-13865150D02*
X12622443Y-13865150D01*
X12622443Y-13865150D02*
X12641491Y-13874674D01*
X12641491Y-13874674D02*
X12651015Y-13893722D01*
X12651015Y-13893722D02*
X12651015Y-13998484D01*
X13041491Y-13788960D02*
X12870063Y-14046103D01*
X13298634Y-13798484D02*
X13317682Y-13798484D01*
X13317682Y-13798484D02*
X13336729Y-13808008D01*
X13336729Y-13808008D02*
X13346253Y-13817531D01*
X13346253Y-13817531D02*
X13355777Y-13836579D01*
X13355777Y-13836579D02*
X13365301Y-13874674D01*
X13365301Y-13874674D02*
X13365301Y-13922293D01*
X13365301Y-13922293D02*
X13355777Y-13960388D01*
X13355777Y-13960388D02*
X13346253Y-13979436D01*
X13346253Y-13979436D02*
X13336729Y-13988960D01*
X13336729Y-13988960D02*
X13317682Y-13998484D01*
X13317682Y-13998484D02*
X13298634Y-13998484D01*
X13298634Y-13998484D02*
X13279586Y-13988960D01*
X13279586Y-13988960D02*
X13270063Y-13979436D01*
X13270063Y-13979436D02*
X13260539Y-13960388D01*
X13260539Y-13960388D02*
X13251015Y-13922293D01*
X13251015Y-13922293D02*
X13251015Y-13874674D01*
X13251015Y-13874674D02*
X13260539Y-13836579D01*
X13260539Y-13836579D02*
X13270063Y-13817531D01*
X13270063Y-13817531D02*
X13279586Y-13808008D01*
X13279586Y-13808008D02*
X13298634Y-13798484D01*
X13451015Y-13979436D02*
X13460539Y-13988960D01*
X13460539Y-13988960D02*
X13451015Y-13998484D01*
X13451015Y-13998484D02*
X13441491Y-13988960D01*
X13441491Y-13988960D02*
X13451015Y-13979436D01*
X13451015Y-13979436D02*
X13451015Y-13998484D01*
X13584348Y-13798484D02*
X13603396Y-13798484D01*
X13603396Y-13798484D02*
X13622444Y-13808008D01*
X13622444Y-13808008D02*
X13631967Y-13817531D01*
X13631967Y-13817531D02*
X13641491Y-13836579D01*
X13641491Y-13836579D02*
X13651015Y-13874674D01*
X13651015Y-13874674D02*
X13651015Y-13922293D01*
X13651015Y-13922293D02*
X13641491Y-13960388D01*
X13641491Y-13960388D02*
X13631967Y-13979436D01*
X13631967Y-13979436D02*
X13622444Y-13988960D01*
X13622444Y-13988960D02*
X13603396Y-13998484D01*
X13603396Y-13998484D02*
X13584348Y-13998484D01*
X13584348Y-13998484D02*
X13565301Y-13988960D01*
X13565301Y-13988960D02*
X13555777Y-13979436D01*
X13555777Y-13979436D02*
X13546253Y-13960388D01*
X13546253Y-13960388D02*
X13536729Y-13922293D01*
X13536729Y-13922293D02*
X13536729Y-13874674D01*
X13536729Y-13874674D02*
X13546253Y-13836579D01*
X13546253Y-13836579D02*
X13555777Y-13817531D01*
X13555777Y-13817531D02*
X13565301Y-13808008D01*
X13565301Y-13808008D02*
X13584348Y-13798484D01*
X13717682Y-13798484D02*
X13851015Y-13798484D01*
X13851015Y-13798484D02*
X13765301Y-13998484D01*
X13955777Y-13884198D02*
X13936729Y-13874674D01*
X13936729Y-13874674D02*
X13927206Y-13865150D01*
X13927206Y-13865150D02*
X13917682Y-13846103D01*
X13917682Y-13846103D02*
X13917682Y-13836579D01*
X13917682Y-13836579D02*
X13927206Y-13817531D01*
X13927206Y-13817531D02*
X13936729Y-13808008D01*
X13936729Y-13808008D02*
X13955777Y-13798484D01*
X13955777Y-13798484D02*
X13993872Y-13798484D01*
X13993872Y-13798484D02*
X14012920Y-13808008D01*
X14012920Y-13808008D02*
X14022444Y-13817531D01*
X14022444Y-13817531D02*
X14031967Y-13836579D01*
X14031967Y-13836579D02*
X14031967Y-13846103D01*
X14031967Y-13846103D02*
X14022444Y-13865150D01*
X14022444Y-13865150D02*
X14012920Y-13874674D01*
X14012920Y-13874674D02*
X13993872Y-13884198D01*
X13993872Y-13884198D02*
X13955777Y-13884198D01*
X13955777Y-13884198D02*
X13936729Y-13893722D01*
X13936729Y-13893722D02*
X13927206Y-13903246D01*
X13927206Y-13903246D02*
X13917682Y-13922293D01*
X13917682Y-13922293D02*
X13917682Y-13960388D01*
X13917682Y-13960388D02*
X13927206Y-13979436D01*
X13927206Y-13979436D02*
X13936729Y-13988960D01*
X13936729Y-13988960D02*
X13955777Y-13998484D01*
X13955777Y-13998484D02*
X13993872Y-13998484D01*
X13993872Y-13998484D02*
X14012920Y-13988960D01*
X14012920Y-13988960D02*
X14022444Y-13979436D01*
X14022444Y-13979436D02*
X14031967Y-13960388D01*
X14031967Y-13960388D02*
X14031967Y-13922293D01*
X14031967Y-13922293D02*
X14022444Y-13903246D01*
X14022444Y-13903246D02*
X14012920Y-13893722D01*
X14012920Y-13893722D02*
X13993872Y-13884198D01*
X14098634Y-13798484D02*
X14231967Y-13798484D01*
X14231967Y-13798484D02*
X14146253Y-13998484D01*
X14298634Y-13798484D02*
X14298634Y-13836579D01*
X14374825Y-13798484D02*
X14374825Y-13836579D01*
X14670063Y-14074674D02*
X14660539Y-14065150D01*
X14660539Y-14065150D02*
X14641491Y-14036579D01*
X14641491Y-14036579D02*
X14631968Y-14017531D01*
X14631968Y-14017531D02*
X14622444Y-13988960D01*
X14622444Y-13988960D02*
X14612920Y-13941341D01*
X14612920Y-13941341D02*
X14612920Y-13903246D01*
X14612920Y-13903246D02*
X14622444Y-13855627D01*
X14622444Y-13855627D02*
X14631968Y-13827055D01*
X14631968Y-13827055D02*
X14641491Y-13808008D01*
X14641491Y-13808008D02*
X14660539Y-13779436D01*
X14660539Y-13779436D02*
X14670063Y-13769912D01*
X14736729Y-13817531D02*
X14746253Y-13808008D01*
X14746253Y-13808008D02*
X14765301Y-13798484D01*
X14765301Y-13798484D02*
X14812920Y-13798484D01*
X14812920Y-13798484D02*
X14831968Y-13808008D01*
X14831968Y-13808008D02*
X14841491Y-13817531D01*
X14841491Y-13817531D02*
X14851015Y-13836579D01*
X14851015Y-13836579D02*
X14851015Y-13855627D01*
X14851015Y-13855627D02*
X14841491Y-13884198D01*
X14841491Y-13884198D02*
X14727206Y-13998484D01*
X14727206Y-13998484D02*
X14851015Y-13998484D01*
X15089110Y-13998484D02*
X15089110Y-13798484D01*
X15174825Y-13998484D02*
X15174825Y-13893722D01*
X15174825Y-13893722D02*
X15165301Y-13874674D01*
X15165301Y-13874674D02*
X15146253Y-13865150D01*
X15146253Y-13865150D02*
X15117682Y-13865150D01*
X15117682Y-13865150D02*
X15098634Y-13874674D01*
X15098634Y-13874674D02*
X15089110Y-13884198D01*
X15298634Y-13998484D02*
X15279587Y-13988960D01*
X15279587Y-13988960D02*
X15270063Y-13979436D01*
X15270063Y-13979436D02*
X15260539Y-13960388D01*
X15260539Y-13960388D02*
X15260539Y-13903246D01*
X15260539Y-13903246D02*
X15270063Y-13884198D01*
X15270063Y-13884198D02*
X15279587Y-13874674D01*
X15279587Y-13874674D02*
X15298634Y-13865150D01*
X15298634Y-13865150D02*
X15327206Y-13865150D01*
X15327206Y-13865150D02*
X15346253Y-13874674D01*
X15346253Y-13874674D02*
X15355777Y-13884198D01*
X15355777Y-13884198D02*
X15365301Y-13903246D01*
X15365301Y-13903246D02*
X15365301Y-13960388D01*
X15365301Y-13960388D02*
X15355777Y-13979436D01*
X15355777Y-13979436D02*
X15346253Y-13988960D01*
X15346253Y-13988960D02*
X15327206Y-13998484D01*
X15327206Y-13998484D02*
X15298634Y-13998484D01*
X15479587Y-13998484D02*
X15460539Y-13988960D01*
X15460539Y-13988960D02*
X15451015Y-13969912D01*
X15451015Y-13969912D02*
X15451015Y-13798484D01*
X15631968Y-13988960D02*
X15612920Y-13998484D01*
X15612920Y-13998484D02*
X15574825Y-13998484D01*
X15574825Y-13998484D02*
X15555777Y-13988960D01*
X15555777Y-13988960D02*
X15546253Y-13969912D01*
X15546253Y-13969912D02*
X15546253Y-13893722D01*
X15546253Y-13893722D02*
X15555777Y-13874674D01*
X15555777Y-13874674D02*
X15574825Y-13865150D01*
X15574825Y-13865150D02*
X15612920Y-13865150D01*
X15612920Y-13865150D02*
X15631968Y-13874674D01*
X15631968Y-13874674D02*
X15641491Y-13893722D01*
X15641491Y-13893722D02*
X15641491Y-13912769D01*
X15641491Y-13912769D02*
X15546253Y-13931817D01*
X15717682Y-13988960D02*
X15736730Y-13998484D01*
X15736730Y-13998484D02*
X15774825Y-13998484D01*
X15774825Y-13998484D02*
X15793872Y-13988960D01*
X15793872Y-13988960D02*
X15803396Y-13969912D01*
X15803396Y-13969912D02*
X15803396Y-13960388D01*
X15803396Y-13960388D02*
X15793872Y-13941341D01*
X15793872Y-13941341D02*
X15774825Y-13931817D01*
X15774825Y-13931817D02*
X15746253Y-13931817D01*
X15746253Y-13931817D02*
X15727206Y-13922293D01*
X15727206Y-13922293D02*
X15717682Y-13903246D01*
X15717682Y-13903246D02*
X15717682Y-13893722D01*
X15717682Y-13893722D02*
X15727206Y-13874674D01*
X15727206Y-13874674D02*
X15746253Y-13865150D01*
X15746253Y-13865150D02*
X15774825Y-13865150D01*
X15774825Y-13865150D02*
X15793872Y-13874674D01*
X15870063Y-14074674D02*
X15879587Y-14065150D01*
X15879587Y-14065150D02*
X15898634Y-14036579D01*
X15898634Y-14036579D02*
X15908158Y-14017531D01*
X15908158Y-14017531D02*
X15917682Y-13988960D01*
X15917682Y-13988960D02*
X15927206Y-13941341D01*
X15927206Y-13941341D02*
X15927206Y-13903246D01*
X15927206Y-13903246D02*
X15917682Y-13855627D01*
X15917682Y-13855627D02*
X15908158Y-13827055D01*
X15908158Y-13827055D02*
X15898634Y-13808008D01*
X15898634Y-13808008D02*
X15879587Y-13779436D01*
X15879587Y-13779436D02*
X15870063Y-13769912D01*
M02*
