G04 #@! TF.GenerationSoftware,KiCad,Pcbnew,10.0.4*
G04 #@! TF.CreationDate,2026-09-30T00:09:03-04:00*
G04 #@! TF.ProjectId,uSonicTimer1d,75536f6e-6963-4546-996d-657231642e6b,D*
G04 #@! TF.SameCoordinates,Original*
G04 #@! TF.FileFunction,Legend,Bot*
G04 #@! TF.FilePolarity,Positive*
%FSLAX46Y46*%
G04 Gerber Fmt 4.6, Leading zero omitted, Abs format (unit mm)*
G04 Created by KiCad (PCBNEW 10.0.4) date 2026-09-30 00:09:03*
%MOMM*%
%LPD*%
G01*
G04 APERTURE LIST*
G04 Aperture macros list*
%AMRoundRect*
0 Rectangle with rounded corners*
0 $1 Rounding radius*
0 $2 $3 $4 $5 $6 $7 $8 $9 X,Y pos of 4 corners*
0 Add a 4 corners polygon primitive as box body*
4,1,4,$2,$3,$4,$5,$6,$7,$8,$9,$2,$3,0*
0 Add four circle primitives for the rounded corners*
1,1,$1+$1,$2,$3*
1,1,$1+$1,$4,$5*
1,1,$1+$1,$6,$7*
1,1,$1+$1,$8,$9*
0 Add four rect primitives between the rounded corners*
20,1,$1+$1,$2,$3,$4,$5,0*
20,1,$1+$1,$4,$5,$6,$7,0*
20,1,$1+$1,$6,$7,$8,$9,0*
20,1,$1+$1,$8,$9,$2,$3,0*%
%AMFreePoly0*
4,1,37,0.290285,2.206940,0.471397,2.131921,0.634393,2.023010,0.773010,1.884393,0.881921,1.721397,0.956940,1.540285,0.964953,1.500000,2.000000,1.500000,2.000000,-1.500000,0.964953,-1.500000,0.956940,-1.540285,0.881921,-1.721397,0.773010,-1.884393,0.634393,-2.023010,0.471397,-2.131921,0.290285,-2.206940,0.098017,-2.245185,-0.098017,-2.245185,-0.290285,-2.206940,-0.471397,-2.131921,
-0.634393,-2.023010,-0.773010,-1.884393,-0.881921,-1.721397,-0.956940,-1.540285,-0.995185,-1.348017,-1.000000,-1.250000,-1.000000,1.250000,-0.995185,1.348017,-0.956940,1.540285,-0.881921,1.721397,-0.773010,1.884393,-0.634393,2.023010,-0.471397,2.131921,-0.290285,2.206940,-0.098017,2.245185,0.098017,2.245185,0.290285,2.206940,0.290285,2.206940,$1*%
%AMFreePoly1*
4,1,37,0.290285,2.206940,0.471397,2.131921,0.634393,2.023010,0.773010,1.884393,0.881921,1.721397,0.956940,1.540285,0.995185,1.348017,1.000000,1.250000,1.000000,-1.250000,0.995185,-1.348017,0.956940,-1.540285,0.881921,-1.721397,0.773010,-1.884393,0.634393,-2.023010,0.471397,-2.131921,0.290285,-2.206940,0.098017,-2.245185,-0.098017,-2.245185,-0.290285,-2.206940,-0.471397,-2.131921,
-0.634393,-2.023010,-0.773010,-1.884393,-0.881921,-1.721397,-0.956940,-1.540285,-0.964953,-1.500000,-2.000000,-1.500000,-2.000000,1.500000,-0.964953,1.500000,-0.956940,1.540285,-0.881921,1.721397,-0.773010,1.884393,-0.634393,2.023010,-0.471397,2.131921,-0.290285,2.206940,-0.098017,2.245185,0.098017,2.245185,0.290285,2.206940,0.290285,2.206940,$1*%
G04 Aperture macros list end*
%ADD10C,0.150000*%
%ADD11C,0.101600*%
%ADD12C,0.120000*%
%ADD13C,0.200000*%
%ADD14C,0.300000*%
%ADD15C,0.000000*%
%ADD16C,0.100000*%
%ADD17C,2.100000*%
%ADD18FreePoly0,0.000000*%
%ADD19FreePoly1,0.000000*%
%ADD20R,2.000000X2.000000*%
%ADD21C,2.000000*%
%ADD22R,2.000000X3.200000*%
%ADD23RoundRect,0.250000X0.450000X-0.262500X0.450000X0.262500X-0.450000X0.262500X-0.450000X-0.262500X0*%
%ADD24RoundRect,0.250000X0.262500X0.450000X-0.262500X0.450000X-0.262500X-0.450000X0.262500X-0.450000X0*%
%ADD25RoundRect,0.250000X-0.450000X0.262500X-0.450000X-0.262500X0.450000X-0.262500X0.450000X0.262500X0*%
%ADD26RoundRect,0.070000X0.650000X0.300000X-0.650000X0.300000X-0.650000X-0.300000X0.650000X-0.300000X0*%
%ADD27RoundRect,0.250000X-0.250000X-0.475000X0.250000X-0.475000X0.250000X0.475000X-0.250000X0.475000X0*%
%ADD28RoundRect,0.249999X0.790001X1.550001X-0.790001X1.550001X-0.790001X-1.550001X0.790001X-1.550001X0*%
%ADD29O,2.080000X3.600000*%
%ADD30RoundRect,0.250000X-0.262500X-0.450000X0.262500X-0.450000X0.262500X0.450000X-0.262500X0.450000X0*%
%ADD31RoundRect,0.070000X-0.650000X-0.300000X0.650000X-0.300000X0.650000X0.300000X-0.650000X0.300000X0*%
%ADD32O,1.219200X2.032000*%
G04 APERTURE END LIST*
D10*
X130485000Y-100965000D02*
X137485000Y-100965000D01*
X137485000Y-103862000D01*
X130485000Y-103862000D01*
X130485000Y-100965000D01*
G36*
X130485000Y-100965000D02*
G01*
X137485000Y-100965000D01*
X137485000Y-103862000D01*
X130485000Y-103862000D01*
X130485000Y-100965000D01*
G37*
D11*
X128661218Y-92581668D02*
X128796685Y-92146240D01*
X128893447Y-92581668D02*
X128893447Y-91667268D01*
X128893447Y-91667268D02*
X128738628Y-91667268D01*
X128738628Y-91667268D02*
X128699923Y-91710811D01*
X128699923Y-91710811D02*
X128680570Y-91754354D01*
X128680570Y-91754354D02*
X128661218Y-91841440D01*
X128661218Y-91841440D02*
X128661218Y-91972068D01*
X128661218Y-91972068D02*
X128680570Y-92059154D01*
X128680570Y-92059154D02*
X128699923Y-92102697D01*
X128699923Y-92102697D02*
X128738628Y-92146240D01*
X128738628Y-92146240D02*
X128893447Y-92146240D01*
X128332228Y-92538126D02*
X128370932Y-92581668D01*
X128370932Y-92581668D02*
X128448342Y-92581668D01*
X128448342Y-92581668D02*
X128487047Y-92538126D01*
X128487047Y-92538126D02*
X128506399Y-92451040D01*
X128506399Y-92451040D02*
X128506399Y-92102697D01*
X128506399Y-92102697D02*
X128487047Y-92015611D01*
X128487047Y-92015611D02*
X128448342Y-91972068D01*
X128448342Y-91972068D02*
X128370932Y-91972068D01*
X128370932Y-91972068D02*
X128332228Y-92015611D01*
X128332228Y-92015611D02*
X128312875Y-92102697D01*
X128312875Y-92102697D02*
X128312875Y-92189783D01*
X128312875Y-92189783D02*
X128506399Y-92276868D01*
X128177408Y-91972068D02*
X128080646Y-92581668D01*
X128080646Y-92581668D02*
X127983885Y-91972068D01*
X127519428Y-92581668D02*
X127519428Y-91667268D01*
X127519428Y-91667268D02*
X127422666Y-91667268D01*
X127422666Y-91667268D02*
X127364609Y-91710811D01*
X127364609Y-91710811D02*
X127325904Y-91797897D01*
X127325904Y-91797897D02*
X127306551Y-91884983D01*
X127306551Y-91884983D02*
X127287199Y-92059154D01*
X127287199Y-92059154D02*
X127287199Y-92189783D01*
X127287199Y-92189783D02*
X127306551Y-92363954D01*
X127306551Y-92363954D02*
X127325904Y-92451040D01*
X127325904Y-92451040D02*
X127364609Y-92538126D01*
X127364609Y-92538126D02*
X127422666Y-92581668D01*
X127422666Y-92581668D02*
X127519428Y-92581668D01*
D12*
X168707142Y-93351950D02*
X168764285Y-93313855D01*
X168764285Y-93313855D02*
X168849999Y-93313855D01*
X168849999Y-93313855D02*
X168935713Y-93351950D01*
X168935713Y-93351950D02*
X168992856Y-93428140D01*
X168992856Y-93428140D02*
X169021427Y-93504331D01*
X169021427Y-93504331D02*
X169049999Y-93656712D01*
X169049999Y-93656712D02*
X169049999Y-93770998D01*
X169049999Y-93770998D02*
X169021427Y-93923379D01*
X169021427Y-93923379D02*
X168992856Y-93999569D01*
X168992856Y-93999569D02*
X168935713Y-94075760D01*
X168935713Y-94075760D02*
X168849999Y-94113855D01*
X168849999Y-94113855D02*
X168792856Y-94113855D01*
X168792856Y-94113855D02*
X168707142Y-94075760D01*
X168707142Y-94075760D02*
X168678570Y-94037664D01*
X168678570Y-94037664D02*
X168678570Y-93770998D01*
X168678570Y-93770998D02*
X168792856Y-93770998D01*
X168421427Y-94113855D02*
X168421427Y-93313855D01*
X168421427Y-93313855D02*
X168078570Y-94113855D01*
X168078570Y-94113855D02*
X168078570Y-93313855D01*
X167792856Y-94113855D02*
X167792856Y-93313855D01*
X167792856Y-93313855D02*
X167649999Y-93313855D01*
X167649999Y-93313855D02*
X167564285Y-93351950D01*
X167564285Y-93351950D02*
X167507142Y-93428140D01*
X167507142Y-93428140D02*
X167478571Y-93504331D01*
X167478571Y-93504331D02*
X167449999Y-93656712D01*
X167449999Y-93656712D02*
X167449999Y-93770998D01*
X167449999Y-93770998D02*
X167478571Y-93923379D01*
X167478571Y-93923379D02*
X167507142Y-93999569D01*
X167507142Y-93999569D02*
X167564285Y-94075760D01*
X167564285Y-94075760D02*
X167649999Y-94113855D01*
X167649999Y-94113855D02*
X167792856Y-94113855D01*
X171078571Y-94113855D02*
X171278571Y-93732902D01*
X171421428Y-94113855D02*
X171421428Y-93313855D01*
X171421428Y-93313855D02*
X171192857Y-93313855D01*
X171192857Y-93313855D02*
X171135714Y-93351950D01*
X171135714Y-93351950D02*
X171107143Y-93390045D01*
X171107143Y-93390045D02*
X171078571Y-93466236D01*
X171078571Y-93466236D02*
X171078571Y-93580521D01*
X171078571Y-93580521D02*
X171107143Y-93656712D01*
X171107143Y-93656712D02*
X171135714Y-93694807D01*
X171135714Y-93694807D02*
X171192857Y-93732902D01*
X171192857Y-93732902D02*
X171421428Y-93732902D01*
X170907143Y-93313855D02*
X170564286Y-93313855D01*
X170735714Y-94113855D02*
X170735714Y-93313855D01*
X170392857Y-94075760D02*
X170307143Y-94113855D01*
X170307143Y-94113855D02*
X170164285Y-94113855D01*
X170164285Y-94113855D02*
X170107143Y-94075760D01*
X170107143Y-94075760D02*
X170078571Y-94037664D01*
X170078571Y-94037664D02*
X170050000Y-93961474D01*
X170050000Y-93961474D02*
X170050000Y-93885283D01*
X170050000Y-93885283D02*
X170078571Y-93809093D01*
X170078571Y-93809093D02*
X170107143Y-93770998D01*
X170107143Y-93770998D02*
X170164285Y-93732902D01*
X170164285Y-93732902D02*
X170278571Y-93694807D01*
X170278571Y-93694807D02*
X170335714Y-93656712D01*
X170335714Y-93656712D02*
X170364285Y-93618617D01*
X170364285Y-93618617D02*
X170392857Y-93542426D01*
X170392857Y-93542426D02*
X170392857Y-93466236D01*
X170392857Y-93466236D02*
X170364285Y-93390045D01*
X170364285Y-93390045D02*
X170335714Y-93351950D01*
X170335714Y-93351950D02*
X170278571Y-93313855D01*
X170278571Y-93313855D02*
X170135714Y-93313855D01*
X170135714Y-93313855D02*
X170050000Y-93351950D01*
X173783332Y-93313855D02*
X173440475Y-93313855D01*
X173611903Y-94113855D02*
X173611903Y-93313855D01*
X173297617Y-93313855D02*
X172897617Y-94113855D01*
X172897617Y-93313855D02*
X173297617Y-94113855D01*
X175949999Y-94113855D02*
X176149999Y-93732902D01*
X176292856Y-94113855D02*
X176292856Y-93313855D01*
X176292856Y-93313855D02*
X176064285Y-93313855D01*
X176064285Y-93313855D02*
X176007142Y-93351950D01*
X176007142Y-93351950D02*
X175978571Y-93390045D01*
X175978571Y-93390045D02*
X175949999Y-93466236D01*
X175949999Y-93466236D02*
X175949999Y-93580521D01*
X175949999Y-93580521D02*
X175978571Y-93656712D01*
X175978571Y-93656712D02*
X176007142Y-93694807D01*
X176007142Y-93694807D02*
X176064285Y-93732902D01*
X176064285Y-93732902D02*
X176292856Y-93732902D01*
X175749999Y-93313855D02*
X175349999Y-94113855D01*
X175349999Y-93313855D02*
X175749999Y-94113855D01*
X179035713Y-94113855D02*
X179035713Y-93313855D01*
X179035713Y-93313855D02*
X178892856Y-93313855D01*
X178892856Y-93313855D02*
X178807142Y-93351950D01*
X178807142Y-93351950D02*
X178749999Y-93428140D01*
X178749999Y-93428140D02*
X178721428Y-93504331D01*
X178721428Y-93504331D02*
X178692856Y-93656712D01*
X178692856Y-93656712D02*
X178692856Y-93770998D01*
X178692856Y-93770998D02*
X178721428Y-93923379D01*
X178721428Y-93923379D02*
X178749999Y-93999569D01*
X178749999Y-93999569D02*
X178807142Y-94075760D01*
X178807142Y-94075760D02*
X178892856Y-94113855D01*
X178892856Y-94113855D02*
X179035713Y-94113855D01*
X178521428Y-93313855D02*
X178178571Y-93313855D01*
X178349999Y-94113855D02*
X178349999Y-93313855D01*
X177635713Y-94113855D02*
X177835713Y-93732902D01*
X177978570Y-94113855D02*
X177978570Y-93313855D01*
X177978570Y-93313855D02*
X177749999Y-93313855D01*
X177749999Y-93313855D02*
X177692856Y-93351950D01*
X177692856Y-93351950D02*
X177664285Y-93390045D01*
X177664285Y-93390045D02*
X177635713Y-93466236D01*
X177635713Y-93466236D02*
X177635713Y-93580521D01*
X177635713Y-93580521D02*
X177664285Y-93656712D01*
X177664285Y-93656712D02*
X177692856Y-93694807D01*
X177692856Y-93694807D02*
X177749999Y-93732902D01*
X177749999Y-93732902D02*
X177978570Y-93732902D01*
D10*
X179542856Y-108701080D02*
X179085713Y-108701080D01*
X179314285Y-109801080D02*
X179314285Y-108701080D01*
X178361903Y-109801080D02*
X178628570Y-109277271D01*
X178819046Y-109801080D02*
X178819046Y-108701080D01*
X178819046Y-108701080D02*
X178514284Y-108701080D01*
X178514284Y-108701080D02*
X178438094Y-108753461D01*
X178438094Y-108753461D02*
X178399999Y-108805842D01*
X178399999Y-108805842D02*
X178361903Y-108910604D01*
X178361903Y-108910604D02*
X178361903Y-109067747D01*
X178361903Y-109067747D02*
X178399999Y-109172509D01*
X178399999Y-109172509D02*
X178438094Y-109224890D01*
X178438094Y-109224890D02*
X178514284Y-109277271D01*
X178514284Y-109277271D02*
X178819046Y-109277271D01*
X178019046Y-109801080D02*
X178019046Y-108701080D01*
X178019046Y-108701080D02*
X177561903Y-109801080D01*
X177561903Y-109801080D02*
X177561903Y-108701080D01*
X177180951Y-109382033D02*
X176571428Y-109382033D01*
X179542856Y-118401080D02*
X179085713Y-118401080D01*
X179314285Y-119501080D02*
X179314285Y-118401080D01*
X178361903Y-119501080D02*
X178628570Y-118977271D01*
X178819046Y-119501080D02*
X178819046Y-118401080D01*
X178819046Y-118401080D02*
X178514284Y-118401080D01*
X178514284Y-118401080D02*
X178438094Y-118453461D01*
X178438094Y-118453461D02*
X178399999Y-118505842D01*
X178399999Y-118505842D02*
X178361903Y-118610604D01*
X178361903Y-118610604D02*
X178361903Y-118767747D01*
X178361903Y-118767747D02*
X178399999Y-118872509D01*
X178399999Y-118872509D02*
X178438094Y-118924890D01*
X178438094Y-118924890D02*
X178514284Y-118977271D01*
X178514284Y-118977271D02*
X178819046Y-118977271D01*
X178019046Y-119501080D02*
X178019046Y-118401080D01*
X178019046Y-118401080D02*
X177561903Y-119501080D01*
X177561903Y-119501080D02*
X177561903Y-118401080D01*
X177180951Y-119082033D02*
X176571428Y-119082033D01*
X122819047Y-120054819D02*
X122628571Y-120054819D01*
X122628571Y-120054819D02*
X122533333Y-120007200D01*
X122533333Y-120007200D02*
X122485714Y-119959580D01*
X122485714Y-119959580D02*
X122390476Y-119816723D01*
X122390476Y-119816723D02*
X122342857Y-119626247D01*
X122342857Y-119626247D02*
X122342857Y-119245295D01*
X122342857Y-119245295D02*
X122390476Y-119150057D01*
X122390476Y-119150057D02*
X122438095Y-119102438D01*
X122438095Y-119102438D02*
X122533333Y-119054819D01*
X122533333Y-119054819D02*
X122723809Y-119054819D01*
X122723809Y-119054819D02*
X122819047Y-119102438D01*
X122819047Y-119102438D02*
X122866666Y-119150057D01*
X122866666Y-119150057D02*
X122914285Y-119245295D01*
X122914285Y-119245295D02*
X122914285Y-119483390D01*
X122914285Y-119483390D02*
X122866666Y-119578628D01*
X122866666Y-119578628D02*
X122819047Y-119626247D01*
X122819047Y-119626247D02*
X122723809Y-119673866D01*
X122723809Y-119673866D02*
X122533333Y-119673866D01*
X122533333Y-119673866D02*
X122438095Y-119626247D01*
X122438095Y-119626247D02*
X122390476Y-119578628D01*
X122390476Y-119578628D02*
X122342857Y-119483390D01*
X121200000Y-119007200D02*
X122057142Y-120292914D01*
X120914285Y-119150057D02*
X120866666Y-119102438D01*
X120866666Y-119102438D02*
X120771428Y-119054819D01*
X120771428Y-119054819D02*
X120533333Y-119054819D01*
X120533333Y-119054819D02*
X120438095Y-119102438D01*
X120438095Y-119102438D02*
X120390476Y-119150057D01*
X120390476Y-119150057D02*
X120342857Y-119245295D01*
X120342857Y-119245295D02*
X120342857Y-119340533D01*
X120342857Y-119340533D02*
X120390476Y-119483390D01*
X120390476Y-119483390D02*
X120961904Y-120054819D01*
X120961904Y-120054819D02*
X120342857Y-120054819D01*
X119723809Y-119054819D02*
X119628571Y-119054819D01*
X119628571Y-119054819D02*
X119533333Y-119102438D01*
X119533333Y-119102438D02*
X119485714Y-119150057D01*
X119485714Y-119150057D02*
X119438095Y-119245295D01*
X119438095Y-119245295D02*
X119390476Y-119435771D01*
X119390476Y-119435771D02*
X119390476Y-119673866D01*
X119390476Y-119673866D02*
X119438095Y-119864342D01*
X119438095Y-119864342D02*
X119485714Y-119959580D01*
X119485714Y-119959580D02*
X119533333Y-120007200D01*
X119533333Y-120007200D02*
X119628571Y-120054819D01*
X119628571Y-120054819D02*
X119723809Y-120054819D01*
X119723809Y-120054819D02*
X119819047Y-120007200D01*
X119819047Y-120007200D02*
X119866666Y-119959580D01*
X119866666Y-119959580D02*
X119914285Y-119864342D01*
X119914285Y-119864342D02*
X119961904Y-119673866D01*
X119961904Y-119673866D02*
X119961904Y-119435771D01*
X119961904Y-119435771D02*
X119914285Y-119245295D01*
X119914285Y-119245295D02*
X119866666Y-119150057D01*
X119866666Y-119150057D02*
X119819047Y-119102438D01*
X119819047Y-119102438D02*
X119723809Y-119054819D01*
X119009523Y-119150057D02*
X118961904Y-119102438D01*
X118961904Y-119102438D02*
X118866666Y-119054819D01*
X118866666Y-119054819D02*
X118628571Y-119054819D01*
X118628571Y-119054819D02*
X118533333Y-119102438D01*
X118533333Y-119102438D02*
X118485714Y-119150057D01*
X118485714Y-119150057D02*
X118438095Y-119245295D01*
X118438095Y-119245295D02*
X118438095Y-119340533D01*
X118438095Y-119340533D02*
X118485714Y-119483390D01*
X118485714Y-119483390D02*
X119057142Y-120054819D01*
X119057142Y-120054819D02*
X118438095Y-120054819D01*
X117580952Y-119054819D02*
X117771428Y-119054819D01*
X117771428Y-119054819D02*
X117866666Y-119102438D01*
X117866666Y-119102438D02*
X117914285Y-119150057D01*
X117914285Y-119150057D02*
X118009523Y-119292914D01*
X118009523Y-119292914D02*
X118057142Y-119483390D01*
X118057142Y-119483390D02*
X118057142Y-119864342D01*
X118057142Y-119864342D02*
X118009523Y-119959580D01*
X118009523Y-119959580D02*
X117961904Y-120007200D01*
X117961904Y-120007200D02*
X117866666Y-120054819D01*
X117866666Y-120054819D02*
X117676190Y-120054819D01*
X117676190Y-120054819D02*
X117580952Y-120007200D01*
X117580952Y-120007200D02*
X117533333Y-119959580D01*
X117533333Y-119959580D02*
X117485714Y-119864342D01*
X117485714Y-119864342D02*
X117485714Y-119626247D01*
X117485714Y-119626247D02*
X117533333Y-119531009D01*
X117533333Y-119531009D02*
X117580952Y-119483390D01*
X117580952Y-119483390D02*
X117676190Y-119435771D01*
X117676190Y-119435771D02*
X117866666Y-119435771D01*
X117866666Y-119435771D02*
X117961904Y-119483390D01*
X117961904Y-119483390D02*
X118009523Y-119531009D01*
X118009523Y-119531009D02*
X118057142Y-119626247D01*
X147471428Y-102231009D02*
X147804761Y-102231009D01*
X147804761Y-102754819D02*
X147804761Y-101754819D01*
X147804761Y-101754819D02*
X147328571Y-101754819D01*
X146947618Y-102754819D02*
X146947618Y-102088152D01*
X146947618Y-101754819D02*
X146995237Y-101802438D01*
X146995237Y-101802438D02*
X146947618Y-101850057D01*
X146947618Y-101850057D02*
X146899999Y-101802438D01*
X146899999Y-101802438D02*
X146947618Y-101754819D01*
X146947618Y-101754819D02*
X146947618Y-101850057D01*
X146471428Y-102754819D02*
X146471428Y-102088152D01*
X146471428Y-102278628D02*
X146423809Y-102183390D01*
X146423809Y-102183390D02*
X146376190Y-102135771D01*
X146376190Y-102135771D02*
X146280952Y-102088152D01*
X146280952Y-102088152D02*
X146185714Y-102088152D01*
X145852380Y-102754819D02*
X145852380Y-102088152D01*
X145852380Y-102183390D02*
X145804761Y-102135771D01*
X145804761Y-102135771D02*
X145709523Y-102088152D01*
X145709523Y-102088152D02*
X145566666Y-102088152D01*
X145566666Y-102088152D02*
X145471428Y-102135771D01*
X145471428Y-102135771D02*
X145423809Y-102231009D01*
X145423809Y-102231009D02*
X145423809Y-102754819D01*
X145423809Y-102231009D02*
X145376190Y-102135771D01*
X145376190Y-102135771D02*
X145280952Y-102088152D01*
X145280952Y-102088152D02*
X145138095Y-102088152D01*
X145138095Y-102088152D02*
X145042856Y-102135771D01*
X145042856Y-102135771D02*
X144995237Y-102231009D01*
X144995237Y-102231009D02*
X144995237Y-102754819D01*
X144614285Y-102088152D02*
X144423809Y-102754819D01*
X144423809Y-102754819D02*
X144233333Y-102278628D01*
X144233333Y-102278628D02*
X144042857Y-102754819D01*
X144042857Y-102754819D02*
X143852381Y-102088152D01*
X143042857Y-102754819D02*
X143042857Y-102231009D01*
X143042857Y-102231009D02*
X143090476Y-102135771D01*
X143090476Y-102135771D02*
X143185714Y-102088152D01*
X143185714Y-102088152D02*
X143376190Y-102088152D01*
X143376190Y-102088152D02*
X143471428Y-102135771D01*
X143042857Y-102707200D02*
X143138095Y-102754819D01*
X143138095Y-102754819D02*
X143376190Y-102754819D01*
X143376190Y-102754819D02*
X143471428Y-102707200D01*
X143471428Y-102707200D02*
X143519047Y-102611961D01*
X143519047Y-102611961D02*
X143519047Y-102516723D01*
X143519047Y-102516723D02*
X143471428Y-102421485D01*
X143471428Y-102421485D02*
X143376190Y-102373866D01*
X143376190Y-102373866D02*
X143138095Y-102373866D01*
X143138095Y-102373866D02*
X143042857Y-102326247D01*
X142566666Y-102754819D02*
X142566666Y-102088152D01*
X142566666Y-102278628D02*
X142519047Y-102183390D01*
X142519047Y-102183390D02*
X142471428Y-102135771D01*
X142471428Y-102135771D02*
X142376190Y-102088152D01*
X142376190Y-102088152D02*
X142280952Y-102088152D01*
X141566666Y-102707200D02*
X141661904Y-102754819D01*
X141661904Y-102754819D02*
X141852380Y-102754819D01*
X141852380Y-102754819D02*
X141947618Y-102707200D01*
X141947618Y-102707200D02*
X141995237Y-102611961D01*
X141995237Y-102611961D02*
X141995237Y-102231009D01*
X141995237Y-102231009D02*
X141947618Y-102135771D01*
X141947618Y-102135771D02*
X141852380Y-102088152D01*
X141852380Y-102088152D02*
X141661904Y-102088152D01*
X141661904Y-102088152D02*
X141566666Y-102135771D01*
X141566666Y-102135771D02*
X141519047Y-102231009D01*
X141519047Y-102231009D02*
X141519047Y-102326247D01*
X141519047Y-102326247D02*
X141995237Y-102421485D01*
X140471427Y-101754819D02*
X140138094Y-102754819D01*
X140138094Y-102754819D02*
X139804761Y-101754819D01*
X139090475Y-102707200D02*
X139185713Y-102754819D01*
X139185713Y-102754819D02*
X139376189Y-102754819D01*
X139376189Y-102754819D02*
X139471427Y-102707200D01*
X139471427Y-102707200D02*
X139519046Y-102611961D01*
X139519046Y-102611961D02*
X139519046Y-102231009D01*
X139519046Y-102231009D02*
X139471427Y-102135771D01*
X139471427Y-102135771D02*
X139376189Y-102088152D01*
X139376189Y-102088152D02*
X139185713Y-102088152D01*
X139185713Y-102088152D02*
X139090475Y-102135771D01*
X139090475Y-102135771D02*
X139042856Y-102231009D01*
X139042856Y-102231009D02*
X139042856Y-102326247D01*
X139042856Y-102326247D02*
X139519046Y-102421485D01*
X138614284Y-102754819D02*
X138614284Y-102088152D01*
X138614284Y-102278628D02*
X138566665Y-102183390D01*
X138566665Y-102183390D02*
X138519046Y-102135771D01*
X138519046Y-102135771D02*
X138423808Y-102088152D01*
X138423808Y-102088152D02*
X138328570Y-102088152D01*
X137995236Y-102659580D02*
X137947617Y-102707200D01*
X137947617Y-102707200D02*
X137995236Y-102754819D01*
X137995236Y-102754819D02*
X138042855Y-102707200D01*
X138042855Y-102707200D02*
X137995236Y-102659580D01*
X137995236Y-102659580D02*
X137995236Y-102754819D01*
X176440475Y-102704819D02*
X176440475Y-101704819D01*
X176440475Y-101704819D02*
X176059523Y-101704819D01*
X176059523Y-101704819D02*
X175964285Y-101752438D01*
X175964285Y-101752438D02*
X175916666Y-101800057D01*
X175916666Y-101800057D02*
X175869047Y-101895295D01*
X175869047Y-101895295D02*
X175869047Y-102038152D01*
X175869047Y-102038152D02*
X175916666Y-102133390D01*
X175916666Y-102133390D02*
X175964285Y-102181009D01*
X175964285Y-102181009D02*
X176059523Y-102228628D01*
X176059523Y-102228628D02*
X176440475Y-102228628D01*
X175297618Y-102704819D02*
X175392856Y-102657200D01*
X175392856Y-102657200D02*
X175440475Y-102609580D01*
X175440475Y-102609580D02*
X175488094Y-102514342D01*
X175488094Y-102514342D02*
X175488094Y-102228628D01*
X175488094Y-102228628D02*
X175440475Y-102133390D01*
X175440475Y-102133390D02*
X175392856Y-102085771D01*
X175392856Y-102085771D02*
X175297618Y-102038152D01*
X175297618Y-102038152D02*
X175154761Y-102038152D01*
X175154761Y-102038152D02*
X175059523Y-102085771D01*
X175059523Y-102085771D02*
X175011904Y-102133390D01*
X175011904Y-102133390D02*
X174964285Y-102228628D01*
X174964285Y-102228628D02*
X174964285Y-102514342D01*
X174964285Y-102514342D02*
X175011904Y-102609580D01*
X175011904Y-102609580D02*
X175059523Y-102657200D01*
X175059523Y-102657200D02*
X175154761Y-102704819D01*
X175154761Y-102704819D02*
X175297618Y-102704819D01*
X174107142Y-102038152D02*
X174107142Y-102847676D01*
X174107142Y-102847676D02*
X174154761Y-102942914D01*
X174154761Y-102942914D02*
X174202380Y-102990533D01*
X174202380Y-102990533D02*
X174297618Y-103038152D01*
X174297618Y-103038152D02*
X174440475Y-103038152D01*
X174440475Y-103038152D02*
X174535713Y-102990533D01*
X174107142Y-102657200D02*
X174202380Y-102704819D01*
X174202380Y-102704819D02*
X174392856Y-102704819D01*
X174392856Y-102704819D02*
X174488094Y-102657200D01*
X174488094Y-102657200D02*
X174535713Y-102609580D01*
X174535713Y-102609580D02*
X174583332Y-102514342D01*
X174583332Y-102514342D02*
X174583332Y-102228628D01*
X174583332Y-102228628D02*
X174535713Y-102133390D01*
X174535713Y-102133390D02*
X174488094Y-102085771D01*
X174488094Y-102085771D02*
X174392856Y-102038152D01*
X174392856Y-102038152D02*
X174202380Y-102038152D01*
X174202380Y-102038152D02*
X174107142Y-102085771D01*
X173488094Y-102704819D02*
X173583332Y-102657200D01*
X173583332Y-102657200D02*
X173630951Y-102609580D01*
X173630951Y-102609580D02*
X173678570Y-102514342D01*
X173678570Y-102514342D02*
X173678570Y-102228628D01*
X173678570Y-102228628D02*
X173630951Y-102133390D01*
X173630951Y-102133390D02*
X173583332Y-102085771D01*
X173583332Y-102085771D02*
X173488094Y-102038152D01*
X173488094Y-102038152D02*
X173345237Y-102038152D01*
X173345237Y-102038152D02*
X173249999Y-102085771D01*
X173249999Y-102085771D02*
X173202380Y-102133390D01*
X173202380Y-102133390D02*
X173154761Y-102228628D01*
X173154761Y-102228628D02*
X173154761Y-102514342D01*
X173154761Y-102514342D02*
X173202380Y-102609580D01*
X173202380Y-102609580D02*
X173249999Y-102657200D01*
X173249999Y-102657200D02*
X173345237Y-102704819D01*
X173345237Y-102704819D02*
X173488094Y-102704819D01*
X171964284Y-102704819D02*
X171964284Y-101704819D01*
X171964284Y-101704819D02*
X171583332Y-101704819D01*
X171583332Y-101704819D02*
X171488094Y-101752438D01*
X171488094Y-101752438D02*
X171440475Y-101800057D01*
X171440475Y-101800057D02*
X171392856Y-101895295D01*
X171392856Y-101895295D02*
X171392856Y-102038152D01*
X171392856Y-102038152D02*
X171440475Y-102133390D01*
X171440475Y-102133390D02*
X171488094Y-102181009D01*
X171488094Y-102181009D02*
X171583332Y-102228628D01*
X171583332Y-102228628D02*
X171964284Y-102228628D01*
X170964284Y-102704819D02*
X170964284Y-102038152D01*
X170964284Y-101704819D02*
X171011903Y-101752438D01*
X171011903Y-101752438D02*
X170964284Y-101800057D01*
X170964284Y-101800057D02*
X170916665Y-101752438D01*
X170916665Y-101752438D02*
X170964284Y-101704819D01*
X170964284Y-101704819D02*
X170964284Y-101800057D01*
X170488094Y-102038152D02*
X170488094Y-102704819D01*
X170488094Y-102133390D02*
X170440475Y-102085771D01*
X170440475Y-102085771D02*
X170345237Y-102038152D01*
X170345237Y-102038152D02*
X170202380Y-102038152D01*
X170202380Y-102038152D02*
X170107142Y-102085771D01*
X170107142Y-102085771D02*
X170059523Y-102181009D01*
X170059523Y-102181009D02*
X170059523Y-102704819D01*
D13*
X164285713Y-109395766D02*
X163523809Y-109395766D01*
X163904761Y-109891004D02*
X163904761Y-108900528D01*
X162571428Y-108591004D02*
X163047618Y-108591004D01*
X163047618Y-108591004D02*
X163095237Y-109210052D01*
X163095237Y-109210052D02*
X163047618Y-109148147D01*
X163047618Y-109148147D02*
X162952380Y-109086242D01*
X162952380Y-109086242D02*
X162714285Y-109086242D01*
X162714285Y-109086242D02*
X162619047Y-109148147D01*
X162619047Y-109148147D02*
X162571428Y-109210052D01*
X162571428Y-109210052D02*
X162523809Y-109333861D01*
X162523809Y-109333861D02*
X162523809Y-109643385D01*
X162523809Y-109643385D02*
X162571428Y-109767195D01*
X162571428Y-109767195D02*
X162619047Y-109829100D01*
X162619047Y-109829100D02*
X162714285Y-109891004D01*
X162714285Y-109891004D02*
X162952380Y-109891004D01*
X162952380Y-109891004D02*
X163047618Y-109829100D01*
X163047618Y-109829100D02*
X163095237Y-109767195D01*
X162238094Y-108591004D02*
X161904761Y-109891004D01*
X161904761Y-109891004D02*
X161571428Y-108591004D01*
X164285713Y-119095766D02*
X163523809Y-119095766D01*
X163904761Y-119591004D02*
X163904761Y-118600528D01*
X162571428Y-118291004D02*
X163047618Y-118291004D01*
X163047618Y-118291004D02*
X163095237Y-118910052D01*
X163095237Y-118910052D02*
X163047618Y-118848147D01*
X163047618Y-118848147D02*
X162952380Y-118786242D01*
X162952380Y-118786242D02*
X162714285Y-118786242D01*
X162714285Y-118786242D02*
X162619047Y-118848147D01*
X162619047Y-118848147D02*
X162571428Y-118910052D01*
X162571428Y-118910052D02*
X162523809Y-119033861D01*
X162523809Y-119033861D02*
X162523809Y-119343385D01*
X162523809Y-119343385D02*
X162571428Y-119467195D01*
X162571428Y-119467195D02*
X162619047Y-119529100D01*
X162619047Y-119529100D02*
X162714285Y-119591004D01*
X162714285Y-119591004D02*
X162952380Y-119591004D01*
X162952380Y-119591004D02*
X163047618Y-119529100D01*
X163047618Y-119529100D02*
X163095237Y-119467195D01*
X162238094Y-118291004D02*
X161904761Y-119591004D01*
X161904761Y-119591004D02*
X161571428Y-118291004D01*
X169476190Y-109891004D02*
X170047618Y-109891004D01*
X169761904Y-109891004D02*
X169761904Y-108591004D01*
X169761904Y-108591004D02*
X169857142Y-108776719D01*
X169857142Y-108776719D02*
X169952380Y-108900528D01*
X169952380Y-108900528D02*
X170047618Y-108962433D01*
X169142856Y-108591004D02*
X168904761Y-109891004D01*
X168904761Y-109891004D02*
X168714285Y-108962433D01*
X168714285Y-108962433D02*
X168523809Y-109891004D01*
X168523809Y-109891004D02*
X168285714Y-108591004D01*
X167904761Y-109891004D02*
X167904761Y-108591004D01*
X166857143Y-109891004D02*
X167190476Y-109271957D01*
X167428571Y-109891004D02*
X167428571Y-108591004D01*
X167428571Y-108591004D02*
X167047619Y-108591004D01*
X167047619Y-108591004D02*
X166952381Y-108652909D01*
X166952381Y-108652909D02*
X166904762Y-108714814D01*
X166904762Y-108714814D02*
X166857143Y-108838623D01*
X166857143Y-108838623D02*
X166857143Y-109024338D01*
X166857143Y-109024338D02*
X166904762Y-109148147D01*
X166904762Y-109148147D02*
X166952381Y-109210052D01*
X166952381Y-109210052D02*
X167047619Y-109271957D01*
X167047619Y-109271957D02*
X167428571Y-109271957D01*
X166428571Y-109210052D02*
X166095238Y-109210052D01*
X165952381Y-109891004D02*
X166428571Y-109891004D01*
X166428571Y-109891004D02*
X166428571Y-108591004D01*
X166428571Y-108591004D02*
X165952381Y-108591004D01*
X169476190Y-119591004D02*
X170047618Y-119591004D01*
X169761904Y-119591004D02*
X169761904Y-118291004D01*
X169761904Y-118291004D02*
X169857142Y-118476719D01*
X169857142Y-118476719D02*
X169952380Y-118600528D01*
X169952380Y-118600528D02*
X170047618Y-118662433D01*
X169142856Y-118291004D02*
X168904761Y-119591004D01*
X168904761Y-119591004D02*
X168714285Y-118662433D01*
X168714285Y-118662433D02*
X168523809Y-119591004D01*
X168523809Y-119591004D02*
X168285714Y-118291004D01*
X167904761Y-119591004D02*
X167904761Y-118291004D01*
X166857143Y-119591004D02*
X167190476Y-118971957D01*
X167428571Y-119591004D02*
X167428571Y-118291004D01*
X167428571Y-118291004D02*
X167047619Y-118291004D01*
X167047619Y-118291004D02*
X166952381Y-118352909D01*
X166952381Y-118352909D02*
X166904762Y-118414814D01*
X166904762Y-118414814D02*
X166857143Y-118538623D01*
X166857143Y-118538623D02*
X166857143Y-118724338D01*
X166857143Y-118724338D02*
X166904762Y-118848147D01*
X166904762Y-118848147D02*
X166952381Y-118910052D01*
X166952381Y-118910052D02*
X167047619Y-118971957D01*
X167047619Y-118971957D02*
X167428571Y-118971957D01*
X166428571Y-118910052D02*
X166095238Y-118910052D01*
X165952381Y-119591004D02*
X166428571Y-119591004D01*
X166428571Y-119591004D02*
X166428571Y-118291004D01*
X166428571Y-118291004D02*
X165952381Y-118291004D01*
X174785713Y-109891004D02*
X174785713Y-108591004D01*
X174785713Y-109210052D02*
X174214285Y-109210052D01*
X174214285Y-109891004D02*
X174214285Y-108591004D01*
X173880951Y-108591004D02*
X173309523Y-108591004D01*
X173595237Y-109891004D02*
X173595237Y-108591004D01*
X172404761Y-109891004D02*
X172738094Y-109271957D01*
X172976189Y-109891004D02*
X172976189Y-108591004D01*
X172976189Y-108591004D02*
X172595237Y-108591004D01*
X172595237Y-108591004D02*
X172499999Y-108652909D01*
X172499999Y-108652909D02*
X172452380Y-108714814D01*
X172452380Y-108714814D02*
X172404761Y-108838623D01*
X172404761Y-108838623D02*
X172404761Y-109024338D01*
X172404761Y-109024338D02*
X172452380Y-109148147D01*
X172452380Y-109148147D02*
X172499999Y-109210052D01*
X172499999Y-109210052D02*
X172595237Y-109271957D01*
X172595237Y-109271957D02*
X172976189Y-109271957D01*
X171976189Y-109395766D02*
X171214285Y-109395766D01*
X174785713Y-119591004D02*
X174785713Y-118291004D01*
X174785713Y-118910052D02*
X174214285Y-118910052D01*
X174214285Y-119591004D02*
X174214285Y-118291004D01*
X173880951Y-118291004D02*
X173309523Y-118291004D01*
X173595237Y-119591004D02*
X173595237Y-118291004D01*
X172404761Y-119591004D02*
X172738094Y-118971957D01*
X172976189Y-119591004D02*
X172976189Y-118291004D01*
X172976189Y-118291004D02*
X172595237Y-118291004D01*
X172595237Y-118291004D02*
X172499999Y-118352909D01*
X172499999Y-118352909D02*
X172452380Y-118414814D01*
X172452380Y-118414814D02*
X172404761Y-118538623D01*
X172404761Y-118538623D02*
X172404761Y-118724338D01*
X172404761Y-118724338D02*
X172452380Y-118848147D01*
X172452380Y-118848147D02*
X172499999Y-118910052D01*
X172499999Y-118910052D02*
X172595237Y-118971957D01*
X172595237Y-118971957D02*
X172976189Y-118971957D01*
X171976189Y-119095766D02*
X171214285Y-119095766D01*
X184011904Y-108652909D02*
X184107142Y-108591004D01*
X184107142Y-108591004D02*
X184249999Y-108591004D01*
X184249999Y-108591004D02*
X184392856Y-108652909D01*
X184392856Y-108652909D02*
X184488094Y-108776719D01*
X184488094Y-108776719D02*
X184535713Y-108900528D01*
X184535713Y-108900528D02*
X184583332Y-109148147D01*
X184583332Y-109148147D02*
X184583332Y-109333861D01*
X184583332Y-109333861D02*
X184535713Y-109581480D01*
X184535713Y-109581480D02*
X184488094Y-109705290D01*
X184488094Y-109705290D02*
X184392856Y-109829100D01*
X184392856Y-109829100D02*
X184249999Y-109891004D01*
X184249999Y-109891004D02*
X184154761Y-109891004D01*
X184154761Y-109891004D02*
X184011904Y-109829100D01*
X184011904Y-109829100D02*
X183964285Y-109767195D01*
X183964285Y-109767195D02*
X183964285Y-109333861D01*
X183964285Y-109333861D02*
X184154761Y-109333861D01*
X183535713Y-109891004D02*
X183535713Y-108591004D01*
X183535713Y-108591004D02*
X182964285Y-109891004D01*
X182964285Y-109891004D02*
X182964285Y-108591004D01*
X182488094Y-109891004D02*
X182488094Y-108591004D01*
X182488094Y-108591004D02*
X182249999Y-108591004D01*
X182249999Y-108591004D02*
X182107142Y-108652909D01*
X182107142Y-108652909D02*
X182011904Y-108776719D01*
X182011904Y-108776719D02*
X181964285Y-108900528D01*
X181964285Y-108900528D02*
X181916666Y-109148147D01*
X181916666Y-109148147D02*
X181916666Y-109333861D01*
X181916666Y-109333861D02*
X181964285Y-109581480D01*
X181964285Y-109581480D02*
X182011904Y-109705290D01*
X182011904Y-109705290D02*
X182107142Y-109829100D01*
X182107142Y-109829100D02*
X182249999Y-109891004D01*
X182249999Y-109891004D02*
X182488094Y-109891004D01*
X184011904Y-118352909D02*
X184107142Y-118291004D01*
X184107142Y-118291004D02*
X184249999Y-118291004D01*
X184249999Y-118291004D02*
X184392856Y-118352909D01*
X184392856Y-118352909D02*
X184488094Y-118476719D01*
X184488094Y-118476719D02*
X184535713Y-118600528D01*
X184535713Y-118600528D02*
X184583332Y-118848147D01*
X184583332Y-118848147D02*
X184583332Y-119033861D01*
X184583332Y-119033861D02*
X184535713Y-119281480D01*
X184535713Y-119281480D02*
X184488094Y-119405290D01*
X184488094Y-119405290D02*
X184392856Y-119529100D01*
X184392856Y-119529100D02*
X184249999Y-119591004D01*
X184249999Y-119591004D02*
X184154761Y-119591004D01*
X184154761Y-119591004D02*
X184011904Y-119529100D01*
X184011904Y-119529100D02*
X183964285Y-119467195D01*
X183964285Y-119467195D02*
X183964285Y-119033861D01*
X183964285Y-119033861D02*
X184154761Y-119033861D01*
X183535713Y-119591004D02*
X183535713Y-118291004D01*
X183535713Y-118291004D02*
X182964285Y-119591004D01*
X182964285Y-119591004D02*
X182964285Y-118291004D01*
X182488094Y-119591004D02*
X182488094Y-118291004D01*
X182488094Y-118291004D02*
X182249999Y-118291004D01*
X182249999Y-118291004D02*
X182107142Y-118352909D01*
X182107142Y-118352909D02*
X182011904Y-118476719D01*
X182011904Y-118476719D02*
X181964285Y-118600528D01*
X181964285Y-118600528D02*
X181916666Y-118848147D01*
X181916666Y-118848147D02*
X181916666Y-119033861D01*
X181916666Y-119033861D02*
X181964285Y-119281480D01*
X181964285Y-119281480D02*
X182011904Y-119405290D01*
X182011904Y-119405290D02*
X182107142Y-119529100D01*
X182107142Y-119529100D02*
X182249999Y-119591004D01*
X182249999Y-119591004D02*
X182488094Y-119591004D01*
D10*
X143414285Y-91884104D02*
X143414285Y-93217438D01*
X143842856Y-91884104D02*
X143842856Y-92931723D01*
X143842856Y-92931723D02*
X143795237Y-93122200D01*
X143795237Y-93122200D02*
X143699999Y-93217438D01*
X143699999Y-93217438D02*
X143557142Y-93217438D01*
X143557142Y-93217438D02*
X143461904Y-93122200D01*
X143461904Y-93122200D02*
X143414285Y-93026961D01*
X142985713Y-93122200D02*
X142842856Y-93217438D01*
X142842856Y-93217438D02*
X142604761Y-93217438D01*
X142604761Y-93217438D02*
X142509523Y-93122200D01*
X142509523Y-93122200D02*
X142461904Y-93026961D01*
X142461904Y-93026961D02*
X142414285Y-92836485D01*
X142414285Y-92836485D02*
X142414285Y-92646009D01*
X142414285Y-92646009D02*
X142461904Y-92455533D01*
X142461904Y-92455533D02*
X142509523Y-92360295D01*
X142509523Y-92360295D02*
X142604761Y-92265057D01*
X142604761Y-92265057D02*
X142795237Y-92169819D01*
X142795237Y-92169819D02*
X142890475Y-92074580D01*
X142890475Y-92074580D02*
X142938094Y-91979342D01*
X142938094Y-91979342D02*
X142985713Y-91788866D01*
X142985713Y-91788866D02*
X142985713Y-91598390D01*
X142985713Y-91598390D02*
X142938094Y-91407914D01*
X142938094Y-91407914D02*
X142890475Y-91312676D01*
X142890475Y-91312676D02*
X142795237Y-91217438D01*
X142795237Y-91217438D02*
X142557142Y-91217438D01*
X142557142Y-91217438D02*
X142414285Y-91312676D01*
X141842856Y-93217438D02*
X141938094Y-93122200D01*
X141938094Y-93122200D02*
X141985713Y-93026961D01*
X141985713Y-93026961D02*
X142033332Y-92836485D01*
X142033332Y-92836485D02*
X142033332Y-92265057D01*
X142033332Y-92265057D02*
X141985713Y-92074580D01*
X141985713Y-92074580D02*
X141938094Y-91979342D01*
X141938094Y-91979342D02*
X141842856Y-91884104D01*
X141842856Y-91884104D02*
X141699999Y-91884104D01*
X141699999Y-91884104D02*
X141604761Y-91979342D01*
X141604761Y-91979342D02*
X141557142Y-92074580D01*
X141557142Y-92074580D02*
X141509523Y-92265057D01*
X141509523Y-92265057D02*
X141509523Y-92836485D01*
X141509523Y-92836485D02*
X141557142Y-93026961D01*
X141557142Y-93026961D02*
X141604761Y-93122200D01*
X141604761Y-93122200D02*
X141699999Y-93217438D01*
X141699999Y-93217438D02*
X141842856Y-93217438D01*
X141080951Y-91884104D02*
X141080951Y-93217438D01*
X141080951Y-92074580D02*
X141033332Y-91979342D01*
X141033332Y-91979342D02*
X140938094Y-91884104D01*
X140938094Y-91884104D02*
X140795237Y-91884104D01*
X140795237Y-91884104D02*
X140699999Y-91979342D01*
X140699999Y-91979342D02*
X140652380Y-92169819D01*
X140652380Y-92169819D02*
X140652380Y-93217438D01*
X140176189Y-93217438D02*
X140176189Y-91884104D01*
X140176189Y-91217438D02*
X140223808Y-91312676D01*
X140223808Y-91312676D02*
X140176189Y-91407914D01*
X140176189Y-91407914D02*
X140128570Y-91312676D01*
X140128570Y-91312676D02*
X140176189Y-91217438D01*
X140176189Y-91217438D02*
X140176189Y-91407914D01*
X139271428Y-93122200D02*
X139366666Y-93217438D01*
X139366666Y-93217438D02*
X139557142Y-93217438D01*
X139557142Y-93217438D02*
X139652380Y-93122200D01*
X139652380Y-93122200D02*
X139699999Y-93026961D01*
X139699999Y-93026961D02*
X139747618Y-92836485D01*
X139747618Y-92836485D02*
X139747618Y-92265057D01*
X139747618Y-92265057D02*
X139699999Y-92074580D01*
X139699999Y-92074580D02*
X139652380Y-91979342D01*
X139652380Y-91979342D02*
X139557142Y-91884104D01*
X139557142Y-91884104D02*
X139366666Y-91884104D01*
X139366666Y-91884104D02*
X139271428Y-91979342D01*
X138985713Y-91217438D02*
X138414285Y-91217438D01*
X138699999Y-93217438D02*
X138699999Y-91217438D01*
X138080951Y-93217438D02*
X138080951Y-91884104D01*
X138080951Y-91217438D02*
X138128570Y-91312676D01*
X138128570Y-91312676D02*
X138080951Y-91407914D01*
X138080951Y-91407914D02*
X138033332Y-91312676D01*
X138033332Y-91312676D02*
X138080951Y-91217438D01*
X138080951Y-91217438D02*
X138080951Y-91407914D01*
X137604761Y-93217438D02*
X137604761Y-91884104D01*
X137604761Y-92074580D02*
X137557142Y-91979342D01*
X137557142Y-91979342D02*
X137461904Y-91884104D01*
X137461904Y-91884104D02*
X137319047Y-91884104D01*
X137319047Y-91884104D02*
X137223809Y-91979342D01*
X137223809Y-91979342D02*
X137176190Y-92169819D01*
X137176190Y-92169819D02*
X137176190Y-93217438D01*
X137176190Y-92169819D02*
X137128571Y-91979342D01*
X137128571Y-91979342D02*
X137033333Y-91884104D01*
X137033333Y-91884104D02*
X136890476Y-91884104D01*
X136890476Y-91884104D02*
X136795237Y-91979342D01*
X136795237Y-91979342D02*
X136747618Y-92169819D01*
X136747618Y-92169819D02*
X136747618Y-93217438D01*
X135890476Y-93122200D02*
X135985714Y-93217438D01*
X135985714Y-93217438D02*
X136176190Y-93217438D01*
X136176190Y-93217438D02*
X136271428Y-93122200D01*
X136271428Y-93122200D02*
X136319047Y-92931723D01*
X136319047Y-92931723D02*
X136319047Y-92169819D01*
X136319047Y-92169819D02*
X136271428Y-91979342D01*
X136271428Y-91979342D02*
X136176190Y-91884104D01*
X136176190Y-91884104D02*
X135985714Y-91884104D01*
X135985714Y-91884104D02*
X135890476Y-91979342D01*
X135890476Y-91979342D02*
X135842857Y-92169819D01*
X135842857Y-92169819D02*
X135842857Y-92360295D01*
X135842857Y-92360295D02*
X136319047Y-92550771D01*
X135414285Y-93217438D02*
X135414285Y-91884104D01*
X135414285Y-92265057D02*
X135366666Y-92074580D01*
X135366666Y-92074580D02*
X135319047Y-91979342D01*
X135319047Y-91979342D02*
X135223809Y-91884104D01*
X135223809Y-91884104D02*
X135128571Y-91884104D01*
X133985713Y-91693628D02*
X134080952Y-91598390D01*
X134080952Y-91598390D02*
X134271428Y-91598390D01*
X134271428Y-91598390D02*
X134366666Y-91693628D01*
X134366666Y-91693628D02*
X134461904Y-91884104D01*
X134461904Y-91884104D02*
X134509523Y-92074580D01*
X134509523Y-92074580D02*
X134509523Y-92455533D01*
X134509523Y-92455533D02*
X134461904Y-92646009D01*
X134461904Y-92646009D02*
X134366666Y-92836485D01*
X134366666Y-92836485D02*
X134271428Y-92931723D01*
X134271428Y-92931723D02*
X134080952Y-92931723D01*
X134080952Y-92931723D02*
X133985713Y-92836485D01*
X134176190Y-90931723D02*
X134414285Y-91026961D01*
X134414285Y-91026961D02*
X134652380Y-91312676D01*
X134652380Y-91312676D02*
X134795237Y-91788866D01*
X134795237Y-91788866D02*
X134842856Y-92265057D01*
X134842856Y-92265057D02*
X134795237Y-92741247D01*
X134795237Y-92741247D02*
X134652380Y-93217438D01*
X134652380Y-93217438D02*
X134414285Y-93503152D01*
X134414285Y-93503152D02*
X134176190Y-93598390D01*
X134176190Y-93598390D02*
X133938094Y-93503152D01*
X133938094Y-93503152D02*
X133699999Y-93217438D01*
X133699999Y-93217438D02*
X133557142Y-92741247D01*
X133557142Y-92741247D02*
X133509523Y-92265057D01*
X133509523Y-92265057D02*
X133557142Y-91788866D01*
X133557142Y-91788866D02*
X133699999Y-91312676D01*
X133699999Y-91312676D02*
X133938094Y-91026961D01*
X133938094Y-91026961D02*
X134176190Y-90931723D01*
X132461903Y-91217438D02*
X132128570Y-93217438D01*
X132128570Y-93217438D02*
X131795237Y-91217438D01*
X130938094Y-93217438D02*
X131509522Y-93217438D01*
X131223808Y-93217438D02*
X131223808Y-91217438D01*
X131223808Y-91217438D02*
X131319046Y-91503152D01*
X131319046Y-91503152D02*
X131414284Y-91693628D01*
X131414284Y-91693628D02*
X131509522Y-91788866D01*
X130509522Y-93026961D02*
X130461903Y-93122200D01*
X130461903Y-93122200D02*
X130509522Y-93217438D01*
X130509522Y-93217438D02*
X130557141Y-93122200D01*
X130557141Y-93122200D02*
X130509522Y-93026961D01*
X130509522Y-93026961D02*
X130509522Y-93217438D01*
X129842856Y-91217438D02*
X129747618Y-91217438D01*
X129747618Y-91217438D02*
X129652380Y-91312676D01*
X129652380Y-91312676D02*
X129604761Y-91407914D01*
X129604761Y-91407914D02*
X129557142Y-91598390D01*
X129557142Y-91598390D02*
X129509523Y-91979342D01*
X129509523Y-91979342D02*
X129509523Y-92455533D01*
X129509523Y-92455533D02*
X129557142Y-92836485D01*
X129557142Y-92836485D02*
X129604761Y-93026961D01*
X129604761Y-93026961D02*
X129652380Y-93122200D01*
X129652380Y-93122200D02*
X129747618Y-93217438D01*
X129747618Y-93217438D02*
X129842856Y-93217438D01*
X129842856Y-93217438D02*
X129938094Y-93122200D01*
X129938094Y-93122200D02*
X129985713Y-93026961D01*
X129985713Y-93026961D02*
X130033332Y-92836485D01*
X130033332Y-92836485D02*
X130080951Y-92455533D01*
X130080951Y-92455533D02*
X130080951Y-91979342D01*
X130080951Y-91979342D02*
X130033332Y-91598390D01*
X130033332Y-91598390D02*
X129985713Y-91407914D01*
X129985713Y-91407914D02*
X129938094Y-91312676D01*
X129938094Y-91312676D02*
X129842856Y-91217438D01*
D14*
X175564285Y-101228328D02*
X175564285Y-99728328D01*
X173992856Y-101085471D02*
X174064284Y-101156900D01*
X174064284Y-101156900D02*
X174278570Y-101228328D01*
X174278570Y-101228328D02*
X174421427Y-101228328D01*
X174421427Y-101228328D02*
X174635713Y-101156900D01*
X174635713Y-101156900D02*
X174778570Y-101014042D01*
X174778570Y-101014042D02*
X174849999Y-100871185D01*
X174849999Y-100871185D02*
X174921427Y-100585471D01*
X174921427Y-100585471D02*
X174921427Y-100371185D01*
X174921427Y-100371185D02*
X174849999Y-100085471D01*
X174849999Y-100085471D02*
X174778570Y-99942614D01*
X174778570Y-99942614D02*
X174635713Y-99799757D01*
X174635713Y-99799757D02*
X174421427Y-99728328D01*
X174421427Y-99728328D02*
X174278570Y-99728328D01*
X174278570Y-99728328D02*
X174064284Y-99799757D01*
X174064284Y-99799757D02*
X173992856Y-99871185D01*
X173421427Y-101156900D02*
X173207142Y-101228328D01*
X173207142Y-101228328D02*
X172849999Y-101228328D01*
X172849999Y-101228328D02*
X172707142Y-101156900D01*
X172707142Y-101156900D02*
X172635713Y-101085471D01*
X172635713Y-101085471D02*
X172564284Y-100942614D01*
X172564284Y-100942614D02*
X172564284Y-100799757D01*
X172564284Y-100799757D02*
X172635713Y-100656900D01*
X172635713Y-100656900D02*
X172707142Y-100585471D01*
X172707142Y-100585471D02*
X172849999Y-100514042D01*
X172849999Y-100514042D02*
X173135713Y-100442614D01*
X173135713Y-100442614D02*
X173278570Y-100371185D01*
X173278570Y-100371185D02*
X173349999Y-100299757D01*
X173349999Y-100299757D02*
X173421427Y-100156900D01*
X173421427Y-100156900D02*
X173421427Y-100014042D01*
X173421427Y-100014042D02*
X173349999Y-99871185D01*
X173349999Y-99871185D02*
X173278570Y-99799757D01*
X173278570Y-99799757D02*
X173135713Y-99728328D01*
X173135713Y-99728328D02*
X172778570Y-99728328D01*
X172778570Y-99728328D02*
X172564284Y-99799757D01*
X171921428Y-101228328D02*
X171921428Y-99728328D01*
X171921428Y-99728328D02*
X171349999Y-99728328D01*
X171349999Y-99728328D02*
X171207142Y-99799757D01*
X171207142Y-99799757D02*
X171135713Y-99871185D01*
X171135713Y-99871185D02*
X171064285Y-100014042D01*
X171064285Y-100014042D02*
X171064285Y-100228328D01*
X171064285Y-100228328D02*
X171135713Y-100371185D01*
X171135713Y-100371185D02*
X171207142Y-100442614D01*
X171207142Y-100442614D02*
X171349999Y-100514042D01*
X171349999Y-100514042D02*
X171921428Y-100514042D01*
D10*
X190192857Y-105654819D02*
X190526190Y-105178628D01*
X190764285Y-105654819D02*
X190764285Y-104654819D01*
X190764285Y-104654819D02*
X190383333Y-104654819D01*
X190383333Y-104654819D02*
X190288095Y-104702438D01*
X190288095Y-104702438D02*
X190240476Y-104750057D01*
X190240476Y-104750057D02*
X190192857Y-104845295D01*
X190192857Y-104845295D02*
X190192857Y-104988152D01*
X190192857Y-104988152D02*
X190240476Y-105083390D01*
X190240476Y-105083390D02*
X190288095Y-105131009D01*
X190288095Y-105131009D02*
X190383333Y-105178628D01*
X190383333Y-105178628D02*
X190764285Y-105178628D01*
X189240476Y-105654819D02*
X189811904Y-105654819D01*
X189526190Y-105654819D02*
X189526190Y-104654819D01*
X189526190Y-104654819D02*
X189621428Y-104797676D01*
X189621428Y-104797676D02*
X189716666Y-104892914D01*
X189716666Y-104892914D02*
X189811904Y-104940533D01*
X188383333Y-104654819D02*
X188573809Y-104654819D01*
X188573809Y-104654819D02*
X188669047Y-104702438D01*
X188669047Y-104702438D02*
X188716666Y-104750057D01*
X188716666Y-104750057D02*
X188811904Y-104892914D01*
X188811904Y-104892914D02*
X188859523Y-105083390D01*
X188859523Y-105083390D02*
X188859523Y-105464342D01*
X188859523Y-105464342D02*
X188811904Y-105559580D01*
X188811904Y-105559580D02*
X188764285Y-105607200D01*
X188764285Y-105607200D02*
X188669047Y-105654819D01*
X188669047Y-105654819D02*
X188478571Y-105654819D01*
X188478571Y-105654819D02*
X188383333Y-105607200D01*
X188383333Y-105607200D02*
X188335714Y-105559580D01*
X188335714Y-105559580D02*
X188288095Y-105464342D01*
X188288095Y-105464342D02*
X188288095Y-105226247D01*
X188288095Y-105226247D02*
X188335714Y-105131009D01*
X188335714Y-105131009D02*
X188383333Y-105083390D01*
X188383333Y-105083390D02*
X188478571Y-105035771D01*
X188478571Y-105035771D02*
X188669047Y-105035771D01*
X188669047Y-105035771D02*
X188764285Y-105083390D01*
X188764285Y-105083390D02*
X188811904Y-105131009D01*
X188811904Y-105131009D02*
X188859523Y-105226247D01*
X145592857Y-109554819D02*
X145926190Y-109078628D01*
X146164285Y-109554819D02*
X146164285Y-108554819D01*
X146164285Y-108554819D02*
X145783333Y-108554819D01*
X145783333Y-108554819D02*
X145688095Y-108602438D01*
X145688095Y-108602438D02*
X145640476Y-108650057D01*
X145640476Y-108650057D02*
X145592857Y-108745295D01*
X145592857Y-108745295D02*
X145592857Y-108888152D01*
X145592857Y-108888152D02*
X145640476Y-108983390D01*
X145640476Y-108983390D02*
X145688095Y-109031009D01*
X145688095Y-109031009D02*
X145783333Y-109078628D01*
X145783333Y-109078628D02*
X146164285Y-109078628D01*
X144640476Y-109554819D02*
X145211904Y-109554819D01*
X144926190Y-109554819D02*
X144926190Y-108554819D01*
X144926190Y-108554819D02*
X145021428Y-108697676D01*
X145021428Y-108697676D02*
X145116666Y-108792914D01*
X145116666Y-108792914D02*
X145211904Y-108840533D01*
X143783333Y-108888152D02*
X143783333Y-109554819D01*
X144021428Y-108507200D02*
X144259523Y-109221485D01*
X144259523Y-109221485D02*
X143640476Y-109221485D01*
X158416666Y-98404819D02*
X158749999Y-97928628D01*
X158988094Y-98404819D02*
X158988094Y-97404819D01*
X158988094Y-97404819D02*
X158607142Y-97404819D01*
X158607142Y-97404819D02*
X158511904Y-97452438D01*
X158511904Y-97452438D02*
X158464285Y-97500057D01*
X158464285Y-97500057D02*
X158416666Y-97595295D01*
X158416666Y-97595295D02*
X158416666Y-97738152D01*
X158416666Y-97738152D02*
X158464285Y-97833390D01*
X158464285Y-97833390D02*
X158511904Y-97881009D01*
X158511904Y-97881009D02*
X158607142Y-97928628D01*
X158607142Y-97928628D02*
X158988094Y-97928628D01*
X158083332Y-97404819D02*
X157464285Y-97404819D01*
X157464285Y-97404819D02*
X157797618Y-97785771D01*
X157797618Y-97785771D02*
X157654761Y-97785771D01*
X157654761Y-97785771D02*
X157559523Y-97833390D01*
X157559523Y-97833390D02*
X157511904Y-97881009D01*
X157511904Y-97881009D02*
X157464285Y-97976247D01*
X157464285Y-97976247D02*
X157464285Y-98214342D01*
X157464285Y-98214342D02*
X157511904Y-98309580D01*
X157511904Y-98309580D02*
X157559523Y-98357200D01*
X157559523Y-98357200D02*
X157654761Y-98404819D01*
X157654761Y-98404819D02*
X157940475Y-98404819D01*
X157940475Y-98404819D02*
X158035713Y-98357200D01*
X158035713Y-98357200D02*
X158083332Y-98309580D01*
X135704819Y-108857142D02*
X135228628Y-108523809D01*
X135704819Y-108285714D02*
X134704819Y-108285714D01*
X134704819Y-108285714D02*
X134704819Y-108666666D01*
X134704819Y-108666666D02*
X134752438Y-108761904D01*
X134752438Y-108761904D02*
X134800057Y-108809523D01*
X134800057Y-108809523D02*
X134895295Y-108857142D01*
X134895295Y-108857142D02*
X135038152Y-108857142D01*
X135038152Y-108857142D02*
X135133390Y-108809523D01*
X135133390Y-108809523D02*
X135181009Y-108761904D01*
X135181009Y-108761904D02*
X135228628Y-108666666D01*
X135228628Y-108666666D02*
X135228628Y-108285714D01*
X135704819Y-109809523D02*
X135704819Y-109238095D01*
X135704819Y-109523809D02*
X134704819Y-109523809D01*
X134704819Y-109523809D02*
X134847676Y-109428571D01*
X134847676Y-109428571D02*
X134942914Y-109333333D01*
X134942914Y-109333333D02*
X134990533Y-109238095D01*
X134704819Y-110142857D02*
X134704819Y-110761904D01*
X134704819Y-110761904D02*
X135085771Y-110428571D01*
X135085771Y-110428571D02*
X135085771Y-110571428D01*
X135085771Y-110571428D02*
X135133390Y-110666666D01*
X135133390Y-110666666D02*
X135181009Y-110714285D01*
X135181009Y-110714285D02*
X135276247Y-110761904D01*
X135276247Y-110761904D02*
X135514342Y-110761904D01*
X135514342Y-110761904D02*
X135609580Y-110714285D01*
X135609580Y-110714285D02*
X135657200Y-110666666D01*
X135657200Y-110666666D02*
X135704819Y-110571428D01*
X135704819Y-110571428D02*
X135704819Y-110285714D01*
X135704819Y-110285714D02*
X135657200Y-110190476D01*
X135657200Y-110190476D02*
X135609580Y-110142857D01*
X128095238Y-115850057D02*
X128190476Y-115802438D01*
X128190476Y-115802438D02*
X128285714Y-115707200D01*
X128285714Y-115707200D02*
X128428571Y-115564342D01*
X128428571Y-115564342D02*
X128523809Y-115516723D01*
X128523809Y-115516723D02*
X128619047Y-115516723D01*
X128571428Y-115754819D02*
X128666666Y-115707200D01*
X128666666Y-115707200D02*
X128761904Y-115611961D01*
X128761904Y-115611961D02*
X128809523Y-115421485D01*
X128809523Y-115421485D02*
X128809523Y-115088152D01*
X128809523Y-115088152D02*
X128761904Y-114897676D01*
X128761904Y-114897676D02*
X128666666Y-114802438D01*
X128666666Y-114802438D02*
X128571428Y-114754819D01*
X128571428Y-114754819D02*
X128380952Y-114754819D01*
X128380952Y-114754819D02*
X128285714Y-114802438D01*
X128285714Y-114802438D02*
X128190476Y-114897676D01*
X128190476Y-114897676D02*
X128142857Y-115088152D01*
X128142857Y-115088152D02*
X128142857Y-115421485D01*
X128142857Y-115421485D02*
X128190476Y-115611961D01*
X128190476Y-115611961D02*
X128285714Y-115707200D01*
X128285714Y-115707200D02*
X128380952Y-115754819D01*
X128380952Y-115754819D02*
X128571428Y-115754819D01*
X127809523Y-114754819D02*
X127190476Y-114754819D01*
X127190476Y-114754819D02*
X127523809Y-115135771D01*
X127523809Y-115135771D02*
X127380952Y-115135771D01*
X127380952Y-115135771D02*
X127285714Y-115183390D01*
X127285714Y-115183390D02*
X127238095Y-115231009D01*
X127238095Y-115231009D02*
X127190476Y-115326247D01*
X127190476Y-115326247D02*
X127190476Y-115564342D01*
X127190476Y-115564342D02*
X127238095Y-115659580D01*
X127238095Y-115659580D02*
X127285714Y-115707200D01*
X127285714Y-115707200D02*
X127380952Y-115754819D01*
X127380952Y-115754819D02*
X127666666Y-115754819D01*
X127666666Y-115754819D02*
X127761904Y-115707200D01*
X127761904Y-115707200D02*
X127809523Y-115659580D01*
X166066666Y-92459580D02*
X166114285Y-92507200D01*
X166114285Y-92507200D02*
X166257142Y-92554819D01*
X166257142Y-92554819D02*
X166352380Y-92554819D01*
X166352380Y-92554819D02*
X166495237Y-92507200D01*
X166495237Y-92507200D02*
X166590475Y-92411961D01*
X166590475Y-92411961D02*
X166638094Y-92316723D01*
X166638094Y-92316723D02*
X166685713Y-92126247D01*
X166685713Y-92126247D02*
X166685713Y-91983390D01*
X166685713Y-91983390D02*
X166638094Y-91792914D01*
X166638094Y-91792914D02*
X166590475Y-91697676D01*
X166590475Y-91697676D02*
X166495237Y-91602438D01*
X166495237Y-91602438D02*
X166352380Y-91554819D01*
X166352380Y-91554819D02*
X166257142Y-91554819D01*
X166257142Y-91554819D02*
X166114285Y-91602438D01*
X166114285Y-91602438D02*
X166066666Y-91650057D01*
X165161904Y-91554819D02*
X165638094Y-91554819D01*
X165638094Y-91554819D02*
X165685713Y-92031009D01*
X165685713Y-92031009D02*
X165638094Y-91983390D01*
X165638094Y-91983390D02*
X165542856Y-91935771D01*
X165542856Y-91935771D02*
X165304761Y-91935771D01*
X165304761Y-91935771D02*
X165209523Y-91983390D01*
X165209523Y-91983390D02*
X165161904Y-92031009D01*
X165161904Y-92031009D02*
X165114285Y-92126247D01*
X165114285Y-92126247D02*
X165114285Y-92364342D01*
X165114285Y-92364342D02*
X165161904Y-92459580D01*
X165161904Y-92459580D02*
X165209523Y-92507200D01*
X165209523Y-92507200D02*
X165304761Y-92554819D01*
X165304761Y-92554819D02*
X165542856Y-92554819D01*
X165542856Y-92554819D02*
X165638094Y-92507200D01*
X165638094Y-92507200D02*
X165685713Y-92459580D01*
X122954819Y-108583333D02*
X122478628Y-108250000D01*
X122954819Y-108011905D02*
X121954819Y-108011905D01*
X121954819Y-108011905D02*
X121954819Y-108392857D01*
X121954819Y-108392857D02*
X122002438Y-108488095D01*
X122002438Y-108488095D02*
X122050057Y-108535714D01*
X122050057Y-108535714D02*
X122145295Y-108583333D01*
X122145295Y-108583333D02*
X122288152Y-108583333D01*
X122288152Y-108583333D02*
X122383390Y-108535714D01*
X122383390Y-108535714D02*
X122431009Y-108488095D01*
X122431009Y-108488095D02*
X122478628Y-108392857D01*
X122478628Y-108392857D02*
X122478628Y-108011905D01*
X121954819Y-109488095D02*
X121954819Y-109011905D01*
X121954819Y-109011905D02*
X122431009Y-108964286D01*
X122431009Y-108964286D02*
X122383390Y-109011905D01*
X122383390Y-109011905D02*
X122335771Y-109107143D01*
X122335771Y-109107143D02*
X122335771Y-109345238D01*
X122335771Y-109345238D02*
X122383390Y-109440476D01*
X122383390Y-109440476D02*
X122431009Y-109488095D01*
X122431009Y-109488095D02*
X122526247Y-109535714D01*
X122526247Y-109535714D02*
X122764342Y-109535714D01*
X122764342Y-109535714D02*
X122859580Y-109488095D01*
X122859580Y-109488095D02*
X122907200Y-109440476D01*
X122907200Y-109440476D02*
X122954819Y-109345238D01*
X122954819Y-109345238D02*
X122954819Y-109107143D01*
X122954819Y-109107143D02*
X122907200Y-109011905D01*
X122907200Y-109011905D02*
X122859580Y-108964286D01*
X122954819Y-95333333D02*
X122478628Y-95000000D01*
X122954819Y-94761905D02*
X121954819Y-94761905D01*
X121954819Y-94761905D02*
X121954819Y-95142857D01*
X121954819Y-95142857D02*
X122002438Y-95238095D01*
X122002438Y-95238095D02*
X122050057Y-95285714D01*
X122050057Y-95285714D02*
X122145295Y-95333333D01*
X122145295Y-95333333D02*
X122288152Y-95333333D01*
X122288152Y-95333333D02*
X122383390Y-95285714D01*
X122383390Y-95285714D02*
X122431009Y-95238095D01*
X122431009Y-95238095D02*
X122478628Y-95142857D01*
X122478628Y-95142857D02*
X122478628Y-94761905D01*
X122288152Y-96190476D02*
X122954819Y-96190476D01*
X121907200Y-95952381D02*
X122621485Y-95714286D01*
X122621485Y-95714286D02*
X122621485Y-96333333D01*
X173458333Y-106777319D02*
X173458333Y-107491604D01*
X173458333Y-107491604D02*
X173505952Y-107634461D01*
X173505952Y-107634461D02*
X173601190Y-107729700D01*
X173601190Y-107729700D02*
X173744047Y-107777319D01*
X173744047Y-107777319D02*
X173839285Y-107777319D01*
X172458333Y-107777319D02*
X173029761Y-107777319D01*
X172744047Y-107777319D02*
X172744047Y-106777319D01*
X172744047Y-106777319D02*
X172839285Y-106920176D01*
X172839285Y-106920176D02*
X172934523Y-107015414D01*
X172934523Y-107015414D02*
X173029761Y-107063033D01*
X144666666Y-85059580D02*
X144714285Y-85107200D01*
X144714285Y-85107200D02*
X144857142Y-85154819D01*
X144857142Y-85154819D02*
X144952380Y-85154819D01*
X144952380Y-85154819D02*
X145095237Y-85107200D01*
X145095237Y-85107200D02*
X145190475Y-85011961D01*
X145190475Y-85011961D02*
X145238094Y-84916723D01*
X145238094Y-84916723D02*
X145285713Y-84726247D01*
X145285713Y-84726247D02*
X145285713Y-84583390D01*
X145285713Y-84583390D02*
X145238094Y-84392914D01*
X145238094Y-84392914D02*
X145190475Y-84297676D01*
X145190475Y-84297676D02*
X145095237Y-84202438D01*
X145095237Y-84202438D02*
X144952380Y-84154819D01*
X144952380Y-84154819D02*
X144857142Y-84154819D01*
X144857142Y-84154819D02*
X144714285Y-84202438D01*
X144714285Y-84202438D02*
X144666666Y-84250057D01*
X144333332Y-84154819D02*
X143666666Y-84154819D01*
X143666666Y-84154819D02*
X144095237Y-85154819D01*
X153766666Y-95204819D02*
X154099999Y-94728628D01*
X154338094Y-95204819D02*
X154338094Y-94204819D01*
X154338094Y-94204819D02*
X153957142Y-94204819D01*
X153957142Y-94204819D02*
X153861904Y-94252438D01*
X153861904Y-94252438D02*
X153814285Y-94300057D01*
X153814285Y-94300057D02*
X153766666Y-94395295D01*
X153766666Y-94395295D02*
X153766666Y-94538152D01*
X153766666Y-94538152D02*
X153814285Y-94633390D01*
X153814285Y-94633390D02*
X153861904Y-94681009D01*
X153861904Y-94681009D02*
X153957142Y-94728628D01*
X153957142Y-94728628D02*
X154338094Y-94728628D01*
X153385713Y-94300057D02*
X153338094Y-94252438D01*
X153338094Y-94252438D02*
X153242856Y-94204819D01*
X153242856Y-94204819D02*
X153004761Y-94204819D01*
X153004761Y-94204819D02*
X152909523Y-94252438D01*
X152909523Y-94252438D02*
X152861904Y-94300057D01*
X152861904Y-94300057D02*
X152814285Y-94395295D01*
X152814285Y-94395295D02*
X152814285Y-94490533D01*
X152814285Y-94490533D02*
X152861904Y-94633390D01*
X152861904Y-94633390D02*
X153433332Y-95204819D01*
X153433332Y-95204819D02*
X152814285Y-95204819D01*
X137954819Y-108857142D02*
X137478628Y-108523809D01*
X137954819Y-108285714D02*
X136954819Y-108285714D01*
X136954819Y-108285714D02*
X136954819Y-108666666D01*
X136954819Y-108666666D02*
X137002438Y-108761904D01*
X137002438Y-108761904D02*
X137050057Y-108809523D01*
X137050057Y-108809523D02*
X137145295Y-108857142D01*
X137145295Y-108857142D02*
X137288152Y-108857142D01*
X137288152Y-108857142D02*
X137383390Y-108809523D01*
X137383390Y-108809523D02*
X137431009Y-108761904D01*
X137431009Y-108761904D02*
X137478628Y-108666666D01*
X137478628Y-108666666D02*
X137478628Y-108285714D01*
X137954819Y-109809523D02*
X137954819Y-109238095D01*
X137954819Y-109523809D02*
X136954819Y-109523809D01*
X136954819Y-109523809D02*
X137097676Y-109428571D01*
X137097676Y-109428571D02*
X137192914Y-109333333D01*
X137192914Y-109333333D02*
X137240533Y-109238095D01*
X137050057Y-110190476D02*
X137002438Y-110238095D01*
X137002438Y-110238095D02*
X136954819Y-110333333D01*
X136954819Y-110333333D02*
X136954819Y-110571428D01*
X136954819Y-110571428D02*
X137002438Y-110666666D01*
X137002438Y-110666666D02*
X137050057Y-110714285D01*
X137050057Y-110714285D02*
X137145295Y-110761904D01*
X137145295Y-110761904D02*
X137240533Y-110761904D01*
X137240533Y-110761904D02*
X137383390Y-110714285D01*
X137383390Y-110714285D02*
X137954819Y-110142857D01*
X137954819Y-110142857D02*
X137954819Y-110761904D01*
X137966666Y-84959580D02*
X138014285Y-85007200D01*
X138014285Y-85007200D02*
X138157142Y-85054819D01*
X138157142Y-85054819D02*
X138252380Y-85054819D01*
X138252380Y-85054819D02*
X138395237Y-85007200D01*
X138395237Y-85007200D02*
X138490475Y-84911961D01*
X138490475Y-84911961D02*
X138538094Y-84816723D01*
X138538094Y-84816723D02*
X138585713Y-84626247D01*
X138585713Y-84626247D02*
X138585713Y-84483390D01*
X138585713Y-84483390D02*
X138538094Y-84292914D01*
X138538094Y-84292914D02*
X138490475Y-84197676D01*
X138490475Y-84197676D02*
X138395237Y-84102438D01*
X138395237Y-84102438D02*
X138252380Y-84054819D01*
X138252380Y-84054819D02*
X138157142Y-84054819D01*
X138157142Y-84054819D02*
X138014285Y-84102438D01*
X138014285Y-84102438D02*
X137966666Y-84150057D01*
X137633332Y-84054819D02*
X137014285Y-84054819D01*
X137014285Y-84054819D02*
X137347618Y-84435771D01*
X137347618Y-84435771D02*
X137204761Y-84435771D01*
X137204761Y-84435771D02*
X137109523Y-84483390D01*
X137109523Y-84483390D02*
X137061904Y-84531009D01*
X137061904Y-84531009D02*
X137014285Y-84626247D01*
X137014285Y-84626247D02*
X137014285Y-84864342D01*
X137014285Y-84864342D02*
X137061904Y-84959580D01*
X137061904Y-84959580D02*
X137109523Y-85007200D01*
X137109523Y-85007200D02*
X137204761Y-85054819D01*
X137204761Y-85054819D02*
X137490475Y-85054819D01*
X137490475Y-85054819D02*
X137585713Y-85007200D01*
X137585713Y-85007200D02*
X137633332Y-84959580D01*
X152416666Y-109954819D02*
X152749999Y-109478628D01*
X152988094Y-109954819D02*
X152988094Y-108954819D01*
X152988094Y-108954819D02*
X152607142Y-108954819D01*
X152607142Y-108954819D02*
X152511904Y-109002438D01*
X152511904Y-109002438D02*
X152464285Y-109050057D01*
X152464285Y-109050057D02*
X152416666Y-109145295D01*
X152416666Y-109145295D02*
X152416666Y-109288152D01*
X152416666Y-109288152D02*
X152464285Y-109383390D01*
X152464285Y-109383390D02*
X152511904Y-109431009D01*
X152511904Y-109431009D02*
X152607142Y-109478628D01*
X152607142Y-109478628D02*
X152988094Y-109478628D01*
X152083332Y-108954819D02*
X151416666Y-108954819D01*
X151416666Y-108954819D02*
X151845237Y-109954819D01*
X143595238Y-111550057D02*
X143690476Y-111502438D01*
X143690476Y-111502438D02*
X143785714Y-111407200D01*
X143785714Y-111407200D02*
X143928571Y-111264342D01*
X143928571Y-111264342D02*
X144023809Y-111216723D01*
X144023809Y-111216723D02*
X144119047Y-111216723D01*
X144071428Y-111454819D02*
X144166666Y-111407200D01*
X144166666Y-111407200D02*
X144261904Y-111311961D01*
X144261904Y-111311961D02*
X144309523Y-111121485D01*
X144309523Y-111121485D02*
X144309523Y-110788152D01*
X144309523Y-110788152D02*
X144261904Y-110597676D01*
X144261904Y-110597676D02*
X144166666Y-110502438D01*
X144166666Y-110502438D02*
X144071428Y-110454819D01*
X144071428Y-110454819D02*
X143880952Y-110454819D01*
X143880952Y-110454819D02*
X143785714Y-110502438D01*
X143785714Y-110502438D02*
X143690476Y-110597676D01*
X143690476Y-110597676D02*
X143642857Y-110788152D01*
X143642857Y-110788152D02*
X143642857Y-111121485D01*
X143642857Y-111121485D02*
X143690476Y-111311961D01*
X143690476Y-111311961D02*
X143785714Y-111407200D01*
X143785714Y-111407200D02*
X143880952Y-111454819D01*
X143880952Y-111454819D02*
X144071428Y-111454819D01*
X142690476Y-111454819D02*
X143261904Y-111454819D01*
X142976190Y-111454819D02*
X142976190Y-110454819D01*
X142976190Y-110454819D02*
X143071428Y-110597676D01*
X143071428Y-110597676D02*
X143166666Y-110692914D01*
X143166666Y-110692914D02*
X143261904Y-110740533D01*
X152126666Y-101404819D02*
X152459999Y-100928628D01*
X152698094Y-101404819D02*
X152698094Y-100404819D01*
X152698094Y-100404819D02*
X152317142Y-100404819D01*
X152317142Y-100404819D02*
X152221904Y-100452438D01*
X152221904Y-100452438D02*
X152174285Y-100500057D01*
X152174285Y-100500057D02*
X152126666Y-100595295D01*
X152126666Y-100595295D02*
X152126666Y-100738152D01*
X152126666Y-100738152D02*
X152174285Y-100833390D01*
X152174285Y-100833390D02*
X152221904Y-100881009D01*
X152221904Y-100881009D02*
X152317142Y-100928628D01*
X152317142Y-100928628D02*
X152698094Y-100928628D01*
X151269523Y-100404819D02*
X151459999Y-100404819D01*
X151459999Y-100404819D02*
X151555237Y-100452438D01*
X151555237Y-100452438D02*
X151602856Y-100500057D01*
X151602856Y-100500057D02*
X151698094Y-100642914D01*
X151698094Y-100642914D02*
X151745713Y-100833390D01*
X151745713Y-100833390D02*
X151745713Y-101214342D01*
X151745713Y-101214342D02*
X151698094Y-101309580D01*
X151698094Y-101309580D02*
X151650475Y-101357200D01*
X151650475Y-101357200D02*
X151555237Y-101404819D01*
X151555237Y-101404819D02*
X151364761Y-101404819D01*
X151364761Y-101404819D02*
X151269523Y-101357200D01*
X151269523Y-101357200D02*
X151221904Y-101309580D01*
X151221904Y-101309580D02*
X151174285Y-101214342D01*
X151174285Y-101214342D02*
X151174285Y-100976247D01*
X151174285Y-100976247D02*
X151221904Y-100881009D01*
X151221904Y-100881009D02*
X151269523Y-100833390D01*
X151269523Y-100833390D02*
X151364761Y-100785771D01*
X151364761Y-100785771D02*
X151555237Y-100785771D01*
X151555237Y-100785771D02*
X151650475Y-100833390D01*
X151650475Y-100833390D02*
X151698094Y-100881009D01*
X151698094Y-100881009D02*
X151745713Y-100976247D01*
X173593333Y-98084819D02*
X173593333Y-98799104D01*
X173593333Y-98799104D02*
X173640952Y-98941961D01*
X173640952Y-98941961D02*
X173736190Y-99037200D01*
X173736190Y-99037200D02*
X173879047Y-99084819D01*
X173879047Y-99084819D02*
X173974285Y-99084819D01*
X173164761Y-98180057D02*
X173117142Y-98132438D01*
X173117142Y-98132438D02*
X173021904Y-98084819D01*
X173021904Y-98084819D02*
X172783809Y-98084819D01*
X172783809Y-98084819D02*
X172688571Y-98132438D01*
X172688571Y-98132438D02*
X172640952Y-98180057D01*
X172640952Y-98180057D02*
X172593333Y-98275295D01*
X172593333Y-98275295D02*
X172593333Y-98370533D01*
X172593333Y-98370533D02*
X172640952Y-98513390D01*
X172640952Y-98513390D02*
X173212380Y-99084819D01*
X173212380Y-99084819D02*
X172593333Y-99084819D01*
X128095238Y-110550057D02*
X128190476Y-110502438D01*
X128190476Y-110502438D02*
X128285714Y-110407200D01*
X128285714Y-110407200D02*
X128428571Y-110264342D01*
X128428571Y-110264342D02*
X128523809Y-110216723D01*
X128523809Y-110216723D02*
X128619047Y-110216723D01*
X128571428Y-110454819D02*
X128666666Y-110407200D01*
X128666666Y-110407200D02*
X128761904Y-110311961D01*
X128761904Y-110311961D02*
X128809523Y-110121485D01*
X128809523Y-110121485D02*
X128809523Y-109788152D01*
X128809523Y-109788152D02*
X128761904Y-109597676D01*
X128761904Y-109597676D02*
X128666666Y-109502438D01*
X128666666Y-109502438D02*
X128571428Y-109454819D01*
X128571428Y-109454819D02*
X128380952Y-109454819D01*
X128380952Y-109454819D02*
X128285714Y-109502438D01*
X128285714Y-109502438D02*
X128190476Y-109597676D01*
X128190476Y-109597676D02*
X128142857Y-109788152D01*
X128142857Y-109788152D02*
X128142857Y-110121485D01*
X128142857Y-110121485D02*
X128190476Y-110311961D01*
X128190476Y-110311961D02*
X128285714Y-110407200D01*
X128285714Y-110407200D02*
X128380952Y-110454819D01*
X128380952Y-110454819D02*
X128571428Y-110454819D01*
X127761904Y-109550057D02*
X127714285Y-109502438D01*
X127714285Y-109502438D02*
X127619047Y-109454819D01*
X127619047Y-109454819D02*
X127380952Y-109454819D01*
X127380952Y-109454819D02*
X127285714Y-109502438D01*
X127285714Y-109502438D02*
X127238095Y-109550057D01*
X127238095Y-109550057D02*
X127190476Y-109645295D01*
X127190476Y-109645295D02*
X127190476Y-109740533D01*
X127190476Y-109740533D02*
X127238095Y-109883390D01*
X127238095Y-109883390D02*
X127809523Y-110454819D01*
X127809523Y-110454819D02*
X127190476Y-110454819D01*
D12*
X188865000Y-102827064D02*
X188865000Y-102372936D01*
X190335000Y-102827064D02*
X190335000Y-102372936D01*
X144265000Y-106727064D02*
X144265000Y-106272936D01*
X145735000Y-106727064D02*
X145735000Y-106272936D01*
X158827064Y-98865000D02*
X158372936Y-98865000D01*
X158827064Y-100335000D02*
X158372936Y-100335000D01*
X134565000Y-112572936D02*
X134565000Y-113027064D01*
X136035000Y-112572936D02*
X136035000Y-113027064D01*
D15*
G36*
X135436093Y-88302338D02*
G01*
X135470103Y-88356985D01*
X135489191Y-88431012D01*
X135177582Y-88431012D01*
X135177582Y-88413184D01*
X135217889Y-88298074D01*
X135327960Y-88257379D01*
X135436093Y-88302338D01*
G37*
G36*
X138615744Y-88302338D02*
G01*
X138649754Y-88356985D01*
X138668842Y-88431012D01*
X138357233Y-88431012D01*
X138357233Y-88413184D01*
X138397540Y-88298074D01*
X138507611Y-88257379D01*
X138615744Y-88302338D01*
G37*
G36*
X140473770Y-88302338D02*
G01*
X140507780Y-88356985D01*
X140526868Y-88431012D01*
X140215259Y-88431012D01*
X140215259Y-88413184D01*
X140255566Y-88298074D01*
X140365637Y-88257379D01*
X140473770Y-88302338D01*
G37*
G36*
X133300855Y-88274626D02*
G01*
X133355600Y-88324042D01*
X133390191Y-88406207D01*
X133401721Y-88520929D01*
X133390288Y-88622570D01*
X133355988Y-88699600D01*
X133301727Y-88748144D01*
X133230414Y-88764325D01*
X133142629Y-88745140D01*
X133083911Y-88687585D01*
X133083911Y-88334894D01*
X133142629Y-88277339D01*
X133228864Y-88258154D01*
X133300855Y-88274626D01*
G37*
G36*
X137729703Y-88274578D02*
G01*
X137780330Y-88323848D01*
X137810706Y-88405965D01*
X137820831Y-88520929D01*
X137810561Y-88624992D01*
X137779749Y-88701538D01*
X137729364Y-88748628D01*
X137660376Y-88764325D01*
X137571816Y-88742427D01*
X137513873Y-88676733D01*
X137513873Y-88345746D01*
X137571040Y-88280052D01*
X137658826Y-88258154D01*
X137729703Y-88274578D01*
G37*
G36*
X136472852Y-88743396D02*
G01*
X136360455Y-88743396D01*
X136240114Y-88721111D01*
X136151941Y-88654254D01*
X136111720Y-88586300D01*
X136087173Y-88501292D01*
X136078302Y-88399231D01*
X136078302Y-88339545D01*
X136086226Y-88234082D01*
X136109997Y-88147136D01*
X136149616Y-88078708D01*
X136237401Y-88012142D01*
X136358130Y-87989954D01*
X136472852Y-87989954D01*
X136472852Y-88743396D01*
G37*
G36*
X142709680Y-88273367D02*
G01*
X142763941Y-88321329D01*
X142797659Y-88402816D01*
X142808899Y-88519379D01*
X142797659Y-88624702D01*
X142763941Y-88701926D01*
X142709293Y-88749306D01*
X142635266Y-88765100D01*
X142562790Y-88749500D01*
X142508142Y-88702701D01*
X142473842Y-88621601D01*
X142462409Y-88503101D01*
X142473842Y-88399231D01*
X142508142Y-88321716D01*
X142563178Y-88273463D01*
X142636816Y-88257379D01*
X142709680Y-88273367D01*
G37*
G36*
X144444181Y-87414106D02*
G01*
X144550102Y-87429818D01*
X144653973Y-87455837D01*
X144754794Y-87491911D01*
X144851593Y-87537694D01*
X144943439Y-87592744D01*
X145029446Y-87656531D01*
X145108787Y-87728442D01*
X145180698Y-87807783D01*
X145244486Y-87893791D01*
X145299536Y-87985637D01*
X145345319Y-88082436D01*
X145381393Y-88183257D01*
X145407411Y-88287128D01*
X145423123Y-88393049D01*
X145428377Y-88500000D01*
X145423123Y-88606951D01*
X145407411Y-88712872D01*
X145381393Y-88816743D01*
X145345319Y-88917564D01*
X145299536Y-89014363D01*
X145244486Y-89106209D01*
X145180698Y-89192217D01*
X145108787Y-89271558D01*
X145029446Y-89343469D01*
X144943439Y-89407256D01*
X144851593Y-89462306D01*
X144754794Y-89508089D01*
X144653973Y-89544163D01*
X144550102Y-89570182D01*
X144444181Y-89585894D01*
X144337229Y-89591148D01*
X144006500Y-89591148D01*
X143549939Y-89591148D01*
X142635266Y-89591148D01*
X140898163Y-89591148D01*
X140340057Y-89591148D01*
X139643976Y-89591148D01*
X139052539Y-89591148D01*
X138482031Y-89591148D01*
X137717737Y-89591148D01*
X136705396Y-89591148D01*
X135302380Y-89591148D01*
X134510956Y-89591148D01*
X133890064Y-89591148D01*
X133777667Y-89591148D01*
X133262195Y-89591148D01*
X131967700Y-89591148D01*
X131739807Y-89591148D01*
X130274005Y-89591148D01*
X129414368Y-89591148D01*
X128849286Y-89591148D01*
X128393500Y-89591148D01*
X128062771Y-89591148D01*
X127955819Y-89585894D01*
X127849898Y-89570182D01*
X127746027Y-89544163D01*
X127645206Y-89508089D01*
X127548407Y-89462307D01*
X127456561Y-89407256D01*
X127370554Y-89343469D01*
X127291213Y-89271558D01*
X127219302Y-89192217D01*
X127155514Y-89106209D01*
X127100464Y-89014364D01*
X127054681Y-88917564D01*
X127018607Y-88816744D01*
X126992589Y-88712872D01*
X126976877Y-88606951D01*
X126971623Y-88500000D01*
X126976877Y-88393049D01*
X126992589Y-88287128D01*
X127018292Y-88184515D01*
X128393500Y-88184515D01*
X128626044Y-88184515D01*
X128645519Y-88090238D01*
X128686893Y-88025998D01*
X128752877Y-87989082D01*
X128846185Y-87976776D01*
X128947826Y-87997608D01*
X129020206Y-88060104D01*
X129052460Y-88125863D01*
X129072227Y-88212033D01*
X129079504Y-88318616D01*
X129079504Y-88403882D01*
X129073346Y-88514900D01*
X129054872Y-88604042D01*
X129024082Y-88671307D01*
X128952671Y-88734676D01*
X128849286Y-88755798D01*
X128755203Y-88743493D01*
X128688443Y-88706577D01*
X128646682Y-88643887D01*
X128627594Y-88554260D01*
X128395050Y-88554260D01*
X128415850Y-88667087D01*
X128460679Y-88762689D01*
X128529538Y-88841064D01*
X128618981Y-88899200D01*
X128725564Y-88934082D01*
X128849286Y-88945709D01*
X128952017Y-88936577D01*
X129043169Y-88909180D01*
X129122743Y-88863519D01*
X129190738Y-88799594D01*
X129229039Y-88743396D01*
X129414368Y-88743396D01*
X129414368Y-88930206D01*
X130140680Y-88930206D01*
X130140680Y-88743396D01*
X130274005Y-88743396D01*
X130274005Y-88930206D01*
X131000317Y-88930206D01*
X131000317Y-88739520D01*
X131586328Y-88739520D01*
X131587103Y-88894550D01*
X131598343Y-88980978D01*
X131630512Y-89068182D01*
X131679152Y-89148216D01*
X131739807Y-89213135D01*
X131856854Y-89151898D01*
X131828949Y-89101514D01*
X131789610Y-89007140D01*
X131775464Y-88913153D01*
X131775464Y-88739520D01*
X131586328Y-88739520D01*
X131000317Y-88739520D01*
X131000317Y-88388379D01*
X131967700Y-88388379D01*
X131967700Y-88930206D01*
X132191718Y-88930206D01*
X132191718Y-88393805D01*
X132222723Y-88290323D01*
X132325818Y-88258154D01*
X132408565Y-88278308D01*
X132467670Y-88338770D01*
X132467670Y-88930206D01*
X132691687Y-88930206D01*
X132691687Y-88091498D01*
X132859119Y-88091498D01*
X132859119Y-88902301D01*
X132871618Y-89005202D01*
X132909116Y-89093762D01*
X132969286Y-89165463D01*
X133049805Y-89217786D01*
X133148248Y-89249760D01*
X133262195Y-89260419D01*
X133353275Y-89251214D01*
X133442029Y-89223599D01*
X133518962Y-89181451D01*
X133574579Y-89128644D01*
X133475360Y-88992218D01*
X133382730Y-89062563D01*
X133272272Y-89086011D01*
X133193013Y-89074093D01*
X133133521Y-89038339D01*
X133096314Y-88980688D01*
X133083911Y-88903076D01*
X133083911Y-88858118D01*
X133173634Y-88923811D01*
X133287775Y-88945709D01*
X133382127Y-88932575D01*
X133387028Y-88930206D01*
X133777667Y-88930206D01*
X133890064Y-88930206D01*
X134002460Y-88930206D01*
X134002460Y-88689136D01*
X134158264Y-88689136D01*
X134182875Y-88792908D01*
X134256708Y-88874783D01*
X134328710Y-88914187D01*
X134413460Y-88937829D01*
X134510956Y-88945709D01*
X134610465Y-88936311D01*
X134698154Y-88908115D01*
X134771114Y-88863544D01*
X134826441Y-88805020D01*
X134861322Y-88736904D01*
X134872949Y-88663556D01*
X134660559Y-88663556D01*
X134616376Y-88755023D01*
X134506305Y-88786804D01*
X134409024Y-88762387D01*
X134376080Y-88698438D01*
X134416776Y-88633713D01*
X134469776Y-88611330D01*
X134547388Y-88591467D01*
X134678291Y-88552032D01*
X134771793Y-88496512D01*
X134775133Y-88492249D01*
X134957440Y-88492249D01*
X134957440Y-88583716D01*
X135491516Y-88583716D01*
X135469715Y-88657742D01*
X135426016Y-88715491D01*
X135364101Y-88752698D01*
X135287653Y-88765100D01*
X135172350Y-88741652D01*
X135085339Y-88671307D01*
X134975269Y-88794556D01*
X135034567Y-88858021D01*
X135111694Y-88905789D01*
X135202387Y-88935729D01*
X135302380Y-88945709D01*
X135417748Y-88933135D01*
X135517871Y-88895411D01*
X135602750Y-88832538D01*
X135667130Y-88748736D01*
X135705758Y-88648225D01*
X135718634Y-88531006D01*
X135718634Y-88509302D01*
X135706426Y-88389639D01*
X135689432Y-88340320D01*
X135842658Y-88340320D01*
X135842658Y-88392255D01*
X135849849Y-88493282D01*
X135871424Y-88586558D01*
X135907382Y-88672083D01*
X135956432Y-88747616D01*
X136017281Y-88810920D01*
X136089929Y-88861993D01*
X136171836Y-88899545D01*
X136260462Y-88922283D01*
X136355805Y-88930206D01*
X136705396Y-88930206D01*
X137289081Y-88930206D01*
X137491394Y-88930206D01*
X137502246Y-88841064D01*
X137563397Y-88899200D01*
X137635227Y-88934082D01*
X137717737Y-88945709D01*
X137809936Y-88932747D01*
X137889130Y-88893861D01*
X137955319Y-88829050D01*
X138005058Y-88741157D01*
X138034901Y-88633024D01*
X138044849Y-88504651D01*
X138043854Y-88492249D01*
X138137091Y-88492249D01*
X138137091Y-88583716D01*
X138671167Y-88583716D01*
X138649366Y-88657742D01*
X138605667Y-88715491D01*
X138543752Y-88752698D01*
X138467304Y-88765100D01*
X138352001Y-88741652D01*
X138264990Y-88671307D01*
X138154920Y-88794556D01*
X138214218Y-88858021D01*
X138291345Y-88905789D01*
X138382037Y-88935729D01*
X138482031Y-88945709D01*
X138597399Y-88933135D01*
X138605173Y-88930206D01*
X139052539Y-88930206D01*
X139277332Y-88930206D01*
X139277332Y-88086072D01*
X139393604Y-88086072D01*
X139396704Y-88301562D01*
X139477319Y-88295361D01*
X139582546Y-88316872D01*
X139643976Y-88381403D01*
X139643976Y-88930206D01*
X139867993Y-88930206D01*
X139867993Y-88492249D01*
X139995117Y-88492249D01*
X139995117Y-88583716D01*
X140529193Y-88583716D01*
X140507392Y-88657742D01*
X140463693Y-88715491D01*
X140401778Y-88752698D01*
X140325330Y-88765100D01*
X140210027Y-88741652D01*
X140123016Y-88671307D01*
X140012946Y-88794556D01*
X140072244Y-88858021D01*
X140149371Y-88905789D01*
X140240064Y-88935729D01*
X140340057Y-88945709D01*
X140455425Y-88933135D01*
X140555548Y-88895411D01*
X140640427Y-88832538D01*
X140704807Y-88748736D01*
X140743435Y-88648225D01*
X140756311Y-88531006D01*
X140756311Y-88509302D01*
X140744607Y-88394580D01*
X140898163Y-88394580D01*
X140898163Y-88930206D01*
X141122955Y-88930206D01*
X141122955Y-88395355D01*
X141150861Y-88291098D01*
X141249304Y-88258154D01*
X141334570Y-88282184D01*
X141388831Y-88354272D01*
X141388056Y-88930206D01*
X141612073Y-88930206D01*
X141612073Y-88396130D01*
X141640753Y-88290710D01*
X141738422Y-88258154D01*
X141820587Y-88277921D01*
X141876398Y-88337219D01*
X141876398Y-88930206D01*
X142100415Y-88930206D01*
X142100415Y-88519379D01*
X142238391Y-88519379D01*
X142250363Y-88639569D01*
X142286278Y-88742793D01*
X142346137Y-88829050D01*
X142426149Y-88893861D01*
X142522525Y-88932747D01*
X142635266Y-88945709D01*
X142748050Y-88932790D01*
X142844556Y-88894033D01*
X142924783Y-88829437D01*
X142984857Y-88742621D01*
X143020902Y-88637201D01*
X143032916Y-88513177D01*
X143032916Y-88503101D01*
X143020902Y-88385085D01*
X142984857Y-88280634D01*
X142926237Y-88194011D01*
X142853199Y-88134906D01*
X143140662Y-88134906D01*
X143373206Y-88134906D01*
X143385414Y-88066015D01*
X143422040Y-88014371D01*
X143480757Y-87982105D01*
X143559241Y-87971350D01*
X143635011Y-87980361D01*
X143691791Y-88007394D01*
X143739075Y-88102350D01*
X143683652Y-88194592D01*
X143615148Y-88230637D01*
X143520483Y-88264355D01*
X143400164Y-88307333D01*
X143303787Y-88356684D01*
X143231354Y-88412408D01*
X143163335Y-88511627D01*
X143140662Y-88632550D01*
X143152978Y-88723199D01*
X143189927Y-88799809D01*
X143251508Y-88862381D01*
X143333932Y-88908674D01*
X143433409Y-88936451D01*
X143549939Y-88945709D01*
X143674350Y-88933791D01*
X143787134Y-88898038D01*
X143881411Y-88841549D01*
X143950302Y-88767426D01*
X143992451Y-88677896D01*
X144006500Y-88575189D01*
X143773181Y-88575189D01*
X143759229Y-88656919D01*
X143717371Y-88715297D01*
X143647608Y-88750324D01*
X143549939Y-88762000D01*
X143476106Y-88753570D01*
X143420490Y-88728281D01*
X143373981Y-88634100D01*
X143420490Y-88532944D01*
X143485602Y-88496706D01*
X143587921Y-88458530D01*
X143696248Y-88419675D01*
X143779382Y-88381403D01*
X143886180Y-88304146D01*
X143950259Y-88210870D01*
X143971619Y-88101575D01*
X143958732Y-88015049D01*
X143920071Y-87938406D01*
X143857285Y-87874554D01*
X143772019Y-87826398D01*
X143669602Y-87796167D01*
X143555365Y-87786090D01*
X143441031Y-87797039D01*
X143339874Y-87829886D01*
X143255868Y-87882693D01*
X143192984Y-87953522D01*
X143153742Y-88038788D01*
X143140662Y-88134906D01*
X142853199Y-88134906D01*
X142846494Y-88129480D01*
X142748922Y-88089366D01*
X142636816Y-88075995D01*
X142530578Y-88087536D01*
X142438207Y-88122159D01*
X142359702Y-88179865D01*
X142298680Y-88257379D01*
X142258760Y-88351430D01*
X142239941Y-88462018D01*
X142238391Y-88519379D01*
X142100415Y-88519379D01*
X142100415Y-88091498D01*
X141890350Y-88091498D01*
X141883374Y-88185291D01*
X141816970Y-88124571D01*
X141736613Y-88088139D01*
X141642304Y-88075995D01*
X141545582Y-88090206D01*
X141471427Y-88132839D01*
X141419837Y-88203894D01*
X141352571Y-88132839D01*
X141268597Y-88090206D01*
X141167914Y-88075995D01*
X141048929Y-88095858D01*
X140964826Y-88155447D01*
X140914829Y-88254957D01*
X140898163Y-88394580D01*
X140744607Y-88394580D01*
X140744103Y-88389639D01*
X140707477Y-88283347D01*
X140648469Y-88195174D01*
X140569113Y-88129868D01*
X140473286Y-88089463D01*
X140364862Y-88075995D01*
X140258279Y-88088053D01*
X140167975Y-88124226D01*
X140093948Y-88184515D01*
X140039042Y-88266939D01*
X140006099Y-88369517D01*
X139995117Y-88492249D01*
X139867993Y-88492249D01*
X139867993Y-88091498D01*
X139656378Y-88091498D01*
X139650177Y-88191492D01*
X139569756Y-88104869D01*
X139463367Y-88075995D01*
X139393604Y-88086072D01*
X139277332Y-88086072D01*
X139277332Y-87739581D01*
X139052539Y-87739581D01*
X139052539Y-88930206D01*
X138605173Y-88930206D01*
X138697522Y-88895411D01*
X138782401Y-88832538D01*
X138846781Y-88748736D01*
X138885409Y-88648225D01*
X138898285Y-88531006D01*
X138898285Y-88509302D01*
X138886076Y-88389639D01*
X138849451Y-88283347D01*
X138790443Y-88195174D01*
X138711087Y-88129868D01*
X138615260Y-88089463D01*
X138506836Y-88075995D01*
X138400253Y-88088053D01*
X138309949Y-88124226D01*
X138235922Y-88184515D01*
X138181016Y-88266939D01*
X138148072Y-88369517D01*
X138137091Y-88492249D01*
X138043854Y-88492249D01*
X138035073Y-88382781D01*
X138005747Y-88278653D01*
X137956870Y-88192267D01*
X137891025Y-88127671D01*
X137810798Y-88088914D01*
X137716187Y-88075995D01*
X137604372Y-88098862D01*
X137513873Y-88167462D01*
X137513873Y-87739581D01*
X137289081Y-87739581D01*
X137289081Y-88930206D01*
X136705396Y-88930206D01*
X136705396Y-87801593D01*
X136358130Y-87801593D01*
X136262399Y-87809043D01*
X136173645Y-87831393D01*
X136091867Y-87868643D01*
X136019305Y-87919631D01*
X135958197Y-87983193D01*
X135908545Y-88059329D01*
X135871941Y-88145500D01*
X135849978Y-88239163D01*
X135842658Y-88340320D01*
X135689432Y-88340320D01*
X135669800Y-88283347D01*
X135610792Y-88195174D01*
X135531436Y-88129868D01*
X135435609Y-88089463D01*
X135327185Y-88075995D01*
X135220602Y-88088053D01*
X135130298Y-88124226D01*
X135056271Y-88184515D01*
X135001365Y-88266939D01*
X134968422Y-88369517D01*
X134957440Y-88492249D01*
X134775133Y-88492249D01*
X134827894Y-88424908D01*
X134846594Y-88337219D01*
X134823437Y-88234803D01*
X134753964Y-88150797D01*
X134685881Y-88109240D01*
X134605136Y-88084306D01*
X134511731Y-88075995D01*
X134412383Y-88084349D01*
X134327246Y-88109412D01*
X134256320Y-88151184D01*
X134184522Y-88237613D01*
X134160590Y-88346521D01*
X134384607Y-88346521D01*
X134415613Y-88267068D01*
X134512506Y-88235675D01*
X134600098Y-88261255D01*
X134631104Y-88326367D01*
X134595834Y-88386441D01*
X134476849Y-88425974D01*
X134399722Y-88443705D01*
X134335773Y-88463568D01*
X134237157Y-88517570D01*
X134177987Y-88592759D01*
X134158264Y-88689136D01*
X134002460Y-88689136D01*
X134002460Y-88091498D01*
X133890064Y-88091498D01*
X133777667Y-88091498D01*
X133777667Y-88930206D01*
X133387028Y-88930206D01*
X133463647Y-88893172D01*
X133532333Y-88827499D01*
X133584225Y-88740123D01*
X133615360Y-88635608D01*
X133625739Y-88513953D01*
X133625739Y-88504651D01*
X133615533Y-88384331D01*
X133584914Y-88280720D01*
X133533884Y-88193817D01*
X133465542Y-88128360D01*
X133382989Y-88089086D01*
X133286224Y-88075995D01*
X133163558Y-88099637D01*
X133071509Y-88170563D01*
X133062207Y-88091498D01*
X132859119Y-88091498D01*
X132691687Y-88091498D01*
X132480847Y-88091498D01*
X132473871Y-88188391D01*
X132407122Y-88125949D01*
X132326765Y-88088483D01*
X132232800Y-88075995D01*
X132116528Y-88095567D01*
X132034363Y-88154285D01*
X131985141Y-88251953D01*
X131967700Y-88388379D01*
X131000317Y-88388379D01*
X131000317Y-87874457D01*
X133764490Y-87874457D01*
X133798984Y-87958173D01*
X133890064Y-87990729D01*
X133981143Y-87958173D01*
X134015637Y-87874457D01*
X133981918Y-87791516D01*
X133890064Y-87758960D01*
X133798596Y-87791516D01*
X133764490Y-87874457D01*
X131000317Y-87874457D01*
X131000317Y-87801593D01*
X130767774Y-87801593D01*
X130767774Y-88743396D01*
X130274005Y-88743396D01*
X130140680Y-88743396D01*
X130140680Y-87801593D01*
X129908136Y-87801593D01*
X129908136Y-88743396D01*
X129414368Y-88743396D01*
X129229039Y-88743396D01*
X129245168Y-88719730D01*
X129284046Y-88626252D01*
X129307373Y-88519161D01*
X129315149Y-88398456D01*
X129315149Y-88329468D01*
X129308776Y-88225254D01*
X129289655Y-88129652D01*
X129257788Y-88042664D01*
X129188122Y-87933077D01*
X129093845Y-87852365D01*
X129018957Y-87815546D01*
X128936404Y-87793454D01*
X128846185Y-87786090D01*
X128724401Y-87797717D01*
X128619498Y-87832599D01*
X128531476Y-87890735D01*
X128463091Y-87969886D01*
X128417099Y-88067813D01*
X128393500Y-88184515D01*
X127018292Y-88184515D01*
X127018607Y-88183256D01*
X127054681Y-88082436D01*
X127100464Y-87985636D01*
X127155514Y-87893791D01*
X127219302Y-87807783D01*
X127291213Y-87728442D01*
X127370554Y-87656531D01*
X127456561Y-87592744D01*
X127548407Y-87537693D01*
X127645206Y-87491911D01*
X127746027Y-87455837D01*
X127849898Y-87429818D01*
X127955819Y-87414106D01*
X128062771Y-87408852D01*
X128393500Y-87408852D01*
X144006500Y-87408852D01*
X144337229Y-87408852D01*
X144444181Y-87414106D01*
G37*
D16*
X131375000Y-113650000D02*
X131375000Y-113950000D01*
X131375000Y-116650000D02*
X131375000Y-116950000D01*
X131375000Y-116725000D02*
X131375000Y-116600000D01*
X131375000Y-116950000D02*
X131825000Y-116950000D01*
X131750000Y-113650000D02*
X131375000Y-113650000D01*
X132375000Y-113650000D02*
X132650000Y-113650000D01*
X132550000Y-116950000D02*
X133025000Y-116950000D01*
X132650000Y-113650000D02*
X133025000Y-113925000D01*
X133025000Y-113925000D02*
X133025000Y-113975000D01*
X133025000Y-113975000D02*
X133800000Y-113975000D01*
X133025000Y-116950000D02*
X133025000Y-116600000D01*
D12*
X162738748Y-91265000D02*
X163261252Y-91265000D01*
X162738748Y-92735000D02*
X163261252Y-92735000D01*
X121740000Y-111570436D02*
X121740000Y-112024564D01*
X123210000Y-111570436D02*
X123210000Y-112024564D01*
X121740000Y-98472936D02*
X121740000Y-98927064D01*
X123210000Y-98472936D02*
X123210000Y-98927064D01*
X159625000Y-110972500D02*
X159625000Y-120472500D01*
X159625000Y-120472500D02*
X162075000Y-120472500D01*
X162075000Y-120222500D02*
X162075000Y-120722500D01*
X164175000Y-120772500D02*
X164175000Y-120272500D01*
X164975000Y-120522500D02*
X167075000Y-120522500D01*
X166275000Y-120522500D02*
X164175000Y-120522500D01*
X167075000Y-120272500D02*
X167075000Y-120772500D01*
X169125000Y-120772500D02*
X169125000Y-120272500D01*
X169925000Y-120522500D02*
X172025000Y-120522500D01*
X171225000Y-120522500D02*
X169125000Y-120522500D01*
X172025000Y-120272500D02*
X172025000Y-120772500D01*
X174175000Y-120772500D02*
X174175000Y-120272500D01*
X174975000Y-120522500D02*
X177075000Y-120522500D01*
X176275000Y-120522500D02*
X174175000Y-120522500D01*
X177075000Y-120272500D02*
X177075000Y-120772500D01*
X179175000Y-120722500D02*
X179175000Y-120222500D01*
X179975000Y-120472500D02*
X182075000Y-120472500D01*
X181275000Y-120472500D02*
X179175000Y-120472500D01*
X182075000Y-120222500D02*
X182075000Y-120722500D01*
X182785000Y-110172500D02*
X183085000Y-110772500D01*
X183085000Y-110772500D02*
X183385000Y-110172500D01*
X183385000Y-110172500D02*
X182785000Y-110172500D01*
X184175000Y-120222500D02*
X184175000Y-120722500D01*
X186625000Y-110972500D02*
X159625000Y-110972500D01*
X186625000Y-110972500D02*
X186625000Y-120472500D01*
X186625000Y-120472500D02*
X184175000Y-120472500D01*
X180384820Y-114922500D02*
G75*
G02*
X175925000Y-114922500I-2229910J0D01*
G01*
X175925000Y-114922500D02*
G75*
G02*
X180384820Y-114922500I2229910J0D01*
G01*
X185354910Y-114972500D02*
G75*
G02*
X180895090Y-114972500I-2229910J0D01*
G01*
X180895090Y-114972500D02*
G75*
G02*
X185354910Y-114972500I2229910J0D01*
G01*
X141338748Y-83865000D02*
X141861252Y-83865000D01*
X141338748Y-85335000D02*
X141861252Y-85335000D01*
X153372936Y-92365000D02*
X153827064Y-92365000D01*
X153372936Y-93835000D02*
X153827064Y-93835000D01*
X136665000Y-112572936D02*
X136665000Y-113027064D01*
X138135000Y-112572936D02*
X138135000Y-113027064D01*
X134638748Y-83765000D02*
X135161252Y-83765000D01*
X134638748Y-85235000D02*
X135161252Y-85235000D01*
X151370000Y-111580436D02*
X151370000Y-112034564D01*
X152840000Y-111580436D02*
X152840000Y-112034564D01*
D16*
X146375000Y-109275000D02*
X146375000Y-109625000D01*
X146375000Y-112250000D02*
X145600000Y-112250000D01*
X146375000Y-112300000D02*
X146375000Y-112250000D01*
X146750000Y-112575000D02*
X146375000Y-112300000D01*
X146850000Y-109275000D02*
X146375000Y-109275000D01*
X147025000Y-112575000D02*
X146750000Y-112575000D01*
X147650000Y-112575000D02*
X148025000Y-112575000D01*
X148025000Y-109275000D02*
X147575000Y-109275000D01*
X148025000Y-109500000D02*
X148025000Y-109625000D01*
X148025000Y-109575000D02*
X148025000Y-109275000D01*
X148025000Y-112575000D02*
X148025000Y-112275000D01*
D12*
X151370000Y-98372936D02*
X151370000Y-98827064D01*
X152840000Y-98372936D02*
X152840000Y-98827064D01*
X167080000Y-94500000D02*
X167080000Y-97500000D01*
X167080000Y-97500000D02*
X179440000Y-97500000D01*
X169450000Y-97500000D02*
X169450000Y-94500000D01*
X179440000Y-94500000D02*
X167080000Y-94500000D01*
X179440000Y-97500000D02*
X179440000Y-94500000D01*
D16*
X131275000Y-108500000D02*
X131275000Y-108800000D01*
X131275000Y-111500000D02*
X131275000Y-111800000D01*
X131275000Y-111575000D02*
X131275000Y-111450000D01*
X131275000Y-111800000D02*
X131725000Y-111800000D01*
X131650000Y-108500000D02*
X131275000Y-108500000D01*
X132275000Y-108500000D02*
X132550000Y-108500000D01*
X132450000Y-111800000D02*
X132925000Y-111800000D01*
X132550000Y-108500000D02*
X132925000Y-108775000D01*
X132925000Y-108775000D02*
X132925000Y-108825000D01*
X132925000Y-108825000D02*
X133700000Y-108825000D01*
X132925000Y-111800000D02*
X132925000Y-111450000D01*
%LPC*%
D17*
X203000000Y-85000000D03*
X203000000Y-119000000D03*
X114000000Y-85000000D03*
D18*
X116750000Y-88212500D03*
X116750000Y-108212500D03*
D19*
X157250000Y-88212500D03*
X157250000Y-108212500D03*
D17*
X114000000Y-119000000D03*
D20*
X197400000Y-90850000D03*
D21*
X192400000Y-90850000D03*
X194900000Y-90850000D03*
D22*
X200500000Y-98350000D03*
X189300000Y-98350000D03*
D21*
X192400000Y-105350000D03*
X197400000Y-105350000D03*
D23*
X189600000Y-103512500D03*
X189600000Y-101687500D03*
X145000000Y-107412500D03*
X145000000Y-105587500D03*
D24*
X159512500Y-99600000D03*
X157687500Y-99600000D03*
D25*
X135300000Y-111887500D03*
X135300000Y-113712500D03*
D26*
X133250000Y-114350000D03*
X133250000Y-116250000D03*
X131150000Y-115300000D03*
D27*
X162050000Y-92000000D03*
X163950000Y-92000000D03*
D25*
X122475000Y-110885000D03*
X122475000Y-112710000D03*
X122475000Y-97787500D03*
X122475000Y-99612500D03*
D28*
X183125000Y-114972500D03*
D29*
X178125000Y-114972500D03*
X173125000Y-114972500D03*
X168125000Y-114972500D03*
X163125000Y-114972500D03*
D27*
X140650000Y-84600000D03*
X142550000Y-84600000D03*
D30*
X152687500Y-93100000D03*
X154512500Y-93100000D03*
D25*
X137400000Y-111887500D03*
X137400000Y-113712500D03*
D27*
X133950000Y-84500000D03*
X135850000Y-84500000D03*
D25*
X152105000Y-110895000D03*
X152105000Y-112720000D03*
D31*
X146150000Y-111875000D03*
X146150000Y-109975000D03*
X148250000Y-110925000D03*
D25*
X152105000Y-97687500D03*
X152105000Y-99512500D03*
D32*
X168180000Y-96000000D03*
X170720000Y-96000000D03*
X173260000Y-96000000D03*
X175800000Y-96000000D03*
X178340000Y-96000000D03*
D26*
X133150000Y-109200000D03*
X133150000Y-111100000D03*
X131050000Y-110150000D03*
%LPD*%
M02*
