G04 #@! TF.GenerationSoftware,KiCad,Pcbnew,10.0.4*
G04 #@! TF.CreationDate,2026-09-30T00:09:03-04:00*
G04 #@! TF.ProjectId,uSonicTimer1d,75536f6e-6963-4546-996d-657231642e6b,D*
G04 #@! TF.SameCoordinates,Original*
G04 #@! TF.FileFunction,Legend,Top*
G04 #@! TF.FilePolarity,Positive*
%FSLAX46Y46*%
G04 Gerber Fmt 4.6, Leading zero omitted, Abs format (unit mm)*
G04 Created by KiCad (PCBNEW 10.0.4) date 2026-09-30 00:09:03*
%MOMM*%
%LPD*%
G01*
G04 APERTURE LIST*
G04 Aperture macros list*
%AMRoundRect*
0 Rectangle with rounded corners*
0 $1 Rounding radius*
0 $2 $3 $4 $5 $6 $7 $8 $9 X,Y pos of 4 corners*
0 Add a 4 corners polygon primitive as box body*
4,1,4,$2,$3,$4,$5,$6,$7,$8,$9,$2,$3,0*
0 Add four circle primitives for the rounded corners*
1,1,$1+$1,$2,$3*
1,1,$1+$1,$4,$5*
1,1,$1+$1,$6,$7*
1,1,$1+$1,$8,$9*
0 Add four rect primitives between the rounded corners*
20,1,$1+$1,$2,$3,$4,$5,0*
20,1,$1+$1,$4,$5,$6,$7,0*
20,1,$1+$1,$6,$7,$8,$9,0*
20,1,$1+$1,$8,$9,$2,$3,0*%
G04 Aperture macros list end*
%ADD10C,0.150000*%
%ADD11C,0.120000*%
%ADD12C,0.100000*%
%ADD13C,2.000000*%
%ADD14R,1.000000X1.250000*%
%ADD15RoundRect,0.250000X0.262500X0.450000X-0.262500X0.450000X-0.262500X-0.450000X0.262500X-0.450000X0*%
%ADD16RoundRect,0.243750X-0.456250X0.243750X-0.456250X-0.243750X0.456250X-0.243750X0.456250X0.243750X0*%
%ADD17RoundRect,0.250000X0.450000X-0.262500X0.450000X0.262500X-0.450000X0.262500X-0.450000X-0.262500X0*%
%ADD18C,2.100000*%
%ADD19RoundRect,0.250000X-0.450000X0.262500X-0.450000X-0.262500X0.450000X-0.262500X0.450000X0.262500X0*%
%ADD20RoundRect,0.250000X-0.550000X1.050000X-0.550000X-1.050000X0.550000X-1.050000X0.550000X1.050000X0*%
%ADD21R,0.600000X3.000000*%
%ADD22RoundRect,0.070000X-0.300000X0.650000X-0.300000X-0.650000X0.300000X-0.650000X0.300000X0.650000X0*%
%ADD23RoundRect,0.250000X-0.250000X-0.475000X0.250000X-0.475000X0.250000X0.475000X-0.250000X0.475000X0*%
%ADD24R,2.500000X1.000000*%
%ADD25R,1.000000X1.800000*%
%ADD26R,2.000000X2.000000*%
%ADD27C,2.000000*%
%ADD28R,2.000000X3.200000*%
%ADD29R,2.000000X1.500000*%
%ADD30R,2.000000X3.800000*%
%ADD31RoundRect,0.250000X-0.325000X-0.650000X0.325000X-0.650000X0.325000X0.650000X-0.325000X0.650000X0*%
%ADD32RoundRect,0.249999X0.790001X1.550001X-0.790001X1.550001X-0.790001X-1.550001X0.790001X-1.550001X0*%
%ADD33O,2.080000X3.600000*%
G04 APERTURE END LIST*
D10*
X155916667Y-83407200D02*
X156059524Y-83454819D01*
X156059524Y-83454819D02*
X156297619Y-83454819D01*
X156297619Y-83454819D02*
X156392857Y-83407200D01*
X156392857Y-83407200D02*
X156440476Y-83359580D01*
X156440476Y-83359580D02*
X156488095Y-83264342D01*
X156488095Y-83264342D02*
X156488095Y-83169104D01*
X156488095Y-83169104D02*
X156440476Y-83073866D01*
X156440476Y-83073866D02*
X156392857Y-83026247D01*
X156392857Y-83026247D02*
X156297619Y-82978628D01*
X156297619Y-82978628D02*
X156107143Y-82931009D01*
X156107143Y-82931009D02*
X156011905Y-82883390D01*
X156011905Y-82883390D02*
X155964286Y-82835771D01*
X155964286Y-82835771D02*
X155916667Y-82740533D01*
X155916667Y-82740533D02*
X155916667Y-82645295D01*
X155916667Y-82645295D02*
X155964286Y-82550057D01*
X155964286Y-82550057D02*
X156011905Y-82502438D01*
X156011905Y-82502438D02*
X156107143Y-82454819D01*
X156107143Y-82454819D02*
X156345238Y-82454819D01*
X156345238Y-82454819D02*
X156488095Y-82502438D01*
X156821429Y-82454819D02*
X157059524Y-83454819D01*
X157059524Y-83454819D02*
X157250000Y-82740533D01*
X157250000Y-82740533D02*
X157440476Y-83454819D01*
X157440476Y-83454819D02*
X157678572Y-82454819D01*
X158583333Y-83454819D02*
X158011905Y-83454819D01*
X158297619Y-83454819D02*
X158297619Y-82454819D01*
X158297619Y-82454819D02*
X158202381Y-82597676D01*
X158202381Y-82597676D02*
X158107143Y-82692914D01*
X158107143Y-82692914D02*
X158011905Y-82740533D01*
D11*
X171663855Y-115420000D02*
X171282902Y-115653333D01*
X171663855Y-115820000D02*
X170863855Y-115820000D01*
X170863855Y-115820000D02*
X170863855Y-115553333D01*
X170863855Y-115553333D02*
X170901950Y-115486667D01*
X170901950Y-115486667D02*
X170940045Y-115453333D01*
X170940045Y-115453333D02*
X171016236Y-115420000D01*
X171016236Y-115420000D02*
X171130521Y-115420000D01*
X171130521Y-115420000D02*
X171206712Y-115453333D01*
X171206712Y-115453333D02*
X171244807Y-115486667D01*
X171244807Y-115486667D02*
X171282902Y-115553333D01*
X171282902Y-115553333D02*
X171282902Y-115820000D01*
X171663855Y-114753333D02*
X171663855Y-115153333D01*
X171663855Y-114953333D02*
X170863855Y-114953333D01*
X170863855Y-114953333D02*
X170978140Y-115020000D01*
X170978140Y-115020000D02*
X171054331Y-115086667D01*
X171054331Y-115086667D02*
X171092426Y-115153333D01*
X171206712Y-114353333D02*
X171168617Y-114420000D01*
X171168617Y-114420000D02*
X171130521Y-114453333D01*
X171130521Y-114453333D02*
X171054331Y-114486666D01*
X171054331Y-114486666D02*
X171016236Y-114486666D01*
X171016236Y-114486666D02*
X170940045Y-114453333D01*
X170940045Y-114453333D02*
X170901950Y-114420000D01*
X170901950Y-114420000D02*
X170863855Y-114353333D01*
X170863855Y-114353333D02*
X170863855Y-114220000D01*
X170863855Y-114220000D02*
X170901950Y-114153333D01*
X170901950Y-114153333D02*
X170940045Y-114120000D01*
X170940045Y-114120000D02*
X171016236Y-114086666D01*
X171016236Y-114086666D02*
X171054331Y-114086666D01*
X171054331Y-114086666D02*
X171130521Y-114120000D01*
X171130521Y-114120000D02*
X171168617Y-114153333D01*
X171168617Y-114153333D02*
X171206712Y-114220000D01*
X171206712Y-114220000D02*
X171206712Y-114353333D01*
X171206712Y-114353333D02*
X171244807Y-114420000D01*
X171244807Y-114420000D02*
X171282902Y-114453333D01*
X171282902Y-114453333D02*
X171359093Y-114486666D01*
X171359093Y-114486666D02*
X171511474Y-114486666D01*
X171511474Y-114486666D02*
X171587664Y-114453333D01*
X171587664Y-114453333D02*
X171625760Y-114420000D01*
X171625760Y-114420000D02*
X171663855Y-114353333D01*
X171663855Y-114353333D02*
X171663855Y-114220000D01*
X171663855Y-114220000D02*
X171625760Y-114153333D01*
X171625760Y-114153333D02*
X171587664Y-114120000D01*
X171587664Y-114120000D02*
X171511474Y-114086666D01*
X171511474Y-114086666D02*
X171359093Y-114086666D01*
X171359093Y-114086666D02*
X171282902Y-114120000D01*
X171282902Y-114120000D02*
X171244807Y-114153333D01*
X171244807Y-114153333D02*
X171206712Y-114220000D01*
D10*
X154861905Y-102054819D02*
X154861905Y-101054819D01*
X154861905Y-101054819D02*
X155100000Y-101054819D01*
X155100000Y-101054819D02*
X155242857Y-101102438D01*
X155242857Y-101102438D02*
X155338095Y-101197676D01*
X155338095Y-101197676D02*
X155385714Y-101292914D01*
X155385714Y-101292914D02*
X155433333Y-101483390D01*
X155433333Y-101483390D02*
X155433333Y-101626247D01*
X155433333Y-101626247D02*
X155385714Y-101816723D01*
X155385714Y-101816723D02*
X155338095Y-101911961D01*
X155338095Y-101911961D02*
X155242857Y-102007200D01*
X155242857Y-102007200D02*
X155100000Y-102054819D01*
X155100000Y-102054819D02*
X154861905Y-102054819D01*
X155766667Y-101054819D02*
X156385714Y-101054819D01*
X156385714Y-101054819D02*
X156052381Y-101435771D01*
X156052381Y-101435771D02*
X156195238Y-101435771D01*
X156195238Y-101435771D02*
X156290476Y-101483390D01*
X156290476Y-101483390D02*
X156338095Y-101531009D01*
X156338095Y-101531009D02*
X156385714Y-101626247D01*
X156385714Y-101626247D02*
X156385714Y-101864342D01*
X156385714Y-101864342D02*
X156338095Y-101959580D01*
X156338095Y-101959580D02*
X156290476Y-102007200D01*
X156290476Y-102007200D02*
X156195238Y-102054819D01*
X156195238Y-102054819D02*
X155909524Y-102054819D01*
X155909524Y-102054819D02*
X155814286Y-102007200D01*
X155814286Y-102007200D02*
X155766667Y-101959580D01*
D11*
X176663855Y-115420000D02*
X176282902Y-115653333D01*
X176663855Y-115820000D02*
X175863855Y-115820000D01*
X175863855Y-115820000D02*
X175863855Y-115553333D01*
X175863855Y-115553333D02*
X175901950Y-115486667D01*
X175901950Y-115486667D02*
X175940045Y-115453333D01*
X175940045Y-115453333D02*
X176016236Y-115420000D01*
X176016236Y-115420000D02*
X176130521Y-115420000D01*
X176130521Y-115420000D02*
X176206712Y-115453333D01*
X176206712Y-115453333D02*
X176244807Y-115486667D01*
X176244807Y-115486667D02*
X176282902Y-115553333D01*
X176282902Y-115553333D02*
X176282902Y-115820000D01*
X175940045Y-115153333D02*
X175901950Y-115120000D01*
X175901950Y-115120000D02*
X175863855Y-115053333D01*
X175863855Y-115053333D02*
X175863855Y-114886667D01*
X175863855Y-114886667D02*
X175901950Y-114820000D01*
X175901950Y-114820000D02*
X175940045Y-114786667D01*
X175940045Y-114786667D02*
X176016236Y-114753333D01*
X176016236Y-114753333D02*
X176092426Y-114753333D01*
X176092426Y-114753333D02*
X176206712Y-114786667D01*
X176206712Y-114786667D02*
X176663855Y-115186667D01*
X176663855Y-115186667D02*
X176663855Y-114753333D01*
X175863855Y-114320000D02*
X175863855Y-114253333D01*
X175863855Y-114253333D02*
X175901950Y-114186666D01*
X175901950Y-114186666D02*
X175940045Y-114153333D01*
X175940045Y-114153333D02*
X176016236Y-114120000D01*
X176016236Y-114120000D02*
X176168617Y-114086666D01*
X176168617Y-114086666D02*
X176359093Y-114086666D01*
X176359093Y-114086666D02*
X176511474Y-114120000D01*
X176511474Y-114120000D02*
X176587664Y-114153333D01*
X176587664Y-114153333D02*
X176625760Y-114186666D01*
X176625760Y-114186666D02*
X176663855Y-114253333D01*
X176663855Y-114253333D02*
X176663855Y-114320000D01*
X176663855Y-114320000D02*
X176625760Y-114386666D01*
X176625760Y-114386666D02*
X176587664Y-114420000D01*
X176587664Y-114420000D02*
X176511474Y-114453333D01*
X176511474Y-114453333D02*
X176359093Y-114486666D01*
X176359093Y-114486666D02*
X176168617Y-114486666D01*
X176168617Y-114486666D02*
X176016236Y-114453333D01*
X176016236Y-114453333D02*
X175940045Y-114420000D01*
X175940045Y-114420000D02*
X175901950Y-114386666D01*
X175901950Y-114386666D02*
X175863855Y-114320000D01*
D10*
X197283333Y-85504819D02*
X196950000Y-85028628D01*
X196711905Y-85504819D02*
X196711905Y-84504819D01*
X196711905Y-84504819D02*
X197092857Y-84504819D01*
X197092857Y-84504819D02*
X197188095Y-84552438D01*
X197188095Y-84552438D02*
X197235714Y-84600057D01*
X197235714Y-84600057D02*
X197283333Y-84695295D01*
X197283333Y-84695295D02*
X197283333Y-84838152D01*
X197283333Y-84838152D02*
X197235714Y-84933390D01*
X197235714Y-84933390D02*
X197188095Y-84981009D01*
X197188095Y-84981009D02*
X197092857Y-85028628D01*
X197092857Y-85028628D02*
X196711905Y-85028628D01*
X197759524Y-85504819D02*
X197950000Y-85504819D01*
X197950000Y-85504819D02*
X198045238Y-85457200D01*
X198045238Y-85457200D02*
X198092857Y-85409580D01*
X198092857Y-85409580D02*
X198188095Y-85266723D01*
X198188095Y-85266723D02*
X198235714Y-85076247D01*
X198235714Y-85076247D02*
X198235714Y-84695295D01*
X198235714Y-84695295D02*
X198188095Y-84600057D01*
X198188095Y-84600057D02*
X198140476Y-84552438D01*
X198140476Y-84552438D02*
X198045238Y-84504819D01*
X198045238Y-84504819D02*
X197854762Y-84504819D01*
X197854762Y-84504819D02*
X197759524Y-84552438D01*
X197759524Y-84552438D02*
X197711905Y-84600057D01*
X197711905Y-84600057D02*
X197664286Y-84695295D01*
X197664286Y-84695295D02*
X197664286Y-84933390D01*
X197664286Y-84933390D02*
X197711905Y-85028628D01*
X197711905Y-85028628D02*
X197759524Y-85076247D01*
X197759524Y-85076247D02*
X197854762Y-85123866D01*
X197854762Y-85123866D02*
X198045238Y-85123866D01*
X198045238Y-85123866D02*
X198140476Y-85076247D01*
X198140476Y-85076247D02*
X198188095Y-85028628D01*
X198188095Y-85028628D02*
X198235714Y-84933390D01*
X159933333Y-93354819D02*
X159600000Y-92878628D01*
X159361905Y-93354819D02*
X159361905Y-92354819D01*
X159361905Y-92354819D02*
X159742857Y-92354819D01*
X159742857Y-92354819D02*
X159838095Y-92402438D01*
X159838095Y-92402438D02*
X159885714Y-92450057D01*
X159885714Y-92450057D02*
X159933333Y-92545295D01*
X159933333Y-92545295D02*
X159933333Y-92688152D01*
X159933333Y-92688152D02*
X159885714Y-92783390D01*
X159885714Y-92783390D02*
X159838095Y-92831009D01*
X159838095Y-92831009D02*
X159742857Y-92878628D01*
X159742857Y-92878628D02*
X159361905Y-92878628D01*
X160885714Y-93354819D02*
X160314286Y-93354819D01*
X160600000Y-93354819D02*
X160600000Y-92354819D01*
X160600000Y-92354819D02*
X160504762Y-92497676D01*
X160504762Y-92497676D02*
X160409524Y-92592914D01*
X160409524Y-92592914D02*
X160314286Y-92640533D01*
X184083333Y-101254819D02*
X183750000Y-100778628D01*
X183511905Y-101254819D02*
X183511905Y-100254819D01*
X183511905Y-100254819D02*
X183892857Y-100254819D01*
X183892857Y-100254819D02*
X183988095Y-100302438D01*
X183988095Y-100302438D02*
X184035714Y-100350057D01*
X184035714Y-100350057D02*
X184083333Y-100445295D01*
X184083333Y-100445295D02*
X184083333Y-100588152D01*
X184083333Y-100588152D02*
X184035714Y-100683390D01*
X184035714Y-100683390D02*
X183988095Y-100731009D01*
X183988095Y-100731009D02*
X183892857Y-100778628D01*
X183892857Y-100778628D02*
X183511905Y-100778628D01*
X184654762Y-100683390D02*
X184559524Y-100635771D01*
X184559524Y-100635771D02*
X184511905Y-100588152D01*
X184511905Y-100588152D02*
X184464286Y-100492914D01*
X184464286Y-100492914D02*
X184464286Y-100445295D01*
X184464286Y-100445295D02*
X184511905Y-100350057D01*
X184511905Y-100350057D02*
X184559524Y-100302438D01*
X184559524Y-100302438D02*
X184654762Y-100254819D01*
X184654762Y-100254819D02*
X184845238Y-100254819D01*
X184845238Y-100254819D02*
X184940476Y-100302438D01*
X184940476Y-100302438D02*
X184988095Y-100350057D01*
X184988095Y-100350057D02*
X185035714Y-100445295D01*
X185035714Y-100445295D02*
X185035714Y-100492914D01*
X185035714Y-100492914D02*
X184988095Y-100588152D01*
X184988095Y-100588152D02*
X184940476Y-100635771D01*
X184940476Y-100635771D02*
X184845238Y-100683390D01*
X184845238Y-100683390D02*
X184654762Y-100683390D01*
X184654762Y-100683390D02*
X184559524Y-100731009D01*
X184559524Y-100731009D02*
X184511905Y-100778628D01*
X184511905Y-100778628D02*
X184464286Y-100873866D01*
X184464286Y-100873866D02*
X184464286Y-101064342D01*
X184464286Y-101064342D02*
X184511905Y-101159580D01*
X184511905Y-101159580D02*
X184559524Y-101207200D01*
X184559524Y-101207200D02*
X184654762Y-101254819D01*
X184654762Y-101254819D02*
X184845238Y-101254819D01*
X184845238Y-101254819D02*
X184940476Y-101207200D01*
X184940476Y-101207200D02*
X184988095Y-101159580D01*
X184988095Y-101159580D02*
X185035714Y-101064342D01*
X185035714Y-101064342D02*
X185035714Y-100873866D01*
X185035714Y-100873866D02*
X184988095Y-100778628D01*
X184988095Y-100778628D02*
X184940476Y-100731009D01*
X184940476Y-100731009D02*
X184845238Y-100683390D01*
X195433333Y-115609580D02*
X195385714Y-115657200D01*
X195385714Y-115657200D02*
X195242857Y-115704819D01*
X195242857Y-115704819D02*
X195147619Y-115704819D01*
X195147619Y-115704819D02*
X195004762Y-115657200D01*
X195004762Y-115657200D02*
X194909524Y-115561961D01*
X194909524Y-115561961D02*
X194861905Y-115466723D01*
X194861905Y-115466723D02*
X194814286Y-115276247D01*
X194814286Y-115276247D02*
X194814286Y-115133390D01*
X194814286Y-115133390D02*
X194861905Y-114942914D01*
X194861905Y-114942914D02*
X194909524Y-114847676D01*
X194909524Y-114847676D02*
X195004762Y-114752438D01*
X195004762Y-114752438D02*
X195147619Y-114704819D01*
X195147619Y-114704819D02*
X195242857Y-114704819D01*
X195242857Y-114704819D02*
X195385714Y-114752438D01*
X195385714Y-114752438D02*
X195433333Y-114800057D01*
X195814286Y-114800057D02*
X195861905Y-114752438D01*
X195861905Y-114752438D02*
X195957143Y-114704819D01*
X195957143Y-114704819D02*
X196195238Y-114704819D01*
X196195238Y-114704819D02*
X196290476Y-114752438D01*
X196290476Y-114752438D02*
X196338095Y-114800057D01*
X196338095Y-114800057D02*
X196385714Y-114895295D01*
X196385714Y-114895295D02*
X196385714Y-114990533D01*
X196385714Y-114990533D02*
X196338095Y-115133390D01*
X196338095Y-115133390D02*
X195766667Y-115704819D01*
X195766667Y-115704819D02*
X196385714Y-115704819D01*
X187104819Y-89742857D02*
X186628628Y-90076190D01*
X187104819Y-90314285D02*
X186104819Y-90314285D01*
X186104819Y-90314285D02*
X186104819Y-89933333D01*
X186104819Y-89933333D02*
X186152438Y-89838095D01*
X186152438Y-89838095D02*
X186200057Y-89790476D01*
X186200057Y-89790476D02*
X186295295Y-89742857D01*
X186295295Y-89742857D02*
X186438152Y-89742857D01*
X186438152Y-89742857D02*
X186533390Y-89790476D01*
X186533390Y-89790476D02*
X186581009Y-89838095D01*
X186581009Y-89838095D02*
X186628628Y-89933333D01*
X186628628Y-89933333D02*
X186628628Y-90314285D01*
X187104819Y-88790476D02*
X187104819Y-89361904D01*
X187104819Y-89076190D02*
X186104819Y-89076190D01*
X186104819Y-89076190D02*
X186247676Y-89171428D01*
X186247676Y-89171428D02*
X186342914Y-89266666D01*
X186342914Y-89266666D02*
X186390533Y-89361904D01*
X186104819Y-88171428D02*
X186104819Y-88076190D01*
X186104819Y-88076190D02*
X186152438Y-87980952D01*
X186152438Y-87980952D02*
X186200057Y-87933333D01*
X186200057Y-87933333D02*
X186295295Y-87885714D01*
X186295295Y-87885714D02*
X186485771Y-87838095D01*
X186485771Y-87838095D02*
X186723866Y-87838095D01*
X186723866Y-87838095D02*
X186914342Y-87885714D01*
X186914342Y-87885714D02*
X187009580Y-87933333D01*
X187009580Y-87933333D02*
X187057200Y-87980952D01*
X187057200Y-87980952D02*
X187104819Y-88076190D01*
X187104819Y-88076190D02*
X187104819Y-88171428D01*
X187104819Y-88171428D02*
X187057200Y-88266666D01*
X187057200Y-88266666D02*
X187009580Y-88314285D01*
X187009580Y-88314285D02*
X186914342Y-88361904D01*
X186914342Y-88361904D02*
X186723866Y-88409523D01*
X186723866Y-88409523D02*
X186485771Y-88409523D01*
X186485771Y-88409523D02*
X186295295Y-88361904D01*
X186295295Y-88361904D02*
X186200057Y-88314285D01*
X186200057Y-88314285D02*
X186152438Y-88266666D01*
X186152438Y-88266666D02*
X186104819Y-88171428D01*
X135988095Y-97454819D02*
X135988095Y-98264342D01*
X135988095Y-98264342D02*
X136035714Y-98359580D01*
X136035714Y-98359580D02*
X136083333Y-98407200D01*
X136083333Y-98407200D02*
X136178571Y-98454819D01*
X136178571Y-98454819D02*
X136369047Y-98454819D01*
X136369047Y-98454819D02*
X136464285Y-98407200D01*
X136464285Y-98407200D02*
X136511904Y-98359580D01*
X136511904Y-98359580D02*
X136559523Y-98264342D01*
X136559523Y-98264342D02*
X136559523Y-97454819D01*
X136988095Y-97550057D02*
X137035714Y-97502438D01*
X137035714Y-97502438D02*
X137130952Y-97454819D01*
X137130952Y-97454819D02*
X137369047Y-97454819D01*
X137369047Y-97454819D02*
X137464285Y-97502438D01*
X137464285Y-97502438D02*
X137511904Y-97550057D01*
X137511904Y-97550057D02*
X137559523Y-97645295D01*
X137559523Y-97645295D02*
X137559523Y-97740533D01*
X137559523Y-97740533D02*
X137511904Y-97883390D01*
X137511904Y-97883390D02*
X136940476Y-98454819D01*
X136940476Y-98454819D02*
X137559523Y-98454819D01*
X190483333Y-115609580D02*
X190435714Y-115657200D01*
X190435714Y-115657200D02*
X190292857Y-115704819D01*
X190292857Y-115704819D02*
X190197619Y-115704819D01*
X190197619Y-115704819D02*
X190054762Y-115657200D01*
X190054762Y-115657200D02*
X189959524Y-115561961D01*
X189959524Y-115561961D02*
X189911905Y-115466723D01*
X189911905Y-115466723D02*
X189864286Y-115276247D01*
X189864286Y-115276247D02*
X189864286Y-115133390D01*
X189864286Y-115133390D02*
X189911905Y-114942914D01*
X189911905Y-114942914D02*
X189959524Y-114847676D01*
X189959524Y-114847676D02*
X190054762Y-114752438D01*
X190054762Y-114752438D02*
X190197619Y-114704819D01*
X190197619Y-114704819D02*
X190292857Y-114704819D01*
X190292857Y-114704819D02*
X190435714Y-114752438D01*
X190435714Y-114752438D02*
X190483333Y-114800057D01*
X191435714Y-115704819D02*
X190864286Y-115704819D01*
X191150000Y-115704819D02*
X191150000Y-114704819D01*
X191150000Y-114704819D02*
X191054762Y-114847676D01*
X191054762Y-114847676D02*
X190959524Y-114942914D01*
X190959524Y-114942914D02*
X190864286Y-114990533D01*
D11*
X181663855Y-115420000D02*
X181282902Y-115653333D01*
X181663855Y-115820000D02*
X180863855Y-115820000D01*
X180863855Y-115820000D02*
X180863855Y-115553333D01*
X180863855Y-115553333D02*
X180901950Y-115486667D01*
X180901950Y-115486667D02*
X180940045Y-115453333D01*
X180940045Y-115453333D02*
X181016236Y-115420000D01*
X181016236Y-115420000D02*
X181130521Y-115420000D01*
X181130521Y-115420000D02*
X181206712Y-115453333D01*
X181206712Y-115453333D02*
X181244807Y-115486667D01*
X181244807Y-115486667D02*
X181282902Y-115553333D01*
X181282902Y-115553333D02*
X181282902Y-115820000D01*
X181663855Y-114753333D02*
X181663855Y-115153333D01*
X181663855Y-114953333D02*
X180863855Y-114953333D01*
X180863855Y-114953333D02*
X180978140Y-115020000D01*
X180978140Y-115020000D02*
X181054331Y-115086667D01*
X181054331Y-115086667D02*
X181092426Y-115153333D01*
X181663855Y-114420000D02*
X181663855Y-114286666D01*
X181663855Y-114286666D02*
X181625760Y-114220000D01*
X181625760Y-114220000D02*
X181587664Y-114186666D01*
X181587664Y-114186666D02*
X181473379Y-114120000D01*
X181473379Y-114120000D02*
X181320998Y-114086666D01*
X181320998Y-114086666D02*
X181016236Y-114086666D01*
X181016236Y-114086666D02*
X180940045Y-114120000D01*
X180940045Y-114120000D02*
X180901950Y-114153333D01*
X180901950Y-114153333D02*
X180863855Y-114220000D01*
X180863855Y-114220000D02*
X180863855Y-114353333D01*
X180863855Y-114353333D02*
X180901950Y-114420000D01*
X180901950Y-114420000D02*
X180940045Y-114453333D01*
X180940045Y-114453333D02*
X181016236Y-114486666D01*
X181016236Y-114486666D02*
X181206712Y-114486666D01*
X181206712Y-114486666D02*
X181282902Y-114453333D01*
X181282902Y-114453333D02*
X181320998Y-114420000D01*
X181320998Y-114420000D02*
X181359093Y-114353333D01*
X181359093Y-114353333D02*
X181359093Y-114220000D01*
X181359093Y-114220000D02*
X181320998Y-114153333D01*
X181320998Y-114153333D02*
X181282902Y-114120000D01*
X181282902Y-114120000D02*
X181206712Y-114086666D01*
D10*
X117511905Y-96204819D02*
X117511905Y-95204819D01*
X117511905Y-95204819D02*
X117750000Y-95204819D01*
X117750000Y-95204819D02*
X117892857Y-95252438D01*
X117892857Y-95252438D02*
X117988095Y-95347676D01*
X117988095Y-95347676D02*
X118035714Y-95442914D01*
X118035714Y-95442914D02*
X118083333Y-95633390D01*
X118083333Y-95633390D02*
X118083333Y-95776247D01*
X118083333Y-95776247D02*
X118035714Y-95966723D01*
X118035714Y-95966723D02*
X117988095Y-96061961D01*
X117988095Y-96061961D02*
X117892857Y-96157200D01*
X117892857Y-96157200D02*
X117750000Y-96204819D01*
X117750000Y-96204819D02*
X117511905Y-96204819D01*
X119035714Y-96204819D02*
X118464286Y-96204819D01*
X118750000Y-96204819D02*
X118750000Y-95204819D01*
X118750000Y-95204819D02*
X118654762Y-95347676D01*
X118654762Y-95347676D02*
X118559524Y-95442914D01*
X118559524Y-95442914D02*
X118464286Y-95490533D01*
D11*
X180340045Y-115036666D02*
X180301950Y-115103333D01*
X180301950Y-115103333D02*
X180225760Y-115170000D01*
X180225760Y-115170000D02*
X180111474Y-115270000D01*
X180111474Y-115270000D02*
X180073379Y-115336666D01*
X180073379Y-115336666D02*
X180073379Y-115403333D01*
X180263855Y-115370000D02*
X180225760Y-115436666D01*
X180225760Y-115436666D02*
X180149569Y-115503333D01*
X180149569Y-115503333D02*
X179997188Y-115536666D01*
X179997188Y-115536666D02*
X179730521Y-115536666D01*
X179730521Y-115536666D02*
X179578140Y-115503333D01*
X179578140Y-115503333D02*
X179501950Y-115436666D01*
X179501950Y-115436666D02*
X179463855Y-115370000D01*
X179463855Y-115370000D02*
X179463855Y-115236666D01*
X179463855Y-115236666D02*
X179501950Y-115170000D01*
X179501950Y-115170000D02*
X179578140Y-115103333D01*
X179578140Y-115103333D02*
X179730521Y-115070000D01*
X179730521Y-115070000D02*
X179997188Y-115070000D01*
X179997188Y-115070000D02*
X180149569Y-115103333D01*
X180149569Y-115103333D02*
X180225760Y-115170000D01*
X180225760Y-115170000D02*
X180263855Y-115236666D01*
X180263855Y-115236666D02*
X180263855Y-115370000D01*
X179463855Y-114436667D02*
X179463855Y-114770000D01*
X179463855Y-114770000D02*
X179844807Y-114803333D01*
X179844807Y-114803333D02*
X179806712Y-114770000D01*
X179806712Y-114770000D02*
X179768617Y-114703333D01*
X179768617Y-114703333D02*
X179768617Y-114536667D01*
X179768617Y-114536667D02*
X179806712Y-114470000D01*
X179806712Y-114470000D02*
X179844807Y-114436667D01*
X179844807Y-114436667D02*
X179920998Y-114403333D01*
X179920998Y-114403333D02*
X180111474Y-114403333D01*
X180111474Y-114403333D02*
X180187664Y-114436667D01*
X180187664Y-114436667D02*
X180225760Y-114470000D01*
X180225760Y-114470000D02*
X180263855Y-114536667D01*
X180263855Y-114536667D02*
X180263855Y-114703333D01*
X180263855Y-114703333D02*
X180225760Y-114770000D01*
X180225760Y-114770000D02*
X180187664Y-114803333D01*
X186263855Y-98950000D02*
X185882902Y-99183333D01*
X186263855Y-99350000D02*
X185463855Y-99350000D01*
X185463855Y-99350000D02*
X185463855Y-99083333D01*
X185463855Y-99083333D02*
X185501950Y-99016667D01*
X185501950Y-99016667D02*
X185540045Y-98983333D01*
X185540045Y-98983333D02*
X185616236Y-98950000D01*
X185616236Y-98950000D02*
X185730521Y-98950000D01*
X185730521Y-98950000D02*
X185806712Y-98983333D01*
X185806712Y-98983333D02*
X185844807Y-99016667D01*
X185844807Y-99016667D02*
X185882902Y-99083333D01*
X185882902Y-99083333D02*
X185882902Y-99350000D01*
X186263855Y-98283333D02*
X186263855Y-98683333D01*
X186263855Y-98483333D02*
X185463855Y-98483333D01*
X185463855Y-98483333D02*
X185578140Y-98550000D01*
X185578140Y-98550000D02*
X185654331Y-98616667D01*
X185654331Y-98616667D02*
X185692426Y-98683333D01*
X185463855Y-97650000D02*
X185463855Y-97983333D01*
X185463855Y-97983333D02*
X185844807Y-98016666D01*
X185844807Y-98016666D02*
X185806712Y-97983333D01*
X185806712Y-97983333D02*
X185768617Y-97916666D01*
X185768617Y-97916666D02*
X185768617Y-97750000D01*
X185768617Y-97750000D02*
X185806712Y-97683333D01*
X185806712Y-97683333D02*
X185844807Y-97650000D01*
X185844807Y-97650000D02*
X185920998Y-97616666D01*
X185920998Y-97616666D02*
X186111474Y-97616666D01*
X186111474Y-97616666D02*
X186187664Y-97650000D01*
X186187664Y-97650000D02*
X186225760Y-97683333D01*
X186225760Y-97683333D02*
X186263855Y-97750000D01*
X186263855Y-97750000D02*
X186263855Y-97916666D01*
X186263855Y-97916666D02*
X186225760Y-97983333D01*
X186225760Y-97983333D02*
X186187664Y-98016666D01*
X170440045Y-115036666D02*
X170401950Y-115103333D01*
X170401950Y-115103333D02*
X170325760Y-115170000D01*
X170325760Y-115170000D02*
X170211474Y-115270000D01*
X170211474Y-115270000D02*
X170173379Y-115336666D01*
X170173379Y-115336666D02*
X170173379Y-115403333D01*
X170363855Y-115370000D02*
X170325760Y-115436666D01*
X170325760Y-115436666D02*
X170249569Y-115503333D01*
X170249569Y-115503333D02*
X170097188Y-115536666D01*
X170097188Y-115536666D02*
X169830521Y-115536666D01*
X169830521Y-115536666D02*
X169678140Y-115503333D01*
X169678140Y-115503333D02*
X169601950Y-115436666D01*
X169601950Y-115436666D02*
X169563855Y-115370000D01*
X169563855Y-115370000D02*
X169563855Y-115236666D01*
X169563855Y-115236666D02*
X169601950Y-115170000D01*
X169601950Y-115170000D02*
X169678140Y-115103333D01*
X169678140Y-115103333D02*
X169830521Y-115070000D01*
X169830521Y-115070000D02*
X170097188Y-115070000D01*
X170097188Y-115070000D02*
X170249569Y-115103333D01*
X170249569Y-115103333D02*
X170325760Y-115170000D01*
X170325760Y-115170000D02*
X170363855Y-115236666D01*
X170363855Y-115236666D02*
X170363855Y-115370000D01*
X169830521Y-114470000D02*
X170363855Y-114470000D01*
X169525760Y-114636667D02*
X170097188Y-114803333D01*
X170097188Y-114803333D02*
X170097188Y-114370000D01*
D10*
X117511905Y-115204819D02*
X117511905Y-114204819D01*
X117511905Y-114204819D02*
X117750000Y-114204819D01*
X117750000Y-114204819D02*
X117892857Y-114252438D01*
X117892857Y-114252438D02*
X117988095Y-114347676D01*
X117988095Y-114347676D02*
X118035714Y-114442914D01*
X118035714Y-114442914D02*
X118083333Y-114633390D01*
X118083333Y-114633390D02*
X118083333Y-114776247D01*
X118083333Y-114776247D02*
X118035714Y-114966723D01*
X118035714Y-114966723D02*
X117988095Y-115061961D01*
X117988095Y-115061961D02*
X117892857Y-115157200D01*
X117892857Y-115157200D02*
X117750000Y-115204819D01*
X117750000Y-115204819D02*
X117511905Y-115204819D01*
X118464286Y-114300057D02*
X118511905Y-114252438D01*
X118511905Y-114252438D02*
X118607143Y-114204819D01*
X118607143Y-114204819D02*
X118845238Y-114204819D01*
X118845238Y-114204819D02*
X118940476Y-114252438D01*
X118940476Y-114252438D02*
X118988095Y-114300057D01*
X118988095Y-114300057D02*
X119035714Y-114395295D01*
X119035714Y-114395295D02*
X119035714Y-114490533D01*
X119035714Y-114490533D02*
X118988095Y-114633390D01*
X118988095Y-114633390D02*
X118416667Y-115204819D01*
X118416667Y-115204819D02*
X119035714Y-115204819D01*
D11*
X159733333Y-108287664D02*
X159700000Y-108325760D01*
X159700000Y-108325760D02*
X159600000Y-108363855D01*
X159600000Y-108363855D02*
X159533333Y-108363855D01*
X159533333Y-108363855D02*
X159433333Y-108325760D01*
X159433333Y-108325760D02*
X159366667Y-108249569D01*
X159366667Y-108249569D02*
X159333333Y-108173379D01*
X159333333Y-108173379D02*
X159300000Y-108020998D01*
X159300000Y-108020998D02*
X159300000Y-107906712D01*
X159300000Y-107906712D02*
X159333333Y-107754331D01*
X159333333Y-107754331D02*
X159366667Y-107678140D01*
X159366667Y-107678140D02*
X159433333Y-107601950D01*
X159433333Y-107601950D02*
X159533333Y-107563855D01*
X159533333Y-107563855D02*
X159600000Y-107563855D01*
X159600000Y-107563855D02*
X159700000Y-107601950D01*
X159700000Y-107601950D02*
X159733333Y-107640045D01*
X160333333Y-107563855D02*
X160200000Y-107563855D01*
X160200000Y-107563855D02*
X160133333Y-107601950D01*
X160133333Y-107601950D02*
X160100000Y-107640045D01*
X160100000Y-107640045D02*
X160033333Y-107754331D01*
X160033333Y-107754331D02*
X160000000Y-107906712D01*
X160000000Y-107906712D02*
X160000000Y-108211474D01*
X160000000Y-108211474D02*
X160033333Y-108287664D01*
X160033333Y-108287664D02*
X160066667Y-108325760D01*
X160066667Y-108325760D02*
X160133333Y-108363855D01*
X160133333Y-108363855D02*
X160266667Y-108363855D01*
X160266667Y-108363855D02*
X160333333Y-108325760D01*
X160333333Y-108325760D02*
X160366667Y-108287664D01*
X160366667Y-108287664D02*
X160400000Y-108211474D01*
X160400000Y-108211474D02*
X160400000Y-108020998D01*
X160400000Y-108020998D02*
X160366667Y-107944807D01*
X160366667Y-107944807D02*
X160333333Y-107906712D01*
X160333333Y-107906712D02*
X160266667Y-107868617D01*
X160266667Y-107868617D02*
X160133333Y-107868617D01*
X160133333Y-107868617D02*
X160066667Y-107906712D01*
X160066667Y-107906712D02*
X160033333Y-107944807D01*
X160033333Y-107944807D02*
X160000000Y-108020998D01*
D10*
X163238095Y-88204819D02*
X163238095Y-89014342D01*
X163238095Y-89014342D02*
X163285714Y-89109580D01*
X163285714Y-89109580D02*
X163333333Y-89157200D01*
X163333333Y-89157200D02*
X163428571Y-89204819D01*
X163428571Y-89204819D02*
X163619047Y-89204819D01*
X163619047Y-89204819D02*
X163714285Y-89157200D01*
X163714285Y-89157200D02*
X163761904Y-89109580D01*
X163761904Y-89109580D02*
X163809523Y-89014342D01*
X163809523Y-89014342D02*
X163809523Y-88204819D01*
X164190476Y-88204819D02*
X164809523Y-88204819D01*
X164809523Y-88204819D02*
X164476190Y-88585771D01*
X164476190Y-88585771D02*
X164619047Y-88585771D01*
X164619047Y-88585771D02*
X164714285Y-88633390D01*
X164714285Y-88633390D02*
X164761904Y-88681009D01*
X164761904Y-88681009D02*
X164809523Y-88776247D01*
X164809523Y-88776247D02*
X164809523Y-89014342D01*
X164809523Y-89014342D02*
X164761904Y-89109580D01*
X164761904Y-89109580D02*
X164714285Y-89157200D01*
X164714285Y-89157200D02*
X164619047Y-89204819D01*
X164619047Y-89204819D02*
X164333333Y-89204819D01*
X164333333Y-89204819D02*
X164238095Y-89157200D01*
X164238095Y-89157200D02*
X164190476Y-89109580D01*
X199185714Y-105431009D02*
X199519047Y-105431009D01*
X199661904Y-105954819D02*
X199185714Y-105954819D01*
X199185714Y-105954819D02*
X199185714Y-104954819D01*
X199185714Y-104954819D02*
X199661904Y-104954819D01*
X200090476Y-105954819D02*
X200090476Y-104954819D01*
X200090476Y-104954819D02*
X200661904Y-105954819D01*
X200661904Y-105954819D02*
X200661904Y-104954819D01*
X201709523Y-105859580D02*
X201661904Y-105907200D01*
X201661904Y-105907200D02*
X201519047Y-105954819D01*
X201519047Y-105954819D02*
X201423809Y-105954819D01*
X201423809Y-105954819D02*
X201280952Y-105907200D01*
X201280952Y-105907200D02*
X201185714Y-105811961D01*
X201185714Y-105811961D02*
X201138095Y-105716723D01*
X201138095Y-105716723D02*
X201090476Y-105526247D01*
X201090476Y-105526247D02*
X201090476Y-105383390D01*
X201090476Y-105383390D02*
X201138095Y-105192914D01*
X201138095Y-105192914D02*
X201185714Y-105097676D01*
X201185714Y-105097676D02*
X201280952Y-105002438D01*
X201280952Y-105002438D02*
X201423809Y-104954819D01*
X201423809Y-104954819D02*
X201519047Y-104954819D01*
X201519047Y-104954819D02*
X201661904Y-105002438D01*
X201661904Y-105002438D02*
X201709523Y-105050057D01*
X202661904Y-105954819D02*
X202090476Y-105954819D01*
X202376190Y-105954819D02*
X202376190Y-104954819D01*
X202376190Y-104954819D02*
X202280952Y-105097676D01*
X202280952Y-105097676D02*
X202185714Y-105192914D01*
X202185714Y-105192914D02*
X202090476Y-105240533D01*
X189638095Y-112754819D02*
X189638095Y-113564342D01*
X189638095Y-113564342D02*
X189685714Y-113659580D01*
X189685714Y-113659580D02*
X189733333Y-113707200D01*
X189733333Y-113707200D02*
X189828571Y-113754819D01*
X189828571Y-113754819D02*
X190019047Y-113754819D01*
X190019047Y-113754819D02*
X190114285Y-113707200D01*
X190114285Y-113707200D02*
X190161904Y-113659580D01*
X190161904Y-113659580D02*
X190209523Y-113564342D01*
X190209523Y-113564342D02*
X190209523Y-112754819D01*
X191209523Y-113754819D02*
X190638095Y-113754819D01*
X190923809Y-113754819D02*
X190923809Y-112754819D01*
X190923809Y-112754819D02*
X190828571Y-112897676D01*
X190828571Y-112897676D02*
X190733333Y-112992914D01*
X190733333Y-112992914D02*
X190638095Y-113040533D01*
X188264819Y-109312857D02*
X187788628Y-109646190D01*
X188264819Y-109884285D02*
X187264819Y-109884285D01*
X187264819Y-109884285D02*
X187264819Y-109503333D01*
X187264819Y-109503333D02*
X187312438Y-109408095D01*
X187312438Y-109408095D02*
X187360057Y-109360476D01*
X187360057Y-109360476D02*
X187455295Y-109312857D01*
X187455295Y-109312857D02*
X187598152Y-109312857D01*
X187598152Y-109312857D02*
X187693390Y-109360476D01*
X187693390Y-109360476D02*
X187741009Y-109408095D01*
X187741009Y-109408095D02*
X187788628Y-109503333D01*
X187788628Y-109503333D02*
X187788628Y-109884285D01*
X188264819Y-108360476D02*
X188264819Y-108931904D01*
X188264819Y-108646190D02*
X187264819Y-108646190D01*
X187264819Y-108646190D02*
X187407676Y-108741428D01*
X187407676Y-108741428D02*
X187502914Y-108836666D01*
X187502914Y-108836666D02*
X187550533Y-108931904D01*
X188264819Y-107408095D02*
X188264819Y-107979523D01*
X188264819Y-107693809D02*
X187264819Y-107693809D01*
X187264819Y-107693809D02*
X187407676Y-107789047D01*
X187407676Y-107789047D02*
X187502914Y-107884285D01*
X187502914Y-107884285D02*
X187550533Y-107979523D01*
X155061905Y-115154819D02*
X155061905Y-114154819D01*
X155061905Y-114154819D02*
X155300000Y-114154819D01*
X155300000Y-114154819D02*
X155442857Y-114202438D01*
X155442857Y-114202438D02*
X155538095Y-114297676D01*
X155538095Y-114297676D02*
X155585714Y-114392914D01*
X155585714Y-114392914D02*
X155633333Y-114583390D01*
X155633333Y-114583390D02*
X155633333Y-114726247D01*
X155633333Y-114726247D02*
X155585714Y-114916723D01*
X155585714Y-114916723D02*
X155538095Y-115011961D01*
X155538095Y-115011961D02*
X155442857Y-115107200D01*
X155442857Y-115107200D02*
X155300000Y-115154819D01*
X155300000Y-115154819D02*
X155061905Y-115154819D01*
X156490476Y-114488152D02*
X156490476Y-115154819D01*
X156252381Y-114107200D02*
X156014286Y-114821485D01*
X156014286Y-114821485D02*
X156633333Y-114821485D01*
D11*
X175363855Y-115420000D02*
X174982902Y-115653333D01*
X175363855Y-115820000D02*
X174563855Y-115820000D01*
X174563855Y-115820000D02*
X174563855Y-115553333D01*
X174563855Y-115553333D02*
X174601950Y-115486667D01*
X174601950Y-115486667D02*
X174640045Y-115453333D01*
X174640045Y-115453333D02*
X174716236Y-115420000D01*
X174716236Y-115420000D02*
X174830521Y-115420000D01*
X174830521Y-115420000D02*
X174906712Y-115453333D01*
X174906712Y-115453333D02*
X174944807Y-115486667D01*
X174944807Y-115486667D02*
X174982902Y-115553333D01*
X174982902Y-115553333D02*
X174982902Y-115820000D01*
X175363855Y-114753333D02*
X175363855Y-115153333D01*
X175363855Y-114953333D02*
X174563855Y-114953333D01*
X174563855Y-114953333D02*
X174678140Y-115020000D01*
X174678140Y-115020000D02*
X174754331Y-115086667D01*
X174754331Y-115086667D02*
X174792426Y-115153333D01*
X174563855Y-114520000D02*
X174563855Y-114053333D01*
X174563855Y-114053333D02*
X175363855Y-114353333D01*
X161183333Y-113087664D02*
X161150000Y-113125760D01*
X161150000Y-113125760D02*
X161050000Y-113163855D01*
X161050000Y-113163855D02*
X160983333Y-113163855D01*
X160983333Y-113163855D02*
X160883333Y-113125760D01*
X160883333Y-113125760D02*
X160816667Y-113049569D01*
X160816667Y-113049569D02*
X160783333Y-112973379D01*
X160783333Y-112973379D02*
X160750000Y-112820998D01*
X160750000Y-112820998D02*
X160750000Y-112706712D01*
X160750000Y-112706712D02*
X160783333Y-112554331D01*
X160783333Y-112554331D02*
X160816667Y-112478140D01*
X160816667Y-112478140D02*
X160883333Y-112401950D01*
X160883333Y-112401950D02*
X160983333Y-112363855D01*
X160983333Y-112363855D02*
X161050000Y-112363855D01*
X161050000Y-112363855D02*
X161150000Y-112401950D01*
X161150000Y-112401950D02*
X161183333Y-112440045D01*
X161783333Y-112630521D02*
X161783333Y-113163855D01*
X161616667Y-112325760D02*
X161450000Y-112897188D01*
X161450000Y-112897188D02*
X161883333Y-112897188D01*
X158750000Y-83850000D02*
X158750000Y-90250000D01*
X158750000Y-90250000D02*
X159950000Y-90250000D01*
X159950000Y-83850000D02*
X158750000Y-83850000D01*
X161550000Y-90250000D02*
X162750000Y-90250000D01*
X162750000Y-83850000D02*
X161550000Y-83850000D01*
X162750000Y-90250000D02*
X162750000Y-83850000D01*
X171727064Y-107415000D02*
X171272936Y-107415000D01*
X171727064Y-108885000D02*
X171272936Y-108885000D01*
X154695000Y-96950000D02*
X154695000Y-99635000D01*
X156615000Y-96950000D02*
X154695000Y-96950000D01*
X156615000Y-99635000D02*
X156615000Y-96950000D01*
X178827064Y-107415000D02*
X178372936Y-107415000D01*
X178827064Y-108885000D02*
X178372936Y-108885000D01*
X196665000Y-87677064D02*
X196665000Y-87222936D01*
X198135000Y-87677064D02*
X198135000Y-87222936D01*
X160377064Y-93765000D02*
X159922936Y-93765000D01*
X160377064Y-95235000D02*
X159922936Y-95235000D01*
X183565000Y-103172936D02*
X183565000Y-103627064D01*
X185035000Y-103172936D02*
X185035000Y-103627064D01*
X195740000Y-116904437D02*
X195740000Y-120360000D01*
X195740000Y-120360000D02*
X196940000Y-120360000D01*
X196804437Y-115840000D02*
X195740000Y-116904437D01*
X196804437Y-115840000D02*
X196940000Y-115840000D01*
X199195563Y-115840000D02*
X199060000Y-115840000D01*
X199195563Y-115840000D02*
X200260000Y-116904437D01*
X199560000Y-115100000D02*
X199560000Y-115600000D01*
X199810000Y-115350000D02*
X199310000Y-115350000D01*
X200260000Y-116904437D02*
X200260000Y-120360000D01*
X200260000Y-120360000D02*
X199060000Y-120360000D01*
X185925000Y-92122936D02*
X185925000Y-92577064D01*
X187395000Y-92122936D02*
X187395000Y-92577064D01*
D10*
X117000000Y-90757685D02*
X117000000Y-105667315D01*
X117000000Y-96712500D02*
X119500000Y-96712500D01*
X117000000Y-110757685D02*
X117000000Y-120462500D01*
X119050000Y-85712500D02*
X154950000Y-85712500D01*
X119050000Y-109712500D02*
X119500000Y-109712500D01*
X119500000Y-96712500D02*
X119500000Y-100712500D01*
X119500000Y-100712500D02*
X117000000Y-100712500D01*
X119500000Y-109712500D02*
X119500000Y-113712500D01*
X119500000Y-113712500D02*
X117000000Y-113712500D01*
X154500000Y-96712500D02*
X154500000Y-100712500D01*
X154500000Y-100712500D02*
X157000000Y-100712500D01*
X154500000Y-109712500D02*
X154500000Y-113712500D01*
X154500000Y-113712500D02*
X157000000Y-113712500D01*
X154950000Y-109712500D02*
X154500000Y-109712500D01*
X157000000Y-90757685D02*
X157000000Y-105667315D01*
X157000000Y-96712500D02*
X154500000Y-96712500D01*
X157000000Y-110757685D02*
X157000000Y-120462500D01*
X157000000Y-120462500D02*
X117000000Y-120462500D01*
D11*
X190390000Y-116904437D02*
X190390000Y-120360000D01*
X190390000Y-120360000D02*
X191590000Y-120360000D01*
X191454437Y-115840000D02*
X190390000Y-116904437D01*
X191454437Y-115840000D02*
X191590000Y-115840000D01*
X193845563Y-115840000D02*
X193710000Y-115840000D01*
X193845563Y-115840000D02*
X194910000Y-116904437D01*
X194210000Y-115100000D02*
X194210000Y-115600000D01*
X194460000Y-115350000D02*
X193960000Y-115350000D01*
X194910000Y-116904437D02*
X194910000Y-120360000D01*
X194910000Y-120360000D02*
X193710000Y-120360000D01*
X182327064Y-107415000D02*
X181872936Y-107415000D01*
X182327064Y-108885000D02*
X181872936Y-108885000D01*
X117315000Y-96990000D02*
X117315000Y-99675000D01*
X119235000Y-96990000D02*
X117315000Y-96990000D01*
X119235000Y-99675000D02*
X119235000Y-96990000D01*
D12*
X176950000Y-110225000D02*
X177300000Y-110225000D01*
X176950000Y-110700000D02*
X176950000Y-110225000D01*
X176950000Y-111875000D02*
X176950000Y-111425000D01*
X177175000Y-111875000D02*
X177300000Y-111875000D01*
X177250000Y-111875000D02*
X176950000Y-111875000D01*
X179925000Y-110225000D02*
X179925000Y-109450000D01*
X179975000Y-110225000D02*
X179925000Y-110225000D01*
X180250000Y-110600000D02*
X179975000Y-110225000D01*
X180250000Y-110875000D02*
X180250000Y-110600000D01*
X180250000Y-111500000D02*
X180250000Y-111875000D01*
X180250000Y-111875000D02*
X179950000Y-111875000D01*
D11*
X183565000Y-98727064D02*
X183565000Y-98272936D01*
X185035000Y-98727064D02*
X185035000Y-98272936D01*
D12*
X169850000Y-110225000D02*
X170200000Y-110225000D01*
X169850000Y-110700000D02*
X169850000Y-110225000D01*
X169850000Y-111875000D02*
X169850000Y-111425000D01*
X170075000Y-111875000D02*
X170200000Y-111875000D01*
X170150000Y-111875000D02*
X169850000Y-111875000D01*
X172825000Y-110225000D02*
X172825000Y-109450000D01*
X172875000Y-110225000D02*
X172825000Y-110225000D01*
X173150000Y-110600000D02*
X172875000Y-110225000D01*
X173150000Y-110875000D02*
X173150000Y-110600000D01*
X173150000Y-111500000D02*
X173150000Y-111875000D01*
X173150000Y-111875000D02*
X172850000Y-111875000D01*
D11*
X117295000Y-110757685D02*
X117295000Y-112770000D01*
X119215000Y-110085000D02*
X119050000Y-110085000D01*
X119215000Y-112770000D02*
X119215000Y-110085000D01*
X162138748Y-107265000D02*
X162661252Y-107265000D01*
X162138748Y-108735000D02*
X162661252Y-108735000D01*
X165180000Y-89500000D02*
X164570000Y-89500000D01*
X165180000Y-89500000D02*
X165180000Y-82350000D01*
X165180000Y-106120000D02*
X165180000Y-105500000D01*
X167300000Y-106120000D02*
X165180000Y-106120000D01*
X181420000Y-82350000D02*
X181420000Y-89500000D01*
X181420000Y-105500000D02*
X181420000Y-106120000D01*
X181420000Y-106120000D02*
X179300000Y-106120000D01*
X189000000Y-96350000D02*
X189000000Y-92250000D01*
X189000000Y-104450000D02*
X189000000Y-100350000D01*
X191400000Y-104450000D02*
X189000000Y-104450000D01*
X194900000Y-97850000D02*
X194900000Y-98850000D01*
X195400000Y-98350000D02*
X194400000Y-98350000D01*
X196200000Y-104450000D02*
X193600000Y-104450000D01*
X198700000Y-90850000D02*
X199000000Y-90550000D01*
X199000000Y-90550000D02*
X199000000Y-91150000D01*
X199000000Y-91150000D02*
X198700000Y-90850000D01*
X200800000Y-92250000D02*
X189000000Y-92250000D01*
X200800000Y-96350000D02*
X200800000Y-92250000D01*
X200800000Y-100350000D02*
X200800000Y-104450000D01*
X200800000Y-104450000D02*
X198400000Y-104450000D01*
X197900000Y-98350000D02*
G75*
G02*
X191900000Y-98350000I-3000000J0D01*
G01*
X191900000Y-98350000D02*
G75*
G02*
X197900000Y-98350000I3000000J0D01*
G01*
X191900000Y-107490000D02*
X197910000Y-107490000D01*
X194150000Y-114310000D02*
X197910000Y-114310000D01*
X197910000Y-107490000D02*
X197910000Y-108750000D01*
X197910000Y-114310000D02*
X197910000Y-113050000D01*
X189015000Y-108472936D02*
X189015000Y-108927064D01*
X190485000Y-108472936D02*
X190485000Y-108927064D01*
X154695000Y-110082500D02*
X154695000Y-112767500D01*
X154950000Y-110082500D02*
X154695000Y-110082500D01*
X156615000Y-112767500D02*
X156615000Y-110757685D01*
X175227064Y-107415000D02*
X174772936Y-107415000D01*
X175227064Y-108885000D02*
X174772936Y-108885000D01*
X160588748Y-110090000D02*
X162011252Y-110090000D01*
X160588748Y-111910000D02*
X162011252Y-111910000D01*
%LPC*%
D13*
X116750000Y-86962500D02*
X116750000Y-89462500D01*
X116750000Y-106962500D02*
X116750000Y-109462500D01*
X157250000Y-86962500D02*
X157250000Y-89462500D01*
X157250000Y-106962500D02*
X157250000Y-109462500D01*
D14*
X160750000Y-83175000D03*
X160750000Y-90925000D03*
D15*
X172412500Y-108150000D03*
X170587500Y-108150000D03*
D16*
X155655000Y-97697500D03*
X155655000Y-99572500D03*
D15*
X179512500Y-108150000D03*
X177687500Y-108150000D03*
D17*
X197400000Y-88362500D03*
X197400000Y-86537500D03*
D18*
X203000000Y-85000000D03*
D15*
X161062500Y-94500000D03*
X159237500Y-94500000D03*
D19*
X184300000Y-102487500D03*
X184300000Y-104312500D03*
D20*
X198000000Y-116300000D03*
X198000000Y-119900000D03*
D18*
X203000000Y-119000000D03*
X114000000Y-85000000D03*
D19*
X186660000Y-91437500D03*
X186660000Y-93262500D03*
D21*
X133000000Y-88212500D03*
X134000000Y-88212500D03*
X135000000Y-88212500D03*
X136000000Y-88212500D03*
X137000000Y-88212500D03*
X138000000Y-88212500D03*
X139000000Y-88212500D03*
X140000000Y-88212500D03*
X141000000Y-88212500D03*
D20*
X192650000Y-116300000D03*
X192650000Y-119900000D03*
D15*
X183012500Y-108150000D03*
X181187500Y-108150000D03*
D16*
X118275000Y-97737500D03*
X118275000Y-99612500D03*
D22*
X179550000Y-110000000D03*
X177650000Y-110000000D03*
X178600000Y-112100000D03*
D17*
X184300000Y-99412500D03*
X184300000Y-97587500D03*
D22*
X172450000Y-110000000D03*
X170550000Y-110000000D03*
X171500000Y-112100000D03*
D16*
X118255000Y-110832500D03*
X118255000Y-112707500D03*
D18*
X114000000Y-119000000D03*
D23*
X161450000Y-108000000D03*
X163350000Y-108000000D03*
D24*
X165700000Y-90500000D03*
X165700000Y-92500000D03*
X165700000Y-94500000D03*
X165700000Y-96500000D03*
X165700000Y-98500000D03*
X165700000Y-100500000D03*
X165700000Y-102500000D03*
X165700000Y-104500000D03*
D25*
X168300000Y-106000000D03*
X170300000Y-106000000D03*
X172300000Y-106000000D03*
X174300000Y-106000000D03*
X176300000Y-106000000D03*
X178300000Y-106000000D03*
D24*
X180900000Y-104500000D03*
X180900000Y-102500000D03*
X180900000Y-100500000D03*
X180900000Y-98500000D03*
X180900000Y-96500000D03*
X180900000Y-94500000D03*
X180900000Y-92500000D03*
X180900000Y-90500000D03*
D26*
X197400000Y-90850000D03*
D27*
X192400000Y-90850000D03*
X194900000Y-90850000D03*
D28*
X200500000Y-98350000D03*
X189300000Y-98350000D03*
D27*
X192400000Y-105350000D03*
X197400000Y-105350000D03*
D29*
X192850000Y-108600000D03*
X192850000Y-110900000D03*
D30*
X199150000Y-110900000D03*
D29*
X192850000Y-113200000D03*
D19*
X189750000Y-107787500D03*
X189750000Y-109612500D03*
D16*
X155655000Y-110830000D03*
X155655000Y-112705000D03*
D15*
X175912500Y-108150000D03*
X174087500Y-108150000D03*
D31*
X159825000Y-111000000D03*
X162775000Y-111000000D03*
D32*
X183125000Y-114972500D03*
D33*
X178125000Y-114972500D03*
X173125000Y-114972500D03*
X168125000Y-114972500D03*
X163125000Y-114972500D03*
%LPD*%
M02*
