M48
; DRILL file KiCad 10.0.4 date 2026-09-30T00:09:03
; FORMAT={-:-/ absolute / metric / decimal}
; #@! TF.CreationDate,2026-09-30T00:09:03-04:00
; #@! TF.GenerationSoftware,Kicad,Pcbnew,10.0.4
; #@! TF.FileFunction,Plated,1,2,PTH
FMAT,2
METRIC
; #@! TA.AperFunction,Plated,PTH,ViaDrill
T1C0.400
; #@! TA.AperFunction,Plated,PTH,ComponentDrill
T2C1.000
; #@! TA.AperFunction,Plated,PTH,ComponentDrill
T3C1.400
; #@! TA.AperFunction,Plated,PTH,ComponentDrill
T4C1.500
; #@! TA.AperFunction,Plated,PTH,ComponentDrill
T5C2.000
%
G90
G05
T1
X113.0Y-90.0
X113.0Y-96.0
X113.0Y-102.0
X113.0Y-108.0
X113.0Y-114.0
X118.275Y-100.78
X119.0Y-84.0
X119.0Y-96.0
X119.0Y-120.0
X119.277Y-113.729
X119.63Y-99.014
X123.478Y-109.882
X123.585Y-111.765
X125.0Y-84.0
X125.0Y-90.0
X125.0Y-96.0
X125.0Y-102.0
X125.0Y-108.0
X125.0Y-120.0
X131.0Y-84.0
X131.0Y-90.0
X131.0Y-120.0
X133.0Y-90.394
X134.185Y-115.308
X134.296Y-90.385
X137.0Y-96.0
X137.0Y-108.0
X137.0Y-120.0
X138.168Y-97.332
X138.939Y-101.518
X139.276Y-90.365
X139.345Y-84.5
X140.833Y-90.387
X141.258Y-86.042
X143.0Y-90.0
X143.0Y-120.0
X143.6Y-83.7
X144.267Y-108.578
X148.25Y-111.904
X149.0Y-84.0
X149.0Y-96.0
X149.0Y-108.0
X149.0Y-120.0
X150.997Y-98.6
X151.166Y-100.72
X151.908Y-103.476
X154.3Y-108.8
X154.4Y-99.9
X154.585Y-109.88
X155.0Y-84.0
X155.0Y-96.0
X157.491Y-112.705
X157.975Y-94.5
X161.0Y-114.0
X161.0Y-120.0
X161.927Y-83.175
X163.394Y-90.5
X165.934Y-109.615
X167.0Y-120.0
X168.52Y-97.694
X168.796Y-99.623
X170.549Y-102.549
X170.594Y-100.5
X173.0Y-120.0
X173.621Y-109.894
X176.052Y-98.5
X176.593Y-104.319
X177.069Y-90.798
X178.172Y-97.681
X178.984Y-92.5
X179.0Y-120.0
X182.815Y-94.689
X184.026Y-109.164
X184.179Y-92.813
X185.0Y-84.0
X185.0Y-114.0
X185.0Y-120.0
X188.612Y-94.311
X190.179Y-92.813
X191.0Y-84.0
X191.141Y-113.2
X194.87Y-98.416
X196.179Y-98.813
X197.0Y-84.0
X197.0Y-114.0
X198.755Y-86.537
X199.15Y-113.858
X203.0Y-90.0
X203.0Y-96.0
X203.0Y-102.0
X203.0Y-108.0
X203.0Y-114.0
T2
X192.4Y-90.85
X192.4Y-105.35
X194.9Y-90.85
X197.4Y-90.85
X197.4Y-105.35
T3
X163.125Y-114.972
X168.125Y-114.972
X173.125Y-114.972
X178.125Y-114.972
X183.125Y-114.972
T5
X119.75Y-91.712
X154.25Y-118.212
T4
X189.3Y-97.7G85X189.3Y-99.0
G05
X200.5Y-97.7G85X200.5Y-99.0
G05
M30
